%TF.GenerationSoftware,KiCad,Pcbnew,(5.1.6)-1*%
%TF.CreationDate,2020-07-04T17:27:32+02:00*%
%TF.ProjectId,MP0002 Instrumentation Amplifier,4d503030-3032-4204-996e-737472756d65,1.0*%
%TF.SameCoordinates,Original*%
%TF.FileFunction,Soldermask,Top*%
%TF.FilePolarity,Negative*%
%FSLAX46Y46*%
G04 Gerber Fmt 4.6, Leading zero omitted, Abs format (unit mm)*
G04 Created by KiCad (PCBNEW (5.1.6)-1) date 2020-07-04 17:27:32*
%MOMM*%
%LPD*%
G01*
G04 APERTURE LIST*
%ADD10R,1.800000X1.800000*%
%ADD11O,1.800000X1.800000*%
%ADD12C,3.100000*%
%ADD13R,1.650000X0.700000*%
%ADD14R,1.700000X1.700000*%
%ADD15O,1.700000X1.700000*%
%ADD16R,0.500000X1.000000*%
%ADD17R,1.000000X0.500000*%
%ADD18C,0.100000*%
%ADD19R,2.098980X2.098980*%
%ADD20R,2.500000X1.700000*%
%ADD21O,2.500000X1.700000*%
%ADD22R,0.900000X0.850000*%
%ADD23R,0.850000X0.900000*%
G04 APERTURE END LIST*
D10*
%TO.C,J8*%
X119380000Y-142240000D03*
D11*
X119380000Y-144780000D03*
%TD*%
D10*
%TO.C,J7*%
X152400000Y-142240000D03*
D11*
X152400000Y-144780000D03*
%TD*%
D10*
%TO.C,J6*%
X139700000Y-76200000D03*
%TD*%
%TO.C,J5*%
X132080000Y-76200000D03*
%TD*%
%TO.C,J4*%
X144780000Y-152400000D03*
D11*
X142240000Y-152400000D03*
X139700000Y-152400000D03*
X137160000Y-152400000D03*
X134620000Y-152400000D03*
X132080000Y-152400000D03*
X129540000Y-152400000D03*
X127000000Y-152400000D03*
%TD*%
D10*
%TO.C,J3*%
X152400000Y-101600000D03*
D11*
X152400000Y-104140000D03*
X152400000Y-106680000D03*
X152400000Y-109220000D03*
%TD*%
D12*
%TO.C,TP6*%
X123190000Y-98425000D03*
%TD*%
%TO.C,TP5*%
X123190000Y-103505000D03*
%TD*%
%TO.C,TP4*%
X141224000Y-93218000D03*
%TD*%
%TO.C,TP3*%
X129032000Y-95885000D03*
%TD*%
%TO.C,TP2*%
X137160000Y-109220000D03*
%TD*%
%TO.C,TP1*%
X146050000Y-101600000D03*
%TD*%
D13*
%TO.C,U3*%
X125570000Y-106045000D03*
X125570000Y-107315000D03*
X125570000Y-108585000D03*
X125570000Y-109855000D03*
X130970000Y-109855000D03*
X130970000Y-108585000D03*
X130970000Y-107315000D03*
X130970000Y-106045000D03*
%TD*%
%TO.C,U4*%
X133190000Y-95885000D03*
X133190000Y-97155000D03*
X133190000Y-98425000D03*
X133190000Y-99695000D03*
X138590000Y-99695000D03*
X138590000Y-98425000D03*
X138590000Y-97155000D03*
X138590000Y-95885000D03*
%TD*%
%TO.C,U2*%
X140810000Y-106045000D03*
X140810000Y-107315000D03*
X140810000Y-108585000D03*
X140810000Y-109855000D03*
X146210000Y-109855000D03*
X146210000Y-108585000D03*
X146210000Y-107315000D03*
X146210000Y-106045000D03*
%TD*%
D14*
%TO.C,U1*%
X143510000Y-137160000D03*
D15*
X128270000Y-144780000D03*
X140970000Y-137160000D03*
X130810000Y-144780000D03*
X138430000Y-137160000D03*
X133350000Y-144780000D03*
X135890000Y-137160000D03*
X135890000Y-144780000D03*
X133350000Y-137160000D03*
X138430000Y-144780000D03*
X130810000Y-137160000D03*
X140970000Y-144780000D03*
X128270000Y-137160000D03*
X143510000Y-144780000D03*
%TD*%
D16*
%TO.C,RN2*%
X128670000Y-100750000D03*
X127870000Y-100750000D03*
X129470000Y-100750000D03*
X127070000Y-100750000D03*
X129470000Y-102450000D03*
X128670000Y-102450000D03*
X127870000Y-102450000D03*
X127070000Y-102450000D03*
%TD*%
D17*
%TO.C,RN1*%
X136740000Y-104540000D03*
X136740000Y-103740000D03*
X136740000Y-105340000D03*
X136740000Y-102940000D03*
X135040000Y-105340000D03*
X135040000Y-104540000D03*
X135040000Y-103740000D03*
X135040000Y-102940000D03*
%TD*%
D18*
%TO.C,R7*%
G36*
X123978200Y-121904900D02*
G01*
X123978200Y-119395100D01*
X127578320Y-119805274D01*
X127578320Y-121494726D01*
X123978200Y-121904900D01*
G37*
G36*
X132404320Y-119395100D02*
G01*
X132404320Y-121904900D01*
X128804200Y-121494726D01*
X128804200Y-119805274D01*
X132404320Y-119395100D01*
G37*
D19*
X123190000Y-120650000D03*
X133192520Y-120650000D03*
%TD*%
D18*
%TO.C,R6*%
G36*
X132404320Y-123205100D02*
G01*
X132404320Y-125714900D01*
X128804200Y-125304726D01*
X128804200Y-123615274D01*
X132404320Y-123205100D01*
G37*
G36*
X123978200Y-125714900D02*
G01*
X123978200Y-123205100D01*
X127578320Y-123615274D01*
X127578320Y-125304726D01*
X123978200Y-125714900D01*
G37*
D19*
X133192520Y-124460000D03*
X123190000Y-124460000D03*
%TD*%
D18*
%TO.C,R5*%
G36*
X137175100Y-122865680D02*
G01*
X139684900Y-122865680D01*
X139274726Y-126465800D01*
X137585274Y-126465800D01*
X137175100Y-122865680D01*
G37*
G36*
X139684900Y-131291800D02*
G01*
X137175100Y-131291800D01*
X137585274Y-127691680D01*
X139274726Y-127691680D01*
X139684900Y-131291800D01*
G37*
D19*
X138430000Y-122077480D03*
X138430000Y-132080000D03*
%TD*%
D18*
%TO.C,R4*%
G36*
X140103060Y-115585100D02*
G01*
X140103060Y-118094900D01*
X136502940Y-117684726D01*
X136502940Y-115995274D01*
X140103060Y-115585100D01*
G37*
G36*
X131676940Y-118094900D02*
G01*
X131676940Y-115585100D01*
X135277060Y-115995274D01*
X135277060Y-117684726D01*
X131676940Y-118094900D01*
G37*
D19*
X140891260Y-116840000D03*
X130888740Y-116840000D03*
%TD*%
D18*
%TO.C,R3*%
G36*
X142255100Y-122865680D02*
G01*
X144764900Y-122865680D01*
X144354726Y-126465800D01*
X142665274Y-126465800D01*
X142255100Y-122865680D01*
G37*
G36*
X144764900Y-131291800D02*
G01*
X142255100Y-131291800D01*
X142665274Y-127691680D01*
X144354726Y-127691680D01*
X144764900Y-131291800D01*
G37*
D19*
X143510000Y-122077480D03*
X143510000Y-132080000D03*
%TD*%
D18*
%TO.C,R2*%
G36*
X132404320Y-127015100D02*
G01*
X132404320Y-129524900D01*
X128804200Y-129114726D01*
X128804200Y-127425274D01*
X132404320Y-127015100D01*
G37*
G36*
X123978200Y-129524900D02*
G01*
X123978200Y-127015100D01*
X127578320Y-127425274D01*
X127578320Y-129114726D01*
X123978200Y-129524900D01*
G37*
D19*
X133192520Y-128270000D03*
X123190000Y-128270000D03*
%TD*%
D18*
%TO.C,R1*%
G36*
X132561800Y-130825100D02*
G01*
X132561800Y-133334900D01*
X128961680Y-132924726D01*
X128961680Y-131235274D01*
X132561800Y-130825100D01*
G37*
G36*
X124135680Y-133334900D02*
G01*
X124135680Y-130825100D01*
X127735800Y-131235274D01*
X127735800Y-132924726D01*
X124135680Y-133334900D01*
G37*
D19*
X133350000Y-132080000D03*
X123347480Y-132080000D03*
%TD*%
D20*
%TO.C,J2*%
X132080000Y-81280000D03*
D21*
X139700000Y-88900000D03*
X132080000Y-83820000D03*
X139700000Y-86360000D03*
X132080000Y-86360000D03*
X139700000Y-83820000D03*
X132080000Y-88900000D03*
X139700000Y-81280000D03*
%TD*%
D10*
%TO.C,J1*%
X119380000Y-101600000D03*
D11*
X119380000Y-104140000D03*
X119380000Y-106680000D03*
X119380000Y-109220000D03*
%TD*%
D22*
%TO.C,C4*%
X141974000Y-97155000D03*
X140474000Y-97155000D03*
%TD*%
D23*
%TO.C,C3*%
X133223000Y-105803000D03*
X133223000Y-107303000D03*
%TD*%
%TO.C,C2*%
X148209000Y-108700000D03*
X148209000Y-107200000D03*
%TD*%
D22*
%TO.C,C1*%
X137402000Y-134874000D03*
X135902000Y-134874000D03*
%TD*%
M02*
