%TF.GenerationSoftware,KiCad,Pcbnew,(5.1.6)-1*%
%TF.CreationDate,2020-07-04T17:27:32+02:00*%
%TF.ProjectId,MP0002 Instrumentation Amplifier,4d503030-3032-4204-996e-737472756d65,1.0*%
%TF.SameCoordinates,Original*%
%TF.FileFunction,Copper,L2,Bot*%
%TF.FilePolarity,Positive*%
%FSLAX46Y46*%
G04 Gerber Fmt 4.6, Leading zero omitted, Abs format (unit mm)*
G04 Created by KiCad (PCBNEW (5.1.6)-1) date 2020-07-04 17:27:32*
%MOMM*%
%LPD*%
G01*
G04 APERTURE LIST*
%TA.AperFunction,ComponentPad*%
%ADD10R,1.700000X1.700000*%
%TD*%
%TA.AperFunction,ComponentPad*%
%ADD11O,1.700000X1.700000*%
%TD*%
%TA.AperFunction,ComponentPad*%
%ADD12R,1.600000X1.600000*%
%TD*%
%TA.AperFunction,ComponentPad*%
%ADD13O,1.600000X1.600000*%
%TD*%
%TA.AperFunction,ComponentPad*%
%ADD14R,1.998980X1.998980*%
%TD*%
%TA.AperFunction,ComponentPad*%
%ADD15R,2.400000X1.600000*%
%TD*%
%TA.AperFunction,ComponentPad*%
%ADD16O,2.400000X1.600000*%
%TD*%
%TA.AperFunction,ViaPad*%
%ADD17C,0.800000*%
%TD*%
%TA.AperFunction,Conductor*%
%ADD18C,0.500000*%
%TD*%
%TA.AperFunction,Conductor*%
%ADD19C,0.250000*%
%TD*%
%TA.AperFunction,Conductor*%
%ADD20C,0.254000*%
%TD*%
G04 APERTURE END LIST*
D10*
%TO.P,J8,1*%
%TO.N,/Vs+*%
X119380000Y-142240000D03*
D11*
%TO.P,J8,2*%
%TO.N,/Vs-*%
X119380000Y-144780000D03*
%TD*%
D10*
%TO.P,J7,1*%
%TO.N,/In*%
X152400000Y-142240000D03*
D11*
%TO.P,J7,2*%
%TO.N,/Out*%
X152400000Y-144780000D03*
%TD*%
D10*
%TO.P,J6,1*%
%TO.N,/Out*%
X139700000Y-76200000D03*
%TD*%
%TO.P,J5,1*%
%TO.N,/In*%
X132080000Y-76200000D03*
%TD*%
%TO.P,J4,1*%
%TO.N,/Vs+*%
X144780000Y-152400000D03*
D11*
%TO.P,J4,2*%
%TO.N,/Vs-*%
X142240000Y-152400000D03*
%TO.P,J4,3*%
%TO.N,/In-*%
X139700000Y-152400000D03*
%TO.P,J4,4*%
%TO.N,/In+*%
X137160000Y-152400000D03*
%TO.P,J4,5*%
%TO.N,/Ref*%
X134620000Y-152400000D03*
%TO.P,J4,6*%
%TO.N,/Output*%
X132080000Y-152400000D03*
%TO.P,J4,7*%
%TO.N,/In*%
X129540000Y-152400000D03*
%TO.P,J4,8*%
%TO.N,/Out*%
X127000000Y-152400000D03*
%TD*%
D10*
%TO.P,J3,1*%
%TO.N,/Rg_P*%
X152400000Y-101600000D03*
D11*
%TO.P,J3,2*%
%TO.N,/Vs+*%
X152400000Y-104140000D03*
%TO.P,J3,3*%
%TO.N,/Output*%
X152400000Y-106680000D03*
%TO.P,J3,4*%
%TO.N,/Ref*%
X152400000Y-109220000D03*
%TD*%
D12*
%TO.P,U1,1*%
%TO.N,Net-(R1-Pad1)*%
X143510000Y-137160000D03*
D13*
%TO.P,U1,8*%
%TO.N,/Output*%
X128270000Y-144780000D03*
%TO.P,U1,2*%
%TO.N,/Rg_N*%
X140970000Y-137160000D03*
%TO.P,U1,9*%
%TO.N,Net-(R1-Pad2)*%
X130810000Y-144780000D03*
%TO.P,U1,3*%
%TO.N,/In-*%
X138430000Y-137160000D03*
%TO.P,U1,10*%
%TO.N,Net-(R6-Pad2)*%
X133350000Y-144780000D03*
%TO.P,U1,4*%
%TO.N,/Vs+*%
X135890000Y-137160000D03*
%TO.P,U1,11*%
%TO.N,/Vs-*%
X135890000Y-144780000D03*
%TO.P,U1,5*%
%TO.N,/In+*%
X133350000Y-137160000D03*
%TO.P,U1,12*%
%TO.N,/In*%
X138430000Y-144780000D03*
%TO.P,U1,6*%
%TO.N,/Rg_P*%
X130810000Y-137160000D03*
%TO.P,U1,13*%
%TO.N,/Out*%
X140970000Y-144780000D03*
%TO.P,U1,7*%
%TO.N,Net-(R5-Pad2)*%
X128270000Y-137160000D03*
%TO.P,U1,14*%
%TO.N,/Out*%
X143510000Y-144780000D03*
%TD*%
D14*
%TO.P,R7,1*%
%TO.N,Net-(R6-Pad2)*%
X123190000Y-120650000D03*
%TO.P,R7,2*%
%TO.N,/Ref*%
X133192520Y-120650000D03*
%TD*%
%TO.P,R6,1*%
%TO.N,Net-(R5-Pad2)*%
X133192520Y-124460000D03*
%TO.P,R6,2*%
%TO.N,Net-(R6-Pad2)*%
X123190000Y-124460000D03*
%TD*%
%TO.P,R5,1*%
%TO.N,/Rg_P*%
X138430000Y-122077480D03*
%TO.P,R5,2*%
%TO.N,Net-(R5-Pad2)*%
X138430000Y-132080000D03*
%TD*%
%TO.P,R4,1*%
%TO.N,/Rg_N*%
X140891260Y-116840000D03*
%TO.P,R4,2*%
%TO.N,/Rg_P*%
X130888740Y-116840000D03*
%TD*%
%TO.P,R3,1*%
%TO.N,/Rg_N*%
X143510000Y-122077480D03*
%TO.P,R3,2*%
%TO.N,Net-(R1-Pad1)*%
X143510000Y-132080000D03*
%TD*%
%TO.P,R2,1*%
%TO.N,Net-(R1-Pad2)*%
X133192520Y-128270000D03*
%TO.P,R2,2*%
%TO.N,/Output*%
X123190000Y-128270000D03*
%TD*%
%TO.P,R1,1*%
%TO.N,Net-(R1-Pad1)*%
X133350000Y-132080000D03*
%TO.P,R1,2*%
%TO.N,Net-(R1-Pad2)*%
X123347480Y-132080000D03*
%TD*%
D15*
%TO.P,J2,1*%
%TO.N,/Rg_N*%
X132080000Y-81280000D03*
D16*
%TO.P,J2,5*%
%TO.N,/Ref*%
X139700000Y-88900000D03*
%TO.P,J2,2*%
%TO.N,/In-*%
X132080000Y-83820000D03*
%TO.P,J2,6*%
%TO.N,/Output*%
X139700000Y-86360000D03*
%TO.P,J2,3*%
%TO.N,/In+*%
X132080000Y-86360000D03*
%TO.P,J2,7*%
%TO.N,/Vs+*%
X139700000Y-83820000D03*
%TO.P,J2,4*%
%TO.N,/Vs-*%
X132080000Y-88900000D03*
%TO.P,J2,8*%
%TO.N,/Rg_P*%
X139700000Y-81280000D03*
%TD*%
D10*
%TO.P,J1,1*%
%TO.N,/Rg_N*%
X119380000Y-101600000D03*
D11*
%TO.P,J1,2*%
%TO.N,/In-*%
X119380000Y-104140000D03*
%TO.P,J1,3*%
%TO.N,/In+*%
X119380000Y-106680000D03*
%TO.P,J1,4*%
%TO.N,/Vs-*%
X119380000Y-109220000D03*
%TD*%
D17*
%TO.N,/Vs-*%
X133350000Y-104648000D03*
X143256000Y-97028000D03*
X133350000Y-101092000D03*
X148184001Y-110109000D03*
X130810000Y-102108000D03*
X138938000Y-134874000D03*
X138430000Y-114046000D03*
X135890000Y-92964000D03*
X132080000Y-113284000D03*
X122825000Y-109855000D03*
X124460000Y-138430000D03*
X125984000Y-134874000D03*
%TO.N,/Vs+*%
X147320000Y-104140000D03*
X147320000Y-99060000D03*
X141732000Y-98806000D03*
X151384000Y-132080000D03*
X146812000Y-132080000D03*
X140970000Y-134874000D03*
X134620000Y-106680000D03*
X134112000Y-109728000D03*
X128524000Y-114554000D03*
X124968000Y-114554000D03*
X148336000Y-139446000D03*
X150876000Y-137668000D03*
X145288000Y-139700000D03*
X139954000Y-141224000D03*
X135890000Y-141224000D03*
%TO.N,/Rg_N*%
X136271000Y-101346000D03*
X138811000Y-107061000D03*
X130683000Y-100711000D03*
%TO.N,/In-*%
X142494000Y-108712000D03*
X142240000Y-112014000D03*
X146050000Y-112014000D03*
%TO.N,/In+*%
X128270000Y-139446000D03*
%TO.N,/Ref*%
X138684000Y-102108000D03*
X135382000Y-128270000D03*
X135382000Y-123698000D03*
%TO.N,/Output*%
X141478000Y-103124000D03*
X151384000Y-113030000D03*
X130810000Y-126492000D03*
%TO.N,/Rg_P*%
X128651000Y-99441000D03*
%TO.N,/In*%
X130810000Y-147066000D03*
%TO.N,/Out*%
X131499999Y-148082000D03*
%TO.N,Net-(R1-Pad1)*%
X130805347Y-138679347D03*
X132080000Y-134620000D03*
%TO.N,Net-(RN1-Pad1)*%
X138647653Y-104357653D03*
X130810000Y-103505000D03*
%TO.N,Net-(TP6-Pad1)*%
X130810000Y-104775000D03*
X125730000Y-100330000D03*
%TD*%
D18*
%TO.N,/Vs-*%
X133350000Y-101092000D02*
X133350000Y-104648000D01*
%TO.N,/Vs+*%
X147320000Y-104140000D02*
X152400000Y-104140000D01*
X152400000Y-104140000D02*
X147320000Y-99060000D01*
X147320000Y-99060000D02*
X141986000Y-99060000D01*
X141986000Y-99060000D02*
X141732000Y-98806000D01*
X151384000Y-132080000D02*
X146812000Y-132080000D01*
X144018000Y-134874000D02*
X146812000Y-132080000D01*
X140970000Y-134874000D02*
X144018000Y-134874000D01*
X134620000Y-106680000D02*
X134620000Y-109220000D01*
X134620000Y-109220000D02*
X134112000Y-109728000D01*
X128524000Y-114554000D02*
X124968000Y-114554000D01*
X150876000Y-137668000D02*
X148336000Y-139446000D01*
X148336000Y-139446000D02*
X145288000Y-139700000D01*
X139954000Y-141224000D02*
X135890000Y-141224000D01*
D19*
%TO.N,/Rg_N*%
X139372654Y-106499346D02*
X138811000Y-107061000D01*
X139372654Y-103881969D02*
X139372654Y-106499346D01*
X136271000Y-101346000D02*
X136836685Y-101346000D01*
X136836685Y-101346000D02*
X139372654Y-103881969D01*
X128651000Y-100711000D02*
X130683000Y-100711000D01*
X119380000Y-101600000D02*
X121375001Y-99604999D01*
X127544999Y-99604999D02*
X128651000Y-100711000D01*
X121375001Y-99604999D02*
X127544999Y-99604999D01*
%TO.N,/In-*%
X123952000Y-108712000D02*
X119380000Y-104140000D01*
X137668000Y-110744000D02*
X125984000Y-110744000D01*
X125984000Y-110744000D02*
X123952000Y-108712000D01*
X142494000Y-108712000D02*
X139700000Y-108712000D01*
X139700000Y-108712000D02*
X137668000Y-110744000D01*
X144018000Y-112014000D02*
X142240000Y-112014000D01*
X146050000Y-112014000D02*
X144018000Y-112014000D01*
%TO.N,/In+*%
X127704315Y-139446000D02*
X121412000Y-133153685D01*
X128270000Y-139446000D02*
X127704315Y-139446000D01*
X121412000Y-108712000D02*
X119380000Y-106680000D01*
X121412000Y-133153685D02*
X121412000Y-108712000D01*
%TO.N,/Ref*%
X145796000Y-109220000D02*
X152400000Y-109220000D01*
X138684000Y-102108000D02*
X144780000Y-108204000D01*
X144780000Y-108204000D02*
X145796000Y-109220000D01*
X135382000Y-128270000D02*
X135382000Y-123698000D01*
X133192520Y-119791480D02*
X133192520Y-120650000D01*
X144780000Y-108204000D02*
X140462000Y-112522000D01*
X133858000Y-114808000D02*
X133858000Y-119126000D01*
X140462000Y-112522000D02*
X136144000Y-112522000D01*
X136144000Y-112522000D02*
X133858000Y-114808000D01*
X133858000Y-119126000D02*
X133192520Y-119791480D01*
%TO.N,/Output*%
X152400000Y-106680000D02*
X145034000Y-106680000D01*
X145034000Y-106680000D02*
X141478000Y-103124000D01*
X128270000Y-144780000D02*
X128270000Y-146050000D01*
X132080000Y-149860000D02*
X132080000Y-152400000D01*
X128270000Y-146050000D02*
X132080000Y-149860000D01*
X137781498Y-120142000D02*
X144272000Y-120142000D01*
X130810000Y-126492000D02*
X133744502Y-126492000D01*
X144272000Y-120142000D02*
X151384000Y-113030000D01*
X134517011Y-123406487D02*
X137781498Y-120142000D01*
X134517011Y-125719491D02*
X134517011Y-123406487D01*
X133744502Y-126492000D02*
X134517011Y-125719491D01*
%TO.N,/Rg_P*%
X137795000Y-81280000D02*
X139700000Y-81280000D01*
X137414000Y-81661000D02*
X137795000Y-81280000D01*
X140970000Y-81280000D02*
X139700000Y-81280000D01*
X142240000Y-82550000D02*
X140970000Y-81280000D01*
X152400000Y-101600000D02*
X142240000Y-91440000D01*
X142240000Y-91440000D02*
X142240000Y-82550000D01*
X133605010Y-94486990D02*
X128651000Y-99441000D01*
X138430000Y-122077480D02*
X136144000Y-124363480D01*
X136144000Y-124363480D02*
X136144000Y-133350000D01*
X135494998Y-133350000D02*
X133970998Y-134874000D01*
X136144000Y-133350000D02*
X135494998Y-133350000D01*
X133096000Y-134874000D02*
X130810000Y-137160000D01*
X133970998Y-134874000D02*
X133096000Y-134874000D01*
X133605010Y-92962990D02*
X137414000Y-89154000D01*
X133605010Y-94486990D02*
X133605010Y-92962990D01*
X137414000Y-89154000D02*
X137414000Y-81661000D01*
%TO.N,/In*%
X138430000Y-144780000D02*
X136144000Y-147066000D01*
X136144000Y-147066000D02*
X130810000Y-147066000D01*
X138430000Y-144780000D02*
X139700000Y-143510000D01*
X151130000Y-143510000D02*
X152400000Y-142240000D01*
X139700000Y-143510000D02*
X151130000Y-143510000D01*
%TO.N,/Out*%
X140970000Y-144780000D02*
X142240000Y-144780000D01*
X142240000Y-144780000D02*
X143510000Y-144780000D01*
X140970000Y-144780000D02*
X137668000Y-148082000D01*
X137668000Y-148082000D02*
X131499999Y-148082000D01*
X152400000Y-144780000D02*
X143510000Y-144780000D01*
%TO.N,Net-(R1-Pad1)*%
X143510000Y-137160000D02*
X141990653Y-138679347D01*
X141990653Y-138679347D02*
X130805347Y-138679347D01*
X132080000Y-133350000D02*
X133350000Y-132080000D01*
X132080000Y-134620000D02*
X132080000Y-133350000D01*
%TO.N,Net-(R6-Pad2)*%
X129684999Y-141114999D02*
X133350000Y-144780000D01*
X124841000Y-135396002D02*
X124841000Y-126111000D01*
X128165997Y-138720999D02*
X124841000Y-135396002D01*
X128850997Y-138720999D02*
X128165997Y-138720999D01*
X129684999Y-139555001D02*
X128850997Y-138720999D01*
X129684999Y-139555001D02*
X129684999Y-141114999D01*
X123190000Y-124460000D02*
X124841000Y-126111000D01*
%TO.N,Net-(RN1-Pad1)*%
X132624999Y-101690001D02*
X130810000Y-103505000D01*
X132624999Y-100743999D02*
X132624999Y-101690001D01*
X133001999Y-100366999D02*
X132624999Y-100743999D01*
X133698001Y-100366999D02*
X133001999Y-100366999D01*
X135402003Y-102071001D02*
X133698001Y-100366999D01*
X136361001Y-102071001D02*
X135402003Y-102071001D01*
X138647653Y-104357653D02*
X136361001Y-102071001D01*
%TO.N,Net-(TP6-Pad1)*%
X130810000Y-104775000D02*
X126365000Y-100330000D01*
X126365000Y-100330000D02*
X125730000Y-100330000D01*
%TD*%
D20*
%TO.N,/Vs-*%
G36*
X144230001Y-88757581D02*
G01*
X144226808Y-88790000D01*
X144239551Y-88919382D01*
X144277290Y-89043792D01*
X144338575Y-89158450D01*
X144400386Y-89233766D01*
X144400387Y-89233767D01*
X144421053Y-89258948D01*
X144446232Y-89279612D01*
X154230000Y-99063381D01*
X154230001Y-155130000D01*
X117550000Y-155130000D01*
X117550000Y-145136890D01*
X117938524Y-145136890D01*
X117983175Y-145284099D01*
X118108359Y-145546920D01*
X118282412Y-145780269D01*
X118498645Y-145975178D01*
X118748748Y-146124157D01*
X119023109Y-146221481D01*
X119253000Y-146100814D01*
X119253000Y-144907000D01*
X119507000Y-144907000D01*
X119507000Y-146100814D01*
X119736891Y-146221481D01*
X120011252Y-146124157D01*
X120261355Y-145975178D01*
X120477588Y-145780269D01*
X120651641Y-145546920D01*
X120776825Y-145284099D01*
X120821476Y-145136890D01*
X120700155Y-144907000D01*
X119507000Y-144907000D01*
X119253000Y-144907000D01*
X118059845Y-144907000D01*
X117938524Y-145136890D01*
X117550000Y-145136890D01*
X117550000Y-141390000D01*
X117891928Y-141390000D01*
X117891928Y-143090000D01*
X117904188Y-143214482D01*
X117940498Y-143334180D01*
X117999463Y-143444494D01*
X118078815Y-143541185D01*
X118175506Y-143620537D01*
X118285820Y-143679502D01*
X118366466Y-143703966D01*
X118282412Y-143779731D01*
X118108359Y-144013080D01*
X117983175Y-144275901D01*
X117938524Y-144423110D01*
X118059845Y-144653000D01*
X119253000Y-144653000D01*
X119253000Y-144633000D01*
X119507000Y-144633000D01*
X119507000Y-144653000D01*
X120700155Y-144653000D01*
X120821476Y-144423110D01*
X120776825Y-144275901D01*
X120651641Y-144013080D01*
X120477588Y-143779731D01*
X120393534Y-143703966D01*
X120474180Y-143679502D01*
X120584494Y-143620537D01*
X120681185Y-143541185D01*
X120760537Y-143444494D01*
X120819502Y-143334180D01*
X120855812Y-143214482D01*
X120868072Y-143090000D01*
X120868072Y-141390000D01*
X120855812Y-141265518D01*
X120819502Y-141145820D01*
X120760537Y-141035506D01*
X120681185Y-140938815D01*
X120584494Y-140859463D01*
X120474180Y-140800498D01*
X120354482Y-140764188D01*
X120230000Y-140751928D01*
X118530000Y-140751928D01*
X118405518Y-140764188D01*
X118285820Y-140800498D01*
X118175506Y-140859463D01*
X118078815Y-140938815D01*
X117999463Y-141035506D01*
X117940498Y-141145820D01*
X117904188Y-141265518D01*
X117891928Y-141390000D01*
X117550000Y-141390000D01*
X117550000Y-109576890D01*
X117938524Y-109576890D01*
X117983175Y-109724099D01*
X118108359Y-109986920D01*
X118282412Y-110220269D01*
X118498645Y-110415178D01*
X118748748Y-110564157D01*
X119023109Y-110661481D01*
X119253000Y-110540814D01*
X119253000Y-109347000D01*
X118059845Y-109347000D01*
X117938524Y-109576890D01*
X117550000Y-109576890D01*
X117550000Y-100750000D01*
X117891928Y-100750000D01*
X117891928Y-102450000D01*
X117904188Y-102574482D01*
X117940498Y-102694180D01*
X117999463Y-102804494D01*
X118078815Y-102901185D01*
X118175506Y-102980537D01*
X118285820Y-103039502D01*
X118358380Y-103061513D01*
X118226525Y-103193368D01*
X118064010Y-103436589D01*
X117952068Y-103706842D01*
X117895000Y-103993740D01*
X117895000Y-104286260D01*
X117952068Y-104573158D01*
X118064010Y-104843411D01*
X118226525Y-105086632D01*
X118433368Y-105293475D01*
X118607760Y-105410000D01*
X118433368Y-105526525D01*
X118226525Y-105733368D01*
X118064010Y-105976589D01*
X117952068Y-106246842D01*
X117895000Y-106533740D01*
X117895000Y-106826260D01*
X117952068Y-107113158D01*
X118064010Y-107383411D01*
X118226525Y-107626632D01*
X118433368Y-107833475D01*
X118615534Y-107955195D01*
X118498645Y-108024822D01*
X118282412Y-108219731D01*
X118108359Y-108453080D01*
X117983175Y-108715901D01*
X117938524Y-108863110D01*
X118059845Y-109093000D01*
X119253000Y-109093000D01*
X119253000Y-109073000D01*
X119507000Y-109073000D01*
X119507000Y-109093000D01*
X119527000Y-109093000D01*
X119527000Y-109347000D01*
X119507000Y-109347000D01*
X119507000Y-110540814D01*
X119736891Y-110661481D01*
X120011252Y-110564157D01*
X120261355Y-110415178D01*
X120477588Y-110220269D01*
X120651641Y-109986920D01*
X120652001Y-109986164D01*
X120652000Y-133116363D01*
X120648324Y-133153685D01*
X120652000Y-133191007D01*
X120652000Y-133191017D01*
X120662997Y-133302670D01*
X120688679Y-133387333D01*
X120706454Y-133445931D01*
X120777026Y-133577961D01*
X120803342Y-133610027D01*
X120871999Y-133693686D01*
X120901003Y-133717489D01*
X127140516Y-139957003D01*
X127164314Y-139986001D01*
X127280039Y-140080974D01*
X127412068Y-140151546D01*
X127555276Y-140194987D01*
X127610226Y-140249937D01*
X127779744Y-140363205D01*
X127968102Y-140441226D01*
X128168061Y-140481000D01*
X128371939Y-140481000D01*
X128571898Y-140441226D01*
X128760256Y-140363205D01*
X128924999Y-140253127D01*
X128925000Y-141077667D01*
X128921323Y-141114999D01*
X128935997Y-141263984D01*
X128979453Y-141407245D01*
X129050025Y-141539275D01*
X129103987Y-141605027D01*
X129144999Y-141655000D01*
X129173997Y-141678798D01*
X130840199Y-143345000D01*
X130668665Y-143345000D01*
X130391426Y-143400147D01*
X130130273Y-143508320D01*
X129895241Y-143665363D01*
X129695363Y-143865241D01*
X129540000Y-144097759D01*
X129384637Y-143865241D01*
X129184759Y-143665363D01*
X128949727Y-143508320D01*
X128688574Y-143400147D01*
X128411335Y-143345000D01*
X128128665Y-143345000D01*
X127851426Y-143400147D01*
X127590273Y-143508320D01*
X127355241Y-143665363D01*
X127155363Y-143865241D01*
X126998320Y-144100273D01*
X126890147Y-144361426D01*
X126835000Y-144638665D01*
X126835000Y-144921335D01*
X126890147Y-145198574D01*
X126998320Y-145459727D01*
X127155363Y-145694759D01*
X127355241Y-145894637D01*
X127510001Y-145998044D01*
X127510001Y-146012668D01*
X127506324Y-146050000D01*
X127520998Y-146198985D01*
X127564454Y-146342246D01*
X127635026Y-146474276D01*
X127701274Y-146554998D01*
X127730000Y-146590001D01*
X127758998Y-146613799D01*
X131320000Y-150174802D01*
X131320000Y-151121821D01*
X131133368Y-151246525D01*
X130926525Y-151453368D01*
X130810000Y-151627760D01*
X130693475Y-151453368D01*
X130486632Y-151246525D01*
X130243411Y-151084010D01*
X129973158Y-150972068D01*
X129686260Y-150915000D01*
X129393740Y-150915000D01*
X129106842Y-150972068D01*
X128836589Y-151084010D01*
X128593368Y-151246525D01*
X128386525Y-151453368D01*
X128270000Y-151627760D01*
X128153475Y-151453368D01*
X127946632Y-151246525D01*
X127703411Y-151084010D01*
X127433158Y-150972068D01*
X127146260Y-150915000D01*
X126853740Y-150915000D01*
X126566842Y-150972068D01*
X126296589Y-151084010D01*
X126053368Y-151246525D01*
X125846525Y-151453368D01*
X125684010Y-151696589D01*
X125572068Y-151966842D01*
X125515000Y-152253740D01*
X125515000Y-152546260D01*
X125572068Y-152833158D01*
X125684010Y-153103411D01*
X125846525Y-153346632D01*
X126053368Y-153553475D01*
X126296589Y-153715990D01*
X126566842Y-153827932D01*
X126853740Y-153885000D01*
X127146260Y-153885000D01*
X127433158Y-153827932D01*
X127703411Y-153715990D01*
X127946632Y-153553475D01*
X128153475Y-153346632D01*
X128270000Y-153172240D01*
X128386525Y-153346632D01*
X128593368Y-153553475D01*
X128836589Y-153715990D01*
X129106842Y-153827932D01*
X129393740Y-153885000D01*
X129686260Y-153885000D01*
X129973158Y-153827932D01*
X130243411Y-153715990D01*
X130486632Y-153553475D01*
X130693475Y-153346632D01*
X130810000Y-153172240D01*
X130926525Y-153346632D01*
X131133368Y-153553475D01*
X131376589Y-153715990D01*
X131646842Y-153827932D01*
X131933740Y-153885000D01*
X132226260Y-153885000D01*
X132513158Y-153827932D01*
X132783411Y-153715990D01*
X133026632Y-153553475D01*
X133233475Y-153346632D01*
X133350000Y-153172240D01*
X133466525Y-153346632D01*
X133673368Y-153553475D01*
X133916589Y-153715990D01*
X134186842Y-153827932D01*
X134473740Y-153885000D01*
X134766260Y-153885000D01*
X135053158Y-153827932D01*
X135323411Y-153715990D01*
X135566632Y-153553475D01*
X135773475Y-153346632D01*
X135890000Y-153172240D01*
X136006525Y-153346632D01*
X136213368Y-153553475D01*
X136456589Y-153715990D01*
X136726842Y-153827932D01*
X137013740Y-153885000D01*
X137306260Y-153885000D01*
X137593158Y-153827932D01*
X137863411Y-153715990D01*
X138106632Y-153553475D01*
X138313475Y-153346632D01*
X138430000Y-153172240D01*
X138546525Y-153346632D01*
X138753368Y-153553475D01*
X138996589Y-153715990D01*
X139266842Y-153827932D01*
X139553740Y-153885000D01*
X139846260Y-153885000D01*
X140133158Y-153827932D01*
X140403411Y-153715990D01*
X140646632Y-153553475D01*
X140853475Y-153346632D01*
X140975195Y-153164466D01*
X141044822Y-153281355D01*
X141239731Y-153497588D01*
X141473080Y-153671641D01*
X141735901Y-153796825D01*
X141883110Y-153841476D01*
X142113000Y-153720155D01*
X142113000Y-152527000D01*
X142093000Y-152527000D01*
X142093000Y-152273000D01*
X142113000Y-152273000D01*
X142113000Y-151079845D01*
X142367000Y-151079845D01*
X142367000Y-152273000D01*
X142387000Y-152273000D01*
X142387000Y-152527000D01*
X142367000Y-152527000D01*
X142367000Y-153720155D01*
X142596890Y-153841476D01*
X142744099Y-153796825D01*
X143006920Y-153671641D01*
X143240269Y-153497588D01*
X143316034Y-153413534D01*
X143340498Y-153494180D01*
X143399463Y-153604494D01*
X143478815Y-153701185D01*
X143575506Y-153780537D01*
X143685820Y-153839502D01*
X143805518Y-153875812D01*
X143930000Y-153888072D01*
X145630000Y-153888072D01*
X145754482Y-153875812D01*
X145874180Y-153839502D01*
X145984494Y-153780537D01*
X146081185Y-153701185D01*
X146160537Y-153604494D01*
X146219502Y-153494180D01*
X146255812Y-153374482D01*
X146268072Y-153250000D01*
X146268072Y-151550000D01*
X146255812Y-151425518D01*
X146219502Y-151305820D01*
X146160537Y-151195506D01*
X146081185Y-151098815D01*
X145984494Y-151019463D01*
X145874180Y-150960498D01*
X145754482Y-150924188D01*
X145630000Y-150911928D01*
X143930000Y-150911928D01*
X143805518Y-150924188D01*
X143685820Y-150960498D01*
X143575506Y-151019463D01*
X143478815Y-151098815D01*
X143399463Y-151195506D01*
X143340498Y-151305820D01*
X143316034Y-151386466D01*
X143240269Y-151302412D01*
X143006920Y-151128359D01*
X142744099Y-151003175D01*
X142596890Y-150958524D01*
X142367000Y-151079845D01*
X142113000Y-151079845D01*
X141883110Y-150958524D01*
X141735901Y-151003175D01*
X141473080Y-151128359D01*
X141239731Y-151302412D01*
X141044822Y-151518645D01*
X140975195Y-151635534D01*
X140853475Y-151453368D01*
X140646632Y-151246525D01*
X140403411Y-151084010D01*
X140133158Y-150972068D01*
X139846260Y-150915000D01*
X139553740Y-150915000D01*
X139266842Y-150972068D01*
X138996589Y-151084010D01*
X138753368Y-151246525D01*
X138546525Y-151453368D01*
X138430000Y-151627760D01*
X138313475Y-151453368D01*
X138106632Y-151246525D01*
X137863411Y-151084010D01*
X137593158Y-150972068D01*
X137306260Y-150915000D01*
X137013740Y-150915000D01*
X136726842Y-150972068D01*
X136456589Y-151084010D01*
X136213368Y-151246525D01*
X136006525Y-151453368D01*
X135890000Y-151627760D01*
X135773475Y-151453368D01*
X135566632Y-151246525D01*
X135323411Y-151084010D01*
X135053158Y-150972068D01*
X134766260Y-150915000D01*
X134473740Y-150915000D01*
X134186842Y-150972068D01*
X133916589Y-151084010D01*
X133673368Y-151246525D01*
X133466525Y-151453368D01*
X133350000Y-151627760D01*
X133233475Y-151453368D01*
X133026632Y-151246525D01*
X132840000Y-151121822D01*
X132840000Y-149897325D01*
X132843676Y-149860000D01*
X132840000Y-149822675D01*
X132840000Y-149822667D01*
X132829003Y-149711014D01*
X132785546Y-149567753D01*
X132714974Y-149435724D01*
X132620001Y-149319999D01*
X132591004Y-149296202D01*
X132170256Y-148875454D01*
X132203710Y-148842000D01*
X137630678Y-148842000D01*
X137668000Y-148845676D01*
X137705322Y-148842000D01*
X137705333Y-148842000D01*
X137816986Y-148831003D01*
X137960247Y-148787546D01*
X138092276Y-148716974D01*
X138208001Y-148622001D01*
X138231804Y-148592997D01*
X140646114Y-146178688D01*
X140828665Y-146215000D01*
X141111335Y-146215000D01*
X141388574Y-146159853D01*
X141649727Y-146051680D01*
X141884759Y-145894637D01*
X142084637Y-145694759D01*
X142188043Y-145540000D01*
X142291957Y-145540000D01*
X142395363Y-145694759D01*
X142595241Y-145894637D01*
X142830273Y-146051680D01*
X143091426Y-146159853D01*
X143368665Y-146215000D01*
X143651335Y-146215000D01*
X143928574Y-146159853D01*
X144189727Y-146051680D01*
X144424759Y-145894637D01*
X144624637Y-145694759D01*
X144728043Y-145540000D01*
X151121822Y-145540000D01*
X151246525Y-145726632D01*
X151453368Y-145933475D01*
X151696589Y-146095990D01*
X151966842Y-146207932D01*
X152253740Y-146265000D01*
X152546260Y-146265000D01*
X152833158Y-146207932D01*
X153103411Y-146095990D01*
X153346632Y-145933475D01*
X153553475Y-145726632D01*
X153715990Y-145483411D01*
X153827932Y-145213158D01*
X153885000Y-144926260D01*
X153885000Y-144633740D01*
X153827932Y-144346842D01*
X153715990Y-144076589D01*
X153553475Y-143833368D01*
X153421620Y-143701513D01*
X153494180Y-143679502D01*
X153604494Y-143620537D01*
X153701185Y-143541185D01*
X153780537Y-143444494D01*
X153839502Y-143334180D01*
X153875812Y-143214482D01*
X153888072Y-143090000D01*
X153888072Y-141390000D01*
X153875812Y-141265518D01*
X153839502Y-141145820D01*
X153780537Y-141035506D01*
X153701185Y-140938815D01*
X153604494Y-140859463D01*
X153494180Y-140800498D01*
X153374482Y-140764188D01*
X153250000Y-140751928D01*
X151550000Y-140751928D01*
X151425518Y-140764188D01*
X151305820Y-140800498D01*
X151195506Y-140859463D01*
X151098815Y-140938815D01*
X151019463Y-141035506D01*
X150960498Y-141145820D01*
X150924188Y-141265518D01*
X150911928Y-141390000D01*
X150911928Y-142653271D01*
X150815199Y-142750000D01*
X139737322Y-142750000D01*
X139699999Y-142746324D01*
X139662676Y-142750000D01*
X139662667Y-142750000D01*
X139551014Y-142760997D01*
X139407753Y-142804454D01*
X139275724Y-142875026D01*
X139159999Y-142969999D01*
X139136201Y-142998997D01*
X138753886Y-143381312D01*
X138571335Y-143345000D01*
X138288665Y-143345000D01*
X138011426Y-143400147D01*
X137750273Y-143508320D01*
X137515241Y-143665363D01*
X137315363Y-143865241D01*
X137158320Y-144100273D01*
X137153933Y-144110865D01*
X137042385Y-143924869D01*
X136853414Y-143716481D01*
X136627420Y-143548963D01*
X136373087Y-143428754D01*
X136239039Y-143388096D01*
X136017000Y-143510085D01*
X136017000Y-144653000D01*
X136037000Y-144653000D01*
X136037000Y-144907000D01*
X136017000Y-144907000D01*
X136017000Y-146049915D01*
X136061071Y-146074128D01*
X135829199Y-146306000D01*
X131513711Y-146306000D01*
X131469774Y-146262063D01*
X131300256Y-146148795D01*
X131277763Y-146139478D01*
X131489727Y-146051680D01*
X131724759Y-145894637D01*
X131924637Y-145694759D01*
X132080000Y-145462241D01*
X132235363Y-145694759D01*
X132435241Y-145894637D01*
X132670273Y-146051680D01*
X132931426Y-146159853D01*
X133208665Y-146215000D01*
X133491335Y-146215000D01*
X133768574Y-146159853D01*
X134029727Y-146051680D01*
X134264759Y-145894637D01*
X134464637Y-145694759D01*
X134621680Y-145459727D01*
X134626067Y-145449135D01*
X134737615Y-145635131D01*
X134926586Y-145843519D01*
X135152580Y-146011037D01*
X135406913Y-146131246D01*
X135540961Y-146171904D01*
X135763000Y-146049915D01*
X135763000Y-144907000D01*
X135743000Y-144907000D01*
X135743000Y-144653000D01*
X135763000Y-144653000D01*
X135763000Y-143510085D01*
X135540961Y-143388096D01*
X135406913Y-143428754D01*
X135152580Y-143548963D01*
X134926586Y-143716481D01*
X134737615Y-143924869D01*
X134626067Y-144110865D01*
X134621680Y-144100273D01*
X134464637Y-143865241D01*
X134264759Y-143665363D01*
X134029727Y-143508320D01*
X133768574Y-143400147D01*
X133491335Y-143345000D01*
X133208665Y-143345000D01*
X133026114Y-143381312D01*
X130766863Y-141122061D01*
X134855000Y-141122061D01*
X134855000Y-141325939D01*
X134894774Y-141525898D01*
X134972795Y-141714256D01*
X135086063Y-141883774D01*
X135230226Y-142027937D01*
X135399744Y-142141205D01*
X135588102Y-142219226D01*
X135788061Y-142259000D01*
X135991939Y-142259000D01*
X136191898Y-142219226D01*
X136380256Y-142141205D01*
X136428454Y-142109000D01*
X139415546Y-142109000D01*
X139463744Y-142141205D01*
X139652102Y-142219226D01*
X139852061Y-142259000D01*
X140055939Y-142259000D01*
X140255898Y-142219226D01*
X140444256Y-142141205D01*
X140613774Y-142027937D01*
X140757937Y-141883774D01*
X140871205Y-141714256D01*
X140949226Y-141525898D01*
X140989000Y-141325939D01*
X140989000Y-141122061D01*
X140949226Y-140922102D01*
X140871205Y-140733744D01*
X140757937Y-140564226D01*
X140613774Y-140420063D01*
X140444256Y-140306795D01*
X140255898Y-140228774D01*
X140055939Y-140189000D01*
X139852061Y-140189000D01*
X139652102Y-140228774D01*
X139463744Y-140306795D01*
X139415546Y-140339000D01*
X136428454Y-140339000D01*
X136380256Y-140306795D01*
X136191898Y-140228774D01*
X135991939Y-140189000D01*
X135788061Y-140189000D01*
X135588102Y-140228774D01*
X135399744Y-140306795D01*
X135230226Y-140420063D01*
X135086063Y-140564226D01*
X134972795Y-140733744D01*
X134894774Y-140922102D01*
X134855000Y-141122061D01*
X130766863Y-141122061D01*
X130444999Y-140800198D01*
X130444999Y-139650362D01*
X130503449Y-139674573D01*
X130703408Y-139714347D01*
X130907286Y-139714347D01*
X131107245Y-139674573D01*
X131291959Y-139598061D01*
X144253000Y-139598061D01*
X144253000Y-139801939D01*
X144292774Y-140001898D01*
X144370795Y-140190256D01*
X144484063Y-140359774D01*
X144628226Y-140503937D01*
X144797744Y-140617205D01*
X144986102Y-140695226D01*
X145186061Y-140735000D01*
X145389939Y-140735000D01*
X145589898Y-140695226D01*
X145778256Y-140617205D01*
X145897934Y-140537239D01*
X147869293Y-140372959D01*
X148034102Y-140441226D01*
X148234061Y-140481000D01*
X148437939Y-140481000D01*
X148637898Y-140441226D01*
X148826256Y-140363205D01*
X148995774Y-140249937D01*
X149139937Y-140105774D01*
X149253205Y-139936256D01*
X149283552Y-139862993D01*
X150940685Y-138703000D01*
X150977939Y-138703000D01*
X151177898Y-138663226D01*
X151366256Y-138585205D01*
X151535774Y-138471937D01*
X151679937Y-138327774D01*
X151793205Y-138158256D01*
X151871226Y-137969898D01*
X151911000Y-137769939D01*
X151911000Y-137566061D01*
X151871226Y-137366102D01*
X151793205Y-137177744D01*
X151679937Y-137008226D01*
X151535774Y-136864063D01*
X151366256Y-136750795D01*
X151177898Y-136672774D01*
X150977939Y-136633000D01*
X150774061Y-136633000D01*
X150574102Y-136672774D01*
X150385744Y-136750795D01*
X150216226Y-136864063D01*
X150072063Y-137008226D01*
X149958795Y-137177744D01*
X149928449Y-137251006D01*
X148271316Y-138411000D01*
X148234061Y-138411000D01*
X148034102Y-138450774D01*
X147845744Y-138528795D01*
X147726067Y-138608761D01*
X145754707Y-138773041D01*
X145589898Y-138704774D01*
X145389939Y-138665000D01*
X145186061Y-138665000D01*
X144986102Y-138704774D01*
X144797744Y-138782795D01*
X144628226Y-138896063D01*
X144484063Y-139040226D01*
X144370795Y-139209744D01*
X144292774Y-139398102D01*
X144253000Y-139598061D01*
X131291959Y-139598061D01*
X131295603Y-139596552D01*
X131465121Y-139483284D01*
X131509058Y-139439347D01*
X141953331Y-139439347D01*
X141990653Y-139443023D01*
X142027975Y-139439347D01*
X142027986Y-139439347D01*
X142139639Y-139428350D01*
X142282900Y-139384893D01*
X142414929Y-139314321D01*
X142530654Y-139219348D01*
X142554457Y-139190344D01*
X143146729Y-138598072D01*
X144310000Y-138598072D01*
X144434482Y-138585812D01*
X144554180Y-138549502D01*
X144664494Y-138490537D01*
X144761185Y-138411185D01*
X144840537Y-138314494D01*
X144899502Y-138204180D01*
X144935812Y-138084482D01*
X144948072Y-137960000D01*
X144948072Y-136360000D01*
X144935812Y-136235518D01*
X144899502Y-136115820D01*
X144840537Y-136005506D01*
X144761185Y-135908815D01*
X144664494Y-135829463D01*
X144554180Y-135770498D01*
X144434482Y-135734188D01*
X144310000Y-135721928D01*
X144271486Y-135721928D01*
X144358313Y-135695589D01*
X144512059Y-135613411D01*
X144646817Y-135502817D01*
X144674534Y-135469044D01*
X147057044Y-133086535D01*
X147113898Y-133075226D01*
X147302256Y-132997205D01*
X147350454Y-132965000D01*
X150845546Y-132965000D01*
X150893744Y-132997205D01*
X151082102Y-133075226D01*
X151282061Y-133115000D01*
X151485939Y-133115000D01*
X151685898Y-133075226D01*
X151874256Y-132997205D01*
X152043774Y-132883937D01*
X152187937Y-132739774D01*
X152301205Y-132570256D01*
X152379226Y-132381898D01*
X152419000Y-132181939D01*
X152419000Y-131978061D01*
X152379226Y-131778102D01*
X152301205Y-131589744D01*
X152187937Y-131420226D01*
X152043774Y-131276063D01*
X151874256Y-131162795D01*
X151685898Y-131084774D01*
X151485939Y-131045000D01*
X151282061Y-131045000D01*
X151082102Y-131084774D01*
X150893744Y-131162795D01*
X150845546Y-131195000D01*
X147350454Y-131195000D01*
X147302256Y-131162795D01*
X147113898Y-131084774D01*
X146913939Y-131045000D01*
X146710061Y-131045000D01*
X146510102Y-131084774D01*
X146321744Y-131162795D01*
X146152226Y-131276063D01*
X146008063Y-131420226D01*
X145894795Y-131589744D01*
X145816774Y-131778102D01*
X145805465Y-131834956D01*
X145147562Y-132492859D01*
X145147562Y-131080510D01*
X145135302Y-130956028D01*
X145098992Y-130836330D01*
X145040027Y-130726016D01*
X144960675Y-130629325D01*
X144863984Y-130549973D01*
X144753670Y-130491008D01*
X144633972Y-130454698D01*
X144509490Y-130442438D01*
X142510510Y-130442438D01*
X142386028Y-130454698D01*
X142266330Y-130491008D01*
X142156016Y-130549973D01*
X142059325Y-130629325D01*
X141979973Y-130726016D01*
X141921008Y-130836330D01*
X141884698Y-130956028D01*
X141872438Y-131080510D01*
X141872438Y-133079490D01*
X141884698Y-133203972D01*
X141921008Y-133323670D01*
X141979973Y-133433984D01*
X142059325Y-133530675D01*
X142156016Y-133610027D01*
X142266330Y-133668992D01*
X142386028Y-133705302D01*
X142510510Y-133717562D01*
X143922860Y-133717562D01*
X143651422Y-133989000D01*
X141508454Y-133989000D01*
X141460256Y-133956795D01*
X141271898Y-133878774D01*
X141071939Y-133839000D01*
X140868061Y-133839000D01*
X140668102Y-133878774D01*
X140479744Y-133956795D01*
X140310226Y-134070063D01*
X140166063Y-134214226D01*
X140052795Y-134383744D01*
X139974774Y-134572102D01*
X139935000Y-134772061D01*
X139935000Y-134975939D01*
X139974774Y-135175898D01*
X140052795Y-135364256D01*
X140166063Y-135533774D01*
X140310226Y-135677937D01*
X140479744Y-135791205D01*
X140502237Y-135800522D01*
X140290273Y-135888320D01*
X140055241Y-136045363D01*
X139855363Y-136245241D01*
X139700000Y-136477759D01*
X139544637Y-136245241D01*
X139344759Y-136045363D01*
X139109727Y-135888320D01*
X138848574Y-135780147D01*
X138571335Y-135725000D01*
X138288665Y-135725000D01*
X138011426Y-135780147D01*
X137750273Y-135888320D01*
X137515241Y-136045363D01*
X137315363Y-136245241D01*
X137160000Y-136477759D01*
X137004637Y-136245241D01*
X136804759Y-136045363D01*
X136569727Y-135888320D01*
X136308574Y-135780147D01*
X136031335Y-135725000D01*
X135748665Y-135725000D01*
X135471426Y-135780147D01*
X135210273Y-135888320D01*
X134975241Y-136045363D01*
X134775363Y-136245241D01*
X134620000Y-136477759D01*
X134464637Y-136245241D01*
X134264759Y-136045363D01*
X134029727Y-135888320D01*
X133768574Y-135780147D01*
X133491335Y-135725000D01*
X133319802Y-135725000D01*
X133410802Y-135634000D01*
X133933676Y-135634000D01*
X133970998Y-135637676D01*
X134008320Y-135634000D01*
X134008331Y-135634000D01*
X134119984Y-135623003D01*
X134263245Y-135579546D01*
X134395274Y-135508974D01*
X134510999Y-135414001D01*
X134534801Y-135384998D01*
X135809801Y-134110000D01*
X136106667Y-134110000D01*
X136144000Y-134113677D01*
X136292986Y-134099003D01*
X136436247Y-134055546D01*
X136568276Y-133984974D01*
X136684001Y-133890001D01*
X136778974Y-133774276D01*
X136849546Y-133642247D01*
X136893003Y-133498986D01*
X136899494Y-133433087D01*
X136899973Y-133433984D01*
X136979325Y-133530675D01*
X137076016Y-133610027D01*
X137186330Y-133668992D01*
X137306028Y-133705302D01*
X137430510Y-133717562D01*
X139429490Y-133717562D01*
X139553972Y-133705302D01*
X139673670Y-133668992D01*
X139783984Y-133610027D01*
X139880675Y-133530675D01*
X139960027Y-133433984D01*
X140018992Y-133323670D01*
X140055302Y-133203972D01*
X140067562Y-133079490D01*
X140067562Y-131080510D01*
X140055302Y-130956028D01*
X140018992Y-130836330D01*
X139960027Y-130726016D01*
X139880675Y-130629325D01*
X139783984Y-130549973D01*
X139673670Y-130491008D01*
X139553972Y-130454698D01*
X139429490Y-130442438D01*
X137430510Y-130442438D01*
X137306028Y-130454698D01*
X137186330Y-130491008D01*
X137076016Y-130549973D01*
X136979325Y-130629325D01*
X136904000Y-130721109D01*
X136904000Y-124678281D01*
X137867240Y-123715042D01*
X139429490Y-123715042D01*
X139553972Y-123702782D01*
X139673670Y-123666472D01*
X139783984Y-123607507D01*
X139880675Y-123528155D01*
X139960027Y-123431464D01*
X140018992Y-123321150D01*
X140055302Y-123201452D01*
X140067562Y-123076970D01*
X140067562Y-121077990D01*
X140055302Y-120953508D01*
X140039677Y-120902000D01*
X141900323Y-120902000D01*
X141884698Y-120953508D01*
X141872438Y-121077990D01*
X141872438Y-123076970D01*
X141884698Y-123201452D01*
X141921008Y-123321150D01*
X141979973Y-123431464D01*
X142059325Y-123528155D01*
X142156016Y-123607507D01*
X142266330Y-123666472D01*
X142386028Y-123702782D01*
X142510510Y-123715042D01*
X144509490Y-123715042D01*
X144633972Y-123702782D01*
X144753670Y-123666472D01*
X144863984Y-123607507D01*
X144960675Y-123528155D01*
X145040027Y-123431464D01*
X145098992Y-123321150D01*
X145135302Y-123201452D01*
X145147562Y-123076970D01*
X145147562Y-121077990D01*
X145135302Y-120953508D01*
X145098992Y-120833810D01*
X145040027Y-120723496D01*
X144960675Y-120626805D01*
X144906476Y-120582325D01*
X151423802Y-114065000D01*
X151485939Y-114065000D01*
X151685898Y-114025226D01*
X151874256Y-113947205D01*
X152043774Y-113833937D01*
X152187937Y-113689774D01*
X152301205Y-113520256D01*
X152379226Y-113331898D01*
X152419000Y-113131939D01*
X152419000Y-112928061D01*
X152379226Y-112728102D01*
X152301205Y-112539744D01*
X152187937Y-112370226D01*
X152043774Y-112226063D01*
X151874256Y-112112795D01*
X151685898Y-112034774D01*
X151485939Y-111995000D01*
X151282061Y-111995000D01*
X151082102Y-112034774D01*
X150893744Y-112112795D01*
X150724226Y-112226063D01*
X150580063Y-112370226D01*
X150466795Y-112539744D01*
X150388774Y-112728102D01*
X150349000Y-112928061D01*
X150349000Y-112990198D01*
X143957199Y-119382000D01*
X137818823Y-119382000D01*
X137781498Y-119378324D01*
X137744173Y-119382000D01*
X137744165Y-119382000D01*
X137632512Y-119392997D01*
X137489251Y-119436454D01*
X137357222Y-119507026D01*
X137241497Y-119601999D01*
X137217699Y-119630997D01*
X134026259Y-122822438D01*
X132193030Y-122822438D01*
X132068548Y-122834698D01*
X131948850Y-122871008D01*
X131838536Y-122929973D01*
X131741845Y-123009325D01*
X131662493Y-123106016D01*
X131603528Y-123216330D01*
X131567218Y-123336028D01*
X131554958Y-123460510D01*
X131554958Y-125459490D01*
X131567218Y-125583972D01*
X131603528Y-125703670D01*
X131618671Y-125732000D01*
X131513711Y-125732000D01*
X131469774Y-125688063D01*
X131300256Y-125574795D01*
X131111898Y-125496774D01*
X130911939Y-125457000D01*
X130708061Y-125457000D01*
X130508102Y-125496774D01*
X130319744Y-125574795D01*
X130150226Y-125688063D01*
X130006063Y-125832226D01*
X129892795Y-126001744D01*
X129814774Y-126190102D01*
X129775000Y-126390061D01*
X129775000Y-126593939D01*
X129814774Y-126793898D01*
X129892795Y-126982256D01*
X130006063Y-127151774D01*
X130150226Y-127295937D01*
X130319744Y-127409205D01*
X130508102Y-127487226D01*
X130708061Y-127527000D01*
X130911939Y-127527000D01*
X131111898Y-127487226D01*
X131300256Y-127409205D01*
X131469774Y-127295937D01*
X131513711Y-127252000D01*
X131556781Y-127252000D01*
X131554958Y-127270510D01*
X131554958Y-129269490D01*
X131567218Y-129393972D01*
X131603528Y-129513670D01*
X131662493Y-129623984D01*
X131741845Y-129720675D01*
X131838536Y-129800027D01*
X131948850Y-129858992D01*
X132068548Y-129895302D01*
X132193030Y-129907562D01*
X134192010Y-129907562D01*
X134316492Y-129895302D01*
X134436190Y-129858992D01*
X134546504Y-129800027D01*
X134643195Y-129720675D01*
X134722547Y-129623984D01*
X134781512Y-129513670D01*
X134817822Y-129393972D01*
X134830082Y-129269490D01*
X134830082Y-129146004D01*
X134891744Y-129187205D01*
X135080102Y-129265226D01*
X135280061Y-129305000D01*
X135384001Y-129305000D01*
X135384001Y-132597255D01*
X135346012Y-132600997D01*
X135202751Y-132644454D01*
X135070722Y-132715026D01*
X135070720Y-132715027D01*
X135070721Y-132715027D01*
X134987562Y-132783273D01*
X134987562Y-131080510D01*
X134975302Y-130956028D01*
X134938992Y-130836330D01*
X134880027Y-130726016D01*
X134800675Y-130629325D01*
X134703984Y-130549973D01*
X134593670Y-130491008D01*
X134473972Y-130454698D01*
X134349490Y-130442438D01*
X132350510Y-130442438D01*
X132226028Y-130454698D01*
X132106330Y-130491008D01*
X131996016Y-130549973D01*
X131899325Y-130629325D01*
X131819973Y-130726016D01*
X131761008Y-130836330D01*
X131724698Y-130956028D01*
X131712438Y-131080510D01*
X131712438Y-132642761D01*
X131568998Y-132786201D01*
X131540000Y-132809999D01*
X131516202Y-132838997D01*
X131516201Y-132838998D01*
X131445026Y-132925724D01*
X131374454Y-133057754D01*
X131330998Y-133201015D01*
X131316324Y-133350000D01*
X131320001Y-133387332D01*
X131320001Y-133916288D01*
X131276063Y-133960226D01*
X131162795Y-134129744D01*
X131084774Y-134318102D01*
X131045000Y-134518061D01*
X131045000Y-134721939D01*
X131084774Y-134921898D01*
X131162795Y-135110256D01*
X131276063Y-135279774D01*
X131420226Y-135423937D01*
X131450820Y-135444379D01*
X131133886Y-135761312D01*
X130951335Y-135725000D01*
X130668665Y-135725000D01*
X130391426Y-135780147D01*
X130130273Y-135888320D01*
X129895241Y-136045363D01*
X129695363Y-136245241D01*
X129540000Y-136477759D01*
X129384637Y-136245241D01*
X129184759Y-136045363D01*
X128949727Y-135888320D01*
X128688574Y-135780147D01*
X128411335Y-135725000D01*
X128128665Y-135725000D01*
X127851426Y-135780147D01*
X127590273Y-135888320D01*
X127355241Y-136045363D01*
X127155363Y-136245241D01*
X126999022Y-136479222D01*
X125601000Y-135081201D01*
X125601000Y-126148333D01*
X125604677Y-126111000D01*
X125590003Y-125962014D01*
X125546546Y-125818753D01*
X125475974Y-125686724D01*
X125404799Y-125599997D01*
X125381001Y-125570999D01*
X125352003Y-125547201D01*
X124827562Y-125022760D01*
X124827562Y-123460510D01*
X124815302Y-123336028D01*
X124778992Y-123216330D01*
X124720027Y-123106016D01*
X124640675Y-123009325D01*
X124543984Y-122929973D01*
X124433670Y-122871008D01*
X124313972Y-122834698D01*
X124189490Y-122822438D01*
X122190510Y-122822438D01*
X122172000Y-122824261D01*
X122172000Y-122285739D01*
X122190510Y-122287562D01*
X124189490Y-122287562D01*
X124313972Y-122275302D01*
X124433670Y-122238992D01*
X124543984Y-122180027D01*
X124640675Y-122100675D01*
X124720027Y-122003984D01*
X124778992Y-121893670D01*
X124815302Y-121773972D01*
X124827562Y-121649490D01*
X124827562Y-119650510D01*
X124815302Y-119526028D01*
X124778992Y-119406330D01*
X124720027Y-119296016D01*
X124640675Y-119199325D01*
X124543984Y-119119973D01*
X124433670Y-119061008D01*
X124313972Y-119024698D01*
X124189490Y-119012438D01*
X122190510Y-119012438D01*
X122172000Y-119014261D01*
X122172000Y-115840510D01*
X129251178Y-115840510D01*
X129251178Y-117839490D01*
X129263438Y-117963972D01*
X129299748Y-118083670D01*
X129358713Y-118193984D01*
X129438065Y-118290675D01*
X129534756Y-118370027D01*
X129645070Y-118428992D01*
X129764768Y-118465302D01*
X129889250Y-118477562D01*
X131888230Y-118477562D01*
X132012712Y-118465302D01*
X132132410Y-118428992D01*
X132242724Y-118370027D01*
X132339415Y-118290675D01*
X132418767Y-118193984D01*
X132477732Y-118083670D01*
X132514042Y-117963972D01*
X132526302Y-117839490D01*
X132526302Y-115840510D01*
X132514042Y-115716028D01*
X132477732Y-115596330D01*
X132418767Y-115486016D01*
X132339415Y-115389325D01*
X132242724Y-115309973D01*
X132132410Y-115251008D01*
X132012712Y-115214698D01*
X131888230Y-115202438D01*
X129889250Y-115202438D01*
X129764768Y-115214698D01*
X129645070Y-115251008D01*
X129534756Y-115309973D01*
X129438065Y-115389325D01*
X129358713Y-115486016D01*
X129299748Y-115596330D01*
X129263438Y-115716028D01*
X129251178Y-115840510D01*
X122172000Y-115840510D01*
X122172000Y-114452061D01*
X123933000Y-114452061D01*
X123933000Y-114655939D01*
X123972774Y-114855898D01*
X124050795Y-115044256D01*
X124164063Y-115213774D01*
X124308226Y-115357937D01*
X124477744Y-115471205D01*
X124666102Y-115549226D01*
X124866061Y-115589000D01*
X125069939Y-115589000D01*
X125269898Y-115549226D01*
X125458256Y-115471205D01*
X125506454Y-115439000D01*
X127985546Y-115439000D01*
X128033744Y-115471205D01*
X128222102Y-115549226D01*
X128422061Y-115589000D01*
X128625939Y-115589000D01*
X128825898Y-115549226D01*
X129014256Y-115471205D01*
X129183774Y-115357937D01*
X129327937Y-115213774D01*
X129441205Y-115044256D01*
X129519226Y-114855898D01*
X129559000Y-114655939D01*
X129559000Y-114452061D01*
X129519226Y-114252102D01*
X129441205Y-114063744D01*
X129327937Y-113894226D01*
X129183774Y-113750063D01*
X129014256Y-113636795D01*
X128825898Y-113558774D01*
X128625939Y-113519000D01*
X128422061Y-113519000D01*
X128222102Y-113558774D01*
X128033744Y-113636795D01*
X127985546Y-113669000D01*
X125506454Y-113669000D01*
X125458256Y-113636795D01*
X125269898Y-113558774D01*
X125069939Y-113519000D01*
X124866061Y-113519000D01*
X124666102Y-113558774D01*
X124477744Y-113636795D01*
X124308226Y-113750063D01*
X124164063Y-113894226D01*
X124050795Y-114063744D01*
X123972774Y-114252102D01*
X123933000Y-114452061D01*
X122172000Y-114452061D01*
X122172000Y-108749323D01*
X122175676Y-108712000D01*
X122172000Y-108674677D01*
X122172000Y-108674667D01*
X122161003Y-108563014D01*
X122117546Y-108419753D01*
X122106139Y-108398412D01*
X122046974Y-108287723D01*
X121975799Y-108200997D01*
X121975798Y-108200996D01*
X121952001Y-108171999D01*
X121923003Y-108148201D01*
X120821209Y-107046408D01*
X120865000Y-106826260D01*
X120865000Y-106699802D01*
X123440996Y-109275799D01*
X123441007Y-109275808D01*
X125420201Y-111255003D01*
X125443999Y-111284001D01*
X125472997Y-111307799D01*
X125559723Y-111378974D01*
X125691753Y-111449546D01*
X125835014Y-111493003D01*
X125946667Y-111504000D01*
X125946677Y-111504000D01*
X125984000Y-111507676D01*
X126021323Y-111504000D01*
X137630678Y-111504000D01*
X137668000Y-111507676D01*
X137705322Y-111504000D01*
X137705333Y-111504000D01*
X137816986Y-111493003D01*
X137960247Y-111449546D01*
X138092276Y-111378974D01*
X138208001Y-111284001D01*
X138231804Y-111254997D01*
X140014802Y-109472000D01*
X141790289Y-109472000D01*
X141834226Y-109515937D01*
X142003744Y-109629205D01*
X142192102Y-109707226D01*
X142200335Y-109708864D01*
X140147199Y-111762000D01*
X136181322Y-111762000D01*
X136143999Y-111758324D01*
X136106676Y-111762000D01*
X136106667Y-111762000D01*
X135995014Y-111772997D01*
X135851753Y-111816454D01*
X135719724Y-111887026D01*
X135603999Y-111981999D01*
X135580201Y-112010997D01*
X133347003Y-114244196D01*
X133317999Y-114267999D01*
X133262871Y-114335174D01*
X133223026Y-114383724D01*
X133186499Y-114452061D01*
X133152454Y-114515754D01*
X133108997Y-114659015D01*
X133098000Y-114770668D01*
X133098000Y-114770678D01*
X133094324Y-114808000D01*
X133098000Y-114845323D01*
X133098001Y-118811197D01*
X132896761Y-119012438D01*
X132193030Y-119012438D01*
X132068548Y-119024698D01*
X131948850Y-119061008D01*
X131838536Y-119119973D01*
X131741845Y-119199325D01*
X131662493Y-119296016D01*
X131603528Y-119406330D01*
X131567218Y-119526028D01*
X131554958Y-119650510D01*
X131554958Y-121649490D01*
X131567218Y-121773972D01*
X131603528Y-121893670D01*
X131662493Y-122003984D01*
X131741845Y-122100675D01*
X131838536Y-122180027D01*
X131948850Y-122238992D01*
X132068548Y-122275302D01*
X132193030Y-122287562D01*
X134192010Y-122287562D01*
X134316492Y-122275302D01*
X134436190Y-122238992D01*
X134546504Y-122180027D01*
X134643195Y-122100675D01*
X134722547Y-122003984D01*
X134781512Y-121893670D01*
X134817822Y-121773972D01*
X134830082Y-121649490D01*
X134830082Y-119650510D01*
X134817822Y-119526028D01*
X134781512Y-119406330D01*
X134722547Y-119296016D01*
X134643195Y-119199325D01*
X134616604Y-119177503D01*
X134618000Y-119163333D01*
X134618000Y-119163323D01*
X134621676Y-119126000D01*
X134618000Y-119088677D01*
X134618000Y-115840510D01*
X139253698Y-115840510D01*
X139253698Y-117839490D01*
X139265958Y-117963972D01*
X139302268Y-118083670D01*
X139361233Y-118193984D01*
X139440585Y-118290675D01*
X139537276Y-118370027D01*
X139647590Y-118428992D01*
X139767288Y-118465302D01*
X139891770Y-118477562D01*
X141890750Y-118477562D01*
X142015232Y-118465302D01*
X142134930Y-118428992D01*
X142245244Y-118370027D01*
X142341935Y-118290675D01*
X142421287Y-118193984D01*
X142480252Y-118083670D01*
X142516562Y-117963972D01*
X142528822Y-117839490D01*
X142528822Y-115840510D01*
X142516562Y-115716028D01*
X142480252Y-115596330D01*
X142421287Y-115486016D01*
X142341935Y-115389325D01*
X142245244Y-115309973D01*
X142134930Y-115251008D01*
X142015232Y-115214698D01*
X141890750Y-115202438D01*
X139891770Y-115202438D01*
X139767288Y-115214698D01*
X139647590Y-115251008D01*
X139537276Y-115309973D01*
X139440585Y-115389325D01*
X139361233Y-115486016D01*
X139302268Y-115596330D01*
X139265958Y-115716028D01*
X139253698Y-115840510D01*
X134618000Y-115840510D01*
X134618000Y-115122801D01*
X136458802Y-113282000D01*
X140424678Y-113282000D01*
X140462000Y-113285676D01*
X140499322Y-113282000D01*
X140499333Y-113282000D01*
X140610986Y-113271003D01*
X140754247Y-113227546D01*
X140886276Y-113156974D01*
X141002001Y-113062001D01*
X141025804Y-113032997D01*
X141415621Y-112643180D01*
X141436063Y-112673774D01*
X141580226Y-112817937D01*
X141749744Y-112931205D01*
X141938102Y-113009226D01*
X142138061Y-113049000D01*
X142341939Y-113049000D01*
X142541898Y-113009226D01*
X142730256Y-112931205D01*
X142899774Y-112817937D01*
X142943711Y-112774000D01*
X145346289Y-112774000D01*
X145390226Y-112817937D01*
X145559744Y-112931205D01*
X145748102Y-113009226D01*
X145948061Y-113049000D01*
X146151939Y-113049000D01*
X146351898Y-113009226D01*
X146540256Y-112931205D01*
X146709774Y-112817937D01*
X146853937Y-112673774D01*
X146967205Y-112504256D01*
X147045226Y-112315898D01*
X147085000Y-112115939D01*
X147085000Y-111912061D01*
X147045226Y-111712102D01*
X146967205Y-111523744D01*
X146853937Y-111354226D01*
X146709774Y-111210063D01*
X146540256Y-111096795D01*
X146351898Y-111018774D01*
X146151939Y-110979000D01*
X145948061Y-110979000D01*
X145748102Y-111018774D01*
X145559744Y-111096795D01*
X145390226Y-111210063D01*
X145346289Y-111254000D01*
X142943711Y-111254000D01*
X142899774Y-111210063D01*
X142869180Y-111189621D01*
X144780000Y-109278802D01*
X145232201Y-109731003D01*
X145255999Y-109760001D01*
X145284997Y-109783799D01*
X145371723Y-109854974D01*
X145458748Y-109901490D01*
X145503753Y-109925546D01*
X145647014Y-109969003D01*
X145758667Y-109980000D01*
X145758677Y-109980000D01*
X145796000Y-109983676D01*
X145833322Y-109980000D01*
X151121822Y-109980000D01*
X151246525Y-110166632D01*
X151453368Y-110373475D01*
X151696589Y-110535990D01*
X151966842Y-110647932D01*
X152253740Y-110705000D01*
X152546260Y-110705000D01*
X152833158Y-110647932D01*
X153103411Y-110535990D01*
X153346632Y-110373475D01*
X153553475Y-110166632D01*
X153715990Y-109923411D01*
X153827932Y-109653158D01*
X153885000Y-109366260D01*
X153885000Y-109073740D01*
X153827932Y-108786842D01*
X153715990Y-108516589D01*
X153553475Y-108273368D01*
X153346632Y-108066525D01*
X153172240Y-107950000D01*
X153346632Y-107833475D01*
X153553475Y-107626632D01*
X153715990Y-107383411D01*
X153827932Y-107113158D01*
X153885000Y-106826260D01*
X153885000Y-106533740D01*
X153827932Y-106246842D01*
X153715990Y-105976589D01*
X153553475Y-105733368D01*
X153346632Y-105526525D01*
X153172240Y-105410000D01*
X153346632Y-105293475D01*
X153553475Y-105086632D01*
X153715990Y-104843411D01*
X153827932Y-104573158D01*
X153885000Y-104286260D01*
X153885000Y-103993740D01*
X153827932Y-103706842D01*
X153715990Y-103436589D01*
X153553475Y-103193368D01*
X153421620Y-103061513D01*
X153494180Y-103039502D01*
X153604494Y-102980537D01*
X153701185Y-102901185D01*
X153780537Y-102804494D01*
X153839502Y-102694180D01*
X153875812Y-102574482D01*
X153888072Y-102450000D01*
X153888072Y-100750000D01*
X153875812Y-100625518D01*
X153839502Y-100505820D01*
X153780537Y-100395506D01*
X153701185Y-100298815D01*
X153604494Y-100219463D01*
X153494180Y-100160498D01*
X153374482Y-100124188D01*
X153250000Y-100111928D01*
X151986730Y-100111928D01*
X143000000Y-91125199D01*
X143000000Y-82587322D01*
X143003676Y-82549999D01*
X143000000Y-82512676D01*
X143000000Y-82512667D01*
X142989003Y-82401014D01*
X142945546Y-82257753D01*
X142874974Y-82125724D01*
X142780001Y-82009999D01*
X142751003Y-81986201D01*
X141533804Y-80769003D01*
X141510001Y-80739999D01*
X141394276Y-80645026D01*
X141385110Y-80640127D01*
X141298932Y-80478899D01*
X141119608Y-80260392D01*
X140901101Y-80081068D01*
X140651808Y-79947818D01*
X140381309Y-79865764D01*
X140170492Y-79845000D01*
X139229508Y-79845000D01*
X139018691Y-79865764D01*
X138748192Y-79947818D01*
X138498899Y-80081068D01*
X138280392Y-80260392D01*
X138101068Y-80478899D01*
X138079099Y-80520000D01*
X137832322Y-80520000D01*
X137794999Y-80516324D01*
X137757676Y-80520000D01*
X137757667Y-80520000D01*
X137646014Y-80530997D01*
X137502753Y-80574454D01*
X137370724Y-80645026D01*
X137254999Y-80739999D01*
X137231196Y-80769003D01*
X136902998Y-81097201D01*
X136874000Y-81120999D01*
X136850202Y-81149997D01*
X136850201Y-81149998D01*
X136779026Y-81236724D01*
X136708454Y-81368754D01*
X136678180Y-81468558D01*
X136664998Y-81512014D01*
X136654001Y-81623667D01*
X136650324Y-81661000D01*
X136654001Y-81698332D01*
X136654000Y-88839198D01*
X133094008Y-92399191D01*
X133065010Y-92422989D01*
X133041212Y-92451987D01*
X133041211Y-92451988D01*
X132970036Y-92538714D01*
X132899464Y-92670744D01*
X132856008Y-92814005D01*
X132841334Y-92962990D01*
X132845011Y-93000322D01*
X132845010Y-94172188D01*
X128611199Y-98406000D01*
X128549061Y-98406000D01*
X128349102Y-98445774D01*
X128160744Y-98523795D01*
X127991226Y-98637063D01*
X127847063Y-98781226D01*
X127779725Y-98882005D01*
X127693985Y-98855996D01*
X127582332Y-98844999D01*
X127582321Y-98844999D01*
X127544999Y-98841323D01*
X127507677Y-98844999D01*
X121412323Y-98844999D01*
X121375000Y-98841323D01*
X121337677Y-98844999D01*
X121337668Y-98844999D01*
X121226015Y-98855996D01*
X121082754Y-98899453D01*
X120950725Y-98970025D01*
X120950723Y-98970026D01*
X120950724Y-98970026D01*
X120863997Y-99041200D01*
X120863993Y-99041204D01*
X120835000Y-99064998D01*
X120811206Y-99093991D01*
X119793270Y-100111928D01*
X118530000Y-100111928D01*
X118405518Y-100124188D01*
X118285820Y-100160498D01*
X118175506Y-100219463D01*
X118078815Y-100298815D01*
X117999463Y-100395506D01*
X117940498Y-100505820D01*
X117904188Y-100625518D01*
X117891928Y-100750000D01*
X117550000Y-100750000D01*
X117550000Y-99063380D01*
X127333770Y-89279611D01*
X127358948Y-89258948D01*
X127367080Y-89249039D01*
X130288096Y-89249039D01*
X130305633Y-89331818D01*
X130416285Y-89591646D01*
X130575500Y-89824895D01*
X130777161Y-90022601D01*
X131013517Y-90177166D01*
X131275486Y-90282650D01*
X131553000Y-90335000D01*
X131953000Y-90335000D01*
X131953000Y-89027000D01*
X132207000Y-89027000D01*
X132207000Y-90335000D01*
X132607000Y-90335000D01*
X132884514Y-90282650D01*
X133146483Y-90177166D01*
X133382839Y-90022601D01*
X133584500Y-89824895D01*
X133743715Y-89591646D01*
X133854367Y-89331818D01*
X133871904Y-89249039D01*
X133749915Y-89027000D01*
X132207000Y-89027000D01*
X131953000Y-89027000D01*
X130410085Y-89027000D01*
X130288096Y-89249039D01*
X127367080Y-89249039D01*
X127379615Y-89233766D01*
X127441425Y-89158450D01*
X127502710Y-89043793D01*
X127540450Y-88919383D01*
X127542359Y-88900000D01*
X127550000Y-88822419D01*
X127550000Y-88822412D01*
X127553192Y-88790000D01*
X127550000Y-88757588D01*
X127550000Y-83820000D01*
X130238057Y-83820000D01*
X130265764Y-84101309D01*
X130347818Y-84371808D01*
X130481068Y-84621101D01*
X130660392Y-84839608D01*
X130878899Y-85018932D01*
X131011858Y-85090000D01*
X130878899Y-85161068D01*
X130660392Y-85340392D01*
X130481068Y-85558899D01*
X130347818Y-85808192D01*
X130265764Y-86078691D01*
X130238057Y-86360000D01*
X130265764Y-86641309D01*
X130347818Y-86911808D01*
X130481068Y-87161101D01*
X130660392Y-87379608D01*
X130878899Y-87558932D01*
X131006741Y-87627265D01*
X130777161Y-87777399D01*
X130575500Y-87975105D01*
X130416285Y-88208354D01*
X130305633Y-88468182D01*
X130288096Y-88550961D01*
X130410085Y-88773000D01*
X131953000Y-88773000D01*
X131953000Y-88753000D01*
X132207000Y-88753000D01*
X132207000Y-88773000D01*
X133749915Y-88773000D01*
X133871904Y-88550961D01*
X133854367Y-88468182D01*
X133743715Y-88208354D01*
X133584500Y-87975105D01*
X133382839Y-87777399D01*
X133153259Y-87627265D01*
X133281101Y-87558932D01*
X133499608Y-87379608D01*
X133678932Y-87161101D01*
X133812182Y-86911808D01*
X133894236Y-86641309D01*
X133921943Y-86360000D01*
X133894236Y-86078691D01*
X133812182Y-85808192D01*
X133678932Y-85558899D01*
X133499608Y-85340392D01*
X133281101Y-85161068D01*
X133148142Y-85090000D01*
X133281101Y-85018932D01*
X133499608Y-84839608D01*
X133678932Y-84621101D01*
X133812182Y-84371808D01*
X133894236Y-84101309D01*
X133921943Y-83820000D01*
X133894236Y-83538691D01*
X133812182Y-83268192D01*
X133678932Y-83018899D01*
X133499608Y-82800392D01*
X133386518Y-82707581D01*
X133404482Y-82705812D01*
X133524180Y-82669502D01*
X133634494Y-82610537D01*
X133731185Y-82531185D01*
X133810537Y-82434494D01*
X133869502Y-82324180D01*
X133905812Y-82204482D01*
X133918072Y-82080000D01*
X133918072Y-80480000D01*
X133905812Y-80355518D01*
X133869502Y-80235820D01*
X133810537Y-80125506D01*
X133731185Y-80028815D01*
X133634494Y-79949463D01*
X133524180Y-79890498D01*
X133404482Y-79854188D01*
X133280000Y-79841928D01*
X130880000Y-79841928D01*
X130755518Y-79854188D01*
X130635820Y-79890498D01*
X130525506Y-79949463D01*
X130428815Y-80028815D01*
X130349463Y-80125506D01*
X130290498Y-80235820D01*
X130254188Y-80355518D01*
X130241928Y-80480000D01*
X130241928Y-82080000D01*
X130254188Y-82204482D01*
X130290498Y-82324180D01*
X130349463Y-82434494D01*
X130428815Y-82531185D01*
X130525506Y-82610537D01*
X130635820Y-82669502D01*
X130755518Y-82705812D01*
X130773482Y-82707581D01*
X130660392Y-82800392D01*
X130481068Y-83018899D01*
X130347818Y-83268192D01*
X130265764Y-83538691D01*
X130238057Y-83820000D01*
X127550000Y-83820000D01*
X127550000Y-75350000D01*
X130591928Y-75350000D01*
X130591928Y-77050000D01*
X130604188Y-77174482D01*
X130640498Y-77294180D01*
X130699463Y-77404494D01*
X130778815Y-77501185D01*
X130875506Y-77580537D01*
X130985820Y-77639502D01*
X131105518Y-77675812D01*
X131230000Y-77688072D01*
X132930000Y-77688072D01*
X133054482Y-77675812D01*
X133174180Y-77639502D01*
X133284494Y-77580537D01*
X133381185Y-77501185D01*
X133460537Y-77404494D01*
X133519502Y-77294180D01*
X133555812Y-77174482D01*
X133568072Y-77050000D01*
X133568072Y-75350000D01*
X138211928Y-75350000D01*
X138211928Y-77050000D01*
X138224188Y-77174482D01*
X138260498Y-77294180D01*
X138319463Y-77404494D01*
X138398815Y-77501185D01*
X138495506Y-77580537D01*
X138605820Y-77639502D01*
X138725518Y-77675812D01*
X138850000Y-77688072D01*
X140550000Y-77688072D01*
X140674482Y-77675812D01*
X140794180Y-77639502D01*
X140904494Y-77580537D01*
X141001185Y-77501185D01*
X141080537Y-77404494D01*
X141139502Y-77294180D01*
X141175812Y-77174482D01*
X141188072Y-77050000D01*
X141188072Y-75350000D01*
X141175812Y-75225518D01*
X141139502Y-75105820D01*
X141080537Y-74995506D01*
X141001185Y-74898815D01*
X140904494Y-74819463D01*
X140794180Y-74760498D01*
X140674482Y-74724188D01*
X140550000Y-74711928D01*
X138850000Y-74711928D01*
X138725518Y-74724188D01*
X138605820Y-74760498D01*
X138495506Y-74819463D01*
X138398815Y-74898815D01*
X138319463Y-74995506D01*
X138260498Y-75105820D01*
X138224188Y-75225518D01*
X138211928Y-75350000D01*
X133568072Y-75350000D01*
X133555812Y-75225518D01*
X133519502Y-75105820D01*
X133460537Y-74995506D01*
X133381185Y-74898815D01*
X133284494Y-74819463D01*
X133174180Y-74760498D01*
X133054482Y-74724188D01*
X132930000Y-74711928D01*
X131230000Y-74711928D01*
X131105518Y-74724188D01*
X130985820Y-74760498D01*
X130875506Y-74819463D01*
X130778815Y-74898815D01*
X130699463Y-74995506D01*
X130640498Y-75105820D01*
X130604188Y-75225518D01*
X130591928Y-75350000D01*
X127550000Y-75350000D01*
X127550000Y-73450000D01*
X144230000Y-73450000D01*
X144230001Y-88757581D01*
G37*
X144230001Y-88757581D02*
X144226808Y-88790000D01*
X144239551Y-88919382D01*
X144277290Y-89043792D01*
X144338575Y-89158450D01*
X144400386Y-89233766D01*
X144400387Y-89233767D01*
X144421053Y-89258948D01*
X144446232Y-89279612D01*
X154230000Y-99063381D01*
X154230001Y-155130000D01*
X117550000Y-155130000D01*
X117550000Y-145136890D01*
X117938524Y-145136890D01*
X117983175Y-145284099D01*
X118108359Y-145546920D01*
X118282412Y-145780269D01*
X118498645Y-145975178D01*
X118748748Y-146124157D01*
X119023109Y-146221481D01*
X119253000Y-146100814D01*
X119253000Y-144907000D01*
X119507000Y-144907000D01*
X119507000Y-146100814D01*
X119736891Y-146221481D01*
X120011252Y-146124157D01*
X120261355Y-145975178D01*
X120477588Y-145780269D01*
X120651641Y-145546920D01*
X120776825Y-145284099D01*
X120821476Y-145136890D01*
X120700155Y-144907000D01*
X119507000Y-144907000D01*
X119253000Y-144907000D01*
X118059845Y-144907000D01*
X117938524Y-145136890D01*
X117550000Y-145136890D01*
X117550000Y-141390000D01*
X117891928Y-141390000D01*
X117891928Y-143090000D01*
X117904188Y-143214482D01*
X117940498Y-143334180D01*
X117999463Y-143444494D01*
X118078815Y-143541185D01*
X118175506Y-143620537D01*
X118285820Y-143679502D01*
X118366466Y-143703966D01*
X118282412Y-143779731D01*
X118108359Y-144013080D01*
X117983175Y-144275901D01*
X117938524Y-144423110D01*
X118059845Y-144653000D01*
X119253000Y-144653000D01*
X119253000Y-144633000D01*
X119507000Y-144633000D01*
X119507000Y-144653000D01*
X120700155Y-144653000D01*
X120821476Y-144423110D01*
X120776825Y-144275901D01*
X120651641Y-144013080D01*
X120477588Y-143779731D01*
X120393534Y-143703966D01*
X120474180Y-143679502D01*
X120584494Y-143620537D01*
X120681185Y-143541185D01*
X120760537Y-143444494D01*
X120819502Y-143334180D01*
X120855812Y-143214482D01*
X120868072Y-143090000D01*
X120868072Y-141390000D01*
X120855812Y-141265518D01*
X120819502Y-141145820D01*
X120760537Y-141035506D01*
X120681185Y-140938815D01*
X120584494Y-140859463D01*
X120474180Y-140800498D01*
X120354482Y-140764188D01*
X120230000Y-140751928D01*
X118530000Y-140751928D01*
X118405518Y-140764188D01*
X118285820Y-140800498D01*
X118175506Y-140859463D01*
X118078815Y-140938815D01*
X117999463Y-141035506D01*
X117940498Y-141145820D01*
X117904188Y-141265518D01*
X117891928Y-141390000D01*
X117550000Y-141390000D01*
X117550000Y-109576890D01*
X117938524Y-109576890D01*
X117983175Y-109724099D01*
X118108359Y-109986920D01*
X118282412Y-110220269D01*
X118498645Y-110415178D01*
X118748748Y-110564157D01*
X119023109Y-110661481D01*
X119253000Y-110540814D01*
X119253000Y-109347000D01*
X118059845Y-109347000D01*
X117938524Y-109576890D01*
X117550000Y-109576890D01*
X117550000Y-100750000D01*
X117891928Y-100750000D01*
X117891928Y-102450000D01*
X117904188Y-102574482D01*
X117940498Y-102694180D01*
X117999463Y-102804494D01*
X118078815Y-102901185D01*
X118175506Y-102980537D01*
X118285820Y-103039502D01*
X118358380Y-103061513D01*
X118226525Y-103193368D01*
X118064010Y-103436589D01*
X117952068Y-103706842D01*
X117895000Y-103993740D01*
X117895000Y-104286260D01*
X117952068Y-104573158D01*
X118064010Y-104843411D01*
X118226525Y-105086632D01*
X118433368Y-105293475D01*
X118607760Y-105410000D01*
X118433368Y-105526525D01*
X118226525Y-105733368D01*
X118064010Y-105976589D01*
X117952068Y-106246842D01*
X117895000Y-106533740D01*
X117895000Y-106826260D01*
X117952068Y-107113158D01*
X118064010Y-107383411D01*
X118226525Y-107626632D01*
X118433368Y-107833475D01*
X118615534Y-107955195D01*
X118498645Y-108024822D01*
X118282412Y-108219731D01*
X118108359Y-108453080D01*
X117983175Y-108715901D01*
X117938524Y-108863110D01*
X118059845Y-109093000D01*
X119253000Y-109093000D01*
X119253000Y-109073000D01*
X119507000Y-109073000D01*
X119507000Y-109093000D01*
X119527000Y-109093000D01*
X119527000Y-109347000D01*
X119507000Y-109347000D01*
X119507000Y-110540814D01*
X119736891Y-110661481D01*
X120011252Y-110564157D01*
X120261355Y-110415178D01*
X120477588Y-110220269D01*
X120651641Y-109986920D01*
X120652001Y-109986164D01*
X120652000Y-133116363D01*
X120648324Y-133153685D01*
X120652000Y-133191007D01*
X120652000Y-133191017D01*
X120662997Y-133302670D01*
X120688679Y-133387333D01*
X120706454Y-133445931D01*
X120777026Y-133577961D01*
X120803342Y-133610027D01*
X120871999Y-133693686D01*
X120901003Y-133717489D01*
X127140516Y-139957003D01*
X127164314Y-139986001D01*
X127280039Y-140080974D01*
X127412068Y-140151546D01*
X127555276Y-140194987D01*
X127610226Y-140249937D01*
X127779744Y-140363205D01*
X127968102Y-140441226D01*
X128168061Y-140481000D01*
X128371939Y-140481000D01*
X128571898Y-140441226D01*
X128760256Y-140363205D01*
X128924999Y-140253127D01*
X128925000Y-141077667D01*
X128921323Y-141114999D01*
X128935997Y-141263984D01*
X128979453Y-141407245D01*
X129050025Y-141539275D01*
X129103987Y-141605027D01*
X129144999Y-141655000D01*
X129173997Y-141678798D01*
X130840199Y-143345000D01*
X130668665Y-143345000D01*
X130391426Y-143400147D01*
X130130273Y-143508320D01*
X129895241Y-143665363D01*
X129695363Y-143865241D01*
X129540000Y-144097759D01*
X129384637Y-143865241D01*
X129184759Y-143665363D01*
X128949727Y-143508320D01*
X128688574Y-143400147D01*
X128411335Y-143345000D01*
X128128665Y-143345000D01*
X127851426Y-143400147D01*
X127590273Y-143508320D01*
X127355241Y-143665363D01*
X127155363Y-143865241D01*
X126998320Y-144100273D01*
X126890147Y-144361426D01*
X126835000Y-144638665D01*
X126835000Y-144921335D01*
X126890147Y-145198574D01*
X126998320Y-145459727D01*
X127155363Y-145694759D01*
X127355241Y-145894637D01*
X127510001Y-145998044D01*
X127510001Y-146012668D01*
X127506324Y-146050000D01*
X127520998Y-146198985D01*
X127564454Y-146342246D01*
X127635026Y-146474276D01*
X127701274Y-146554998D01*
X127730000Y-146590001D01*
X127758998Y-146613799D01*
X131320000Y-150174802D01*
X131320000Y-151121821D01*
X131133368Y-151246525D01*
X130926525Y-151453368D01*
X130810000Y-151627760D01*
X130693475Y-151453368D01*
X130486632Y-151246525D01*
X130243411Y-151084010D01*
X129973158Y-150972068D01*
X129686260Y-150915000D01*
X129393740Y-150915000D01*
X129106842Y-150972068D01*
X128836589Y-151084010D01*
X128593368Y-151246525D01*
X128386525Y-151453368D01*
X128270000Y-151627760D01*
X128153475Y-151453368D01*
X127946632Y-151246525D01*
X127703411Y-151084010D01*
X127433158Y-150972068D01*
X127146260Y-150915000D01*
X126853740Y-150915000D01*
X126566842Y-150972068D01*
X126296589Y-151084010D01*
X126053368Y-151246525D01*
X125846525Y-151453368D01*
X125684010Y-151696589D01*
X125572068Y-151966842D01*
X125515000Y-152253740D01*
X125515000Y-152546260D01*
X125572068Y-152833158D01*
X125684010Y-153103411D01*
X125846525Y-153346632D01*
X126053368Y-153553475D01*
X126296589Y-153715990D01*
X126566842Y-153827932D01*
X126853740Y-153885000D01*
X127146260Y-153885000D01*
X127433158Y-153827932D01*
X127703411Y-153715990D01*
X127946632Y-153553475D01*
X128153475Y-153346632D01*
X128270000Y-153172240D01*
X128386525Y-153346632D01*
X128593368Y-153553475D01*
X128836589Y-153715990D01*
X129106842Y-153827932D01*
X129393740Y-153885000D01*
X129686260Y-153885000D01*
X129973158Y-153827932D01*
X130243411Y-153715990D01*
X130486632Y-153553475D01*
X130693475Y-153346632D01*
X130810000Y-153172240D01*
X130926525Y-153346632D01*
X131133368Y-153553475D01*
X131376589Y-153715990D01*
X131646842Y-153827932D01*
X131933740Y-153885000D01*
X132226260Y-153885000D01*
X132513158Y-153827932D01*
X132783411Y-153715990D01*
X133026632Y-153553475D01*
X133233475Y-153346632D01*
X133350000Y-153172240D01*
X133466525Y-153346632D01*
X133673368Y-153553475D01*
X133916589Y-153715990D01*
X134186842Y-153827932D01*
X134473740Y-153885000D01*
X134766260Y-153885000D01*
X135053158Y-153827932D01*
X135323411Y-153715990D01*
X135566632Y-153553475D01*
X135773475Y-153346632D01*
X135890000Y-153172240D01*
X136006525Y-153346632D01*
X136213368Y-153553475D01*
X136456589Y-153715990D01*
X136726842Y-153827932D01*
X137013740Y-153885000D01*
X137306260Y-153885000D01*
X137593158Y-153827932D01*
X137863411Y-153715990D01*
X138106632Y-153553475D01*
X138313475Y-153346632D01*
X138430000Y-153172240D01*
X138546525Y-153346632D01*
X138753368Y-153553475D01*
X138996589Y-153715990D01*
X139266842Y-153827932D01*
X139553740Y-153885000D01*
X139846260Y-153885000D01*
X140133158Y-153827932D01*
X140403411Y-153715990D01*
X140646632Y-153553475D01*
X140853475Y-153346632D01*
X140975195Y-153164466D01*
X141044822Y-153281355D01*
X141239731Y-153497588D01*
X141473080Y-153671641D01*
X141735901Y-153796825D01*
X141883110Y-153841476D01*
X142113000Y-153720155D01*
X142113000Y-152527000D01*
X142093000Y-152527000D01*
X142093000Y-152273000D01*
X142113000Y-152273000D01*
X142113000Y-151079845D01*
X142367000Y-151079845D01*
X142367000Y-152273000D01*
X142387000Y-152273000D01*
X142387000Y-152527000D01*
X142367000Y-152527000D01*
X142367000Y-153720155D01*
X142596890Y-153841476D01*
X142744099Y-153796825D01*
X143006920Y-153671641D01*
X143240269Y-153497588D01*
X143316034Y-153413534D01*
X143340498Y-153494180D01*
X143399463Y-153604494D01*
X143478815Y-153701185D01*
X143575506Y-153780537D01*
X143685820Y-153839502D01*
X143805518Y-153875812D01*
X143930000Y-153888072D01*
X145630000Y-153888072D01*
X145754482Y-153875812D01*
X145874180Y-153839502D01*
X145984494Y-153780537D01*
X146081185Y-153701185D01*
X146160537Y-153604494D01*
X146219502Y-153494180D01*
X146255812Y-153374482D01*
X146268072Y-153250000D01*
X146268072Y-151550000D01*
X146255812Y-151425518D01*
X146219502Y-151305820D01*
X146160537Y-151195506D01*
X146081185Y-151098815D01*
X145984494Y-151019463D01*
X145874180Y-150960498D01*
X145754482Y-150924188D01*
X145630000Y-150911928D01*
X143930000Y-150911928D01*
X143805518Y-150924188D01*
X143685820Y-150960498D01*
X143575506Y-151019463D01*
X143478815Y-151098815D01*
X143399463Y-151195506D01*
X143340498Y-151305820D01*
X143316034Y-151386466D01*
X143240269Y-151302412D01*
X143006920Y-151128359D01*
X142744099Y-151003175D01*
X142596890Y-150958524D01*
X142367000Y-151079845D01*
X142113000Y-151079845D01*
X141883110Y-150958524D01*
X141735901Y-151003175D01*
X141473080Y-151128359D01*
X141239731Y-151302412D01*
X141044822Y-151518645D01*
X140975195Y-151635534D01*
X140853475Y-151453368D01*
X140646632Y-151246525D01*
X140403411Y-151084010D01*
X140133158Y-150972068D01*
X139846260Y-150915000D01*
X139553740Y-150915000D01*
X139266842Y-150972068D01*
X138996589Y-151084010D01*
X138753368Y-151246525D01*
X138546525Y-151453368D01*
X138430000Y-151627760D01*
X138313475Y-151453368D01*
X138106632Y-151246525D01*
X137863411Y-151084010D01*
X137593158Y-150972068D01*
X137306260Y-150915000D01*
X137013740Y-150915000D01*
X136726842Y-150972068D01*
X136456589Y-151084010D01*
X136213368Y-151246525D01*
X136006525Y-151453368D01*
X135890000Y-151627760D01*
X135773475Y-151453368D01*
X135566632Y-151246525D01*
X135323411Y-151084010D01*
X135053158Y-150972068D01*
X134766260Y-150915000D01*
X134473740Y-150915000D01*
X134186842Y-150972068D01*
X133916589Y-151084010D01*
X133673368Y-151246525D01*
X133466525Y-151453368D01*
X133350000Y-151627760D01*
X133233475Y-151453368D01*
X133026632Y-151246525D01*
X132840000Y-151121822D01*
X132840000Y-149897325D01*
X132843676Y-149860000D01*
X132840000Y-149822675D01*
X132840000Y-149822667D01*
X132829003Y-149711014D01*
X132785546Y-149567753D01*
X132714974Y-149435724D01*
X132620001Y-149319999D01*
X132591004Y-149296202D01*
X132170256Y-148875454D01*
X132203710Y-148842000D01*
X137630678Y-148842000D01*
X137668000Y-148845676D01*
X137705322Y-148842000D01*
X137705333Y-148842000D01*
X137816986Y-148831003D01*
X137960247Y-148787546D01*
X138092276Y-148716974D01*
X138208001Y-148622001D01*
X138231804Y-148592997D01*
X140646114Y-146178688D01*
X140828665Y-146215000D01*
X141111335Y-146215000D01*
X141388574Y-146159853D01*
X141649727Y-146051680D01*
X141884759Y-145894637D01*
X142084637Y-145694759D01*
X142188043Y-145540000D01*
X142291957Y-145540000D01*
X142395363Y-145694759D01*
X142595241Y-145894637D01*
X142830273Y-146051680D01*
X143091426Y-146159853D01*
X143368665Y-146215000D01*
X143651335Y-146215000D01*
X143928574Y-146159853D01*
X144189727Y-146051680D01*
X144424759Y-145894637D01*
X144624637Y-145694759D01*
X144728043Y-145540000D01*
X151121822Y-145540000D01*
X151246525Y-145726632D01*
X151453368Y-145933475D01*
X151696589Y-146095990D01*
X151966842Y-146207932D01*
X152253740Y-146265000D01*
X152546260Y-146265000D01*
X152833158Y-146207932D01*
X153103411Y-146095990D01*
X153346632Y-145933475D01*
X153553475Y-145726632D01*
X153715990Y-145483411D01*
X153827932Y-145213158D01*
X153885000Y-144926260D01*
X153885000Y-144633740D01*
X153827932Y-144346842D01*
X153715990Y-144076589D01*
X153553475Y-143833368D01*
X153421620Y-143701513D01*
X153494180Y-143679502D01*
X153604494Y-143620537D01*
X153701185Y-143541185D01*
X153780537Y-143444494D01*
X153839502Y-143334180D01*
X153875812Y-143214482D01*
X153888072Y-143090000D01*
X153888072Y-141390000D01*
X153875812Y-141265518D01*
X153839502Y-141145820D01*
X153780537Y-141035506D01*
X153701185Y-140938815D01*
X153604494Y-140859463D01*
X153494180Y-140800498D01*
X153374482Y-140764188D01*
X153250000Y-140751928D01*
X151550000Y-140751928D01*
X151425518Y-140764188D01*
X151305820Y-140800498D01*
X151195506Y-140859463D01*
X151098815Y-140938815D01*
X151019463Y-141035506D01*
X150960498Y-141145820D01*
X150924188Y-141265518D01*
X150911928Y-141390000D01*
X150911928Y-142653271D01*
X150815199Y-142750000D01*
X139737322Y-142750000D01*
X139699999Y-142746324D01*
X139662676Y-142750000D01*
X139662667Y-142750000D01*
X139551014Y-142760997D01*
X139407753Y-142804454D01*
X139275724Y-142875026D01*
X139159999Y-142969999D01*
X139136201Y-142998997D01*
X138753886Y-143381312D01*
X138571335Y-143345000D01*
X138288665Y-143345000D01*
X138011426Y-143400147D01*
X137750273Y-143508320D01*
X137515241Y-143665363D01*
X137315363Y-143865241D01*
X137158320Y-144100273D01*
X137153933Y-144110865D01*
X137042385Y-143924869D01*
X136853414Y-143716481D01*
X136627420Y-143548963D01*
X136373087Y-143428754D01*
X136239039Y-143388096D01*
X136017000Y-143510085D01*
X136017000Y-144653000D01*
X136037000Y-144653000D01*
X136037000Y-144907000D01*
X136017000Y-144907000D01*
X136017000Y-146049915D01*
X136061071Y-146074128D01*
X135829199Y-146306000D01*
X131513711Y-146306000D01*
X131469774Y-146262063D01*
X131300256Y-146148795D01*
X131277763Y-146139478D01*
X131489727Y-146051680D01*
X131724759Y-145894637D01*
X131924637Y-145694759D01*
X132080000Y-145462241D01*
X132235363Y-145694759D01*
X132435241Y-145894637D01*
X132670273Y-146051680D01*
X132931426Y-146159853D01*
X133208665Y-146215000D01*
X133491335Y-146215000D01*
X133768574Y-146159853D01*
X134029727Y-146051680D01*
X134264759Y-145894637D01*
X134464637Y-145694759D01*
X134621680Y-145459727D01*
X134626067Y-145449135D01*
X134737615Y-145635131D01*
X134926586Y-145843519D01*
X135152580Y-146011037D01*
X135406913Y-146131246D01*
X135540961Y-146171904D01*
X135763000Y-146049915D01*
X135763000Y-144907000D01*
X135743000Y-144907000D01*
X135743000Y-144653000D01*
X135763000Y-144653000D01*
X135763000Y-143510085D01*
X135540961Y-143388096D01*
X135406913Y-143428754D01*
X135152580Y-143548963D01*
X134926586Y-143716481D01*
X134737615Y-143924869D01*
X134626067Y-144110865D01*
X134621680Y-144100273D01*
X134464637Y-143865241D01*
X134264759Y-143665363D01*
X134029727Y-143508320D01*
X133768574Y-143400147D01*
X133491335Y-143345000D01*
X133208665Y-143345000D01*
X133026114Y-143381312D01*
X130766863Y-141122061D01*
X134855000Y-141122061D01*
X134855000Y-141325939D01*
X134894774Y-141525898D01*
X134972795Y-141714256D01*
X135086063Y-141883774D01*
X135230226Y-142027937D01*
X135399744Y-142141205D01*
X135588102Y-142219226D01*
X135788061Y-142259000D01*
X135991939Y-142259000D01*
X136191898Y-142219226D01*
X136380256Y-142141205D01*
X136428454Y-142109000D01*
X139415546Y-142109000D01*
X139463744Y-142141205D01*
X139652102Y-142219226D01*
X139852061Y-142259000D01*
X140055939Y-142259000D01*
X140255898Y-142219226D01*
X140444256Y-142141205D01*
X140613774Y-142027937D01*
X140757937Y-141883774D01*
X140871205Y-141714256D01*
X140949226Y-141525898D01*
X140989000Y-141325939D01*
X140989000Y-141122061D01*
X140949226Y-140922102D01*
X140871205Y-140733744D01*
X140757937Y-140564226D01*
X140613774Y-140420063D01*
X140444256Y-140306795D01*
X140255898Y-140228774D01*
X140055939Y-140189000D01*
X139852061Y-140189000D01*
X139652102Y-140228774D01*
X139463744Y-140306795D01*
X139415546Y-140339000D01*
X136428454Y-140339000D01*
X136380256Y-140306795D01*
X136191898Y-140228774D01*
X135991939Y-140189000D01*
X135788061Y-140189000D01*
X135588102Y-140228774D01*
X135399744Y-140306795D01*
X135230226Y-140420063D01*
X135086063Y-140564226D01*
X134972795Y-140733744D01*
X134894774Y-140922102D01*
X134855000Y-141122061D01*
X130766863Y-141122061D01*
X130444999Y-140800198D01*
X130444999Y-139650362D01*
X130503449Y-139674573D01*
X130703408Y-139714347D01*
X130907286Y-139714347D01*
X131107245Y-139674573D01*
X131291959Y-139598061D01*
X144253000Y-139598061D01*
X144253000Y-139801939D01*
X144292774Y-140001898D01*
X144370795Y-140190256D01*
X144484063Y-140359774D01*
X144628226Y-140503937D01*
X144797744Y-140617205D01*
X144986102Y-140695226D01*
X145186061Y-140735000D01*
X145389939Y-140735000D01*
X145589898Y-140695226D01*
X145778256Y-140617205D01*
X145897934Y-140537239D01*
X147869293Y-140372959D01*
X148034102Y-140441226D01*
X148234061Y-140481000D01*
X148437939Y-140481000D01*
X148637898Y-140441226D01*
X148826256Y-140363205D01*
X148995774Y-140249937D01*
X149139937Y-140105774D01*
X149253205Y-139936256D01*
X149283552Y-139862993D01*
X150940685Y-138703000D01*
X150977939Y-138703000D01*
X151177898Y-138663226D01*
X151366256Y-138585205D01*
X151535774Y-138471937D01*
X151679937Y-138327774D01*
X151793205Y-138158256D01*
X151871226Y-137969898D01*
X151911000Y-137769939D01*
X151911000Y-137566061D01*
X151871226Y-137366102D01*
X151793205Y-137177744D01*
X151679937Y-137008226D01*
X151535774Y-136864063D01*
X151366256Y-136750795D01*
X151177898Y-136672774D01*
X150977939Y-136633000D01*
X150774061Y-136633000D01*
X150574102Y-136672774D01*
X150385744Y-136750795D01*
X150216226Y-136864063D01*
X150072063Y-137008226D01*
X149958795Y-137177744D01*
X149928449Y-137251006D01*
X148271316Y-138411000D01*
X148234061Y-138411000D01*
X148034102Y-138450774D01*
X147845744Y-138528795D01*
X147726067Y-138608761D01*
X145754707Y-138773041D01*
X145589898Y-138704774D01*
X145389939Y-138665000D01*
X145186061Y-138665000D01*
X144986102Y-138704774D01*
X144797744Y-138782795D01*
X144628226Y-138896063D01*
X144484063Y-139040226D01*
X144370795Y-139209744D01*
X144292774Y-139398102D01*
X144253000Y-139598061D01*
X131291959Y-139598061D01*
X131295603Y-139596552D01*
X131465121Y-139483284D01*
X131509058Y-139439347D01*
X141953331Y-139439347D01*
X141990653Y-139443023D01*
X142027975Y-139439347D01*
X142027986Y-139439347D01*
X142139639Y-139428350D01*
X142282900Y-139384893D01*
X142414929Y-139314321D01*
X142530654Y-139219348D01*
X142554457Y-139190344D01*
X143146729Y-138598072D01*
X144310000Y-138598072D01*
X144434482Y-138585812D01*
X144554180Y-138549502D01*
X144664494Y-138490537D01*
X144761185Y-138411185D01*
X144840537Y-138314494D01*
X144899502Y-138204180D01*
X144935812Y-138084482D01*
X144948072Y-137960000D01*
X144948072Y-136360000D01*
X144935812Y-136235518D01*
X144899502Y-136115820D01*
X144840537Y-136005506D01*
X144761185Y-135908815D01*
X144664494Y-135829463D01*
X144554180Y-135770498D01*
X144434482Y-135734188D01*
X144310000Y-135721928D01*
X144271486Y-135721928D01*
X144358313Y-135695589D01*
X144512059Y-135613411D01*
X144646817Y-135502817D01*
X144674534Y-135469044D01*
X147057044Y-133086535D01*
X147113898Y-133075226D01*
X147302256Y-132997205D01*
X147350454Y-132965000D01*
X150845546Y-132965000D01*
X150893744Y-132997205D01*
X151082102Y-133075226D01*
X151282061Y-133115000D01*
X151485939Y-133115000D01*
X151685898Y-133075226D01*
X151874256Y-132997205D01*
X152043774Y-132883937D01*
X152187937Y-132739774D01*
X152301205Y-132570256D01*
X152379226Y-132381898D01*
X152419000Y-132181939D01*
X152419000Y-131978061D01*
X152379226Y-131778102D01*
X152301205Y-131589744D01*
X152187937Y-131420226D01*
X152043774Y-131276063D01*
X151874256Y-131162795D01*
X151685898Y-131084774D01*
X151485939Y-131045000D01*
X151282061Y-131045000D01*
X151082102Y-131084774D01*
X150893744Y-131162795D01*
X150845546Y-131195000D01*
X147350454Y-131195000D01*
X147302256Y-131162795D01*
X147113898Y-131084774D01*
X146913939Y-131045000D01*
X146710061Y-131045000D01*
X146510102Y-131084774D01*
X146321744Y-131162795D01*
X146152226Y-131276063D01*
X146008063Y-131420226D01*
X145894795Y-131589744D01*
X145816774Y-131778102D01*
X145805465Y-131834956D01*
X145147562Y-132492859D01*
X145147562Y-131080510D01*
X145135302Y-130956028D01*
X145098992Y-130836330D01*
X145040027Y-130726016D01*
X144960675Y-130629325D01*
X144863984Y-130549973D01*
X144753670Y-130491008D01*
X144633972Y-130454698D01*
X144509490Y-130442438D01*
X142510510Y-130442438D01*
X142386028Y-130454698D01*
X142266330Y-130491008D01*
X142156016Y-130549973D01*
X142059325Y-130629325D01*
X141979973Y-130726016D01*
X141921008Y-130836330D01*
X141884698Y-130956028D01*
X141872438Y-131080510D01*
X141872438Y-133079490D01*
X141884698Y-133203972D01*
X141921008Y-133323670D01*
X141979973Y-133433984D01*
X142059325Y-133530675D01*
X142156016Y-133610027D01*
X142266330Y-133668992D01*
X142386028Y-133705302D01*
X142510510Y-133717562D01*
X143922860Y-133717562D01*
X143651422Y-133989000D01*
X141508454Y-133989000D01*
X141460256Y-133956795D01*
X141271898Y-133878774D01*
X141071939Y-133839000D01*
X140868061Y-133839000D01*
X140668102Y-133878774D01*
X140479744Y-133956795D01*
X140310226Y-134070063D01*
X140166063Y-134214226D01*
X140052795Y-134383744D01*
X139974774Y-134572102D01*
X139935000Y-134772061D01*
X139935000Y-134975939D01*
X139974774Y-135175898D01*
X140052795Y-135364256D01*
X140166063Y-135533774D01*
X140310226Y-135677937D01*
X140479744Y-135791205D01*
X140502237Y-135800522D01*
X140290273Y-135888320D01*
X140055241Y-136045363D01*
X139855363Y-136245241D01*
X139700000Y-136477759D01*
X139544637Y-136245241D01*
X139344759Y-136045363D01*
X139109727Y-135888320D01*
X138848574Y-135780147D01*
X138571335Y-135725000D01*
X138288665Y-135725000D01*
X138011426Y-135780147D01*
X137750273Y-135888320D01*
X137515241Y-136045363D01*
X137315363Y-136245241D01*
X137160000Y-136477759D01*
X137004637Y-136245241D01*
X136804759Y-136045363D01*
X136569727Y-135888320D01*
X136308574Y-135780147D01*
X136031335Y-135725000D01*
X135748665Y-135725000D01*
X135471426Y-135780147D01*
X135210273Y-135888320D01*
X134975241Y-136045363D01*
X134775363Y-136245241D01*
X134620000Y-136477759D01*
X134464637Y-136245241D01*
X134264759Y-136045363D01*
X134029727Y-135888320D01*
X133768574Y-135780147D01*
X133491335Y-135725000D01*
X133319802Y-135725000D01*
X133410802Y-135634000D01*
X133933676Y-135634000D01*
X133970998Y-135637676D01*
X134008320Y-135634000D01*
X134008331Y-135634000D01*
X134119984Y-135623003D01*
X134263245Y-135579546D01*
X134395274Y-135508974D01*
X134510999Y-135414001D01*
X134534801Y-135384998D01*
X135809801Y-134110000D01*
X136106667Y-134110000D01*
X136144000Y-134113677D01*
X136292986Y-134099003D01*
X136436247Y-134055546D01*
X136568276Y-133984974D01*
X136684001Y-133890001D01*
X136778974Y-133774276D01*
X136849546Y-133642247D01*
X136893003Y-133498986D01*
X136899494Y-133433087D01*
X136899973Y-133433984D01*
X136979325Y-133530675D01*
X137076016Y-133610027D01*
X137186330Y-133668992D01*
X137306028Y-133705302D01*
X137430510Y-133717562D01*
X139429490Y-133717562D01*
X139553972Y-133705302D01*
X139673670Y-133668992D01*
X139783984Y-133610027D01*
X139880675Y-133530675D01*
X139960027Y-133433984D01*
X140018992Y-133323670D01*
X140055302Y-133203972D01*
X140067562Y-133079490D01*
X140067562Y-131080510D01*
X140055302Y-130956028D01*
X140018992Y-130836330D01*
X139960027Y-130726016D01*
X139880675Y-130629325D01*
X139783984Y-130549973D01*
X139673670Y-130491008D01*
X139553972Y-130454698D01*
X139429490Y-130442438D01*
X137430510Y-130442438D01*
X137306028Y-130454698D01*
X137186330Y-130491008D01*
X137076016Y-130549973D01*
X136979325Y-130629325D01*
X136904000Y-130721109D01*
X136904000Y-124678281D01*
X137867240Y-123715042D01*
X139429490Y-123715042D01*
X139553972Y-123702782D01*
X139673670Y-123666472D01*
X139783984Y-123607507D01*
X139880675Y-123528155D01*
X139960027Y-123431464D01*
X140018992Y-123321150D01*
X140055302Y-123201452D01*
X140067562Y-123076970D01*
X140067562Y-121077990D01*
X140055302Y-120953508D01*
X140039677Y-120902000D01*
X141900323Y-120902000D01*
X141884698Y-120953508D01*
X141872438Y-121077990D01*
X141872438Y-123076970D01*
X141884698Y-123201452D01*
X141921008Y-123321150D01*
X141979973Y-123431464D01*
X142059325Y-123528155D01*
X142156016Y-123607507D01*
X142266330Y-123666472D01*
X142386028Y-123702782D01*
X142510510Y-123715042D01*
X144509490Y-123715042D01*
X144633972Y-123702782D01*
X144753670Y-123666472D01*
X144863984Y-123607507D01*
X144960675Y-123528155D01*
X145040027Y-123431464D01*
X145098992Y-123321150D01*
X145135302Y-123201452D01*
X145147562Y-123076970D01*
X145147562Y-121077990D01*
X145135302Y-120953508D01*
X145098992Y-120833810D01*
X145040027Y-120723496D01*
X144960675Y-120626805D01*
X144906476Y-120582325D01*
X151423802Y-114065000D01*
X151485939Y-114065000D01*
X151685898Y-114025226D01*
X151874256Y-113947205D01*
X152043774Y-113833937D01*
X152187937Y-113689774D01*
X152301205Y-113520256D01*
X152379226Y-113331898D01*
X152419000Y-113131939D01*
X152419000Y-112928061D01*
X152379226Y-112728102D01*
X152301205Y-112539744D01*
X152187937Y-112370226D01*
X152043774Y-112226063D01*
X151874256Y-112112795D01*
X151685898Y-112034774D01*
X151485939Y-111995000D01*
X151282061Y-111995000D01*
X151082102Y-112034774D01*
X150893744Y-112112795D01*
X150724226Y-112226063D01*
X150580063Y-112370226D01*
X150466795Y-112539744D01*
X150388774Y-112728102D01*
X150349000Y-112928061D01*
X150349000Y-112990198D01*
X143957199Y-119382000D01*
X137818823Y-119382000D01*
X137781498Y-119378324D01*
X137744173Y-119382000D01*
X137744165Y-119382000D01*
X137632512Y-119392997D01*
X137489251Y-119436454D01*
X137357222Y-119507026D01*
X137241497Y-119601999D01*
X137217699Y-119630997D01*
X134026259Y-122822438D01*
X132193030Y-122822438D01*
X132068548Y-122834698D01*
X131948850Y-122871008D01*
X131838536Y-122929973D01*
X131741845Y-123009325D01*
X131662493Y-123106016D01*
X131603528Y-123216330D01*
X131567218Y-123336028D01*
X131554958Y-123460510D01*
X131554958Y-125459490D01*
X131567218Y-125583972D01*
X131603528Y-125703670D01*
X131618671Y-125732000D01*
X131513711Y-125732000D01*
X131469774Y-125688063D01*
X131300256Y-125574795D01*
X131111898Y-125496774D01*
X130911939Y-125457000D01*
X130708061Y-125457000D01*
X130508102Y-125496774D01*
X130319744Y-125574795D01*
X130150226Y-125688063D01*
X130006063Y-125832226D01*
X129892795Y-126001744D01*
X129814774Y-126190102D01*
X129775000Y-126390061D01*
X129775000Y-126593939D01*
X129814774Y-126793898D01*
X129892795Y-126982256D01*
X130006063Y-127151774D01*
X130150226Y-127295937D01*
X130319744Y-127409205D01*
X130508102Y-127487226D01*
X130708061Y-127527000D01*
X130911939Y-127527000D01*
X131111898Y-127487226D01*
X131300256Y-127409205D01*
X131469774Y-127295937D01*
X131513711Y-127252000D01*
X131556781Y-127252000D01*
X131554958Y-127270510D01*
X131554958Y-129269490D01*
X131567218Y-129393972D01*
X131603528Y-129513670D01*
X131662493Y-129623984D01*
X131741845Y-129720675D01*
X131838536Y-129800027D01*
X131948850Y-129858992D01*
X132068548Y-129895302D01*
X132193030Y-129907562D01*
X134192010Y-129907562D01*
X134316492Y-129895302D01*
X134436190Y-129858992D01*
X134546504Y-129800027D01*
X134643195Y-129720675D01*
X134722547Y-129623984D01*
X134781512Y-129513670D01*
X134817822Y-129393972D01*
X134830082Y-129269490D01*
X134830082Y-129146004D01*
X134891744Y-129187205D01*
X135080102Y-129265226D01*
X135280061Y-129305000D01*
X135384001Y-129305000D01*
X135384001Y-132597255D01*
X135346012Y-132600997D01*
X135202751Y-132644454D01*
X135070722Y-132715026D01*
X135070720Y-132715027D01*
X135070721Y-132715027D01*
X134987562Y-132783273D01*
X134987562Y-131080510D01*
X134975302Y-130956028D01*
X134938992Y-130836330D01*
X134880027Y-130726016D01*
X134800675Y-130629325D01*
X134703984Y-130549973D01*
X134593670Y-130491008D01*
X134473972Y-130454698D01*
X134349490Y-130442438D01*
X132350510Y-130442438D01*
X132226028Y-130454698D01*
X132106330Y-130491008D01*
X131996016Y-130549973D01*
X131899325Y-130629325D01*
X131819973Y-130726016D01*
X131761008Y-130836330D01*
X131724698Y-130956028D01*
X131712438Y-131080510D01*
X131712438Y-132642761D01*
X131568998Y-132786201D01*
X131540000Y-132809999D01*
X131516202Y-132838997D01*
X131516201Y-132838998D01*
X131445026Y-132925724D01*
X131374454Y-133057754D01*
X131330998Y-133201015D01*
X131316324Y-133350000D01*
X131320001Y-133387332D01*
X131320001Y-133916288D01*
X131276063Y-133960226D01*
X131162795Y-134129744D01*
X131084774Y-134318102D01*
X131045000Y-134518061D01*
X131045000Y-134721939D01*
X131084774Y-134921898D01*
X131162795Y-135110256D01*
X131276063Y-135279774D01*
X131420226Y-135423937D01*
X131450820Y-135444379D01*
X131133886Y-135761312D01*
X130951335Y-135725000D01*
X130668665Y-135725000D01*
X130391426Y-135780147D01*
X130130273Y-135888320D01*
X129895241Y-136045363D01*
X129695363Y-136245241D01*
X129540000Y-136477759D01*
X129384637Y-136245241D01*
X129184759Y-136045363D01*
X128949727Y-135888320D01*
X128688574Y-135780147D01*
X128411335Y-135725000D01*
X128128665Y-135725000D01*
X127851426Y-135780147D01*
X127590273Y-135888320D01*
X127355241Y-136045363D01*
X127155363Y-136245241D01*
X126999022Y-136479222D01*
X125601000Y-135081201D01*
X125601000Y-126148333D01*
X125604677Y-126111000D01*
X125590003Y-125962014D01*
X125546546Y-125818753D01*
X125475974Y-125686724D01*
X125404799Y-125599997D01*
X125381001Y-125570999D01*
X125352003Y-125547201D01*
X124827562Y-125022760D01*
X124827562Y-123460510D01*
X124815302Y-123336028D01*
X124778992Y-123216330D01*
X124720027Y-123106016D01*
X124640675Y-123009325D01*
X124543984Y-122929973D01*
X124433670Y-122871008D01*
X124313972Y-122834698D01*
X124189490Y-122822438D01*
X122190510Y-122822438D01*
X122172000Y-122824261D01*
X122172000Y-122285739D01*
X122190510Y-122287562D01*
X124189490Y-122287562D01*
X124313972Y-122275302D01*
X124433670Y-122238992D01*
X124543984Y-122180027D01*
X124640675Y-122100675D01*
X124720027Y-122003984D01*
X124778992Y-121893670D01*
X124815302Y-121773972D01*
X124827562Y-121649490D01*
X124827562Y-119650510D01*
X124815302Y-119526028D01*
X124778992Y-119406330D01*
X124720027Y-119296016D01*
X124640675Y-119199325D01*
X124543984Y-119119973D01*
X124433670Y-119061008D01*
X124313972Y-119024698D01*
X124189490Y-119012438D01*
X122190510Y-119012438D01*
X122172000Y-119014261D01*
X122172000Y-115840510D01*
X129251178Y-115840510D01*
X129251178Y-117839490D01*
X129263438Y-117963972D01*
X129299748Y-118083670D01*
X129358713Y-118193984D01*
X129438065Y-118290675D01*
X129534756Y-118370027D01*
X129645070Y-118428992D01*
X129764768Y-118465302D01*
X129889250Y-118477562D01*
X131888230Y-118477562D01*
X132012712Y-118465302D01*
X132132410Y-118428992D01*
X132242724Y-118370027D01*
X132339415Y-118290675D01*
X132418767Y-118193984D01*
X132477732Y-118083670D01*
X132514042Y-117963972D01*
X132526302Y-117839490D01*
X132526302Y-115840510D01*
X132514042Y-115716028D01*
X132477732Y-115596330D01*
X132418767Y-115486016D01*
X132339415Y-115389325D01*
X132242724Y-115309973D01*
X132132410Y-115251008D01*
X132012712Y-115214698D01*
X131888230Y-115202438D01*
X129889250Y-115202438D01*
X129764768Y-115214698D01*
X129645070Y-115251008D01*
X129534756Y-115309973D01*
X129438065Y-115389325D01*
X129358713Y-115486016D01*
X129299748Y-115596330D01*
X129263438Y-115716028D01*
X129251178Y-115840510D01*
X122172000Y-115840510D01*
X122172000Y-114452061D01*
X123933000Y-114452061D01*
X123933000Y-114655939D01*
X123972774Y-114855898D01*
X124050795Y-115044256D01*
X124164063Y-115213774D01*
X124308226Y-115357937D01*
X124477744Y-115471205D01*
X124666102Y-115549226D01*
X124866061Y-115589000D01*
X125069939Y-115589000D01*
X125269898Y-115549226D01*
X125458256Y-115471205D01*
X125506454Y-115439000D01*
X127985546Y-115439000D01*
X128033744Y-115471205D01*
X128222102Y-115549226D01*
X128422061Y-115589000D01*
X128625939Y-115589000D01*
X128825898Y-115549226D01*
X129014256Y-115471205D01*
X129183774Y-115357937D01*
X129327937Y-115213774D01*
X129441205Y-115044256D01*
X129519226Y-114855898D01*
X129559000Y-114655939D01*
X129559000Y-114452061D01*
X129519226Y-114252102D01*
X129441205Y-114063744D01*
X129327937Y-113894226D01*
X129183774Y-113750063D01*
X129014256Y-113636795D01*
X128825898Y-113558774D01*
X128625939Y-113519000D01*
X128422061Y-113519000D01*
X128222102Y-113558774D01*
X128033744Y-113636795D01*
X127985546Y-113669000D01*
X125506454Y-113669000D01*
X125458256Y-113636795D01*
X125269898Y-113558774D01*
X125069939Y-113519000D01*
X124866061Y-113519000D01*
X124666102Y-113558774D01*
X124477744Y-113636795D01*
X124308226Y-113750063D01*
X124164063Y-113894226D01*
X124050795Y-114063744D01*
X123972774Y-114252102D01*
X123933000Y-114452061D01*
X122172000Y-114452061D01*
X122172000Y-108749323D01*
X122175676Y-108712000D01*
X122172000Y-108674677D01*
X122172000Y-108674667D01*
X122161003Y-108563014D01*
X122117546Y-108419753D01*
X122106139Y-108398412D01*
X122046974Y-108287723D01*
X121975799Y-108200997D01*
X121975798Y-108200996D01*
X121952001Y-108171999D01*
X121923003Y-108148201D01*
X120821209Y-107046408D01*
X120865000Y-106826260D01*
X120865000Y-106699802D01*
X123440996Y-109275799D01*
X123441007Y-109275808D01*
X125420201Y-111255003D01*
X125443999Y-111284001D01*
X125472997Y-111307799D01*
X125559723Y-111378974D01*
X125691753Y-111449546D01*
X125835014Y-111493003D01*
X125946667Y-111504000D01*
X125946677Y-111504000D01*
X125984000Y-111507676D01*
X126021323Y-111504000D01*
X137630678Y-111504000D01*
X137668000Y-111507676D01*
X137705322Y-111504000D01*
X137705333Y-111504000D01*
X137816986Y-111493003D01*
X137960247Y-111449546D01*
X138092276Y-111378974D01*
X138208001Y-111284001D01*
X138231804Y-111254997D01*
X140014802Y-109472000D01*
X141790289Y-109472000D01*
X141834226Y-109515937D01*
X142003744Y-109629205D01*
X142192102Y-109707226D01*
X142200335Y-109708864D01*
X140147199Y-111762000D01*
X136181322Y-111762000D01*
X136143999Y-111758324D01*
X136106676Y-111762000D01*
X136106667Y-111762000D01*
X135995014Y-111772997D01*
X135851753Y-111816454D01*
X135719724Y-111887026D01*
X135603999Y-111981999D01*
X135580201Y-112010997D01*
X133347003Y-114244196D01*
X133317999Y-114267999D01*
X133262871Y-114335174D01*
X133223026Y-114383724D01*
X133186499Y-114452061D01*
X133152454Y-114515754D01*
X133108997Y-114659015D01*
X133098000Y-114770668D01*
X133098000Y-114770678D01*
X133094324Y-114808000D01*
X133098000Y-114845323D01*
X133098001Y-118811197D01*
X132896761Y-119012438D01*
X132193030Y-119012438D01*
X132068548Y-119024698D01*
X131948850Y-119061008D01*
X131838536Y-119119973D01*
X131741845Y-119199325D01*
X131662493Y-119296016D01*
X131603528Y-119406330D01*
X131567218Y-119526028D01*
X131554958Y-119650510D01*
X131554958Y-121649490D01*
X131567218Y-121773972D01*
X131603528Y-121893670D01*
X131662493Y-122003984D01*
X131741845Y-122100675D01*
X131838536Y-122180027D01*
X131948850Y-122238992D01*
X132068548Y-122275302D01*
X132193030Y-122287562D01*
X134192010Y-122287562D01*
X134316492Y-122275302D01*
X134436190Y-122238992D01*
X134546504Y-122180027D01*
X134643195Y-122100675D01*
X134722547Y-122003984D01*
X134781512Y-121893670D01*
X134817822Y-121773972D01*
X134830082Y-121649490D01*
X134830082Y-119650510D01*
X134817822Y-119526028D01*
X134781512Y-119406330D01*
X134722547Y-119296016D01*
X134643195Y-119199325D01*
X134616604Y-119177503D01*
X134618000Y-119163333D01*
X134618000Y-119163323D01*
X134621676Y-119126000D01*
X134618000Y-119088677D01*
X134618000Y-115840510D01*
X139253698Y-115840510D01*
X139253698Y-117839490D01*
X139265958Y-117963972D01*
X139302268Y-118083670D01*
X139361233Y-118193984D01*
X139440585Y-118290675D01*
X139537276Y-118370027D01*
X139647590Y-118428992D01*
X139767288Y-118465302D01*
X139891770Y-118477562D01*
X141890750Y-118477562D01*
X142015232Y-118465302D01*
X142134930Y-118428992D01*
X142245244Y-118370027D01*
X142341935Y-118290675D01*
X142421287Y-118193984D01*
X142480252Y-118083670D01*
X142516562Y-117963972D01*
X142528822Y-117839490D01*
X142528822Y-115840510D01*
X142516562Y-115716028D01*
X142480252Y-115596330D01*
X142421287Y-115486016D01*
X142341935Y-115389325D01*
X142245244Y-115309973D01*
X142134930Y-115251008D01*
X142015232Y-115214698D01*
X141890750Y-115202438D01*
X139891770Y-115202438D01*
X139767288Y-115214698D01*
X139647590Y-115251008D01*
X139537276Y-115309973D01*
X139440585Y-115389325D01*
X139361233Y-115486016D01*
X139302268Y-115596330D01*
X139265958Y-115716028D01*
X139253698Y-115840510D01*
X134618000Y-115840510D01*
X134618000Y-115122801D01*
X136458802Y-113282000D01*
X140424678Y-113282000D01*
X140462000Y-113285676D01*
X140499322Y-113282000D01*
X140499333Y-113282000D01*
X140610986Y-113271003D01*
X140754247Y-113227546D01*
X140886276Y-113156974D01*
X141002001Y-113062001D01*
X141025804Y-113032997D01*
X141415621Y-112643180D01*
X141436063Y-112673774D01*
X141580226Y-112817937D01*
X141749744Y-112931205D01*
X141938102Y-113009226D01*
X142138061Y-113049000D01*
X142341939Y-113049000D01*
X142541898Y-113009226D01*
X142730256Y-112931205D01*
X142899774Y-112817937D01*
X142943711Y-112774000D01*
X145346289Y-112774000D01*
X145390226Y-112817937D01*
X145559744Y-112931205D01*
X145748102Y-113009226D01*
X145948061Y-113049000D01*
X146151939Y-113049000D01*
X146351898Y-113009226D01*
X146540256Y-112931205D01*
X146709774Y-112817937D01*
X146853937Y-112673774D01*
X146967205Y-112504256D01*
X147045226Y-112315898D01*
X147085000Y-112115939D01*
X147085000Y-111912061D01*
X147045226Y-111712102D01*
X146967205Y-111523744D01*
X146853937Y-111354226D01*
X146709774Y-111210063D01*
X146540256Y-111096795D01*
X146351898Y-111018774D01*
X146151939Y-110979000D01*
X145948061Y-110979000D01*
X145748102Y-111018774D01*
X145559744Y-111096795D01*
X145390226Y-111210063D01*
X145346289Y-111254000D01*
X142943711Y-111254000D01*
X142899774Y-111210063D01*
X142869180Y-111189621D01*
X144780000Y-109278802D01*
X145232201Y-109731003D01*
X145255999Y-109760001D01*
X145284997Y-109783799D01*
X145371723Y-109854974D01*
X145458748Y-109901490D01*
X145503753Y-109925546D01*
X145647014Y-109969003D01*
X145758667Y-109980000D01*
X145758677Y-109980000D01*
X145796000Y-109983676D01*
X145833322Y-109980000D01*
X151121822Y-109980000D01*
X151246525Y-110166632D01*
X151453368Y-110373475D01*
X151696589Y-110535990D01*
X151966842Y-110647932D01*
X152253740Y-110705000D01*
X152546260Y-110705000D01*
X152833158Y-110647932D01*
X153103411Y-110535990D01*
X153346632Y-110373475D01*
X153553475Y-110166632D01*
X153715990Y-109923411D01*
X153827932Y-109653158D01*
X153885000Y-109366260D01*
X153885000Y-109073740D01*
X153827932Y-108786842D01*
X153715990Y-108516589D01*
X153553475Y-108273368D01*
X153346632Y-108066525D01*
X153172240Y-107950000D01*
X153346632Y-107833475D01*
X153553475Y-107626632D01*
X153715990Y-107383411D01*
X153827932Y-107113158D01*
X153885000Y-106826260D01*
X153885000Y-106533740D01*
X153827932Y-106246842D01*
X153715990Y-105976589D01*
X153553475Y-105733368D01*
X153346632Y-105526525D01*
X153172240Y-105410000D01*
X153346632Y-105293475D01*
X153553475Y-105086632D01*
X153715990Y-104843411D01*
X153827932Y-104573158D01*
X153885000Y-104286260D01*
X153885000Y-103993740D01*
X153827932Y-103706842D01*
X153715990Y-103436589D01*
X153553475Y-103193368D01*
X153421620Y-103061513D01*
X153494180Y-103039502D01*
X153604494Y-102980537D01*
X153701185Y-102901185D01*
X153780537Y-102804494D01*
X153839502Y-102694180D01*
X153875812Y-102574482D01*
X153888072Y-102450000D01*
X153888072Y-100750000D01*
X153875812Y-100625518D01*
X153839502Y-100505820D01*
X153780537Y-100395506D01*
X153701185Y-100298815D01*
X153604494Y-100219463D01*
X153494180Y-100160498D01*
X153374482Y-100124188D01*
X153250000Y-100111928D01*
X151986730Y-100111928D01*
X143000000Y-91125199D01*
X143000000Y-82587322D01*
X143003676Y-82549999D01*
X143000000Y-82512676D01*
X143000000Y-82512667D01*
X142989003Y-82401014D01*
X142945546Y-82257753D01*
X142874974Y-82125724D01*
X142780001Y-82009999D01*
X142751003Y-81986201D01*
X141533804Y-80769003D01*
X141510001Y-80739999D01*
X141394276Y-80645026D01*
X141385110Y-80640127D01*
X141298932Y-80478899D01*
X141119608Y-80260392D01*
X140901101Y-80081068D01*
X140651808Y-79947818D01*
X140381309Y-79865764D01*
X140170492Y-79845000D01*
X139229508Y-79845000D01*
X139018691Y-79865764D01*
X138748192Y-79947818D01*
X138498899Y-80081068D01*
X138280392Y-80260392D01*
X138101068Y-80478899D01*
X138079099Y-80520000D01*
X137832322Y-80520000D01*
X137794999Y-80516324D01*
X137757676Y-80520000D01*
X137757667Y-80520000D01*
X137646014Y-80530997D01*
X137502753Y-80574454D01*
X137370724Y-80645026D01*
X137254999Y-80739999D01*
X137231196Y-80769003D01*
X136902998Y-81097201D01*
X136874000Y-81120999D01*
X136850202Y-81149997D01*
X136850201Y-81149998D01*
X136779026Y-81236724D01*
X136708454Y-81368754D01*
X136678180Y-81468558D01*
X136664998Y-81512014D01*
X136654001Y-81623667D01*
X136650324Y-81661000D01*
X136654001Y-81698332D01*
X136654000Y-88839198D01*
X133094008Y-92399191D01*
X133065010Y-92422989D01*
X133041212Y-92451987D01*
X133041211Y-92451988D01*
X132970036Y-92538714D01*
X132899464Y-92670744D01*
X132856008Y-92814005D01*
X132841334Y-92962990D01*
X132845011Y-93000322D01*
X132845010Y-94172188D01*
X128611199Y-98406000D01*
X128549061Y-98406000D01*
X128349102Y-98445774D01*
X128160744Y-98523795D01*
X127991226Y-98637063D01*
X127847063Y-98781226D01*
X127779725Y-98882005D01*
X127693985Y-98855996D01*
X127582332Y-98844999D01*
X127582321Y-98844999D01*
X127544999Y-98841323D01*
X127507677Y-98844999D01*
X121412323Y-98844999D01*
X121375000Y-98841323D01*
X121337677Y-98844999D01*
X121337668Y-98844999D01*
X121226015Y-98855996D01*
X121082754Y-98899453D01*
X120950725Y-98970025D01*
X120950723Y-98970026D01*
X120950724Y-98970026D01*
X120863997Y-99041200D01*
X120863993Y-99041204D01*
X120835000Y-99064998D01*
X120811206Y-99093991D01*
X119793270Y-100111928D01*
X118530000Y-100111928D01*
X118405518Y-100124188D01*
X118285820Y-100160498D01*
X118175506Y-100219463D01*
X118078815Y-100298815D01*
X117999463Y-100395506D01*
X117940498Y-100505820D01*
X117904188Y-100625518D01*
X117891928Y-100750000D01*
X117550000Y-100750000D01*
X117550000Y-99063380D01*
X127333770Y-89279611D01*
X127358948Y-89258948D01*
X127367080Y-89249039D01*
X130288096Y-89249039D01*
X130305633Y-89331818D01*
X130416285Y-89591646D01*
X130575500Y-89824895D01*
X130777161Y-90022601D01*
X131013517Y-90177166D01*
X131275486Y-90282650D01*
X131553000Y-90335000D01*
X131953000Y-90335000D01*
X131953000Y-89027000D01*
X132207000Y-89027000D01*
X132207000Y-90335000D01*
X132607000Y-90335000D01*
X132884514Y-90282650D01*
X133146483Y-90177166D01*
X133382839Y-90022601D01*
X133584500Y-89824895D01*
X133743715Y-89591646D01*
X133854367Y-89331818D01*
X133871904Y-89249039D01*
X133749915Y-89027000D01*
X132207000Y-89027000D01*
X131953000Y-89027000D01*
X130410085Y-89027000D01*
X130288096Y-89249039D01*
X127367080Y-89249039D01*
X127379615Y-89233766D01*
X127441425Y-89158450D01*
X127502710Y-89043793D01*
X127540450Y-88919383D01*
X127542359Y-88900000D01*
X127550000Y-88822419D01*
X127550000Y-88822412D01*
X127553192Y-88790000D01*
X127550000Y-88757588D01*
X127550000Y-83820000D01*
X130238057Y-83820000D01*
X130265764Y-84101309D01*
X130347818Y-84371808D01*
X130481068Y-84621101D01*
X130660392Y-84839608D01*
X130878899Y-85018932D01*
X131011858Y-85090000D01*
X130878899Y-85161068D01*
X130660392Y-85340392D01*
X130481068Y-85558899D01*
X130347818Y-85808192D01*
X130265764Y-86078691D01*
X130238057Y-86360000D01*
X130265764Y-86641309D01*
X130347818Y-86911808D01*
X130481068Y-87161101D01*
X130660392Y-87379608D01*
X130878899Y-87558932D01*
X131006741Y-87627265D01*
X130777161Y-87777399D01*
X130575500Y-87975105D01*
X130416285Y-88208354D01*
X130305633Y-88468182D01*
X130288096Y-88550961D01*
X130410085Y-88773000D01*
X131953000Y-88773000D01*
X131953000Y-88753000D01*
X132207000Y-88753000D01*
X132207000Y-88773000D01*
X133749915Y-88773000D01*
X133871904Y-88550961D01*
X133854367Y-88468182D01*
X133743715Y-88208354D01*
X133584500Y-87975105D01*
X133382839Y-87777399D01*
X133153259Y-87627265D01*
X133281101Y-87558932D01*
X133499608Y-87379608D01*
X133678932Y-87161101D01*
X133812182Y-86911808D01*
X133894236Y-86641309D01*
X133921943Y-86360000D01*
X133894236Y-86078691D01*
X133812182Y-85808192D01*
X133678932Y-85558899D01*
X133499608Y-85340392D01*
X133281101Y-85161068D01*
X133148142Y-85090000D01*
X133281101Y-85018932D01*
X133499608Y-84839608D01*
X133678932Y-84621101D01*
X133812182Y-84371808D01*
X133894236Y-84101309D01*
X133921943Y-83820000D01*
X133894236Y-83538691D01*
X133812182Y-83268192D01*
X133678932Y-83018899D01*
X133499608Y-82800392D01*
X133386518Y-82707581D01*
X133404482Y-82705812D01*
X133524180Y-82669502D01*
X133634494Y-82610537D01*
X133731185Y-82531185D01*
X133810537Y-82434494D01*
X133869502Y-82324180D01*
X133905812Y-82204482D01*
X133918072Y-82080000D01*
X133918072Y-80480000D01*
X133905812Y-80355518D01*
X133869502Y-80235820D01*
X133810537Y-80125506D01*
X133731185Y-80028815D01*
X133634494Y-79949463D01*
X133524180Y-79890498D01*
X133404482Y-79854188D01*
X133280000Y-79841928D01*
X130880000Y-79841928D01*
X130755518Y-79854188D01*
X130635820Y-79890498D01*
X130525506Y-79949463D01*
X130428815Y-80028815D01*
X130349463Y-80125506D01*
X130290498Y-80235820D01*
X130254188Y-80355518D01*
X130241928Y-80480000D01*
X130241928Y-82080000D01*
X130254188Y-82204482D01*
X130290498Y-82324180D01*
X130349463Y-82434494D01*
X130428815Y-82531185D01*
X130525506Y-82610537D01*
X130635820Y-82669502D01*
X130755518Y-82705812D01*
X130773482Y-82707581D01*
X130660392Y-82800392D01*
X130481068Y-83018899D01*
X130347818Y-83268192D01*
X130265764Y-83538691D01*
X130238057Y-83820000D01*
X127550000Y-83820000D01*
X127550000Y-75350000D01*
X130591928Y-75350000D01*
X130591928Y-77050000D01*
X130604188Y-77174482D01*
X130640498Y-77294180D01*
X130699463Y-77404494D01*
X130778815Y-77501185D01*
X130875506Y-77580537D01*
X130985820Y-77639502D01*
X131105518Y-77675812D01*
X131230000Y-77688072D01*
X132930000Y-77688072D01*
X133054482Y-77675812D01*
X133174180Y-77639502D01*
X133284494Y-77580537D01*
X133381185Y-77501185D01*
X133460537Y-77404494D01*
X133519502Y-77294180D01*
X133555812Y-77174482D01*
X133568072Y-77050000D01*
X133568072Y-75350000D01*
X138211928Y-75350000D01*
X138211928Y-77050000D01*
X138224188Y-77174482D01*
X138260498Y-77294180D01*
X138319463Y-77404494D01*
X138398815Y-77501185D01*
X138495506Y-77580537D01*
X138605820Y-77639502D01*
X138725518Y-77675812D01*
X138850000Y-77688072D01*
X140550000Y-77688072D01*
X140674482Y-77675812D01*
X140794180Y-77639502D01*
X140904494Y-77580537D01*
X141001185Y-77501185D01*
X141080537Y-77404494D01*
X141139502Y-77294180D01*
X141175812Y-77174482D01*
X141188072Y-77050000D01*
X141188072Y-75350000D01*
X141175812Y-75225518D01*
X141139502Y-75105820D01*
X141080537Y-74995506D01*
X141001185Y-74898815D01*
X140904494Y-74819463D01*
X140794180Y-74760498D01*
X140674482Y-74724188D01*
X140550000Y-74711928D01*
X138850000Y-74711928D01*
X138725518Y-74724188D01*
X138605820Y-74760498D01*
X138495506Y-74819463D01*
X138398815Y-74898815D01*
X138319463Y-74995506D01*
X138260498Y-75105820D01*
X138224188Y-75225518D01*
X138211928Y-75350000D01*
X133568072Y-75350000D01*
X133555812Y-75225518D01*
X133519502Y-75105820D01*
X133460537Y-74995506D01*
X133381185Y-74898815D01*
X133284494Y-74819463D01*
X133174180Y-74760498D01*
X133054482Y-74724188D01*
X132930000Y-74711928D01*
X131230000Y-74711928D01*
X131105518Y-74724188D01*
X130985820Y-74760498D01*
X130875506Y-74819463D01*
X130778815Y-74898815D01*
X130699463Y-74995506D01*
X130640498Y-75105820D01*
X130604188Y-75225518D01*
X130591928Y-75350000D01*
X127550000Y-75350000D01*
X127550000Y-73450000D01*
X144230000Y-73450000D01*
X144230001Y-88757581D01*
G36*
X124695000Y-100431939D02*
G01*
X124734774Y-100631898D01*
X124812795Y-100820256D01*
X124926063Y-100989774D01*
X125070226Y-101133937D01*
X125239744Y-101247205D01*
X125428102Y-101325226D01*
X125628061Y-101365000D01*
X125831939Y-101365000D01*
X126031898Y-101325226D01*
X126211168Y-101250969D01*
X129775000Y-104814802D01*
X129775000Y-104876939D01*
X129814774Y-105076898D01*
X129892795Y-105265256D01*
X130006063Y-105434774D01*
X130150226Y-105578937D01*
X130319744Y-105692205D01*
X130508102Y-105770226D01*
X130708061Y-105810000D01*
X130911939Y-105810000D01*
X131111898Y-105770226D01*
X131300256Y-105692205D01*
X131469774Y-105578937D01*
X131613937Y-105434774D01*
X131727205Y-105265256D01*
X131805226Y-105076898D01*
X131845000Y-104876939D01*
X131845000Y-104673061D01*
X131805226Y-104473102D01*
X131727205Y-104284744D01*
X131630490Y-104140000D01*
X131727205Y-103995256D01*
X131805226Y-103806898D01*
X131845000Y-103606939D01*
X131845000Y-103544801D01*
X133136002Y-102253800D01*
X133165000Y-102230002D01*
X133259973Y-102114277D01*
X133330545Y-101982248D01*
X133374002Y-101838987D01*
X133384999Y-101727334D01*
X133384999Y-101727325D01*
X133388675Y-101690002D01*
X133384999Y-101652679D01*
X133384999Y-101128798D01*
X134838203Y-102582003D01*
X134862002Y-102611002D01*
X134977727Y-102705975D01*
X135109756Y-102776547D01*
X135253017Y-102820004D01*
X135364670Y-102831001D01*
X135364678Y-102831001D01*
X135402003Y-102834677D01*
X135439328Y-102831001D01*
X136046200Y-102831001D01*
X137612653Y-104397455D01*
X137612653Y-104459592D01*
X137652427Y-104659551D01*
X137730448Y-104847909D01*
X137843716Y-105017427D01*
X137987879Y-105161590D01*
X138157397Y-105274858D01*
X138345755Y-105352879D01*
X138545714Y-105392653D01*
X138612655Y-105392653D01*
X138612655Y-106045176D01*
X138509102Y-106065774D01*
X138320744Y-106143795D01*
X138151226Y-106257063D01*
X138007063Y-106401226D01*
X137893795Y-106570744D01*
X137815774Y-106759102D01*
X137776000Y-106959061D01*
X137776000Y-107162939D01*
X137815774Y-107362898D01*
X137893795Y-107551256D01*
X138007063Y-107720774D01*
X138151226Y-107864937D01*
X138320744Y-107978205D01*
X138509102Y-108056226D01*
X138709061Y-108096000D01*
X138912939Y-108096000D01*
X139112898Y-108056226D01*
X139301256Y-107978205D01*
X139470774Y-107864937D01*
X139614937Y-107720774D01*
X139728205Y-107551256D01*
X139806226Y-107362898D01*
X139846000Y-107162939D01*
X139846000Y-107100802D01*
X139883656Y-107063146D01*
X139912655Y-107039347D01*
X140007628Y-106923622D01*
X140078200Y-106791593D01*
X140121657Y-106648332D01*
X140132654Y-106536679D01*
X140132654Y-106536671D01*
X140136330Y-106499346D01*
X140132654Y-106462021D01*
X140132654Y-104631455D01*
X143705198Y-108204000D01*
X143490864Y-108418335D01*
X143489226Y-108410102D01*
X143411205Y-108221744D01*
X143297937Y-108052226D01*
X143153774Y-107908063D01*
X142984256Y-107794795D01*
X142795898Y-107716774D01*
X142595939Y-107677000D01*
X142392061Y-107677000D01*
X142192102Y-107716774D01*
X142003744Y-107794795D01*
X141834226Y-107908063D01*
X141790289Y-107952000D01*
X139737323Y-107952000D01*
X139700000Y-107948324D01*
X139662677Y-107952000D01*
X139662667Y-107952000D01*
X139551014Y-107962997D01*
X139407753Y-108006454D01*
X139275723Y-108077026D01*
X139192083Y-108145668D01*
X139159999Y-108171999D01*
X139136202Y-108200996D01*
X137353199Y-109984000D01*
X135116356Y-109984000D01*
X135118535Y-109973043D01*
X135215044Y-109876534D01*
X135248817Y-109848817D01*
X135359411Y-109714059D01*
X135441589Y-109560313D01*
X135492195Y-109393490D01*
X135505000Y-109263477D01*
X135505000Y-109263467D01*
X135509281Y-109220001D01*
X135505000Y-109176535D01*
X135505000Y-107218454D01*
X135537205Y-107170256D01*
X135615226Y-106981898D01*
X135655000Y-106781939D01*
X135655000Y-106578061D01*
X135615226Y-106378102D01*
X135537205Y-106189744D01*
X135423937Y-106020226D01*
X135279774Y-105876063D01*
X135110256Y-105762795D01*
X134921898Y-105684774D01*
X134721939Y-105645000D01*
X134518061Y-105645000D01*
X134318102Y-105684774D01*
X134129744Y-105762795D01*
X133960226Y-105876063D01*
X133816063Y-106020226D01*
X133702795Y-106189744D01*
X133624774Y-106378102D01*
X133585000Y-106578061D01*
X133585000Y-106781939D01*
X133624774Y-106981898D01*
X133702795Y-107170256D01*
X133735000Y-107218455D01*
X133735001Y-108763882D01*
X133621744Y-108810795D01*
X133452226Y-108924063D01*
X133308063Y-109068226D01*
X133194795Y-109237744D01*
X133116774Y-109426102D01*
X133077000Y-109626061D01*
X133077000Y-109829939D01*
X133107644Y-109984000D01*
X126298802Y-109984000D01*
X124515808Y-108201007D01*
X124515799Y-108200996D01*
X120821209Y-104506408D01*
X120865000Y-104286260D01*
X120865000Y-103993740D01*
X120807932Y-103706842D01*
X120695990Y-103436589D01*
X120533475Y-103193368D01*
X120401620Y-103061513D01*
X120474180Y-103039502D01*
X120584494Y-102980537D01*
X120681185Y-102901185D01*
X120760537Y-102804494D01*
X120819502Y-102694180D01*
X120855812Y-102574482D01*
X120868072Y-102450000D01*
X120868072Y-101186730D01*
X121689804Y-100364999D01*
X124695000Y-100364999D01*
X124695000Y-100431939D01*
G37*
X124695000Y-100431939D02*
X124734774Y-100631898D01*
X124812795Y-100820256D01*
X124926063Y-100989774D01*
X125070226Y-101133937D01*
X125239744Y-101247205D01*
X125428102Y-101325226D01*
X125628061Y-101365000D01*
X125831939Y-101365000D01*
X126031898Y-101325226D01*
X126211168Y-101250969D01*
X129775000Y-104814802D01*
X129775000Y-104876939D01*
X129814774Y-105076898D01*
X129892795Y-105265256D01*
X130006063Y-105434774D01*
X130150226Y-105578937D01*
X130319744Y-105692205D01*
X130508102Y-105770226D01*
X130708061Y-105810000D01*
X130911939Y-105810000D01*
X131111898Y-105770226D01*
X131300256Y-105692205D01*
X131469774Y-105578937D01*
X131613937Y-105434774D01*
X131727205Y-105265256D01*
X131805226Y-105076898D01*
X131845000Y-104876939D01*
X131845000Y-104673061D01*
X131805226Y-104473102D01*
X131727205Y-104284744D01*
X131630490Y-104140000D01*
X131727205Y-103995256D01*
X131805226Y-103806898D01*
X131845000Y-103606939D01*
X131845000Y-103544801D01*
X133136002Y-102253800D01*
X133165000Y-102230002D01*
X133259973Y-102114277D01*
X133330545Y-101982248D01*
X133374002Y-101838987D01*
X133384999Y-101727334D01*
X133384999Y-101727325D01*
X133388675Y-101690002D01*
X133384999Y-101652679D01*
X133384999Y-101128798D01*
X134838203Y-102582003D01*
X134862002Y-102611002D01*
X134977727Y-102705975D01*
X135109756Y-102776547D01*
X135253017Y-102820004D01*
X135364670Y-102831001D01*
X135364678Y-102831001D01*
X135402003Y-102834677D01*
X135439328Y-102831001D01*
X136046200Y-102831001D01*
X137612653Y-104397455D01*
X137612653Y-104459592D01*
X137652427Y-104659551D01*
X137730448Y-104847909D01*
X137843716Y-105017427D01*
X137987879Y-105161590D01*
X138157397Y-105274858D01*
X138345755Y-105352879D01*
X138545714Y-105392653D01*
X138612655Y-105392653D01*
X138612655Y-106045176D01*
X138509102Y-106065774D01*
X138320744Y-106143795D01*
X138151226Y-106257063D01*
X138007063Y-106401226D01*
X137893795Y-106570744D01*
X137815774Y-106759102D01*
X137776000Y-106959061D01*
X137776000Y-107162939D01*
X137815774Y-107362898D01*
X137893795Y-107551256D01*
X138007063Y-107720774D01*
X138151226Y-107864937D01*
X138320744Y-107978205D01*
X138509102Y-108056226D01*
X138709061Y-108096000D01*
X138912939Y-108096000D01*
X139112898Y-108056226D01*
X139301256Y-107978205D01*
X139470774Y-107864937D01*
X139614937Y-107720774D01*
X139728205Y-107551256D01*
X139806226Y-107362898D01*
X139846000Y-107162939D01*
X139846000Y-107100802D01*
X139883656Y-107063146D01*
X139912655Y-107039347D01*
X140007628Y-106923622D01*
X140078200Y-106791593D01*
X140121657Y-106648332D01*
X140132654Y-106536679D01*
X140132654Y-106536671D01*
X140136330Y-106499346D01*
X140132654Y-106462021D01*
X140132654Y-104631455D01*
X143705198Y-108204000D01*
X143490864Y-108418335D01*
X143489226Y-108410102D01*
X143411205Y-108221744D01*
X143297937Y-108052226D01*
X143153774Y-107908063D01*
X142984256Y-107794795D01*
X142795898Y-107716774D01*
X142595939Y-107677000D01*
X142392061Y-107677000D01*
X142192102Y-107716774D01*
X142003744Y-107794795D01*
X141834226Y-107908063D01*
X141790289Y-107952000D01*
X139737323Y-107952000D01*
X139700000Y-107948324D01*
X139662677Y-107952000D01*
X139662667Y-107952000D01*
X139551014Y-107962997D01*
X139407753Y-108006454D01*
X139275723Y-108077026D01*
X139192083Y-108145668D01*
X139159999Y-108171999D01*
X139136202Y-108200996D01*
X137353199Y-109984000D01*
X135116356Y-109984000D01*
X135118535Y-109973043D01*
X135215044Y-109876534D01*
X135248817Y-109848817D01*
X135359411Y-109714059D01*
X135441589Y-109560313D01*
X135492195Y-109393490D01*
X135505000Y-109263477D01*
X135505000Y-109263467D01*
X135509281Y-109220001D01*
X135505000Y-109176535D01*
X135505000Y-107218454D01*
X135537205Y-107170256D01*
X135615226Y-106981898D01*
X135655000Y-106781939D01*
X135655000Y-106578061D01*
X135615226Y-106378102D01*
X135537205Y-106189744D01*
X135423937Y-106020226D01*
X135279774Y-105876063D01*
X135110256Y-105762795D01*
X134921898Y-105684774D01*
X134721939Y-105645000D01*
X134518061Y-105645000D01*
X134318102Y-105684774D01*
X134129744Y-105762795D01*
X133960226Y-105876063D01*
X133816063Y-106020226D01*
X133702795Y-106189744D01*
X133624774Y-106378102D01*
X133585000Y-106578061D01*
X133585000Y-106781939D01*
X133624774Y-106981898D01*
X133702795Y-107170256D01*
X133735000Y-107218455D01*
X133735001Y-108763882D01*
X133621744Y-108810795D01*
X133452226Y-108924063D01*
X133308063Y-109068226D01*
X133194795Y-109237744D01*
X133116774Y-109426102D01*
X133077000Y-109626061D01*
X133077000Y-109829939D01*
X133107644Y-109984000D01*
X126298802Y-109984000D01*
X124515808Y-108201007D01*
X124515799Y-108200996D01*
X120821209Y-104506408D01*
X120865000Y-104286260D01*
X120865000Y-103993740D01*
X120807932Y-103706842D01*
X120695990Y-103436589D01*
X120533475Y-103193368D01*
X120401620Y-103061513D01*
X120474180Y-103039502D01*
X120584494Y-102980537D01*
X120681185Y-102901185D01*
X120760537Y-102804494D01*
X120819502Y-102694180D01*
X120855812Y-102574482D01*
X120868072Y-102450000D01*
X120868072Y-101186730D01*
X121689804Y-100364999D01*
X124695000Y-100364999D01*
X124695000Y-100431939D01*
G36*
X141480000Y-91402678D02*
G01*
X141476324Y-91440000D01*
X141480000Y-91477322D01*
X141480000Y-91477332D01*
X141490997Y-91588985D01*
X141534454Y-91732246D01*
X141605026Y-91864276D01*
X141644871Y-91912826D01*
X141699999Y-91980001D01*
X141729003Y-92003804D01*
X150911928Y-101186730D01*
X150911928Y-101400349D01*
X148326535Y-98814957D01*
X148315226Y-98758102D01*
X148237205Y-98569744D01*
X148123937Y-98400226D01*
X147979774Y-98256063D01*
X147810256Y-98142795D01*
X147621898Y-98064774D01*
X147421939Y-98025000D01*
X147218061Y-98025000D01*
X147018102Y-98064774D01*
X146829744Y-98142795D01*
X146781546Y-98175000D01*
X142555163Y-98175000D01*
X142535937Y-98146226D01*
X142391774Y-98002063D01*
X142222256Y-97888795D01*
X142033898Y-97810774D01*
X141833939Y-97771000D01*
X141630061Y-97771000D01*
X141430102Y-97810774D01*
X141241744Y-97888795D01*
X141072226Y-98002063D01*
X140928063Y-98146226D01*
X140814795Y-98315744D01*
X140736774Y-98504102D01*
X140697000Y-98704061D01*
X140697000Y-98907939D01*
X140736774Y-99107898D01*
X140814795Y-99296256D01*
X140928063Y-99465774D01*
X141072226Y-99609937D01*
X141241744Y-99723205D01*
X141430102Y-99801226D01*
X141534002Y-99821893D01*
X141645687Y-99881589D01*
X141812510Y-99932195D01*
X141942523Y-99945000D01*
X141942533Y-99945000D01*
X141985999Y-99949281D01*
X142029465Y-99945000D01*
X146781546Y-99945000D01*
X146829744Y-99977205D01*
X147018102Y-100055226D01*
X147074957Y-100066535D01*
X150263421Y-103255000D01*
X147858454Y-103255000D01*
X147810256Y-103222795D01*
X147621898Y-103144774D01*
X147421939Y-103105000D01*
X147218061Y-103105000D01*
X147018102Y-103144774D01*
X146829744Y-103222795D01*
X146660226Y-103336063D01*
X146516063Y-103480226D01*
X146402795Y-103649744D01*
X146324774Y-103838102D01*
X146285000Y-104038061D01*
X146285000Y-104241939D01*
X146324774Y-104441898D01*
X146402795Y-104630256D01*
X146516063Y-104799774D01*
X146660226Y-104943937D01*
X146829744Y-105057205D01*
X147018102Y-105135226D01*
X147218061Y-105175000D01*
X147421939Y-105175000D01*
X147621898Y-105135226D01*
X147810256Y-105057205D01*
X147858454Y-105025000D01*
X151205344Y-105025000D01*
X151246525Y-105086632D01*
X151453368Y-105293475D01*
X151627760Y-105410000D01*
X151453368Y-105526525D01*
X151246525Y-105733368D01*
X151121822Y-105920000D01*
X145348803Y-105920000D01*
X142513000Y-103084199D01*
X142513000Y-103022061D01*
X142473226Y-102822102D01*
X142395205Y-102633744D01*
X142281937Y-102464226D01*
X142137774Y-102320063D01*
X141968256Y-102206795D01*
X141779898Y-102128774D01*
X141579939Y-102089000D01*
X141376061Y-102089000D01*
X141176102Y-102128774D01*
X140987744Y-102206795D01*
X140818226Y-102320063D01*
X140674063Y-102464226D01*
X140560795Y-102633744D01*
X140482774Y-102822102D01*
X140481136Y-102830335D01*
X139719000Y-102068199D01*
X139719000Y-102006061D01*
X139679226Y-101806102D01*
X139601205Y-101617744D01*
X139487937Y-101448226D01*
X139343774Y-101304063D01*
X139174256Y-101190795D01*
X138985898Y-101112774D01*
X138785939Y-101073000D01*
X138582061Y-101073000D01*
X138382102Y-101112774D01*
X138193744Y-101190795D01*
X138024226Y-101304063D01*
X137946888Y-101381401D01*
X137400489Y-100835003D01*
X137376686Y-100805999D01*
X137260961Y-100711026D01*
X137128932Y-100640454D01*
X136985724Y-100597013D01*
X136930774Y-100542063D01*
X136761256Y-100428795D01*
X136572898Y-100350774D01*
X136372939Y-100311000D01*
X136169061Y-100311000D01*
X135969102Y-100350774D01*
X135780744Y-100428795D01*
X135611226Y-100542063D01*
X135467063Y-100686226D01*
X135353795Y-100855744D01*
X135326776Y-100920973D01*
X134261805Y-99856002D01*
X134238002Y-99826998D01*
X134122277Y-99732025D01*
X133990248Y-99661453D01*
X133846987Y-99617996D01*
X133735334Y-99606999D01*
X133735323Y-99606999D01*
X133698001Y-99603323D01*
X133660679Y-99606999D01*
X133039332Y-99606999D01*
X133001999Y-99603322D01*
X132964666Y-99606999D01*
X132853013Y-99617996D01*
X132709752Y-99661453D01*
X132577723Y-99732025D01*
X132461998Y-99826998D01*
X132438195Y-99856002D01*
X132114002Y-100180195D01*
X132084998Y-100203998D01*
X132051401Y-100244937D01*
X131990025Y-100319723D01*
X131949518Y-100395506D01*
X131919453Y-100451753D01*
X131875996Y-100595014D01*
X131864999Y-100706667D01*
X131864999Y-100706677D01*
X131861323Y-100743999D01*
X131864999Y-100781322D01*
X131865000Y-101375198D01*
X130770199Y-102470000D01*
X130708061Y-102470000D01*
X130508102Y-102509774D01*
X130319744Y-102587795D01*
X130150226Y-102701063D01*
X130006063Y-102845226D01*
X129985621Y-102875819D01*
X128577211Y-101467409D01*
X128651000Y-101474677D01*
X128688333Y-101471000D01*
X129979289Y-101471000D01*
X130023226Y-101514937D01*
X130192744Y-101628205D01*
X130381102Y-101706226D01*
X130581061Y-101746000D01*
X130784939Y-101746000D01*
X130984898Y-101706226D01*
X131173256Y-101628205D01*
X131342774Y-101514937D01*
X131486937Y-101370774D01*
X131600205Y-101201256D01*
X131678226Y-101012898D01*
X131718000Y-100812939D01*
X131718000Y-100609061D01*
X131678226Y-100409102D01*
X131600205Y-100220744D01*
X131486937Y-100051226D01*
X131342774Y-99907063D01*
X131173256Y-99793795D01*
X130984898Y-99715774D01*
X130784939Y-99676000D01*
X130581061Y-99676000D01*
X130381102Y-99715774D01*
X130192744Y-99793795D01*
X130023226Y-99907063D01*
X129979289Y-99951000D01*
X129555013Y-99951000D01*
X129568205Y-99931256D01*
X129646226Y-99742898D01*
X129686000Y-99542939D01*
X129686000Y-99480801D01*
X134116014Y-95050788D01*
X134145011Y-95026991D01*
X134171342Y-94994907D01*
X134239984Y-94911267D01*
X134310556Y-94779237D01*
X134310556Y-94779236D01*
X134354013Y-94635976D01*
X134365010Y-94524323D01*
X134365010Y-94524314D01*
X134368686Y-94486991D01*
X134365010Y-94449668D01*
X134365010Y-93277791D01*
X137925004Y-89717798D01*
X137954001Y-89694001D01*
X138040764Y-89588280D01*
X138101068Y-89701101D01*
X138280392Y-89919608D01*
X138498899Y-90098932D01*
X138748192Y-90232182D01*
X139018691Y-90314236D01*
X139229508Y-90335000D01*
X140170492Y-90335000D01*
X140381309Y-90314236D01*
X140651808Y-90232182D01*
X140901101Y-90098932D01*
X141119608Y-89919608D01*
X141298932Y-89701101D01*
X141432182Y-89451808D01*
X141480000Y-89294171D01*
X141480000Y-91402678D01*
G37*
X141480000Y-91402678D02*
X141476324Y-91440000D01*
X141480000Y-91477322D01*
X141480000Y-91477332D01*
X141490997Y-91588985D01*
X141534454Y-91732246D01*
X141605026Y-91864276D01*
X141644871Y-91912826D01*
X141699999Y-91980001D01*
X141729003Y-92003804D01*
X150911928Y-101186730D01*
X150911928Y-101400349D01*
X148326535Y-98814957D01*
X148315226Y-98758102D01*
X148237205Y-98569744D01*
X148123937Y-98400226D01*
X147979774Y-98256063D01*
X147810256Y-98142795D01*
X147621898Y-98064774D01*
X147421939Y-98025000D01*
X147218061Y-98025000D01*
X147018102Y-98064774D01*
X146829744Y-98142795D01*
X146781546Y-98175000D01*
X142555163Y-98175000D01*
X142535937Y-98146226D01*
X142391774Y-98002063D01*
X142222256Y-97888795D01*
X142033898Y-97810774D01*
X141833939Y-97771000D01*
X141630061Y-97771000D01*
X141430102Y-97810774D01*
X141241744Y-97888795D01*
X141072226Y-98002063D01*
X140928063Y-98146226D01*
X140814795Y-98315744D01*
X140736774Y-98504102D01*
X140697000Y-98704061D01*
X140697000Y-98907939D01*
X140736774Y-99107898D01*
X140814795Y-99296256D01*
X140928063Y-99465774D01*
X141072226Y-99609937D01*
X141241744Y-99723205D01*
X141430102Y-99801226D01*
X141534002Y-99821893D01*
X141645687Y-99881589D01*
X141812510Y-99932195D01*
X141942523Y-99945000D01*
X141942533Y-99945000D01*
X141985999Y-99949281D01*
X142029465Y-99945000D01*
X146781546Y-99945000D01*
X146829744Y-99977205D01*
X147018102Y-100055226D01*
X147074957Y-100066535D01*
X150263421Y-103255000D01*
X147858454Y-103255000D01*
X147810256Y-103222795D01*
X147621898Y-103144774D01*
X147421939Y-103105000D01*
X147218061Y-103105000D01*
X147018102Y-103144774D01*
X146829744Y-103222795D01*
X146660226Y-103336063D01*
X146516063Y-103480226D01*
X146402795Y-103649744D01*
X146324774Y-103838102D01*
X146285000Y-104038061D01*
X146285000Y-104241939D01*
X146324774Y-104441898D01*
X146402795Y-104630256D01*
X146516063Y-104799774D01*
X146660226Y-104943937D01*
X146829744Y-105057205D01*
X147018102Y-105135226D01*
X147218061Y-105175000D01*
X147421939Y-105175000D01*
X147621898Y-105135226D01*
X147810256Y-105057205D01*
X147858454Y-105025000D01*
X151205344Y-105025000D01*
X151246525Y-105086632D01*
X151453368Y-105293475D01*
X151627760Y-105410000D01*
X151453368Y-105526525D01*
X151246525Y-105733368D01*
X151121822Y-105920000D01*
X145348803Y-105920000D01*
X142513000Y-103084199D01*
X142513000Y-103022061D01*
X142473226Y-102822102D01*
X142395205Y-102633744D01*
X142281937Y-102464226D01*
X142137774Y-102320063D01*
X141968256Y-102206795D01*
X141779898Y-102128774D01*
X141579939Y-102089000D01*
X141376061Y-102089000D01*
X141176102Y-102128774D01*
X140987744Y-102206795D01*
X140818226Y-102320063D01*
X140674063Y-102464226D01*
X140560795Y-102633744D01*
X140482774Y-102822102D01*
X140481136Y-102830335D01*
X139719000Y-102068199D01*
X139719000Y-102006061D01*
X139679226Y-101806102D01*
X139601205Y-101617744D01*
X139487937Y-101448226D01*
X139343774Y-101304063D01*
X139174256Y-101190795D01*
X138985898Y-101112774D01*
X138785939Y-101073000D01*
X138582061Y-101073000D01*
X138382102Y-101112774D01*
X138193744Y-101190795D01*
X138024226Y-101304063D01*
X137946888Y-101381401D01*
X137400489Y-100835003D01*
X137376686Y-100805999D01*
X137260961Y-100711026D01*
X137128932Y-100640454D01*
X136985724Y-100597013D01*
X136930774Y-100542063D01*
X136761256Y-100428795D01*
X136572898Y-100350774D01*
X136372939Y-100311000D01*
X136169061Y-100311000D01*
X135969102Y-100350774D01*
X135780744Y-100428795D01*
X135611226Y-100542063D01*
X135467063Y-100686226D01*
X135353795Y-100855744D01*
X135326776Y-100920973D01*
X134261805Y-99856002D01*
X134238002Y-99826998D01*
X134122277Y-99732025D01*
X133990248Y-99661453D01*
X133846987Y-99617996D01*
X133735334Y-99606999D01*
X133735323Y-99606999D01*
X133698001Y-99603323D01*
X133660679Y-99606999D01*
X133039332Y-99606999D01*
X133001999Y-99603322D01*
X132964666Y-99606999D01*
X132853013Y-99617996D01*
X132709752Y-99661453D01*
X132577723Y-99732025D01*
X132461998Y-99826998D01*
X132438195Y-99856002D01*
X132114002Y-100180195D01*
X132084998Y-100203998D01*
X132051401Y-100244937D01*
X131990025Y-100319723D01*
X131949518Y-100395506D01*
X131919453Y-100451753D01*
X131875996Y-100595014D01*
X131864999Y-100706667D01*
X131864999Y-100706677D01*
X131861323Y-100743999D01*
X131864999Y-100781322D01*
X131865000Y-101375198D01*
X130770199Y-102470000D01*
X130708061Y-102470000D01*
X130508102Y-102509774D01*
X130319744Y-102587795D01*
X130150226Y-102701063D01*
X130006063Y-102845226D01*
X129985621Y-102875819D01*
X128577211Y-101467409D01*
X128651000Y-101474677D01*
X128688333Y-101471000D01*
X129979289Y-101471000D01*
X130023226Y-101514937D01*
X130192744Y-101628205D01*
X130381102Y-101706226D01*
X130581061Y-101746000D01*
X130784939Y-101746000D01*
X130984898Y-101706226D01*
X131173256Y-101628205D01*
X131342774Y-101514937D01*
X131486937Y-101370774D01*
X131600205Y-101201256D01*
X131678226Y-101012898D01*
X131718000Y-100812939D01*
X131718000Y-100609061D01*
X131678226Y-100409102D01*
X131600205Y-100220744D01*
X131486937Y-100051226D01*
X131342774Y-99907063D01*
X131173256Y-99793795D01*
X130984898Y-99715774D01*
X130784939Y-99676000D01*
X130581061Y-99676000D01*
X130381102Y-99715774D01*
X130192744Y-99793795D01*
X130023226Y-99907063D01*
X129979289Y-99951000D01*
X129555013Y-99951000D01*
X129568205Y-99931256D01*
X129646226Y-99742898D01*
X129686000Y-99542939D01*
X129686000Y-99480801D01*
X134116014Y-95050788D01*
X134145011Y-95026991D01*
X134171342Y-94994907D01*
X134239984Y-94911267D01*
X134310556Y-94779237D01*
X134310556Y-94779236D01*
X134354013Y-94635976D01*
X134365010Y-94524323D01*
X134365010Y-94524314D01*
X134368686Y-94486991D01*
X134365010Y-94449668D01*
X134365010Y-93277791D01*
X137925004Y-89717798D01*
X137954001Y-89694001D01*
X138040764Y-89588280D01*
X138101068Y-89701101D01*
X138280392Y-89919608D01*
X138498899Y-90098932D01*
X138748192Y-90232182D01*
X139018691Y-90314236D01*
X139229508Y-90335000D01*
X140170492Y-90335000D01*
X140381309Y-90314236D01*
X140651808Y-90232182D01*
X140901101Y-90098932D01*
X141119608Y-89919608D01*
X141298932Y-89701101D01*
X141432182Y-89451808D01*
X141480000Y-89294171D01*
X141480000Y-91402678D01*
%TD*%
M02*
