%TF.GenerationSoftware,KiCad,Pcbnew,(5.1.6)-1*%
%TF.CreationDate,2020-07-04T17:27:32+02:00*%
%TF.ProjectId,MP0002 Instrumentation Amplifier,4d503030-3032-4204-996e-737472756d65,1.0*%
%TF.SameCoordinates,Original*%
%TF.FileFunction,Copper,L1,Top*%
%TF.FilePolarity,Positive*%
%FSLAX46Y46*%
G04 Gerber Fmt 4.6, Leading zero omitted, Abs format (unit mm)*
G04 Created by KiCad (PCBNEW (5.1.6)-1) date 2020-07-04 17:27:32*
%MOMM*%
%LPD*%
G01*
G04 APERTURE LIST*
%TA.AperFunction,ComponentPad*%
%ADD10R,1.700000X1.700000*%
%TD*%
%TA.AperFunction,ComponentPad*%
%ADD11O,1.700000X1.700000*%
%TD*%
%TA.AperFunction,SMDPad,CuDef*%
%ADD12C,3.000000*%
%TD*%
%TA.AperFunction,SMDPad,CuDef*%
%ADD13R,1.550000X0.600000*%
%TD*%
%TA.AperFunction,ComponentPad*%
%ADD14R,1.600000X1.600000*%
%TD*%
%TA.AperFunction,ComponentPad*%
%ADD15O,1.600000X1.600000*%
%TD*%
%TA.AperFunction,SMDPad,CuDef*%
%ADD16R,0.400000X0.900000*%
%TD*%
%TA.AperFunction,SMDPad,CuDef*%
%ADD17R,0.900000X0.400000*%
%TD*%
%TA.AperFunction,SMDPad,CuDef*%
%ADD18C,0.100000*%
%TD*%
%TA.AperFunction,ComponentPad*%
%ADD19R,1.998980X1.998980*%
%TD*%
%TA.AperFunction,ComponentPad*%
%ADD20R,2.400000X1.600000*%
%TD*%
%TA.AperFunction,ComponentPad*%
%ADD21O,2.400000X1.600000*%
%TD*%
%TA.AperFunction,SMDPad,CuDef*%
%ADD22R,0.800000X0.750000*%
%TD*%
%TA.AperFunction,SMDPad,CuDef*%
%ADD23R,0.750000X0.800000*%
%TD*%
%TA.AperFunction,ViaPad*%
%ADD24C,0.800000*%
%TD*%
%TA.AperFunction,Conductor*%
%ADD25C,0.500000*%
%TD*%
%TA.AperFunction,Conductor*%
%ADD26C,0.250000*%
%TD*%
%TA.AperFunction,Conductor*%
%ADD27C,0.254000*%
%TD*%
G04 APERTURE END LIST*
D10*
%TO.P,J8,1*%
%TO.N,/Vs+*%
X119380000Y-142240000D03*
D11*
%TO.P,J8,2*%
%TO.N,/Vs-*%
X119380000Y-144780000D03*
%TD*%
D10*
%TO.P,J7,1*%
%TO.N,/In*%
X152400000Y-142240000D03*
D11*
%TO.P,J7,2*%
%TO.N,/Out*%
X152400000Y-144780000D03*
%TD*%
D10*
%TO.P,J6,1*%
%TO.N,/Out*%
X139700000Y-76200000D03*
%TD*%
%TO.P,J5,1*%
%TO.N,/In*%
X132080000Y-76200000D03*
%TD*%
%TO.P,J4,1*%
%TO.N,/Vs+*%
X144780000Y-152400000D03*
D11*
%TO.P,J4,2*%
%TO.N,/Vs-*%
X142240000Y-152400000D03*
%TO.P,J4,3*%
%TO.N,/In-*%
X139700000Y-152400000D03*
%TO.P,J4,4*%
%TO.N,/In+*%
X137160000Y-152400000D03*
%TO.P,J4,5*%
%TO.N,/Ref*%
X134620000Y-152400000D03*
%TO.P,J4,6*%
%TO.N,/Output*%
X132080000Y-152400000D03*
%TO.P,J4,7*%
%TO.N,/In*%
X129540000Y-152400000D03*
%TO.P,J4,8*%
%TO.N,/Out*%
X127000000Y-152400000D03*
%TD*%
D10*
%TO.P,J3,1*%
%TO.N,/Rg_P*%
X152400000Y-101600000D03*
D11*
%TO.P,J3,2*%
%TO.N,/Vs+*%
X152400000Y-104140000D03*
%TO.P,J3,3*%
%TO.N,/Output*%
X152400000Y-106680000D03*
%TO.P,J3,4*%
%TO.N,/Ref*%
X152400000Y-109220000D03*
%TD*%
D12*
%TO.P,TP6,1*%
%TO.N,Net-(TP6-Pad1)*%
X123190000Y-98425000D03*
%TD*%
%TO.P,TP5,1*%
%TO.N,Net-(TP5-Pad1)*%
X123190000Y-103505000D03*
%TD*%
%TO.P,TP4,1*%
%TO.N,Net-(TP4-Pad1)*%
X141224000Y-93218000D03*
%TD*%
%TO.P,TP3,1*%
%TO.N,Net-(TP3-Pad1)*%
X129032000Y-95885000D03*
%TD*%
%TO.P,TP2,1*%
%TO.N,Net-(TP2-Pad1)*%
X137160000Y-109220000D03*
%TD*%
%TO.P,TP1,1*%
%TO.N,Net-(TP1-Pad1)*%
X146050000Y-101600000D03*
%TD*%
D13*
%TO.P,U3,1*%
%TO.N,Net-(TP5-Pad1)*%
X125570000Y-106045000D03*
%TO.P,U3,2*%
%TO.N,/Rg_P*%
X125570000Y-107315000D03*
%TO.P,U3,3*%
%TO.N,/In+*%
X125570000Y-108585000D03*
%TO.P,U3,4*%
%TO.N,/Vs-*%
X125570000Y-109855000D03*
%TO.P,U3,5*%
%TO.N,Net-(U3-Pad5)*%
X130970000Y-109855000D03*
%TO.P,U3,6*%
%TO.N,Net-(RN1-Pad3)*%
X130970000Y-108585000D03*
%TO.P,U3,7*%
%TO.N,/Vs+*%
X130970000Y-107315000D03*
%TO.P,U3,8*%
%TO.N,Net-(TP6-Pad1)*%
X130970000Y-106045000D03*
%TD*%
%TO.P,U4,1*%
%TO.N,Net-(TP3-Pad1)*%
X133190000Y-95885000D03*
%TO.P,U4,2*%
%TO.N,Net-(RN1-Pad7)*%
X133190000Y-97155000D03*
%TO.P,U4,3*%
%TO.N,Net-(RN1-Pad5)*%
X133190000Y-98425000D03*
%TO.P,U4,4*%
%TO.N,/Vs-*%
X133190000Y-99695000D03*
%TO.P,U4,5*%
%TO.N,Net-(U4-Pad5)*%
X138590000Y-99695000D03*
%TO.P,U4,6*%
%TO.N,/Output*%
X138590000Y-98425000D03*
%TO.P,U4,7*%
%TO.N,/Vs+*%
X138590000Y-97155000D03*
%TO.P,U4,8*%
%TO.N,Net-(TP4-Pad1)*%
X138590000Y-95885000D03*
%TD*%
%TO.P,U2,1*%
%TO.N,Net-(TP2-Pad1)*%
X140810000Y-106045000D03*
%TO.P,U2,2*%
%TO.N,/Rg_N*%
X140810000Y-107315000D03*
%TO.P,U2,3*%
%TO.N,/In-*%
X140810000Y-108585000D03*
%TO.P,U2,4*%
%TO.N,/Vs-*%
X140810000Y-109855000D03*
%TO.P,U2,5*%
%TO.N,Net-(U2-Pad5)*%
X146210000Y-109855000D03*
%TO.P,U2,6*%
%TO.N,Net-(RN1-Pad1)*%
X146210000Y-108585000D03*
%TO.P,U2,7*%
%TO.N,/Vs+*%
X146210000Y-107315000D03*
%TO.P,U2,8*%
%TO.N,Net-(TP1-Pad1)*%
X146210000Y-106045000D03*
%TD*%
D14*
%TO.P,U1,1*%
%TO.N,Net-(R1-Pad1)*%
X143510000Y-137160000D03*
D15*
%TO.P,U1,8*%
%TO.N,/Output*%
X128270000Y-144780000D03*
%TO.P,U1,2*%
%TO.N,/Rg_N*%
X140970000Y-137160000D03*
%TO.P,U1,9*%
%TO.N,Net-(R1-Pad2)*%
X130810000Y-144780000D03*
%TO.P,U1,3*%
%TO.N,/In-*%
X138430000Y-137160000D03*
%TO.P,U1,10*%
%TO.N,Net-(R6-Pad2)*%
X133350000Y-144780000D03*
%TO.P,U1,4*%
%TO.N,/Vs+*%
X135890000Y-137160000D03*
%TO.P,U1,11*%
%TO.N,/Vs-*%
X135890000Y-144780000D03*
%TO.P,U1,5*%
%TO.N,/In+*%
X133350000Y-137160000D03*
%TO.P,U1,12*%
%TO.N,/In*%
X138430000Y-144780000D03*
%TO.P,U1,6*%
%TO.N,/Rg_P*%
X130810000Y-137160000D03*
%TO.P,U1,13*%
%TO.N,/Out*%
X140970000Y-144780000D03*
%TO.P,U1,7*%
%TO.N,Net-(R5-Pad2)*%
X128270000Y-137160000D03*
%TO.P,U1,14*%
%TO.N,/Out*%
X143510000Y-144780000D03*
%TD*%
D16*
%TO.P,RN2,2*%
%TO.N,/Rg_P*%
X128670000Y-100750000D03*
%TO.P,RN2,3*%
%TO.N,N/C*%
X127870000Y-100750000D03*
%TO.P,RN2,1*%
%TO.N,/Rg_N*%
X129470000Y-100750000D03*
%TO.P,RN2,4*%
%TO.N,N/C*%
X127070000Y-100750000D03*
%TO.P,RN2,8*%
%TO.N,Net-(RN1-Pad1)*%
X129470000Y-102450000D03*
%TO.P,RN2,7*%
%TO.N,Net-(RN1-Pad3)*%
X128670000Y-102450000D03*
%TO.P,RN2,6*%
%TO.N,N/C*%
X127870000Y-102450000D03*
%TO.P,RN2,5*%
X127070000Y-102450000D03*
%TD*%
D17*
%TO.P,RN1,2*%
%TO.N,/Output*%
X136740000Y-104540000D03*
%TO.P,RN1,3*%
%TO.N,Net-(RN1-Pad3)*%
X136740000Y-103740000D03*
%TO.P,RN1,1*%
%TO.N,Net-(RN1-Pad1)*%
X136740000Y-105340000D03*
%TO.P,RN1,4*%
%TO.N,/Ref*%
X136740000Y-102940000D03*
%TO.P,RN1,8*%
%TO.N,Net-(RN1-Pad7)*%
X135040000Y-105340000D03*
%TO.P,RN1,7*%
X135040000Y-104540000D03*
%TO.P,RN1,6*%
%TO.N,Net-(RN1-Pad5)*%
X135040000Y-103740000D03*
%TO.P,RN1,5*%
X135040000Y-102940000D03*
%TD*%
%TA.AperFunction,SMDPad,CuDef*%
D18*
%TO.P,R7,1*%
%TO.N,Net-(R6-Pad2)*%
G36*
X124028200Y-121848880D02*
G01*
X124028200Y-119451120D01*
X127528320Y-119849900D01*
X127528320Y-121450100D01*
X124028200Y-121848880D01*
G37*
%TD.AperFunction*%
%TA.AperFunction,SMDPad,CuDef*%
%TO.P,R7,2*%
%TO.N,/Ref*%
G36*
X132354320Y-119451120D02*
G01*
X132354320Y-121848880D01*
X128854200Y-121450100D01*
X128854200Y-119849900D01*
X132354320Y-119451120D01*
G37*
%TD.AperFunction*%
D19*
%TO.P,R7,1*%
%TO.N,Net-(R6-Pad2)*%
X123190000Y-120650000D03*
%TO.P,R7,2*%
%TO.N,/Ref*%
X133192520Y-120650000D03*
%TD*%
%TA.AperFunction,SMDPad,CuDef*%
D18*
%TO.P,R6,1*%
%TO.N,Net-(R5-Pad2)*%
G36*
X132354320Y-123261120D02*
G01*
X132354320Y-125658880D01*
X128854200Y-125260100D01*
X128854200Y-123659900D01*
X132354320Y-123261120D01*
G37*
%TD.AperFunction*%
%TA.AperFunction,SMDPad,CuDef*%
%TO.P,R6,2*%
%TO.N,Net-(R6-Pad2)*%
G36*
X124028200Y-125658880D02*
G01*
X124028200Y-123261120D01*
X127528320Y-123659900D01*
X127528320Y-125260100D01*
X124028200Y-125658880D01*
G37*
%TD.AperFunction*%
D19*
%TO.P,R6,1*%
%TO.N,Net-(R5-Pad2)*%
X133192520Y-124460000D03*
%TO.P,R6,2*%
%TO.N,Net-(R6-Pad2)*%
X123190000Y-124460000D03*
%TD*%
%TA.AperFunction,SMDPad,CuDef*%
D18*
%TO.P,R5,1*%
%TO.N,/Rg_P*%
G36*
X137231120Y-122915680D02*
G01*
X139628880Y-122915680D01*
X139230100Y-126415800D01*
X137629900Y-126415800D01*
X137231120Y-122915680D01*
G37*
%TD.AperFunction*%
%TA.AperFunction,SMDPad,CuDef*%
%TO.P,R5,2*%
%TO.N,Net-(R5-Pad2)*%
G36*
X139628880Y-131241800D02*
G01*
X137231120Y-131241800D01*
X137629900Y-127741680D01*
X139230100Y-127741680D01*
X139628880Y-131241800D01*
G37*
%TD.AperFunction*%
D19*
%TO.P,R5,1*%
%TO.N,/Rg_P*%
X138430000Y-122077480D03*
%TO.P,R5,2*%
%TO.N,Net-(R5-Pad2)*%
X138430000Y-132080000D03*
%TD*%
%TA.AperFunction,SMDPad,CuDef*%
D18*
%TO.P,R4,1*%
%TO.N,/Rg_N*%
G36*
X140053060Y-115641120D02*
G01*
X140053060Y-118038880D01*
X136552940Y-117640100D01*
X136552940Y-116039900D01*
X140053060Y-115641120D01*
G37*
%TD.AperFunction*%
%TA.AperFunction,SMDPad,CuDef*%
%TO.P,R4,2*%
%TO.N,/Rg_P*%
G36*
X131726940Y-118038880D02*
G01*
X131726940Y-115641120D01*
X135227060Y-116039900D01*
X135227060Y-117640100D01*
X131726940Y-118038880D01*
G37*
%TD.AperFunction*%
D19*
%TO.P,R4,1*%
%TO.N,/Rg_N*%
X140891260Y-116840000D03*
%TO.P,R4,2*%
%TO.N,/Rg_P*%
X130888740Y-116840000D03*
%TD*%
%TA.AperFunction,SMDPad,CuDef*%
D18*
%TO.P,R3,1*%
%TO.N,/Rg_N*%
G36*
X142311120Y-122915680D02*
G01*
X144708880Y-122915680D01*
X144310100Y-126415800D01*
X142709900Y-126415800D01*
X142311120Y-122915680D01*
G37*
%TD.AperFunction*%
%TA.AperFunction,SMDPad,CuDef*%
%TO.P,R3,2*%
%TO.N,Net-(R1-Pad1)*%
G36*
X144708880Y-131241800D02*
G01*
X142311120Y-131241800D01*
X142709900Y-127741680D01*
X144310100Y-127741680D01*
X144708880Y-131241800D01*
G37*
%TD.AperFunction*%
D19*
%TO.P,R3,1*%
%TO.N,/Rg_N*%
X143510000Y-122077480D03*
%TO.P,R3,2*%
%TO.N,Net-(R1-Pad1)*%
X143510000Y-132080000D03*
%TD*%
%TA.AperFunction,SMDPad,CuDef*%
D18*
%TO.P,R2,1*%
%TO.N,Net-(R1-Pad2)*%
G36*
X132354320Y-127071120D02*
G01*
X132354320Y-129468880D01*
X128854200Y-129070100D01*
X128854200Y-127469900D01*
X132354320Y-127071120D01*
G37*
%TD.AperFunction*%
%TA.AperFunction,SMDPad,CuDef*%
%TO.P,R2,2*%
%TO.N,/Output*%
G36*
X124028200Y-129468880D02*
G01*
X124028200Y-127071120D01*
X127528320Y-127469900D01*
X127528320Y-129070100D01*
X124028200Y-129468880D01*
G37*
%TD.AperFunction*%
D19*
%TO.P,R2,1*%
%TO.N,Net-(R1-Pad2)*%
X133192520Y-128270000D03*
%TO.P,R2,2*%
%TO.N,/Output*%
X123190000Y-128270000D03*
%TD*%
%TA.AperFunction,SMDPad,CuDef*%
D18*
%TO.P,R1,1*%
%TO.N,Net-(R1-Pad1)*%
G36*
X132511800Y-130881120D02*
G01*
X132511800Y-133278880D01*
X129011680Y-132880100D01*
X129011680Y-131279900D01*
X132511800Y-130881120D01*
G37*
%TD.AperFunction*%
%TA.AperFunction,SMDPad,CuDef*%
%TO.P,R1,2*%
%TO.N,Net-(R1-Pad2)*%
G36*
X124185680Y-133278880D02*
G01*
X124185680Y-130881120D01*
X127685800Y-131279900D01*
X127685800Y-132880100D01*
X124185680Y-133278880D01*
G37*
%TD.AperFunction*%
D19*
%TO.P,R1,1*%
%TO.N,Net-(R1-Pad1)*%
X133350000Y-132080000D03*
%TO.P,R1,2*%
%TO.N,Net-(R1-Pad2)*%
X123347480Y-132080000D03*
%TD*%
D20*
%TO.P,J2,1*%
%TO.N,/Rg_N*%
X132080000Y-81280000D03*
D21*
%TO.P,J2,5*%
%TO.N,/Ref*%
X139700000Y-88900000D03*
%TO.P,J2,2*%
%TO.N,/In-*%
X132080000Y-83820000D03*
%TO.P,J2,6*%
%TO.N,/Output*%
X139700000Y-86360000D03*
%TO.P,J2,3*%
%TO.N,/In+*%
X132080000Y-86360000D03*
%TO.P,J2,7*%
%TO.N,/Vs+*%
X139700000Y-83820000D03*
%TO.P,J2,4*%
%TO.N,/Vs-*%
X132080000Y-88900000D03*
%TO.P,J2,8*%
%TO.N,/Rg_P*%
X139700000Y-81280000D03*
%TD*%
D10*
%TO.P,J1,1*%
%TO.N,/Rg_N*%
X119380000Y-101600000D03*
D11*
%TO.P,J1,2*%
%TO.N,/In-*%
X119380000Y-104140000D03*
%TO.P,J1,3*%
%TO.N,/In+*%
X119380000Y-106680000D03*
%TO.P,J1,4*%
%TO.N,/Vs-*%
X119380000Y-109220000D03*
%TD*%
D22*
%TO.P,C4,2*%
%TO.N,/Vs-*%
X141974000Y-97155000D03*
%TO.P,C4,1*%
%TO.N,/Vs+*%
X140474000Y-97155000D03*
%TD*%
D23*
%TO.P,C3,2*%
%TO.N,/Vs-*%
X133223000Y-105803000D03*
%TO.P,C3,1*%
%TO.N,/Vs+*%
X133223000Y-107303000D03*
%TD*%
%TO.P,C2,2*%
%TO.N,/Vs-*%
X148209000Y-108700000D03*
%TO.P,C2,1*%
%TO.N,/Vs+*%
X148209000Y-107200000D03*
%TD*%
D22*
%TO.P,C1,2*%
%TO.N,/Vs-*%
X137402000Y-134874000D03*
%TO.P,C1,1*%
%TO.N,/Vs+*%
X135902000Y-134874000D03*
%TD*%
D24*
%TO.N,/Vs-*%
X133350000Y-104648000D03*
X143256000Y-97028000D03*
X133350000Y-101092000D03*
X148184001Y-110109000D03*
X130810000Y-102108000D03*
X138938000Y-134874000D03*
X138430000Y-114046000D03*
X135890000Y-92964000D03*
X132080000Y-113284000D03*
X122825000Y-109855000D03*
X124460000Y-138430000D03*
X125984000Y-134874000D03*
%TO.N,/Vs+*%
X147320000Y-104140000D03*
X147320000Y-99060000D03*
X141732000Y-98806000D03*
X151384000Y-132080000D03*
X146812000Y-132080000D03*
X140970000Y-134874000D03*
X134620000Y-106680000D03*
X134112000Y-109728000D03*
X128524000Y-114554000D03*
X124968000Y-114554000D03*
X148336000Y-139446000D03*
X150876000Y-137668000D03*
X145288000Y-139700000D03*
X139954000Y-141224000D03*
X135890000Y-141224000D03*
%TO.N,/Rg_N*%
X136271000Y-101346000D03*
X138811000Y-107061000D03*
X130683000Y-100711000D03*
%TO.N,/In-*%
X142494000Y-108712000D03*
X142240000Y-112014000D03*
X146050000Y-112014000D03*
%TO.N,/In+*%
X128270000Y-139446000D03*
%TO.N,/Ref*%
X138684000Y-102108000D03*
X135382000Y-128270000D03*
X135382000Y-123698000D03*
%TO.N,/Output*%
X141478000Y-103124000D03*
X151384000Y-113030000D03*
X130810000Y-126492000D03*
%TO.N,/Rg_P*%
X128651000Y-99441000D03*
%TO.N,/In*%
X130810000Y-147066000D03*
%TO.N,/Out*%
X131499999Y-148082000D03*
%TO.N,Net-(R1-Pad1)*%
X130805347Y-138679347D03*
X132080000Y-134620000D03*
%TO.N,Net-(RN1-Pad1)*%
X138647653Y-104357653D03*
X130810000Y-103505000D03*
%TO.N,Net-(TP6-Pad1)*%
X130810000Y-104775000D03*
X125730000Y-100330000D03*
%TD*%
D25*
%TO.N,/Vs-*%
X120015000Y-109855000D02*
X119380000Y-109220000D01*
X125570000Y-109855000D02*
X122825000Y-109855000D01*
X133223000Y-105803000D02*
X133223000Y-104775000D01*
X133223000Y-104775000D02*
X133350000Y-104648000D01*
X141974000Y-97155000D02*
X143129000Y-97155000D01*
X143129000Y-97155000D02*
X143256000Y-97028000D01*
X133190000Y-99695000D02*
X133190000Y-100932000D01*
X133190000Y-100932000D02*
X133350000Y-101092000D01*
X137140001Y-136671999D02*
X137140001Y-143529999D01*
X137402000Y-136410000D02*
X137140001Y-136671999D01*
X137140001Y-143529999D02*
X135890000Y-144780000D01*
X137402000Y-134874000D02*
X137402000Y-136410000D01*
X140810000Y-109855000D02*
X140810000Y-110142000D01*
X140810000Y-110142000D02*
X139700000Y-111252000D01*
X148209000Y-108700000D02*
X148209000Y-110109000D01*
X148209000Y-110109000D02*
X148184001Y-110109000D01*
X133350000Y-104648000D02*
X130810000Y-102108000D01*
X137402000Y-134874000D02*
X138938000Y-134874000D01*
X139700000Y-111252000D02*
X139700000Y-112776000D01*
X139700000Y-112776000D02*
X138430000Y-114046000D01*
X132080000Y-88900000D02*
X132080000Y-89154000D01*
X132080000Y-89154000D02*
X135890000Y-92964000D01*
X134112000Y-111252000D02*
X139700000Y-111252000D01*
X132080000Y-113284000D02*
X134112000Y-111252000D01*
X122825000Y-109855000D02*
X120015000Y-109855000D01*
X125984000Y-136906000D02*
X124460000Y-138430000D01*
X125984000Y-134874000D02*
X125984000Y-136906000D01*
%TO.N,/Vs+*%
X140474000Y-97155000D02*
X138590000Y-97155000D01*
X133211000Y-107315000D02*
X133223000Y-107303000D01*
X130970000Y-107315000D02*
X133211000Y-107315000D01*
X148094000Y-107315000D02*
X148209000Y-107200000D01*
X146210000Y-107315000D02*
X148094000Y-107315000D01*
X135890000Y-134886000D02*
X135902000Y-134874000D01*
X135890000Y-137160000D02*
X135890000Y-134886000D01*
X147320000Y-105411000D02*
X147320000Y-104140000D01*
X148209000Y-107200000D02*
X148209000Y-106300000D01*
X148209000Y-106300000D02*
X147320000Y-105411000D01*
X135902000Y-134874000D02*
X135902000Y-134354000D01*
X135902000Y-134354000D02*
X136398000Y-133858000D01*
X136398000Y-133858000D02*
X139954000Y-133858000D01*
X139954000Y-133858000D02*
X140970000Y-134874000D01*
X146210000Y-107315000D02*
X145415000Y-107315000D01*
X145415000Y-107315000D02*
X142494000Y-104394000D01*
D26*
%TO.N,/Rg_N*%
X129470000Y-99213590D02*
X132153591Y-96529999D01*
X129470000Y-100750000D02*
X129470000Y-99213590D01*
X132153591Y-96529999D02*
X134225001Y-96529999D01*
X136271000Y-98575998D02*
X136271000Y-101346000D01*
X139065000Y-107315000D02*
X138811000Y-107061000D01*
X140810000Y-107315000D02*
X139065000Y-107315000D01*
X134225001Y-96529999D02*
X135052501Y-97357499D01*
X135052501Y-97357499D02*
X136271000Y-98575998D01*
X129509000Y-100711000D02*
X129470000Y-100750000D01*
X130683000Y-100711000D02*
X129509000Y-100711000D01*
X143219001Y-108363999D02*
X143219001Y-114512259D01*
X142170002Y-107315000D02*
X143219001Y-108363999D01*
X140810000Y-107315000D02*
X142170002Y-107315000D01*
X132080000Y-81280000D02*
X129540000Y-83820000D01*
X129540000Y-83820000D02*
X129540000Y-85598000D01*
X129540000Y-85598000D02*
X129540000Y-85723590D01*
X138303000Y-116840000D02*
X140891260Y-116840000D01*
X143510000Y-122077480D02*
X143510000Y-124665740D01*
X143510000Y-119458740D02*
X140891260Y-116840000D01*
X143510000Y-122077480D02*
X143510000Y-119458740D01*
X140970000Y-116918740D02*
X140891260Y-116840000D01*
X140970000Y-132842000D02*
X140970000Y-116918740D01*
X142494000Y-134366000D02*
X140970000Y-132842000D01*
X142494000Y-135636000D02*
X142494000Y-134366000D01*
X140970000Y-137160000D02*
X142494000Y-135636000D01*
X143219001Y-114512259D02*
X140891260Y-116840000D01*
X119380000Y-100330000D02*
X119380000Y-101600000D01*
X129540000Y-85598000D02*
X129540000Y-89279590D01*
X120904000Y-98806000D02*
X119380000Y-100330000D01*
X129540000Y-89279590D02*
X122669601Y-96149989D01*
X122669601Y-96149989D02*
X122161600Y-96149990D01*
X122161600Y-96149990D02*
X120904000Y-97407590D01*
X120904000Y-97407590D02*
X120904000Y-98806000D01*
%TO.N,/In-*%
X140810000Y-108585000D02*
X142367000Y-108585000D01*
X142367000Y-108585000D02*
X142494000Y-108712000D01*
X142240000Y-108966000D02*
X142494000Y-108712000D01*
X142240000Y-112014000D02*
X142240000Y-108966000D01*
X119380000Y-103977588D02*
X119380000Y-104140000D01*
X121364999Y-101992589D02*
X119380000Y-103977588D01*
X121364999Y-97583001D02*
X121364999Y-101992589D01*
X122348001Y-96599999D02*
X121364999Y-97583001D01*
X122856001Y-96599999D02*
X122348001Y-96599999D01*
X129990010Y-89465990D02*
X122856001Y-96599999D01*
X129990010Y-84459990D02*
X129990010Y-89465990D01*
X130630000Y-83820000D02*
X129990010Y-84459990D01*
X132080000Y-83820000D02*
X130630000Y-83820000D01*
X146050000Y-112014000D02*
X148082000Y-114554000D01*
X137015001Y-149715001D02*
X139700000Y-152400000D01*
X137015001Y-144468185D02*
X137015001Y-149715001D01*
X138430000Y-143053186D02*
X137015001Y-144468185D01*
X138430000Y-137160000D02*
X138430000Y-143053186D01*
X146448999Y-138285001D02*
X148082000Y-136652000D01*
X139555001Y-138285001D02*
X146448999Y-138285001D01*
X138430000Y-137160000D02*
X139555001Y-138285001D01*
X148082000Y-114554000D02*
X148082000Y-136652000D01*
%TO.N,/In+*%
X125570000Y-108585000D02*
X122809000Y-108585000D01*
X120904000Y-106680000D02*
X119380000Y-106680000D01*
X132080000Y-86360000D02*
X132080000Y-86908996D01*
X121539000Y-107315000D02*
X120904000Y-106680000D01*
X122809000Y-108585000D02*
X121539000Y-107315000D01*
X121364999Y-102628999D02*
X121364999Y-107140999D01*
X121364999Y-107140999D02*
X121539000Y-107315000D01*
X122769009Y-101224989D02*
X121364999Y-102628999D01*
X126455001Y-99981999D02*
X126455001Y-101224989D01*
X126455001Y-101224989D02*
X122769009Y-101224989D01*
X132080000Y-86360000D02*
X131826000Y-86360000D01*
X131826000Y-86360000D02*
X130440020Y-87745980D01*
X133350000Y-137160000D02*
X131064000Y-139446000D01*
X131064000Y-139446000D02*
X128270000Y-139446000D01*
X137160000Y-152400000D02*
X134620000Y-149860000D01*
X130440020Y-89015980D02*
X130440020Y-89777980D01*
X130440020Y-87745980D02*
X130440020Y-89015980D01*
X126455001Y-99981999D02*
X126455001Y-100547001D01*
X130440020Y-89777980D02*
X125015001Y-95202999D01*
X125015001Y-98541999D02*
X126455001Y-99981999D01*
X125015001Y-95202999D02*
X125015001Y-98541999D01*
X130048000Y-139446000D02*
X134620000Y-144018000D01*
X128270000Y-139446000D02*
X130048000Y-139446000D01*
X134620000Y-149860000D02*
X134620000Y-144018000D01*
%TO.N,/Ref*%
X136740000Y-102940000D02*
X137852000Y-102940000D01*
X137852000Y-102940000D02*
X138684000Y-102108000D01*
X133192520Y-120650000D02*
X130604260Y-120650000D01*
X128686670Y-131145274D02*
X129783944Y-130048000D01*
X132224999Y-150004999D02*
X132224999Y-144474001D01*
X128686670Y-132338866D02*
X128686670Y-131145274D01*
X134620000Y-152400000D02*
X132224999Y-150004999D01*
X127144999Y-133880537D02*
X128686670Y-132338866D01*
X132224999Y-144474001D02*
X127144999Y-139394001D01*
X127144999Y-139394001D02*
X127144999Y-133880537D01*
X135382000Y-128664502D02*
X135382000Y-128270000D01*
X129783944Y-130048000D02*
X133998502Y-130048000D01*
X133998502Y-130048000D02*
X135382000Y-128664502D01*
X135382000Y-122839480D02*
X133192520Y-120650000D01*
X135382000Y-123698000D02*
X135382000Y-122839480D01*
X139700000Y-88900000D02*
X139700000Y-91440000D01*
X137489999Y-100913999D02*
X138684000Y-102108000D01*
X139700000Y-91440000D02*
X138938000Y-92202000D01*
X138938000Y-93726000D02*
X137489999Y-95174001D01*
X138938000Y-92202000D02*
X138938000Y-93726000D01*
X137489999Y-95174001D02*
X137489999Y-100913999D01*
%TO.N,/Output*%
X136740000Y-104540000D02*
X137440000Y-104540000D01*
X139615000Y-98425000D02*
X138590000Y-98425000D01*
X140335000Y-99145000D02*
X139615000Y-98425000D01*
X137440000Y-104540000D02*
X140040000Y-101940000D01*
X141478000Y-103124000D02*
X140167000Y-101813000D01*
X140040000Y-101940000D02*
X140167000Y-101813000D01*
X140167000Y-101813000D02*
X140335000Y-101645000D01*
X125778260Y-128270000D02*
X123190000Y-128270000D01*
X122022989Y-129437011D02*
X122022989Y-138532989D01*
X122022989Y-138532989D02*
X128270000Y-144780000D01*
X123190000Y-128270000D02*
X122022989Y-129437011D01*
X152400000Y-106680000D02*
X150114000Y-108966000D01*
X150114000Y-108966000D02*
X150114000Y-111760000D01*
X150114000Y-111760000D02*
X151384000Y-113030000D01*
X140335000Y-100457000D02*
X140335000Y-99145000D01*
X140335000Y-101645000D02*
X140335000Y-100457000D01*
X144179002Y-100457000D02*
X140335000Y-100457000D01*
X141225010Y-87885010D02*
X141225010Y-90425010D01*
X139700000Y-86360000D02*
X141225010Y-87885010D01*
X146812000Y-96012000D02*
X146812000Y-97790000D01*
X146812000Y-97790000D02*
X146829001Y-97807001D01*
X141225010Y-90425010D02*
X146812000Y-96012000D01*
X146829001Y-97807001D02*
X144179002Y-100457000D01*
X127556260Y-126492000D02*
X125778260Y-128270000D01*
X130810000Y-126492000D02*
X127556260Y-126492000D01*
%TO.N,/Rg_P*%
X126670001Y-107239999D02*
X126595000Y-107315000D01*
X126670001Y-105545001D02*
X126670001Y-107239999D01*
X126544999Y-105419999D02*
X126670001Y-105545001D01*
X126544999Y-101739999D02*
X126544999Y-105419999D01*
X126609999Y-101674999D02*
X126544999Y-101739999D01*
X128445001Y-101674999D02*
X126609999Y-101674999D01*
X126595000Y-107315000D02*
X125570000Y-107315000D01*
X128670000Y-101450000D02*
X128445001Y-101674999D01*
X128670000Y-100750000D02*
X128670000Y-101450000D01*
X128670000Y-100750000D02*
X128670000Y-99460000D01*
X128670000Y-99460000D02*
X128651000Y-99441000D01*
X130888740Y-116840000D02*
X133477000Y-116840000D01*
X138430000Y-124665740D02*
X138430000Y-122077480D01*
X138430000Y-121793000D02*
X133477000Y-116840000D01*
X138430000Y-122077480D02*
X138430000Y-121793000D01*
X126734000Y-107454000D02*
X126734000Y-115558000D01*
X126595000Y-107315000D02*
X126734000Y-107454000D01*
X128016000Y-116840000D02*
X130888740Y-116840000D01*
X126734000Y-115558000D02*
X128016000Y-116840000D01*
%TO.N,/In*%
X130810000Y-147066000D02*
X129794000Y-148082000D01*
X129794000Y-152146000D02*
X129540000Y-152400000D01*
X129794000Y-148082000D02*
X129794000Y-152146000D01*
X151496998Y-142240000D02*
X152400000Y-142240000D01*
X149606000Y-140349002D02*
X151496998Y-142240000D01*
X132080000Y-76200000D02*
X133255001Y-75024999D01*
X133255001Y-75024999D02*
X140810001Y-75024999D01*
X149606000Y-97533180D02*
X149606000Y-140349002D01*
X140810001Y-75024999D02*
X142182010Y-76397008D01*
X142182010Y-76397008D02*
X142182010Y-90109190D01*
X142182010Y-90109190D02*
X149606000Y-97533180D01*
%TO.N,/Out*%
X130461999Y-146340999D02*
X127000000Y-149802998D01*
X131158001Y-146340999D02*
X130461999Y-146340999D01*
X127000000Y-149802998D02*
X127000000Y-152400000D01*
X131535001Y-146717999D02*
X131158001Y-146340999D01*
X131535001Y-147414001D02*
X131535001Y-146717999D01*
X131499999Y-147449003D02*
X131535001Y-147414001D01*
X131499999Y-148082000D02*
X131499999Y-147449003D01*
X141732000Y-78232000D02*
X139700000Y-76200000D01*
X141732000Y-90295590D02*
X141732000Y-78232000D01*
X148325010Y-105547990D02*
X148325010Y-96888600D01*
X148909001Y-106131981D02*
X148325010Y-105547990D01*
X148909001Y-136586999D02*
X148909001Y-106131981D01*
X146685000Y-138811000D02*
X148909001Y-136586999D01*
X148325010Y-96888600D02*
X141732000Y-90295590D01*
X146685000Y-141605000D02*
X146685000Y-138811000D01*
X143510000Y-144780000D02*
X146685000Y-141605000D01*
%TO.N,Net-(R1-Pad1)*%
X143510000Y-137160000D02*
X143510000Y-132080000D01*
X133350000Y-132080000D02*
X130761740Y-132080000D01*
X143510000Y-129491740D02*
X143510000Y-132080000D01*
X130239662Y-138679347D02*
X129684999Y-138124684D01*
X130805347Y-138679347D02*
X130239662Y-138679347D01*
X129684999Y-138124684D02*
X129684999Y-136619999D01*
X129684999Y-136619999D02*
X131684998Y-134620000D01*
X131684998Y-134620000D02*
X132080000Y-134620000D01*
%TO.N,Net-(R1-Pad2)*%
X125935740Y-132080000D02*
X123347480Y-132080000D01*
X133192520Y-128270000D02*
X130604260Y-128270000D01*
X129745740Y-128270000D02*
X130604260Y-128270000D01*
X125935740Y-132080000D02*
X129745740Y-128270000D01*
X127762000Y-141732000D02*
X130810000Y-144780000D01*
X125984000Y-141732000D02*
X127762000Y-141732000D01*
X123347480Y-139095480D02*
X125984000Y-141732000D01*
X123347480Y-132080000D02*
X123347480Y-139095480D01*
%TO.N,Net-(R5-Pad2)*%
X133192520Y-124460000D02*
X130604260Y-124460000D01*
X138430000Y-132080000D02*
X138430000Y-129491740D01*
X133398260Y-124460000D02*
X133192520Y-124460000D01*
X138430000Y-129491740D02*
X133398260Y-124460000D01*
X131826110Y-133603890D02*
X128270000Y-137160000D01*
X136397780Y-132080000D02*
X134873890Y-133603890D01*
X138430000Y-132080000D02*
X136397780Y-132080000D01*
X134873890Y-133603890D02*
X131826110Y-133603890D01*
%TO.N,Net-(R6-Pad2)*%
X123190000Y-120650000D02*
X123190000Y-124460000D01*
X125778260Y-120650000D02*
X123190000Y-120650000D01*
X125778260Y-124460000D02*
X123190000Y-124460000D01*
%TO.N,Net-(RN1-Pad1)*%
X145185000Y-108585000D02*
X141940000Y-105340000D01*
X146210000Y-108585000D02*
X145185000Y-108585000D01*
X138500000Y-105340000D02*
X136740000Y-105340000D01*
X141940000Y-105340000D02*
X138500000Y-105340000D01*
X129470000Y-102800000D02*
X129470000Y-102450000D01*
X130175000Y-103505000D02*
X129470000Y-102800000D01*
X138500000Y-105340000D02*
X138500000Y-104505306D01*
X130810000Y-103505000D02*
X130175000Y-103505000D01*
X138500000Y-104505306D02*
X138647653Y-104357653D01*
%TO.N,Net-(RN1-Pad5)*%
X135040000Y-102940000D02*
X135040000Y-103740000D01*
X135040000Y-99250000D02*
X135040000Y-102940000D01*
X134215000Y-98425000D02*
X135040000Y-99250000D01*
X133190000Y-98425000D02*
X134215000Y-98425000D01*
%TO.N,Net-(TP1-Pad1)*%
X146050000Y-105885000D02*
X146210000Y-106045000D01*
X146050000Y-101600000D02*
X146050000Y-105885000D01*
%TO.N,Net-(TP2-Pad1)*%
X137160000Y-109220000D02*
X137160000Y-107315000D01*
X138430000Y-106045000D02*
X140810000Y-106045000D01*
X137160000Y-107315000D02*
X138430000Y-106045000D01*
%TO.N,Net-(TP3-Pad1)*%
X133190000Y-95885000D02*
X129032000Y-95885000D01*
%TO.N,Net-(TP4-Pad1)*%
X138590000Y-95852000D02*
X141224000Y-93218000D01*
X138590000Y-95885000D02*
X138590000Y-95852000D01*
%TO.N,Net-(TP5-Pad1)*%
X125570000Y-105885000D02*
X123190000Y-103505000D01*
X125570000Y-106045000D02*
X125570000Y-105885000D01*
%TO.N,Net-(TP6-Pad1)*%
X130970000Y-106045000D02*
X130970000Y-104935000D01*
X130970000Y-104935000D02*
X130810000Y-104775000D01*
X125095000Y-100330000D02*
X123190000Y-98425000D01*
X125730000Y-100330000D02*
X125095000Y-100330000D01*
%TO.N,Net-(RN1-Pad3)*%
X134571002Y-108585000D02*
X130970000Y-108585000D01*
X135815001Y-107341001D02*
X134571002Y-108585000D01*
X136040000Y-103740000D02*
X135815001Y-103964999D01*
X135815001Y-103964999D02*
X135815001Y-107341001D01*
X136740000Y-103740000D02*
X136040000Y-103740000D01*
X128670000Y-107310000D02*
X128670000Y-102450000D01*
X129945000Y-108585000D02*
X128670000Y-107310000D01*
X130970000Y-108585000D02*
X129945000Y-108585000D01*
%TO.N,Net-(RN1-Pad7)*%
X135040000Y-104540000D02*
X135040000Y-105340000D01*
X132165000Y-97155000D02*
X131445000Y-97875000D01*
X133190000Y-97155000D02*
X132165000Y-97155000D01*
X134604998Y-104540000D02*
X135040000Y-104540000D01*
X131445000Y-101380002D02*
X134604998Y-104540000D01*
X131445000Y-97875000D02*
X131445000Y-101380002D01*
%TD*%
D27*
%TO.N,/Vs+*%
G36*
X144230001Y-88757581D02*
G01*
X144226808Y-88790000D01*
X144239551Y-88919382D01*
X144277290Y-89043792D01*
X144338575Y-89158450D01*
X144400386Y-89233766D01*
X144400387Y-89233767D01*
X144421053Y-89258948D01*
X144446232Y-89279612D01*
X154230000Y-99063381D01*
X154230001Y-155130000D01*
X117550000Y-155130000D01*
X117550000Y-143090000D01*
X117891928Y-143090000D01*
X117904188Y-143214482D01*
X117940498Y-143334180D01*
X117999463Y-143444494D01*
X118078815Y-143541185D01*
X118175506Y-143620537D01*
X118285820Y-143679502D01*
X118358380Y-143701513D01*
X118226525Y-143833368D01*
X118064010Y-144076589D01*
X117952068Y-144346842D01*
X117895000Y-144633740D01*
X117895000Y-144926260D01*
X117952068Y-145213158D01*
X118064010Y-145483411D01*
X118226525Y-145726632D01*
X118433368Y-145933475D01*
X118676589Y-146095990D01*
X118946842Y-146207932D01*
X119233740Y-146265000D01*
X119526260Y-146265000D01*
X119813158Y-146207932D01*
X120083411Y-146095990D01*
X120326632Y-145933475D01*
X120533475Y-145726632D01*
X120695990Y-145483411D01*
X120807932Y-145213158D01*
X120865000Y-144926260D01*
X120865000Y-144633740D01*
X120807932Y-144346842D01*
X120695990Y-144076589D01*
X120533475Y-143833368D01*
X120401620Y-143701513D01*
X120474180Y-143679502D01*
X120584494Y-143620537D01*
X120681185Y-143541185D01*
X120760537Y-143444494D01*
X120819502Y-143334180D01*
X120855812Y-143214482D01*
X120868072Y-143090000D01*
X120865000Y-142525750D01*
X120706250Y-142367000D01*
X119507000Y-142367000D01*
X119507000Y-142387000D01*
X119253000Y-142387000D01*
X119253000Y-142367000D01*
X118053750Y-142367000D01*
X117895000Y-142525750D01*
X117891928Y-143090000D01*
X117550000Y-143090000D01*
X117550000Y-141390000D01*
X117891928Y-141390000D01*
X117895000Y-141954250D01*
X118053750Y-142113000D01*
X119253000Y-142113000D01*
X119253000Y-140913750D01*
X119507000Y-140913750D01*
X119507000Y-142113000D01*
X120706250Y-142113000D01*
X120865000Y-141954250D01*
X120868072Y-141390000D01*
X120855812Y-141265518D01*
X120819502Y-141145820D01*
X120760537Y-141035506D01*
X120681185Y-140938815D01*
X120584494Y-140859463D01*
X120474180Y-140800498D01*
X120354482Y-140764188D01*
X120230000Y-140751928D01*
X119665750Y-140755000D01*
X119507000Y-140913750D01*
X119253000Y-140913750D01*
X119094250Y-140755000D01*
X118530000Y-140751928D01*
X118405518Y-140764188D01*
X118285820Y-140800498D01*
X118175506Y-140859463D01*
X118078815Y-140938815D01*
X117999463Y-141035506D01*
X117940498Y-141145820D01*
X117904188Y-141265518D01*
X117891928Y-141390000D01*
X117550000Y-141390000D01*
X117550000Y-100750000D01*
X117891928Y-100750000D01*
X117891928Y-102450000D01*
X117904188Y-102574482D01*
X117940498Y-102694180D01*
X117999463Y-102804494D01*
X118078815Y-102901185D01*
X118175506Y-102980537D01*
X118285820Y-103039502D01*
X118358380Y-103061513D01*
X118226525Y-103193368D01*
X118064010Y-103436589D01*
X117952068Y-103706842D01*
X117895000Y-103993740D01*
X117895000Y-104286260D01*
X117952068Y-104573158D01*
X118064010Y-104843411D01*
X118226525Y-105086632D01*
X118433368Y-105293475D01*
X118607760Y-105410000D01*
X118433368Y-105526525D01*
X118226525Y-105733368D01*
X118064010Y-105976589D01*
X117952068Y-106246842D01*
X117895000Y-106533740D01*
X117895000Y-106826260D01*
X117952068Y-107113158D01*
X118064010Y-107383411D01*
X118226525Y-107626632D01*
X118433368Y-107833475D01*
X118607760Y-107950000D01*
X118433368Y-108066525D01*
X118226525Y-108273368D01*
X118064010Y-108516589D01*
X117952068Y-108786842D01*
X117895000Y-109073740D01*
X117895000Y-109366260D01*
X117952068Y-109653158D01*
X118064010Y-109923411D01*
X118226525Y-110166632D01*
X118433368Y-110373475D01*
X118676589Y-110535990D01*
X118946842Y-110647932D01*
X119233740Y-110705000D01*
X119526260Y-110705000D01*
X119673168Y-110675778D01*
X119674686Y-110676589D01*
X119768344Y-110705000D01*
X119841510Y-110727195D01*
X119971523Y-110740000D01*
X119971531Y-110740000D01*
X120015000Y-110744281D01*
X120058469Y-110740000D01*
X122286546Y-110740000D01*
X122334744Y-110772205D01*
X122523102Y-110850226D01*
X122723061Y-110890000D01*
X122926939Y-110890000D01*
X123126898Y-110850226D01*
X123315256Y-110772205D01*
X123363454Y-110740000D01*
X124542397Y-110740000D01*
X124550820Y-110744502D01*
X124670518Y-110780812D01*
X124795000Y-110793072D01*
X125974000Y-110793072D01*
X125974001Y-115520668D01*
X125970324Y-115558000D01*
X125984998Y-115706985D01*
X126028454Y-115850246D01*
X126099026Y-115982276D01*
X126170201Y-116069002D01*
X126194000Y-116098001D01*
X126222998Y-116121799D01*
X127452200Y-117351002D01*
X127475999Y-117380001D01*
X127591724Y-117474974D01*
X127723753Y-117545546D01*
X127867014Y-117589003D01*
X127978667Y-117600000D01*
X127978675Y-117600000D01*
X128016000Y-117603676D01*
X128053325Y-117600000D01*
X129251178Y-117600000D01*
X129251178Y-117839490D01*
X129263438Y-117963972D01*
X129299748Y-118083670D01*
X129358713Y-118193984D01*
X129438065Y-118290675D01*
X129534756Y-118370027D01*
X129645070Y-118428992D01*
X129764768Y-118465302D01*
X129889250Y-118477562D01*
X131267171Y-118477562D01*
X131329730Y-118538239D01*
X131434782Y-118606136D01*
X131551062Y-118652234D01*
X131674101Y-118674760D01*
X131799170Y-118672851D01*
X133985908Y-118423709D01*
X136792438Y-121230240D01*
X136792438Y-122455911D01*
X136731761Y-122518470D01*
X136663864Y-122623522D01*
X136617766Y-122739802D01*
X136595240Y-122862841D01*
X136597149Y-122987910D01*
X136995929Y-126488030D01*
X137040398Y-126659980D01*
X137099363Y-126770294D01*
X137178715Y-126866985D01*
X137275406Y-126946337D01*
X137385720Y-127005302D01*
X137505418Y-127041612D01*
X137629900Y-127053872D01*
X139230100Y-127053872D01*
X139405978Y-127029154D01*
X139522258Y-126983056D01*
X139627310Y-126915159D01*
X139717098Y-126828072D01*
X139788171Y-126725142D01*
X139837798Y-126610324D01*
X139864071Y-126488030D01*
X140210001Y-123451782D01*
X140210000Y-130705693D01*
X139864071Y-127669450D01*
X139819602Y-127497500D01*
X139760637Y-127387186D01*
X139681285Y-127290495D01*
X139584594Y-127211143D01*
X139474280Y-127152178D01*
X139354582Y-127115868D01*
X139230100Y-127103608D01*
X137629900Y-127103608D01*
X137454022Y-127128326D01*
X137337742Y-127174424D01*
X137246474Y-127233412D01*
X134830082Y-124817021D01*
X134830082Y-124574004D01*
X134891744Y-124615205D01*
X135080102Y-124693226D01*
X135280061Y-124733000D01*
X135483939Y-124733000D01*
X135683898Y-124693226D01*
X135872256Y-124615205D01*
X136041774Y-124501937D01*
X136185937Y-124357774D01*
X136299205Y-124188256D01*
X136377226Y-123999898D01*
X136417000Y-123799939D01*
X136417000Y-123596061D01*
X136377226Y-123396102D01*
X136299205Y-123207744D01*
X136185937Y-123038226D01*
X136142000Y-122994289D01*
X136142000Y-122876802D01*
X136145676Y-122839479D01*
X136142000Y-122802156D01*
X136142000Y-122802147D01*
X136131003Y-122690494D01*
X136087546Y-122547233D01*
X136016974Y-122415204D01*
X135922001Y-122299479D01*
X135893003Y-122275681D01*
X134830082Y-121212760D01*
X134830082Y-119650510D01*
X134817822Y-119526028D01*
X134781512Y-119406330D01*
X134722547Y-119296016D01*
X134643195Y-119199325D01*
X134546504Y-119119973D01*
X134436190Y-119061008D01*
X134316492Y-119024698D01*
X134192010Y-119012438D01*
X132814089Y-119012438D01*
X132751530Y-118951761D01*
X132646478Y-118883864D01*
X132530198Y-118837766D01*
X132407159Y-118815240D01*
X132282090Y-118817149D01*
X128781970Y-119215929D01*
X128610020Y-119260398D01*
X128499706Y-119319363D01*
X128403015Y-119398715D01*
X128323663Y-119495406D01*
X128264698Y-119605720D01*
X128228388Y-119725418D01*
X128216128Y-119849900D01*
X128216128Y-121450100D01*
X128240846Y-121625978D01*
X128286944Y-121742258D01*
X128354841Y-121847310D01*
X128441928Y-121937098D01*
X128544858Y-122008171D01*
X128659676Y-122057798D01*
X128781970Y-122084071D01*
X132282090Y-122482851D01*
X132354320Y-122486952D01*
X132478802Y-122474692D01*
X132598500Y-122438382D01*
X132708814Y-122379417D01*
X132805505Y-122300065D01*
X132815766Y-122287562D01*
X133755280Y-122287562D01*
X134300879Y-122833160D01*
X134192010Y-122822438D01*
X132814089Y-122822438D01*
X132751530Y-122761761D01*
X132646478Y-122693864D01*
X132530198Y-122647766D01*
X132407159Y-122625240D01*
X132282090Y-122627149D01*
X128781970Y-123025929D01*
X128610020Y-123070398D01*
X128499706Y-123129363D01*
X128403015Y-123208715D01*
X128323663Y-123305406D01*
X128264698Y-123415720D01*
X128228388Y-123535418D01*
X128216128Y-123659900D01*
X128216128Y-125260100D01*
X128240846Y-125435978D01*
X128286944Y-125552258D01*
X128354841Y-125657310D01*
X128427284Y-125732000D01*
X127954264Y-125732000D01*
X127979505Y-125711285D01*
X128058857Y-125614594D01*
X128117822Y-125504280D01*
X128154132Y-125384582D01*
X128166392Y-125260100D01*
X128166392Y-123659900D01*
X128141674Y-123484022D01*
X128095576Y-123367742D01*
X128027679Y-123262690D01*
X127940592Y-123172902D01*
X127837662Y-123101829D01*
X127722844Y-123052202D01*
X127600550Y-123025929D01*
X124100430Y-122627149D01*
X124028200Y-122623048D01*
X123950000Y-122630750D01*
X123950000Y-122480117D01*
X123975361Y-122484760D01*
X124100430Y-122482851D01*
X127600550Y-122084071D01*
X127772500Y-122039602D01*
X127882814Y-121980637D01*
X127979505Y-121901285D01*
X128058857Y-121804594D01*
X128117822Y-121694280D01*
X128154132Y-121574582D01*
X128166392Y-121450100D01*
X128166392Y-119849900D01*
X128141674Y-119674022D01*
X128095576Y-119557742D01*
X128027679Y-119452690D01*
X127940592Y-119362902D01*
X127837662Y-119291829D01*
X127722844Y-119242202D01*
X127600550Y-119215929D01*
X124100430Y-118817149D01*
X124028200Y-118813048D01*
X123903718Y-118825308D01*
X123784020Y-118861618D01*
X123673706Y-118920583D01*
X123577015Y-118999935D01*
X123566754Y-119012438D01*
X122190510Y-119012438D01*
X122066028Y-119024698D01*
X121946330Y-119061008D01*
X121836016Y-119119973D01*
X121739325Y-119199325D01*
X121659973Y-119296016D01*
X121601008Y-119406330D01*
X121564698Y-119526028D01*
X121552438Y-119650510D01*
X121552438Y-121649490D01*
X121564698Y-121773972D01*
X121601008Y-121893670D01*
X121659973Y-122003984D01*
X121739325Y-122100675D01*
X121836016Y-122180027D01*
X121946330Y-122238992D01*
X122066028Y-122275302D01*
X122190510Y-122287562D01*
X122430000Y-122287562D01*
X122430001Y-122822438D01*
X122190510Y-122822438D01*
X122066028Y-122834698D01*
X121946330Y-122871008D01*
X121836016Y-122929973D01*
X121739325Y-123009325D01*
X121659973Y-123106016D01*
X121601008Y-123216330D01*
X121564698Y-123336028D01*
X121552438Y-123460510D01*
X121552438Y-125459490D01*
X121564698Y-125583972D01*
X121601008Y-125703670D01*
X121659973Y-125813984D01*
X121739325Y-125910675D01*
X121836016Y-125990027D01*
X121946330Y-126048992D01*
X122066028Y-126085302D01*
X122190510Y-126097562D01*
X123568431Y-126097562D01*
X123630990Y-126158239D01*
X123736042Y-126226136D01*
X123852322Y-126272234D01*
X123975361Y-126294760D01*
X124100430Y-126292851D01*
X127008435Y-125961533D01*
X126992461Y-125980997D01*
X126287167Y-126686291D01*
X124100430Y-126437149D01*
X124028200Y-126433048D01*
X123903718Y-126445308D01*
X123784020Y-126481618D01*
X123673706Y-126540583D01*
X123577015Y-126619935D01*
X123566754Y-126632438D01*
X122190510Y-126632438D01*
X122066028Y-126644698D01*
X121946330Y-126681008D01*
X121836016Y-126739973D01*
X121739325Y-126819325D01*
X121659973Y-126916016D01*
X121601008Y-127026330D01*
X121564698Y-127146028D01*
X121552438Y-127270510D01*
X121552438Y-128832761D01*
X121511992Y-128873207D01*
X121482988Y-128897010D01*
X121433963Y-128956748D01*
X121388015Y-129012735D01*
X121347369Y-129088778D01*
X121317443Y-129144765D01*
X121273986Y-129288026D01*
X121262989Y-129399679D01*
X121262989Y-129399689D01*
X121259313Y-129437011D01*
X121262989Y-129474333D01*
X121262990Y-138495657D01*
X121259313Y-138532989D01*
X121273987Y-138681974D01*
X121317443Y-138825235D01*
X121388015Y-138957265D01*
X121440916Y-139021724D01*
X121482989Y-139072990D01*
X121511987Y-139096788D01*
X126871312Y-144456114D01*
X126835000Y-144638665D01*
X126835000Y-144921335D01*
X126890147Y-145198574D01*
X126998320Y-145459727D01*
X127155363Y-145694759D01*
X127355241Y-145894637D01*
X127590273Y-146051680D01*
X127851426Y-146159853D01*
X128128665Y-146215000D01*
X128411335Y-146215000D01*
X128688574Y-146159853D01*
X128949727Y-146051680D01*
X129184759Y-145894637D01*
X129384637Y-145694759D01*
X129540000Y-145462241D01*
X129695363Y-145694759D01*
X129864400Y-145863796D01*
X126489003Y-149239194D01*
X126459999Y-149262997D01*
X126430081Y-149299453D01*
X126365026Y-149378722D01*
X126341490Y-149422755D01*
X126294454Y-149510752D01*
X126250997Y-149654013D01*
X126240000Y-149765666D01*
X126240000Y-149765676D01*
X126236324Y-149802998D01*
X126240000Y-149840321D01*
X126240001Y-151121821D01*
X126053368Y-151246525D01*
X125846525Y-151453368D01*
X125684010Y-151696589D01*
X125572068Y-151966842D01*
X125515000Y-152253740D01*
X125515000Y-152546260D01*
X125572068Y-152833158D01*
X125684010Y-153103411D01*
X125846525Y-153346632D01*
X126053368Y-153553475D01*
X126296589Y-153715990D01*
X126566842Y-153827932D01*
X126853740Y-153885000D01*
X127146260Y-153885000D01*
X127433158Y-153827932D01*
X127703411Y-153715990D01*
X127946632Y-153553475D01*
X128153475Y-153346632D01*
X128270000Y-153172240D01*
X128386525Y-153346632D01*
X128593368Y-153553475D01*
X128836589Y-153715990D01*
X129106842Y-153827932D01*
X129393740Y-153885000D01*
X129686260Y-153885000D01*
X129973158Y-153827932D01*
X130243411Y-153715990D01*
X130486632Y-153553475D01*
X130693475Y-153346632D01*
X130810000Y-153172240D01*
X130926525Y-153346632D01*
X131133368Y-153553475D01*
X131376589Y-153715990D01*
X131646842Y-153827932D01*
X131933740Y-153885000D01*
X132226260Y-153885000D01*
X132513158Y-153827932D01*
X132783411Y-153715990D01*
X133026632Y-153553475D01*
X133233475Y-153346632D01*
X133350000Y-153172240D01*
X133466525Y-153346632D01*
X133673368Y-153553475D01*
X133916589Y-153715990D01*
X134186842Y-153827932D01*
X134473740Y-153885000D01*
X134766260Y-153885000D01*
X135053158Y-153827932D01*
X135323411Y-153715990D01*
X135566632Y-153553475D01*
X135773475Y-153346632D01*
X135890000Y-153172240D01*
X136006525Y-153346632D01*
X136213368Y-153553475D01*
X136456589Y-153715990D01*
X136726842Y-153827932D01*
X137013740Y-153885000D01*
X137306260Y-153885000D01*
X137593158Y-153827932D01*
X137863411Y-153715990D01*
X138106632Y-153553475D01*
X138313475Y-153346632D01*
X138430000Y-153172240D01*
X138546525Y-153346632D01*
X138753368Y-153553475D01*
X138996589Y-153715990D01*
X139266842Y-153827932D01*
X139553740Y-153885000D01*
X139846260Y-153885000D01*
X140133158Y-153827932D01*
X140403411Y-153715990D01*
X140646632Y-153553475D01*
X140853475Y-153346632D01*
X140970000Y-153172240D01*
X141086525Y-153346632D01*
X141293368Y-153553475D01*
X141536589Y-153715990D01*
X141806842Y-153827932D01*
X142093740Y-153885000D01*
X142386260Y-153885000D01*
X142673158Y-153827932D01*
X142943411Y-153715990D01*
X143186632Y-153553475D01*
X143318487Y-153421620D01*
X143340498Y-153494180D01*
X143399463Y-153604494D01*
X143478815Y-153701185D01*
X143575506Y-153780537D01*
X143685820Y-153839502D01*
X143805518Y-153875812D01*
X143930000Y-153888072D01*
X144494250Y-153885000D01*
X144653000Y-153726250D01*
X144653000Y-152527000D01*
X144907000Y-152527000D01*
X144907000Y-153726250D01*
X145065750Y-153885000D01*
X145630000Y-153888072D01*
X145754482Y-153875812D01*
X145874180Y-153839502D01*
X145984494Y-153780537D01*
X146081185Y-153701185D01*
X146160537Y-153604494D01*
X146219502Y-153494180D01*
X146255812Y-153374482D01*
X146268072Y-153250000D01*
X146265000Y-152685750D01*
X146106250Y-152527000D01*
X144907000Y-152527000D01*
X144653000Y-152527000D01*
X144633000Y-152527000D01*
X144633000Y-152273000D01*
X144653000Y-152273000D01*
X144653000Y-151073750D01*
X144907000Y-151073750D01*
X144907000Y-152273000D01*
X146106250Y-152273000D01*
X146265000Y-152114250D01*
X146268072Y-151550000D01*
X146255812Y-151425518D01*
X146219502Y-151305820D01*
X146160537Y-151195506D01*
X146081185Y-151098815D01*
X145984494Y-151019463D01*
X145874180Y-150960498D01*
X145754482Y-150924188D01*
X145630000Y-150911928D01*
X145065750Y-150915000D01*
X144907000Y-151073750D01*
X144653000Y-151073750D01*
X144494250Y-150915000D01*
X143930000Y-150911928D01*
X143805518Y-150924188D01*
X143685820Y-150960498D01*
X143575506Y-151019463D01*
X143478815Y-151098815D01*
X143399463Y-151195506D01*
X143340498Y-151305820D01*
X143318487Y-151378380D01*
X143186632Y-151246525D01*
X142943411Y-151084010D01*
X142673158Y-150972068D01*
X142386260Y-150915000D01*
X142093740Y-150915000D01*
X141806842Y-150972068D01*
X141536589Y-151084010D01*
X141293368Y-151246525D01*
X141086525Y-151453368D01*
X140970000Y-151627760D01*
X140853475Y-151453368D01*
X140646632Y-151246525D01*
X140403411Y-151084010D01*
X140133158Y-150972068D01*
X139846260Y-150915000D01*
X139553740Y-150915000D01*
X139333592Y-150958790D01*
X137775001Y-149400200D01*
X137775001Y-146061923D01*
X138011426Y-146159853D01*
X138288665Y-146215000D01*
X138571335Y-146215000D01*
X138848574Y-146159853D01*
X139109727Y-146051680D01*
X139344759Y-145894637D01*
X139544637Y-145694759D01*
X139700000Y-145462241D01*
X139855363Y-145694759D01*
X140055241Y-145894637D01*
X140290273Y-146051680D01*
X140551426Y-146159853D01*
X140828665Y-146215000D01*
X141111335Y-146215000D01*
X141388574Y-146159853D01*
X141649727Y-146051680D01*
X141884759Y-145894637D01*
X142084637Y-145694759D01*
X142240000Y-145462241D01*
X142395363Y-145694759D01*
X142595241Y-145894637D01*
X142830273Y-146051680D01*
X143091426Y-146159853D01*
X143368665Y-146215000D01*
X143651335Y-146215000D01*
X143928574Y-146159853D01*
X144189727Y-146051680D01*
X144424759Y-145894637D01*
X144624637Y-145694759D01*
X144781680Y-145459727D01*
X144889853Y-145198574D01*
X144945000Y-144921335D01*
X144945000Y-144638665D01*
X144908688Y-144456114D01*
X147196004Y-142168798D01*
X147225001Y-142145001D01*
X147269307Y-142091014D01*
X147319974Y-142029277D01*
X147390546Y-141897247D01*
X147415275Y-141815724D01*
X147434003Y-141753986D01*
X147445000Y-141642333D01*
X147445000Y-141642324D01*
X147448676Y-141605001D01*
X147445000Y-141567678D01*
X147445000Y-139125801D01*
X148846001Y-137724802D01*
X148846001Y-140311669D01*
X148842324Y-140349002D01*
X148856998Y-140497987D01*
X148900454Y-140641248D01*
X148971026Y-140773278D01*
X149041757Y-140859463D01*
X149066000Y-140889003D01*
X149094998Y-140912801D01*
X150911928Y-142729732D01*
X150911928Y-143090000D01*
X150924188Y-143214482D01*
X150960498Y-143334180D01*
X151019463Y-143444494D01*
X151098815Y-143541185D01*
X151195506Y-143620537D01*
X151305820Y-143679502D01*
X151378380Y-143701513D01*
X151246525Y-143833368D01*
X151084010Y-144076589D01*
X150972068Y-144346842D01*
X150915000Y-144633740D01*
X150915000Y-144926260D01*
X150972068Y-145213158D01*
X151084010Y-145483411D01*
X151246525Y-145726632D01*
X151453368Y-145933475D01*
X151696589Y-146095990D01*
X151966842Y-146207932D01*
X152253740Y-146265000D01*
X152546260Y-146265000D01*
X152833158Y-146207932D01*
X153103411Y-146095990D01*
X153346632Y-145933475D01*
X153553475Y-145726632D01*
X153715990Y-145483411D01*
X153827932Y-145213158D01*
X153885000Y-144926260D01*
X153885000Y-144633740D01*
X153827932Y-144346842D01*
X153715990Y-144076589D01*
X153553475Y-143833368D01*
X153421620Y-143701513D01*
X153494180Y-143679502D01*
X153604494Y-143620537D01*
X153701185Y-143541185D01*
X153780537Y-143444494D01*
X153839502Y-143334180D01*
X153875812Y-143214482D01*
X153888072Y-143090000D01*
X153888072Y-141390000D01*
X153875812Y-141265518D01*
X153839502Y-141145820D01*
X153780537Y-141035506D01*
X153701185Y-140938815D01*
X153604494Y-140859463D01*
X153494180Y-140800498D01*
X153374482Y-140764188D01*
X153250000Y-140751928D01*
X151550000Y-140751928D01*
X151425518Y-140764188D01*
X151305820Y-140800498D01*
X151195506Y-140859463D01*
X151193175Y-140861376D01*
X150366000Y-140034201D01*
X150366000Y-113217404D01*
X150388774Y-113331898D01*
X150466795Y-113520256D01*
X150580063Y-113689774D01*
X150724226Y-113833937D01*
X150893744Y-113947205D01*
X151082102Y-114025226D01*
X151282061Y-114065000D01*
X151485939Y-114065000D01*
X151685898Y-114025226D01*
X151874256Y-113947205D01*
X152043774Y-113833937D01*
X152187937Y-113689774D01*
X152301205Y-113520256D01*
X152379226Y-113331898D01*
X152419000Y-113131939D01*
X152419000Y-112928061D01*
X152379226Y-112728102D01*
X152301205Y-112539744D01*
X152187937Y-112370226D01*
X152043774Y-112226063D01*
X151874256Y-112112795D01*
X151685898Y-112034774D01*
X151485939Y-111995000D01*
X151423802Y-111995000D01*
X150874000Y-111445199D01*
X150874000Y-109280801D01*
X150915000Y-109239801D01*
X150915000Y-109366260D01*
X150972068Y-109653158D01*
X151084010Y-109923411D01*
X151246525Y-110166632D01*
X151453368Y-110373475D01*
X151696589Y-110535990D01*
X151966842Y-110647932D01*
X152253740Y-110705000D01*
X152546260Y-110705000D01*
X152833158Y-110647932D01*
X153103411Y-110535990D01*
X153346632Y-110373475D01*
X153553475Y-110166632D01*
X153715990Y-109923411D01*
X153827932Y-109653158D01*
X153885000Y-109366260D01*
X153885000Y-109073740D01*
X153827932Y-108786842D01*
X153715990Y-108516589D01*
X153553475Y-108273368D01*
X153346632Y-108066525D01*
X153172240Y-107950000D01*
X153346632Y-107833475D01*
X153553475Y-107626632D01*
X153715990Y-107383411D01*
X153827932Y-107113158D01*
X153885000Y-106826260D01*
X153885000Y-106533740D01*
X153827932Y-106246842D01*
X153715990Y-105976589D01*
X153553475Y-105733368D01*
X153346632Y-105526525D01*
X153164466Y-105404805D01*
X153281355Y-105335178D01*
X153497588Y-105140269D01*
X153671641Y-104906920D01*
X153796825Y-104644099D01*
X153841476Y-104496890D01*
X153720155Y-104267000D01*
X152527000Y-104267000D01*
X152527000Y-104287000D01*
X152273000Y-104287000D01*
X152273000Y-104267000D01*
X151079845Y-104267000D01*
X150958524Y-104496890D01*
X151003175Y-104644099D01*
X151128359Y-104906920D01*
X151302412Y-105140269D01*
X151518645Y-105335178D01*
X151635534Y-105404805D01*
X151453368Y-105526525D01*
X151246525Y-105733368D01*
X151084010Y-105976589D01*
X150972068Y-106246842D01*
X150915000Y-106533740D01*
X150915000Y-106826260D01*
X150958790Y-107046408D01*
X150366000Y-107639199D01*
X150366000Y-100750000D01*
X150911928Y-100750000D01*
X150911928Y-102450000D01*
X150924188Y-102574482D01*
X150960498Y-102694180D01*
X151019463Y-102804494D01*
X151098815Y-102901185D01*
X151195506Y-102980537D01*
X151305820Y-103039502D01*
X151386466Y-103063966D01*
X151302412Y-103139731D01*
X151128359Y-103373080D01*
X151003175Y-103635901D01*
X150958524Y-103783110D01*
X151079845Y-104013000D01*
X152273000Y-104013000D01*
X152273000Y-103993000D01*
X152527000Y-103993000D01*
X152527000Y-104013000D01*
X153720155Y-104013000D01*
X153841476Y-103783110D01*
X153796825Y-103635901D01*
X153671641Y-103373080D01*
X153497588Y-103139731D01*
X153413534Y-103063966D01*
X153494180Y-103039502D01*
X153604494Y-102980537D01*
X153701185Y-102901185D01*
X153780537Y-102804494D01*
X153839502Y-102694180D01*
X153875812Y-102574482D01*
X153888072Y-102450000D01*
X153888072Y-100750000D01*
X153875812Y-100625518D01*
X153839502Y-100505820D01*
X153780537Y-100395506D01*
X153701185Y-100298815D01*
X153604494Y-100219463D01*
X153494180Y-100160498D01*
X153374482Y-100124188D01*
X153250000Y-100111928D01*
X151550000Y-100111928D01*
X151425518Y-100124188D01*
X151305820Y-100160498D01*
X151195506Y-100219463D01*
X151098815Y-100298815D01*
X151019463Y-100395506D01*
X150960498Y-100505820D01*
X150924188Y-100625518D01*
X150911928Y-100750000D01*
X150366000Y-100750000D01*
X150366000Y-97570502D01*
X150369676Y-97533179D01*
X150366000Y-97495856D01*
X150366000Y-97495847D01*
X150355003Y-97384194D01*
X150311546Y-97240933D01*
X150240974Y-97108904D01*
X150146001Y-96993179D01*
X150117004Y-96969382D01*
X142942010Y-89794389D01*
X142942010Y-76434333D01*
X142945686Y-76397008D01*
X142942010Y-76359683D01*
X142942010Y-76359675D01*
X142931013Y-76248022D01*
X142887556Y-76104761D01*
X142816984Y-75972732D01*
X142722011Y-75857007D01*
X142693014Y-75833210D01*
X141373805Y-74514002D01*
X141350002Y-74484998D01*
X141234277Y-74390025D01*
X141102248Y-74319453D01*
X140958987Y-74275996D01*
X140847334Y-74264999D01*
X140847323Y-74264999D01*
X140810001Y-74261323D01*
X140772679Y-74264999D01*
X133292323Y-74264999D01*
X133255000Y-74261323D01*
X133217677Y-74264999D01*
X133217668Y-74264999D01*
X133106015Y-74275996D01*
X132962754Y-74319453D01*
X132830725Y-74390025D01*
X132715000Y-74484998D01*
X132691202Y-74513996D01*
X132493270Y-74711928D01*
X131230000Y-74711928D01*
X131105518Y-74724188D01*
X130985820Y-74760498D01*
X130875506Y-74819463D01*
X130778815Y-74898815D01*
X130699463Y-74995506D01*
X130640498Y-75105820D01*
X130604188Y-75225518D01*
X130591928Y-75350000D01*
X130591928Y-77050000D01*
X130604188Y-77174482D01*
X130640498Y-77294180D01*
X130699463Y-77404494D01*
X130778815Y-77501185D01*
X130875506Y-77580537D01*
X130985820Y-77639502D01*
X131105518Y-77675812D01*
X131230000Y-77688072D01*
X132930000Y-77688072D01*
X133054482Y-77675812D01*
X133174180Y-77639502D01*
X133284494Y-77580537D01*
X133381185Y-77501185D01*
X133460537Y-77404494D01*
X133519502Y-77294180D01*
X133555812Y-77174482D01*
X133568072Y-77050000D01*
X133568072Y-75786730D01*
X133569803Y-75784999D01*
X138211928Y-75784999D01*
X138211928Y-77050000D01*
X138224188Y-77174482D01*
X138260498Y-77294180D01*
X138319463Y-77404494D01*
X138398815Y-77501185D01*
X138495506Y-77580537D01*
X138605820Y-77639502D01*
X138725518Y-77675812D01*
X138850000Y-77688072D01*
X140113271Y-77688072D01*
X140972001Y-78546803D01*
X140972001Y-80139254D01*
X140901101Y-80081068D01*
X140651808Y-79947818D01*
X140381309Y-79865764D01*
X140170492Y-79845000D01*
X139229508Y-79845000D01*
X139018691Y-79865764D01*
X138748192Y-79947818D01*
X138498899Y-80081068D01*
X138280392Y-80260392D01*
X138101068Y-80478899D01*
X137967818Y-80728192D01*
X137885764Y-80998691D01*
X137858057Y-81280000D01*
X137885764Y-81561309D01*
X137967818Y-81831808D01*
X138101068Y-82081101D01*
X138280392Y-82299608D01*
X138498899Y-82478932D01*
X138626741Y-82547265D01*
X138397161Y-82697399D01*
X138195500Y-82895105D01*
X138036285Y-83128354D01*
X137925633Y-83388182D01*
X137908096Y-83470961D01*
X138030085Y-83693000D01*
X139573000Y-83693000D01*
X139573000Y-83673000D01*
X139827000Y-83673000D01*
X139827000Y-83693000D01*
X139847000Y-83693000D01*
X139847000Y-83947000D01*
X139827000Y-83947000D01*
X139827000Y-83967000D01*
X139573000Y-83967000D01*
X139573000Y-83947000D01*
X138030085Y-83947000D01*
X137908096Y-84169039D01*
X137925633Y-84251818D01*
X138036285Y-84511646D01*
X138195500Y-84744895D01*
X138397161Y-84942601D01*
X138626741Y-85092735D01*
X138498899Y-85161068D01*
X138280392Y-85340392D01*
X138101068Y-85558899D01*
X137967818Y-85808192D01*
X137885764Y-86078691D01*
X137858057Y-86360000D01*
X137885764Y-86641309D01*
X137967818Y-86911808D01*
X138101068Y-87161101D01*
X138280392Y-87379608D01*
X138498899Y-87558932D01*
X138631858Y-87630000D01*
X138498899Y-87701068D01*
X138280392Y-87880392D01*
X138101068Y-88098899D01*
X137967818Y-88348192D01*
X137885764Y-88618691D01*
X137858057Y-88900000D01*
X137885764Y-89181309D01*
X137967818Y-89451808D01*
X138101068Y-89701101D01*
X138280392Y-89919608D01*
X138498899Y-90098932D01*
X138748192Y-90232182D01*
X138940001Y-90290366D01*
X138940001Y-91125197D01*
X138427002Y-91638197D01*
X138397999Y-91661999D01*
X138342871Y-91729174D01*
X138303026Y-91777724D01*
X138260643Y-91857017D01*
X138232454Y-91909754D01*
X138188997Y-92053015D01*
X138178000Y-92164668D01*
X138178000Y-92164678D01*
X138174324Y-92202000D01*
X138178000Y-92239323D01*
X138178001Y-93411197D01*
X136979002Y-94610197D01*
X136949998Y-94634000D01*
X136902402Y-94691997D01*
X136855025Y-94749725D01*
X136839525Y-94778724D01*
X136784453Y-94881755D01*
X136740996Y-95025016D01*
X136729999Y-95136669D01*
X136729999Y-95136679D01*
X136726323Y-95174001D01*
X136729999Y-95211324D01*
X136729999Y-97960196D01*
X135616304Y-96846501D01*
X135616300Y-96846496D01*
X134788804Y-96019001D01*
X134765002Y-95989998D01*
X134649277Y-95895025D01*
X134603072Y-95870328D01*
X134603072Y-95585000D01*
X134590812Y-95460518D01*
X134554502Y-95340820D01*
X134495537Y-95230506D01*
X134416185Y-95133815D01*
X134319494Y-95054463D01*
X134209180Y-94995498D01*
X134089482Y-94959188D01*
X133965000Y-94946928D01*
X132415000Y-94946928D01*
X132290518Y-94959188D01*
X132170820Y-94995498D01*
X132060506Y-95054463D01*
X131974556Y-95125000D01*
X131028105Y-95125000D01*
X130924012Y-94873698D01*
X130690363Y-94524017D01*
X130392983Y-94226637D01*
X130043302Y-93992988D01*
X129654756Y-93832047D01*
X129242279Y-93750000D01*
X128821721Y-93750000D01*
X128409244Y-93832047D01*
X128020698Y-93992988D01*
X127671017Y-94226637D01*
X127373637Y-94524017D01*
X127139988Y-94873698D01*
X126979047Y-95262244D01*
X126897000Y-95674721D01*
X126897000Y-96095279D01*
X126979047Y-96507756D01*
X127139988Y-96896302D01*
X127373637Y-97245983D01*
X127671017Y-97543363D01*
X128020698Y-97777012D01*
X128409244Y-97937953D01*
X128821721Y-98020000D01*
X129242279Y-98020000D01*
X129654756Y-97937953D01*
X129682206Y-97926583D01*
X129101473Y-98507316D01*
X128952898Y-98445774D01*
X128752939Y-98406000D01*
X128549061Y-98406000D01*
X128349102Y-98445774D01*
X128160744Y-98523795D01*
X127991226Y-98637063D01*
X127847063Y-98781226D01*
X127733795Y-98950744D01*
X127655774Y-99139102D01*
X127616000Y-99339061D01*
X127616000Y-99542939D01*
X127640251Y-99664858D01*
X127545518Y-99674188D01*
X127470000Y-99697096D01*
X127394482Y-99674188D01*
X127270000Y-99661928D01*
X127145675Y-99661928D01*
X127089975Y-99557723D01*
X127018800Y-99470996D01*
X126995002Y-99441998D01*
X126966005Y-99418201D01*
X125775001Y-98227198D01*
X125775001Y-95517800D01*
X130951028Y-90341775D01*
X130980021Y-90317981D01*
X131003815Y-90288988D01*
X131003819Y-90288984D01*
X131074143Y-90203292D01*
X131128192Y-90232182D01*
X131398691Y-90314236D01*
X131609508Y-90335000D01*
X132009422Y-90335000D01*
X134883465Y-93209044D01*
X134894774Y-93265898D01*
X134972795Y-93454256D01*
X135086063Y-93623774D01*
X135230226Y-93767937D01*
X135399744Y-93881205D01*
X135588102Y-93959226D01*
X135788061Y-93999000D01*
X135991939Y-93999000D01*
X136191898Y-93959226D01*
X136380256Y-93881205D01*
X136549774Y-93767937D01*
X136693937Y-93623774D01*
X136807205Y-93454256D01*
X136885226Y-93265898D01*
X136925000Y-93065939D01*
X136925000Y-92862061D01*
X136885226Y-92662102D01*
X136807205Y-92473744D01*
X136693937Y-92304226D01*
X136549774Y-92160063D01*
X136380256Y-92046795D01*
X136191898Y-91968774D01*
X136135044Y-91957465D01*
X133748509Y-89570931D01*
X133812182Y-89451808D01*
X133894236Y-89181309D01*
X133921943Y-88900000D01*
X133894236Y-88618691D01*
X133812182Y-88348192D01*
X133678932Y-88098899D01*
X133499608Y-87880392D01*
X133281101Y-87701068D01*
X133148142Y-87630000D01*
X133281101Y-87558932D01*
X133499608Y-87379608D01*
X133678932Y-87161101D01*
X133812182Y-86911808D01*
X133894236Y-86641309D01*
X133921943Y-86360000D01*
X133894236Y-86078691D01*
X133812182Y-85808192D01*
X133678932Y-85558899D01*
X133499608Y-85340392D01*
X133281101Y-85161068D01*
X133148142Y-85090000D01*
X133281101Y-85018932D01*
X133499608Y-84839608D01*
X133678932Y-84621101D01*
X133812182Y-84371808D01*
X133894236Y-84101309D01*
X133921943Y-83820000D01*
X133894236Y-83538691D01*
X133812182Y-83268192D01*
X133678932Y-83018899D01*
X133499608Y-82800392D01*
X133386518Y-82707581D01*
X133404482Y-82705812D01*
X133524180Y-82669502D01*
X133634494Y-82610537D01*
X133731185Y-82531185D01*
X133810537Y-82434494D01*
X133869502Y-82324180D01*
X133905812Y-82204482D01*
X133918072Y-82080000D01*
X133918072Y-80480000D01*
X133905812Y-80355518D01*
X133869502Y-80235820D01*
X133810537Y-80125506D01*
X133731185Y-80028815D01*
X133634494Y-79949463D01*
X133524180Y-79890498D01*
X133404482Y-79854188D01*
X133280000Y-79841928D01*
X130880000Y-79841928D01*
X130755518Y-79854188D01*
X130635820Y-79890498D01*
X130525506Y-79949463D01*
X130428815Y-80028815D01*
X130349463Y-80125506D01*
X130290498Y-80235820D01*
X130254188Y-80355518D01*
X130241928Y-80480000D01*
X130241928Y-82043270D01*
X129029003Y-83256196D01*
X128999999Y-83279999D01*
X128944871Y-83347174D01*
X128905026Y-83395724D01*
X128864811Y-83470961D01*
X128834454Y-83527754D01*
X128790997Y-83671015D01*
X128780000Y-83782668D01*
X128780000Y-83782678D01*
X128776324Y-83820000D01*
X128780000Y-83857323D01*
X128780001Y-85560658D01*
X128780000Y-85560668D01*
X128780001Y-88964786D01*
X122354799Y-95389990D01*
X122198930Y-95389991D01*
X122161600Y-95386314D01*
X122124267Y-95389991D01*
X122124266Y-95389991D01*
X122012613Y-95400988D01*
X121969157Y-95414170D01*
X121869353Y-95444444D01*
X121737323Y-95515016D01*
X121650597Y-95586191D01*
X121650592Y-95586196D01*
X121621598Y-95609991D01*
X121597806Y-95638982D01*
X120393003Y-96843786D01*
X120363999Y-96867589D01*
X120329202Y-96909990D01*
X120269026Y-96983314D01*
X120222691Y-97070000D01*
X120198454Y-97115344D01*
X120154997Y-97258605D01*
X120144000Y-97370258D01*
X120144000Y-97370268D01*
X120140324Y-97407590D01*
X120144000Y-97444913D01*
X120144001Y-98491197D01*
X118869002Y-99766197D01*
X118839999Y-99789999D01*
X118790310Y-99850546D01*
X118745026Y-99905724D01*
X118706786Y-99977266D01*
X118674454Y-100037754D01*
X118651954Y-100111928D01*
X118530000Y-100111928D01*
X118405518Y-100124188D01*
X118285820Y-100160498D01*
X118175506Y-100219463D01*
X118078815Y-100298815D01*
X117999463Y-100395506D01*
X117940498Y-100505820D01*
X117904188Y-100625518D01*
X117891928Y-100750000D01*
X117550000Y-100750000D01*
X117550000Y-99063380D01*
X127333770Y-89279611D01*
X127358948Y-89258948D01*
X127379615Y-89233766D01*
X127441425Y-89158450D01*
X127502710Y-89043793D01*
X127540450Y-88919383D01*
X127542359Y-88900000D01*
X127550000Y-88822419D01*
X127550000Y-88822412D01*
X127553192Y-88790000D01*
X127550000Y-88757588D01*
X127550000Y-73450000D01*
X144230000Y-73450000D01*
X144230001Y-88757581D01*
G37*
X144230001Y-88757581D02*
X144226808Y-88790000D01*
X144239551Y-88919382D01*
X144277290Y-89043792D01*
X144338575Y-89158450D01*
X144400386Y-89233766D01*
X144400387Y-89233767D01*
X144421053Y-89258948D01*
X144446232Y-89279612D01*
X154230000Y-99063381D01*
X154230001Y-155130000D01*
X117550000Y-155130000D01*
X117550000Y-143090000D01*
X117891928Y-143090000D01*
X117904188Y-143214482D01*
X117940498Y-143334180D01*
X117999463Y-143444494D01*
X118078815Y-143541185D01*
X118175506Y-143620537D01*
X118285820Y-143679502D01*
X118358380Y-143701513D01*
X118226525Y-143833368D01*
X118064010Y-144076589D01*
X117952068Y-144346842D01*
X117895000Y-144633740D01*
X117895000Y-144926260D01*
X117952068Y-145213158D01*
X118064010Y-145483411D01*
X118226525Y-145726632D01*
X118433368Y-145933475D01*
X118676589Y-146095990D01*
X118946842Y-146207932D01*
X119233740Y-146265000D01*
X119526260Y-146265000D01*
X119813158Y-146207932D01*
X120083411Y-146095990D01*
X120326632Y-145933475D01*
X120533475Y-145726632D01*
X120695990Y-145483411D01*
X120807932Y-145213158D01*
X120865000Y-144926260D01*
X120865000Y-144633740D01*
X120807932Y-144346842D01*
X120695990Y-144076589D01*
X120533475Y-143833368D01*
X120401620Y-143701513D01*
X120474180Y-143679502D01*
X120584494Y-143620537D01*
X120681185Y-143541185D01*
X120760537Y-143444494D01*
X120819502Y-143334180D01*
X120855812Y-143214482D01*
X120868072Y-143090000D01*
X120865000Y-142525750D01*
X120706250Y-142367000D01*
X119507000Y-142367000D01*
X119507000Y-142387000D01*
X119253000Y-142387000D01*
X119253000Y-142367000D01*
X118053750Y-142367000D01*
X117895000Y-142525750D01*
X117891928Y-143090000D01*
X117550000Y-143090000D01*
X117550000Y-141390000D01*
X117891928Y-141390000D01*
X117895000Y-141954250D01*
X118053750Y-142113000D01*
X119253000Y-142113000D01*
X119253000Y-140913750D01*
X119507000Y-140913750D01*
X119507000Y-142113000D01*
X120706250Y-142113000D01*
X120865000Y-141954250D01*
X120868072Y-141390000D01*
X120855812Y-141265518D01*
X120819502Y-141145820D01*
X120760537Y-141035506D01*
X120681185Y-140938815D01*
X120584494Y-140859463D01*
X120474180Y-140800498D01*
X120354482Y-140764188D01*
X120230000Y-140751928D01*
X119665750Y-140755000D01*
X119507000Y-140913750D01*
X119253000Y-140913750D01*
X119094250Y-140755000D01*
X118530000Y-140751928D01*
X118405518Y-140764188D01*
X118285820Y-140800498D01*
X118175506Y-140859463D01*
X118078815Y-140938815D01*
X117999463Y-141035506D01*
X117940498Y-141145820D01*
X117904188Y-141265518D01*
X117891928Y-141390000D01*
X117550000Y-141390000D01*
X117550000Y-100750000D01*
X117891928Y-100750000D01*
X117891928Y-102450000D01*
X117904188Y-102574482D01*
X117940498Y-102694180D01*
X117999463Y-102804494D01*
X118078815Y-102901185D01*
X118175506Y-102980537D01*
X118285820Y-103039502D01*
X118358380Y-103061513D01*
X118226525Y-103193368D01*
X118064010Y-103436589D01*
X117952068Y-103706842D01*
X117895000Y-103993740D01*
X117895000Y-104286260D01*
X117952068Y-104573158D01*
X118064010Y-104843411D01*
X118226525Y-105086632D01*
X118433368Y-105293475D01*
X118607760Y-105410000D01*
X118433368Y-105526525D01*
X118226525Y-105733368D01*
X118064010Y-105976589D01*
X117952068Y-106246842D01*
X117895000Y-106533740D01*
X117895000Y-106826260D01*
X117952068Y-107113158D01*
X118064010Y-107383411D01*
X118226525Y-107626632D01*
X118433368Y-107833475D01*
X118607760Y-107950000D01*
X118433368Y-108066525D01*
X118226525Y-108273368D01*
X118064010Y-108516589D01*
X117952068Y-108786842D01*
X117895000Y-109073740D01*
X117895000Y-109366260D01*
X117952068Y-109653158D01*
X118064010Y-109923411D01*
X118226525Y-110166632D01*
X118433368Y-110373475D01*
X118676589Y-110535990D01*
X118946842Y-110647932D01*
X119233740Y-110705000D01*
X119526260Y-110705000D01*
X119673168Y-110675778D01*
X119674686Y-110676589D01*
X119768344Y-110705000D01*
X119841510Y-110727195D01*
X119971523Y-110740000D01*
X119971531Y-110740000D01*
X120015000Y-110744281D01*
X120058469Y-110740000D01*
X122286546Y-110740000D01*
X122334744Y-110772205D01*
X122523102Y-110850226D01*
X122723061Y-110890000D01*
X122926939Y-110890000D01*
X123126898Y-110850226D01*
X123315256Y-110772205D01*
X123363454Y-110740000D01*
X124542397Y-110740000D01*
X124550820Y-110744502D01*
X124670518Y-110780812D01*
X124795000Y-110793072D01*
X125974000Y-110793072D01*
X125974001Y-115520668D01*
X125970324Y-115558000D01*
X125984998Y-115706985D01*
X126028454Y-115850246D01*
X126099026Y-115982276D01*
X126170201Y-116069002D01*
X126194000Y-116098001D01*
X126222998Y-116121799D01*
X127452200Y-117351002D01*
X127475999Y-117380001D01*
X127591724Y-117474974D01*
X127723753Y-117545546D01*
X127867014Y-117589003D01*
X127978667Y-117600000D01*
X127978675Y-117600000D01*
X128016000Y-117603676D01*
X128053325Y-117600000D01*
X129251178Y-117600000D01*
X129251178Y-117839490D01*
X129263438Y-117963972D01*
X129299748Y-118083670D01*
X129358713Y-118193984D01*
X129438065Y-118290675D01*
X129534756Y-118370027D01*
X129645070Y-118428992D01*
X129764768Y-118465302D01*
X129889250Y-118477562D01*
X131267171Y-118477562D01*
X131329730Y-118538239D01*
X131434782Y-118606136D01*
X131551062Y-118652234D01*
X131674101Y-118674760D01*
X131799170Y-118672851D01*
X133985908Y-118423709D01*
X136792438Y-121230240D01*
X136792438Y-122455911D01*
X136731761Y-122518470D01*
X136663864Y-122623522D01*
X136617766Y-122739802D01*
X136595240Y-122862841D01*
X136597149Y-122987910D01*
X136995929Y-126488030D01*
X137040398Y-126659980D01*
X137099363Y-126770294D01*
X137178715Y-126866985D01*
X137275406Y-126946337D01*
X137385720Y-127005302D01*
X137505418Y-127041612D01*
X137629900Y-127053872D01*
X139230100Y-127053872D01*
X139405978Y-127029154D01*
X139522258Y-126983056D01*
X139627310Y-126915159D01*
X139717098Y-126828072D01*
X139788171Y-126725142D01*
X139837798Y-126610324D01*
X139864071Y-126488030D01*
X140210001Y-123451782D01*
X140210000Y-130705693D01*
X139864071Y-127669450D01*
X139819602Y-127497500D01*
X139760637Y-127387186D01*
X139681285Y-127290495D01*
X139584594Y-127211143D01*
X139474280Y-127152178D01*
X139354582Y-127115868D01*
X139230100Y-127103608D01*
X137629900Y-127103608D01*
X137454022Y-127128326D01*
X137337742Y-127174424D01*
X137246474Y-127233412D01*
X134830082Y-124817021D01*
X134830082Y-124574004D01*
X134891744Y-124615205D01*
X135080102Y-124693226D01*
X135280061Y-124733000D01*
X135483939Y-124733000D01*
X135683898Y-124693226D01*
X135872256Y-124615205D01*
X136041774Y-124501937D01*
X136185937Y-124357774D01*
X136299205Y-124188256D01*
X136377226Y-123999898D01*
X136417000Y-123799939D01*
X136417000Y-123596061D01*
X136377226Y-123396102D01*
X136299205Y-123207744D01*
X136185937Y-123038226D01*
X136142000Y-122994289D01*
X136142000Y-122876802D01*
X136145676Y-122839479D01*
X136142000Y-122802156D01*
X136142000Y-122802147D01*
X136131003Y-122690494D01*
X136087546Y-122547233D01*
X136016974Y-122415204D01*
X135922001Y-122299479D01*
X135893003Y-122275681D01*
X134830082Y-121212760D01*
X134830082Y-119650510D01*
X134817822Y-119526028D01*
X134781512Y-119406330D01*
X134722547Y-119296016D01*
X134643195Y-119199325D01*
X134546504Y-119119973D01*
X134436190Y-119061008D01*
X134316492Y-119024698D01*
X134192010Y-119012438D01*
X132814089Y-119012438D01*
X132751530Y-118951761D01*
X132646478Y-118883864D01*
X132530198Y-118837766D01*
X132407159Y-118815240D01*
X132282090Y-118817149D01*
X128781970Y-119215929D01*
X128610020Y-119260398D01*
X128499706Y-119319363D01*
X128403015Y-119398715D01*
X128323663Y-119495406D01*
X128264698Y-119605720D01*
X128228388Y-119725418D01*
X128216128Y-119849900D01*
X128216128Y-121450100D01*
X128240846Y-121625978D01*
X128286944Y-121742258D01*
X128354841Y-121847310D01*
X128441928Y-121937098D01*
X128544858Y-122008171D01*
X128659676Y-122057798D01*
X128781970Y-122084071D01*
X132282090Y-122482851D01*
X132354320Y-122486952D01*
X132478802Y-122474692D01*
X132598500Y-122438382D01*
X132708814Y-122379417D01*
X132805505Y-122300065D01*
X132815766Y-122287562D01*
X133755280Y-122287562D01*
X134300879Y-122833160D01*
X134192010Y-122822438D01*
X132814089Y-122822438D01*
X132751530Y-122761761D01*
X132646478Y-122693864D01*
X132530198Y-122647766D01*
X132407159Y-122625240D01*
X132282090Y-122627149D01*
X128781970Y-123025929D01*
X128610020Y-123070398D01*
X128499706Y-123129363D01*
X128403015Y-123208715D01*
X128323663Y-123305406D01*
X128264698Y-123415720D01*
X128228388Y-123535418D01*
X128216128Y-123659900D01*
X128216128Y-125260100D01*
X128240846Y-125435978D01*
X128286944Y-125552258D01*
X128354841Y-125657310D01*
X128427284Y-125732000D01*
X127954264Y-125732000D01*
X127979505Y-125711285D01*
X128058857Y-125614594D01*
X128117822Y-125504280D01*
X128154132Y-125384582D01*
X128166392Y-125260100D01*
X128166392Y-123659900D01*
X128141674Y-123484022D01*
X128095576Y-123367742D01*
X128027679Y-123262690D01*
X127940592Y-123172902D01*
X127837662Y-123101829D01*
X127722844Y-123052202D01*
X127600550Y-123025929D01*
X124100430Y-122627149D01*
X124028200Y-122623048D01*
X123950000Y-122630750D01*
X123950000Y-122480117D01*
X123975361Y-122484760D01*
X124100430Y-122482851D01*
X127600550Y-122084071D01*
X127772500Y-122039602D01*
X127882814Y-121980637D01*
X127979505Y-121901285D01*
X128058857Y-121804594D01*
X128117822Y-121694280D01*
X128154132Y-121574582D01*
X128166392Y-121450100D01*
X128166392Y-119849900D01*
X128141674Y-119674022D01*
X128095576Y-119557742D01*
X128027679Y-119452690D01*
X127940592Y-119362902D01*
X127837662Y-119291829D01*
X127722844Y-119242202D01*
X127600550Y-119215929D01*
X124100430Y-118817149D01*
X124028200Y-118813048D01*
X123903718Y-118825308D01*
X123784020Y-118861618D01*
X123673706Y-118920583D01*
X123577015Y-118999935D01*
X123566754Y-119012438D01*
X122190510Y-119012438D01*
X122066028Y-119024698D01*
X121946330Y-119061008D01*
X121836016Y-119119973D01*
X121739325Y-119199325D01*
X121659973Y-119296016D01*
X121601008Y-119406330D01*
X121564698Y-119526028D01*
X121552438Y-119650510D01*
X121552438Y-121649490D01*
X121564698Y-121773972D01*
X121601008Y-121893670D01*
X121659973Y-122003984D01*
X121739325Y-122100675D01*
X121836016Y-122180027D01*
X121946330Y-122238992D01*
X122066028Y-122275302D01*
X122190510Y-122287562D01*
X122430000Y-122287562D01*
X122430001Y-122822438D01*
X122190510Y-122822438D01*
X122066028Y-122834698D01*
X121946330Y-122871008D01*
X121836016Y-122929973D01*
X121739325Y-123009325D01*
X121659973Y-123106016D01*
X121601008Y-123216330D01*
X121564698Y-123336028D01*
X121552438Y-123460510D01*
X121552438Y-125459490D01*
X121564698Y-125583972D01*
X121601008Y-125703670D01*
X121659973Y-125813984D01*
X121739325Y-125910675D01*
X121836016Y-125990027D01*
X121946330Y-126048992D01*
X122066028Y-126085302D01*
X122190510Y-126097562D01*
X123568431Y-126097562D01*
X123630990Y-126158239D01*
X123736042Y-126226136D01*
X123852322Y-126272234D01*
X123975361Y-126294760D01*
X124100430Y-126292851D01*
X127008435Y-125961533D01*
X126992461Y-125980997D01*
X126287167Y-126686291D01*
X124100430Y-126437149D01*
X124028200Y-126433048D01*
X123903718Y-126445308D01*
X123784020Y-126481618D01*
X123673706Y-126540583D01*
X123577015Y-126619935D01*
X123566754Y-126632438D01*
X122190510Y-126632438D01*
X122066028Y-126644698D01*
X121946330Y-126681008D01*
X121836016Y-126739973D01*
X121739325Y-126819325D01*
X121659973Y-126916016D01*
X121601008Y-127026330D01*
X121564698Y-127146028D01*
X121552438Y-127270510D01*
X121552438Y-128832761D01*
X121511992Y-128873207D01*
X121482988Y-128897010D01*
X121433963Y-128956748D01*
X121388015Y-129012735D01*
X121347369Y-129088778D01*
X121317443Y-129144765D01*
X121273986Y-129288026D01*
X121262989Y-129399679D01*
X121262989Y-129399689D01*
X121259313Y-129437011D01*
X121262989Y-129474333D01*
X121262990Y-138495657D01*
X121259313Y-138532989D01*
X121273987Y-138681974D01*
X121317443Y-138825235D01*
X121388015Y-138957265D01*
X121440916Y-139021724D01*
X121482989Y-139072990D01*
X121511987Y-139096788D01*
X126871312Y-144456114D01*
X126835000Y-144638665D01*
X126835000Y-144921335D01*
X126890147Y-145198574D01*
X126998320Y-145459727D01*
X127155363Y-145694759D01*
X127355241Y-145894637D01*
X127590273Y-146051680D01*
X127851426Y-146159853D01*
X128128665Y-146215000D01*
X128411335Y-146215000D01*
X128688574Y-146159853D01*
X128949727Y-146051680D01*
X129184759Y-145894637D01*
X129384637Y-145694759D01*
X129540000Y-145462241D01*
X129695363Y-145694759D01*
X129864400Y-145863796D01*
X126489003Y-149239194D01*
X126459999Y-149262997D01*
X126430081Y-149299453D01*
X126365026Y-149378722D01*
X126341490Y-149422755D01*
X126294454Y-149510752D01*
X126250997Y-149654013D01*
X126240000Y-149765666D01*
X126240000Y-149765676D01*
X126236324Y-149802998D01*
X126240000Y-149840321D01*
X126240001Y-151121821D01*
X126053368Y-151246525D01*
X125846525Y-151453368D01*
X125684010Y-151696589D01*
X125572068Y-151966842D01*
X125515000Y-152253740D01*
X125515000Y-152546260D01*
X125572068Y-152833158D01*
X125684010Y-153103411D01*
X125846525Y-153346632D01*
X126053368Y-153553475D01*
X126296589Y-153715990D01*
X126566842Y-153827932D01*
X126853740Y-153885000D01*
X127146260Y-153885000D01*
X127433158Y-153827932D01*
X127703411Y-153715990D01*
X127946632Y-153553475D01*
X128153475Y-153346632D01*
X128270000Y-153172240D01*
X128386525Y-153346632D01*
X128593368Y-153553475D01*
X128836589Y-153715990D01*
X129106842Y-153827932D01*
X129393740Y-153885000D01*
X129686260Y-153885000D01*
X129973158Y-153827932D01*
X130243411Y-153715990D01*
X130486632Y-153553475D01*
X130693475Y-153346632D01*
X130810000Y-153172240D01*
X130926525Y-153346632D01*
X131133368Y-153553475D01*
X131376589Y-153715990D01*
X131646842Y-153827932D01*
X131933740Y-153885000D01*
X132226260Y-153885000D01*
X132513158Y-153827932D01*
X132783411Y-153715990D01*
X133026632Y-153553475D01*
X133233475Y-153346632D01*
X133350000Y-153172240D01*
X133466525Y-153346632D01*
X133673368Y-153553475D01*
X133916589Y-153715990D01*
X134186842Y-153827932D01*
X134473740Y-153885000D01*
X134766260Y-153885000D01*
X135053158Y-153827932D01*
X135323411Y-153715990D01*
X135566632Y-153553475D01*
X135773475Y-153346632D01*
X135890000Y-153172240D01*
X136006525Y-153346632D01*
X136213368Y-153553475D01*
X136456589Y-153715990D01*
X136726842Y-153827932D01*
X137013740Y-153885000D01*
X137306260Y-153885000D01*
X137593158Y-153827932D01*
X137863411Y-153715990D01*
X138106632Y-153553475D01*
X138313475Y-153346632D01*
X138430000Y-153172240D01*
X138546525Y-153346632D01*
X138753368Y-153553475D01*
X138996589Y-153715990D01*
X139266842Y-153827932D01*
X139553740Y-153885000D01*
X139846260Y-153885000D01*
X140133158Y-153827932D01*
X140403411Y-153715990D01*
X140646632Y-153553475D01*
X140853475Y-153346632D01*
X140970000Y-153172240D01*
X141086525Y-153346632D01*
X141293368Y-153553475D01*
X141536589Y-153715990D01*
X141806842Y-153827932D01*
X142093740Y-153885000D01*
X142386260Y-153885000D01*
X142673158Y-153827932D01*
X142943411Y-153715990D01*
X143186632Y-153553475D01*
X143318487Y-153421620D01*
X143340498Y-153494180D01*
X143399463Y-153604494D01*
X143478815Y-153701185D01*
X143575506Y-153780537D01*
X143685820Y-153839502D01*
X143805518Y-153875812D01*
X143930000Y-153888072D01*
X144494250Y-153885000D01*
X144653000Y-153726250D01*
X144653000Y-152527000D01*
X144907000Y-152527000D01*
X144907000Y-153726250D01*
X145065750Y-153885000D01*
X145630000Y-153888072D01*
X145754482Y-153875812D01*
X145874180Y-153839502D01*
X145984494Y-153780537D01*
X146081185Y-153701185D01*
X146160537Y-153604494D01*
X146219502Y-153494180D01*
X146255812Y-153374482D01*
X146268072Y-153250000D01*
X146265000Y-152685750D01*
X146106250Y-152527000D01*
X144907000Y-152527000D01*
X144653000Y-152527000D01*
X144633000Y-152527000D01*
X144633000Y-152273000D01*
X144653000Y-152273000D01*
X144653000Y-151073750D01*
X144907000Y-151073750D01*
X144907000Y-152273000D01*
X146106250Y-152273000D01*
X146265000Y-152114250D01*
X146268072Y-151550000D01*
X146255812Y-151425518D01*
X146219502Y-151305820D01*
X146160537Y-151195506D01*
X146081185Y-151098815D01*
X145984494Y-151019463D01*
X145874180Y-150960498D01*
X145754482Y-150924188D01*
X145630000Y-150911928D01*
X145065750Y-150915000D01*
X144907000Y-151073750D01*
X144653000Y-151073750D01*
X144494250Y-150915000D01*
X143930000Y-150911928D01*
X143805518Y-150924188D01*
X143685820Y-150960498D01*
X143575506Y-151019463D01*
X143478815Y-151098815D01*
X143399463Y-151195506D01*
X143340498Y-151305820D01*
X143318487Y-151378380D01*
X143186632Y-151246525D01*
X142943411Y-151084010D01*
X142673158Y-150972068D01*
X142386260Y-150915000D01*
X142093740Y-150915000D01*
X141806842Y-150972068D01*
X141536589Y-151084010D01*
X141293368Y-151246525D01*
X141086525Y-151453368D01*
X140970000Y-151627760D01*
X140853475Y-151453368D01*
X140646632Y-151246525D01*
X140403411Y-151084010D01*
X140133158Y-150972068D01*
X139846260Y-150915000D01*
X139553740Y-150915000D01*
X139333592Y-150958790D01*
X137775001Y-149400200D01*
X137775001Y-146061923D01*
X138011426Y-146159853D01*
X138288665Y-146215000D01*
X138571335Y-146215000D01*
X138848574Y-146159853D01*
X139109727Y-146051680D01*
X139344759Y-145894637D01*
X139544637Y-145694759D01*
X139700000Y-145462241D01*
X139855363Y-145694759D01*
X140055241Y-145894637D01*
X140290273Y-146051680D01*
X140551426Y-146159853D01*
X140828665Y-146215000D01*
X141111335Y-146215000D01*
X141388574Y-146159853D01*
X141649727Y-146051680D01*
X141884759Y-145894637D01*
X142084637Y-145694759D01*
X142240000Y-145462241D01*
X142395363Y-145694759D01*
X142595241Y-145894637D01*
X142830273Y-146051680D01*
X143091426Y-146159853D01*
X143368665Y-146215000D01*
X143651335Y-146215000D01*
X143928574Y-146159853D01*
X144189727Y-146051680D01*
X144424759Y-145894637D01*
X144624637Y-145694759D01*
X144781680Y-145459727D01*
X144889853Y-145198574D01*
X144945000Y-144921335D01*
X144945000Y-144638665D01*
X144908688Y-144456114D01*
X147196004Y-142168798D01*
X147225001Y-142145001D01*
X147269307Y-142091014D01*
X147319974Y-142029277D01*
X147390546Y-141897247D01*
X147415275Y-141815724D01*
X147434003Y-141753986D01*
X147445000Y-141642333D01*
X147445000Y-141642324D01*
X147448676Y-141605001D01*
X147445000Y-141567678D01*
X147445000Y-139125801D01*
X148846001Y-137724802D01*
X148846001Y-140311669D01*
X148842324Y-140349002D01*
X148856998Y-140497987D01*
X148900454Y-140641248D01*
X148971026Y-140773278D01*
X149041757Y-140859463D01*
X149066000Y-140889003D01*
X149094998Y-140912801D01*
X150911928Y-142729732D01*
X150911928Y-143090000D01*
X150924188Y-143214482D01*
X150960498Y-143334180D01*
X151019463Y-143444494D01*
X151098815Y-143541185D01*
X151195506Y-143620537D01*
X151305820Y-143679502D01*
X151378380Y-143701513D01*
X151246525Y-143833368D01*
X151084010Y-144076589D01*
X150972068Y-144346842D01*
X150915000Y-144633740D01*
X150915000Y-144926260D01*
X150972068Y-145213158D01*
X151084010Y-145483411D01*
X151246525Y-145726632D01*
X151453368Y-145933475D01*
X151696589Y-146095990D01*
X151966842Y-146207932D01*
X152253740Y-146265000D01*
X152546260Y-146265000D01*
X152833158Y-146207932D01*
X153103411Y-146095990D01*
X153346632Y-145933475D01*
X153553475Y-145726632D01*
X153715990Y-145483411D01*
X153827932Y-145213158D01*
X153885000Y-144926260D01*
X153885000Y-144633740D01*
X153827932Y-144346842D01*
X153715990Y-144076589D01*
X153553475Y-143833368D01*
X153421620Y-143701513D01*
X153494180Y-143679502D01*
X153604494Y-143620537D01*
X153701185Y-143541185D01*
X153780537Y-143444494D01*
X153839502Y-143334180D01*
X153875812Y-143214482D01*
X153888072Y-143090000D01*
X153888072Y-141390000D01*
X153875812Y-141265518D01*
X153839502Y-141145820D01*
X153780537Y-141035506D01*
X153701185Y-140938815D01*
X153604494Y-140859463D01*
X153494180Y-140800498D01*
X153374482Y-140764188D01*
X153250000Y-140751928D01*
X151550000Y-140751928D01*
X151425518Y-140764188D01*
X151305820Y-140800498D01*
X151195506Y-140859463D01*
X151193175Y-140861376D01*
X150366000Y-140034201D01*
X150366000Y-113217404D01*
X150388774Y-113331898D01*
X150466795Y-113520256D01*
X150580063Y-113689774D01*
X150724226Y-113833937D01*
X150893744Y-113947205D01*
X151082102Y-114025226D01*
X151282061Y-114065000D01*
X151485939Y-114065000D01*
X151685898Y-114025226D01*
X151874256Y-113947205D01*
X152043774Y-113833937D01*
X152187937Y-113689774D01*
X152301205Y-113520256D01*
X152379226Y-113331898D01*
X152419000Y-113131939D01*
X152419000Y-112928061D01*
X152379226Y-112728102D01*
X152301205Y-112539744D01*
X152187937Y-112370226D01*
X152043774Y-112226063D01*
X151874256Y-112112795D01*
X151685898Y-112034774D01*
X151485939Y-111995000D01*
X151423802Y-111995000D01*
X150874000Y-111445199D01*
X150874000Y-109280801D01*
X150915000Y-109239801D01*
X150915000Y-109366260D01*
X150972068Y-109653158D01*
X151084010Y-109923411D01*
X151246525Y-110166632D01*
X151453368Y-110373475D01*
X151696589Y-110535990D01*
X151966842Y-110647932D01*
X152253740Y-110705000D01*
X152546260Y-110705000D01*
X152833158Y-110647932D01*
X153103411Y-110535990D01*
X153346632Y-110373475D01*
X153553475Y-110166632D01*
X153715990Y-109923411D01*
X153827932Y-109653158D01*
X153885000Y-109366260D01*
X153885000Y-109073740D01*
X153827932Y-108786842D01*
X153715990Y-108516589D01*
X153553475Y-108273368D01*
X153346632Y-108066525D01*
X153172240Y-107950000D01*
X153346632Y-107833475D01*
X153553475Y-107626632D01*
X153715990Y-107383411D01*
X153827932Y-107113158D01*
X153885000Y-106826260D01*
X153885000Y-106533740D01*
X153827932Y-106246842D01*
X153715990Y-105976589D01*
X153553475Y-105733368D01*
X153346632Y-105526525D01*
X153164466Y-105404805D01*
X153281355Y-105335178D01*
X153497588Y-105140269D01*
X153671641Y-104906920D01*
X153796825Y-104644099D01*
X153841476Y-104496890D01*
X153720155Y-104267000D01*
X152527000Y-104267000D01*
X152527000Y-104287000D01*
X152273000Y-104287000D01*
X152273000Y-104267000D01*
X151079845Y-104267000D01*
X150958524Y-104496890D01*
X151003175Y-104644099D01*
X151128359Y-104906920D01*
X151302412Y-105140269D01*
X151518645Y-105335178D01*
X151635534Y-105404805D01*
X151453368Y-105526525D01*
X151246525Y-105733368D01*
X151084010Y-105976589D01*
X150972068Y-106246842D01*
X150915000Y-106533740D01*
X150915000Y-106826260D01*
X150958790Y-107046408D01*
X150366000Y-107639199D01*
X150366000Y-100750000D01*
X150911928Y-100750000D01*
X150911928Y-102450000D01*
X150924188Y-102574482D01*
X150960498Y-102694180D01*
X151019463Y-102804494D01*
X151098815Y-102901185D01*
X151195506Y-102980537D01*
X151305820Y-103039502D01*
X151386466Y-103063966D01*
X151302412Y-103139731D01*
X151128359Y-103373080D01*
X151003175Y-103635901D01*
X150958524Y-103783110D01*
X151079845Y-104013000D01*
X152273000Y-104013000D01*
X152273000Y-103993000D01*
X152527000Y-103993000D01*
X152527000Y-104013000D01*
X153720155Y-104013000D01*
X153841476Y-103783110D01*
X153796825Y-103635901D01*
X153671641Y-103373080D01*
X153497588Y-103139731D01*
X153413534Y-103063966D01*
X153494180Y-103039502D01*
X153604494Y-102980537D01*
X153701185Y-102901185D01*
X153780537Y-102804494D01*
X153839502Y-102694180D01*
X153875812Y-102574482D01*
X153888072Y-102450000D01*
X153888072Y-100750000D01*
X153875812Y-100625518D01*
X153839502Y-100505820D01*
X153780537Y-100395506D01*
X153701185Y-100298815D01*
X153604494Y-100219463D01*
X153494180Y-100160498D01*
X153374482Y-100124188D01*
X153250000Y-100111928D01*
X151550000Y-100111928D01*
X151425518Y-100124188D01*
X151305820Y-100160498D01*
X151195506Y-100219463D01*
X151098815Y-100298815D01*
X151019463Y-100395506D01*
X150960498Y-100505820D01*
X150924188Y-100625518D01*
X150911928Y-100750000D01*
X150366000Y-100750000D01*
X150366000Y-97570502D01*
X150369676Y-97533179D01*
X150366000Y-97495856D01*
X150366000Y-97495847D01*
X150355003Y-97384194D01*
X150311546Y-97240933D01*
X150240974Y-97108904D01*
X150146001Y-96993179D01*
X150117004Y-96969382D01*
X142942010Y-89794389D01*
X142942010Y-76434333D01*
X142945686Y-76397008D01*
X142942010Y-76359683D01*
X142942010Y-76359675D01*
X142931013Y-76248022D01*
X142887556Y-76104761D01*
X142816984Y-75972732D01*
X142722011Y-75857007D01*
X142693014Y-75833210D01*
X141373805Y-74514002D01*
X141350002Y-74484998D01*
X141234277Y-74390025D01*
X141102248Y-74319453D01*
X140958987Y-74275996D01*
X140847334Y-74264999D01*
X140847323Y-74264999D01*
X140810001Y-74261323D01*
X140772679Y-74264999D01*
X133292323Y-74264999D01*
X133255000Y-74261323D01*
X133217677Y-74264999D01*
X133217668Y-74264999D01*
X133106015Y-74275996D01*
X132962754Y-74319453D01*
X132830725Y-74390025D01*
X132715000Y-74484998D01*
X132691202Y-74513996D01*
X132493270Y-74711928D01*
X131230000Y-74711928D01*
X131105518Y-74724188D01*
X130985820Y-74760498D01*
X130875506Y-74819463D01*
X130778815Y-74898815D01*
X130699463Y-74995506D01*
X130640498Y-75105820D01*
X130604188Y-75225518D01*
X130591928Y-75350000D01*
X130591928Y-77050000D01*
X130604188Y-77174482D01*
X130640498Y-77294180D01*
X130699463Y-77404494D01*
X130778815Y-77501185D01*
X130875506Y-77580537D01*
X130985820Y-77639502D01*
X131105518Y-77675812D01*
X131230000Y-77688072D01*
X132930000Y-77688072D01*
X133054482Y-77675812D01*
X133174180Y-77639502D01*
X133284494Y-77580537D01*
X133381185Y-77501185D01*
X133460537Y-77404494D01*
X133519502Y-77294180D01*
X133555812Y-77174482D01*
X133568072Y-77050000D01*
X133568072Y-75786730D01*
X133569803Y-75784999D01*
X138211928Y-75784999D01*
X138211928Y-77050000D01*
X138224188Y-77174482D01*
X138260498Y-77294180D01*
X138319463Y-77404494D01*
X138398815Y-77501185D01*
X138495506Y-77580537D01*
X138605820Y-77639502D01*
X138725518Y-77675812D01*
X138850000Y-77688072D01*
X140113271Y-77688072D01*
X140972001Y-78546803D01*
X140972001Y-80139254D01*
X140901101Y-80081068D01*
X140651808Y-79947818D01*
X140381309Y-79865764D01*
X140170492Y-79845000D01*
X139229508Y-79845000D01*
X139018691Y-79865764D01*
X138748192Y-79947818D01*
X138498899Y-80081068D01*
X138280392Y-80260392D01*
X138101068Y-80478899D01*
X137967818Y-80728192D01*
X137885764Y-80998691D01*
X137858057Y-81280000D01*
X137885764Y-81561309D01*
X137967818Y-81831808D01*
X138101068Y-82081101D01*
X138280392Y-82299608D01*
X138498899Y-82478932D01*
X138626741Y-82547265D01*
X138397161Y-82697399D01*
X138195500Y-82895105D01*
X138036285Y-83128354D01*
X137925633Y-83388182D01*
X137908096Y-83470961D01*
X138030085Y-83693000D01*
X139573000Y-83693000D01*
X139573000Y-83673000D01*
X139827000Y-83673000D01*
X139827000Y-83693000D01*
X139847000Y-83693000D01*
X139847000Y-83947000D01*
X139827000Y-83947000D01*
X139827000Y-83967000D01*
X139573000Y-83967000D01*
X139573000Y-83947000D01*
X138030085Y-83947000D01*
X137908096Y-84169039D01*
X137925633Y-84251818D01*
X138036285Y-84511646D01*
X138195500Y-84744895D01*
X138397161Y-84942601D01*
X138626741Y-85092735D01*
X138498899Y-85161068D01*
X138280392Y-85340392D01*
X138101068Y-85558899D01*
X137967818Y-85808192D01*
X137885764Y-86078691D01*
X137858057Y-86360000D01*
X137885764Y-86641309D01*
X137967818Y-86911808D01*
X138101068Y-87161101D01*
X138280392Y-87379608D01*
X138498899Y-87558932D01*
X138631858Y-87630000D01*
X138498899Y-87701068D01*
X138280392Y-87880392D01*
X138101068Y-88098899D01*
X137967818Y-88348192D01*
X137885764Y-88618691D01*
X137858057Y-88900000D01*
X137885764Y-89181309D01*
X137967818Y-89451808D01*
X138101068Y-89701101D01*
X138280392Y-89919608D01*
X138498899Y-90098932D01*
X138748192Y-90232182D01*
X138940001Y-90290366D01*
X138940001Y-91125197D01*
X138427002Y-91638197D01*
X138397999Y-91661999D01*
X138342871Y-91729174D01*
X138303026Y-91777724D01*
X138260643Y-91857017D01*
X138232454Y-91909754D01*
X138188997Y-92053015D01*
X138178000Y-92164668D01*
X138178000Y-92164678D01*
X138174324Y-92202000D01*
X138178000Y-92239323D01*
X138178001Y-93411197D01*
X136979002Y-94610197D01*
X136949998Y-94634000D01*
X136902402Y-94691997D01*
X136855025Y-94749725D01*
X136839525Y-94778724D01*
X136784453Y-94881755D01*
X136740996Y-95025016D01*
X136729999Y-95136669D01*
X136729999Y-95136679D01*
X136726323Y-95174001D01*
X136729999Y-95211324D01*
X136729999Y-97960196D01*
X135616304Y-96846501D01*
X135616300Y-96846496D01*
X134788804Y-96019001D01*
X134765002Y-95989998D01*
X134649277Y-95895025D01*
X134603072Y-95870328D01*
X134603072Y-95585000D01*
X134590812Y-95460518D01*
X134554502Y-95340820D01*
X134495537Y-95230506D01*
X134416185Y-95133815D01*
X134319494Y-95054463D01*
X134209180Y-94995498D01*
X134089482Y-94959188D01*
X133965000Y-94946928D01*
X132415000Y-94946928D01*
X132290518Y-94959188D01*
X132170820Y-94995498D01*
X132060506Y-95054463D01*
X131974556Y-95125000D01*
X131028105Y-95125000D01*
X130924012Y-94873698D01*
X130690363Y-94524017D01*
X130392983Y-94226637D01*
X130043302Y-93992988D01*
X129654756Y-93832047D01*
X129242279Y-93750000D01*
X128821721Y-93750000D01*
X128409244Y-93832047D01*
X128020698Y-93992988D01*
X127671017Y-94226637D01*
X127373637Y-94524017D01*
X127139988Y-94873698D01*
X126979047Y-95262244D01*
X126897000Y-95674721D01*
X126897000Y-96095279D01*
X126979047Y-96507756D01*
X127139988Y-96896302D01*
X127373637Y-97245983D01*
X127671017Y-97543363D01*
X128020698Y-97777012D01*
X128409244Y-97937953D01*
X128821721Y-98020000D01*
X129242279Y-98020000D01*
X129654756Y-97937953D01*
X129682206Y-97926583D01*
X129101473Y-98507316D01*
X128952898Y-98445774D01*
X128752939Y-98406000D01*
X128549061Y-98406000D01*
X128349102Y-98445774D01*
X128160744Y-98523795D01*
X127991226Y-98637063D01*
X127847063Y-98781226D01*
X127733795Y-98950744D01*
X127655774Y-99139102D01*
X127616000Y-99339061D01*
X127616000Y-99542939D01*
X127640251Y-99664858D01*
X127545518Y-99674188D01*
X127470000Y-99697096D01*
X127394482Y-99674188D01*
X127270000Y-99661928D01*
X127145675Y-99661928D01*
X127089975Y-99557723D01*
X127018800Y-99470996D01*
X126995002Y-99441998D01*
X126966005Y-99418201D01*
X125775001Y-98227198D01*
X125775001Y-95517800D01*
X130951028Y-90341775D01*
X130980021Y-90317981D01*
X131003815Y-90288988D01*
X131003819Y-90288984D01*
X131074143Y-90203292D01*
X131128192Y-90232182D01*
X131398691Y-90314236D01*
X131609508Y-90335000D01*
X132009422Y-90335000D01*
X134883465Y-93209044D01*
X134894774Y-93265898D01*
X134972795Y-93454256D01*
X135086063Y-93623774D01*
X135230226Y-93767937D01*
X135399744Y-93881205D01*
X135588102Y-93959226D01*
X135788061Y-93999000D01*
X135991939Y-93999000D01*
X136191898Y-93959226D01*
X136380256Y-93881205D01*
X136549774Y-93767937D01*
X136693937Y-93623774D01*
X136807205Y-93454256D01*
X136885226Y-93265898D01*
X136925000Y-93065939D01*
X136925000Y-92862061D01*
X136885226Y-92662102D01*
X136807205Y-92473744D01*
X136693937Y-92304226D01*
X136549774Y-92160063D01*
X136380256Y-92046795D01*
X136191898Y-91968774D01*
X136135044Y-91957465D01*
X133748509Y-89570931D01*
X133812182Y-89451808D01*
X133894236Y-89181309D01*
X133921943Y-88900000D01*
X133894236Y-88618691D01*
X133812182Y-88348192D01*
X133678932Y-88098899D01*
X133499608Y-87880392D01*
X133281101Y-87701068D01*
X133148142Y-87630000D01*
X133281101Y-87558932D01*
X133499608Y-87379608D01*
X133678932Y-87161101D01*
X133812182Y-86911808D01*
X133894236Y-86641309D01*
X133921943Y-86360000D01*
X133894236Y-86078691D01*
X133812182Y-85808192D01*
X133678932Y-85558899D01*
X133499608Y-85340392D01*
X133281101Y-85161068D01*
X133148142Y-85090000D01*
X133281101Y-85018932D01*
X133499608Y-84839608D01*
X133678932Y-84621101D01*
X133812182Y-84371808D01*
X133894236Y-84101309D01*
X133921943Y-83820000D01*
X133894236Y-83538691D01*
X133812182Y-83268192D01*
X133678932Y-83018899D01*
X133499608Y-82800392D01*
X133386518Y-82707581D01*
X133404482Y-82705812D01*
X133524180Y-82669502D01*
X133634494Y-82610537D01*
X133731185Y-82531185D01*
X133810537Y-82434494D01*
X133869502Y-82324180D01*
X133905812Y-82204482D01*
X133918072Y-82080000D01*
X133918072Y-80480000D01*
X133905812Y-80355518D01*
X133869502Y-80235820D01*
X133810537Y-80125506D01*
X133731185Y-80028815D01*
X133634494Y-79949463D01*
X133524180Y-79890498D01*
X133404482Y-79854188D01*
X133280000Y-79841928D01*
X130880000Y-79841928D01*
X130755518Y-79854188D01*
X130635820Y-79890498D01*
X130525506Y-79949463D01*
X130428815Y-80028815D01*
X130349463Y-80125506D01*
X130290498Y-80235820D01*
X130254188Y-80355518D01*
X130241928Y-80480000D01*
X130241928Y-82043270D01*
X129029003Y-83256196D01*
X128999999Y-83279999D01*
X128944871Y-83347174D01*
X128905026Y-83395724D01*
X128864811Y-83470961D01*
X128834454Y-83527754D01*
X128790997Y-83671015D01*
X128780000Y-83782668D01*
X128780000Y-83782678D01*
X128776324Y-83820000D01*
X128780000Y-83857323D01*
X128780001Y-85560658D01*
X128780000Y-85560668D01*
X128780001Y-88964786D01*
X122354799Y-95389990D01*
X122198930Y-95389991D01*
X122161600Y-95386314D01*
X122124267Y-95389991D01*
X122124266Y-95389991D01*
X122012613Y-95400988D01*
X121969157Y-95414170D01*
X121869353Y-95444444D01*
X121737323Y-95515016D01*
X121650597Y-95586191D01*
X121650592Y-95586196D01*
X121621598Y-95609991D01*
X121597806Y-95638982D01*
X120393003Y-96843786D01*
X120363999Y-96867589D01*
X120329202Y-96909990D01*
X120269026Y-96983314D01*
X120222691Y-97070000D01*
X120198454Y-97115344D01*
X120154997Y-97258605D01*
X120144000Y-97370258D01*
X120144000Y-97370268D01*
X120140324Y-97407590D01*
X120144000Y-97444913D01*
X120144001Y-98491197D01*
X118869002Y-99766197D01*
X118839999Y-99789999D01*
X118790310Y-99850546D01*
X118745026Y-99905724D01*
X118706786Y-99977266D01*
X118674454Y-100037754D01*
X118651954Y-100111928D01*
X118530000Y-100111928D01*
X118405518Y-100124188D01*
X118285820Y-100160498D01*
X118175506Y-100219463D01*
X118078815Y-100298815D01*
X117999463Y-100395506D01*
X117940498Y-100505820D01*
X117904188Y-100625518D01*
X117891928Y-100750000D01*
X117550000Y-100750000D01*
X117550000Y-99063380D01*
X127333770Y-89279611D01*
X127358948Y-89258948D01*
X127379615Y-89233766D01*
X127441425Y-89158450D01*
X127502710Y-89043793D01*
X127540450Y-88919383D01*
X127542359Y-88900000D01*
X127550000Y-88822419D01*
X127550000Y-88822412D01*
X127553192Y-88790000D01*
X127550000Y-88757588D01*
X127550000Y-73450000D01*
X144230000Y-73450000D01*
X144230001Y-88757581D01*
G36*
X139262754Y-138990547D02*
G01*
X139406015Y-139034004D01*
X139517668Y-139045001D01*
X139517676Y-139045001D01*
X139555001Y-139048677D01*
X139592326Y-139045001D01*
X145925001Y-139045001D01*
X145925000Y-141290198D01*
X143833886Y-143381312D01*
X143651335Y-143345000D01*
X143368665Y-143345000D01*
X143091426Y-143400147D01*
X142830273Y-143508320D01*
X142595241Y-143665363D01*
X142395363Y-143865241D01*
X142240000Y-144097759D01*
X142084637Y-143865241D01*
X141884759Y-143665363D01*
X141649727Y-143508320D01*
X141388574Y-143400147D01*
X141111335Y-143345000D01*
X140828665Y-143345000D01*
X140551426Y-143400147D01*
X140290273Y-143508320D01*
X140055241Y-143665363D01*
X139855363Y-143865241D01*
X139700000Y-144097759D01*
X139544637Y-143865241D01*
X139344759Y-143665363D01*
X139109727Y-143508320D01*
X139057428Y-143486657D01*
X139064974Y-143477462D01*
X139135546Y-143345433D01*
X139179003Y-143202172D01*
X139190000Y-143090519D01*
X139190000Y-143090511D01*
X139193676Y-143053186D01*
X139190000Y-143015861D01*
X139190000Y-138951659D01*
X139262754Y-138990547D01*
G37*
X139262754Y-138990547D02*
X139406015Y-139034004D01*
X139517668Y-139045001D01*
X139517676Y-139045001D01*
X139555001Y-139048677D01*
X139592326Y-139045001D01*
X145925001Y-139045001D01*
X145925000Y-141290198D01*
X143833886Y-143381312D01*
X143651335Y-143345000D01*
X143368665Y-143345000D01*
X143091426Y-143400147D01*
X142830273Y-143508320D01*
X142595241Y-143665363D01*
X142395363Y-143865241D01*
X142240000Y-144097759D01*
X142084637Y-143865241D01*
X141884759Y-143665363D01*
X141649727Y-143508320D01*
X141388574Y-143400147D01*
X141111335Y-143345000D01*
X140828665Y-143345000D01*
X140551426Y-143400147D01*
X140290273Y-143508320D01*
X140055241Y-143665363D01*
X139855363Y-143865241D01*
X139700000Y-144097759D01*
X139544637Y-143865241D01*
X139344759Y-143665363D01*
X139109727Y-143508320D01*
X139057428Y-143486657D01*
X139064974Y-143477462D01*
X139135546Y-143345433D01*
X139179003Y-143202172D01*
X139190000Y-143090519D01*
X139190000Y-143090511D01*
X139193676Y-143053186D01*
X139190000Y-143015861D01*
X139190000Y-138951659D01*
X139262754Y-138990547D01*
G36*
X140210000Y-132804678D02*
G01*
X140206324Y-132842000D01*
X140210000Y-132879322D01*
X140210000Y-132879332D01*
X140220997Y-132990985D01*
X140254837Y-133102543D01*
X140264454Y-133134246D01*
X140335026Y-133266276D01*
X140372258Y-133311643D01*
X140429999Y-133382001D01*
X140459002Y-133405803D01*
X141734001Y-134680803D01*
X141734000Y-135321197D01*
X141293886Y-135761312D01*
X141111335Y-135725000D01*
X140828665Y-135725000D01*
X140551426Y-135780147D01*
X140290273Y-135888320D01*
X140055241Y-136045363D01*
X139855363Y-136245241D01*
X139700000Y-136477759D01*
X139544637Y-136245241D01*
X139344759Y-136045363D01*
X139117568Y-135893559D01*
X139239898Y-135869226D01*
X139428256Y-135791205D01*
X139597774Y-135677937D01*
X139741937Y-135533774D01*
X139855205Y-135364256D01*
X139933226Y-135175898D01*
X139973000Y-134975939D01*
X139973000Y-134772061D01*
X139933226Y-134572102D01*
X139855205Y-134383744D01*
X139741937Y-134214226D01*
X139597774Y-134070063D01*
X139428256Y-133956795D01*
X139239898Y-133878774D01*
X139039939Y-133839000D01*
X138836061Y-133839000D01*
X138636102Y-133878774D01*
X138447744Y-133956795D01*
X138399546Y-133989000D01*
X138181518Y-133989000D01*
X138156494Y-133968463D01*
X138046180Y-133909498D01*
X137926482Y-133873188D01*
X137802000Y-133860928D01*
X137002000Y-133860928D01*
X136877518Y-133873188D01*
X136757820Y-133909498D01*
X136652000Y-133966061D01*
X136546180Y-133909498D01*
X136426482Y-133873188D01*
X136302000Y-133860928D01*
X136187750Y-133864000D01*
X136029000Y-134022750D01*
X136029000Y-134747000D01*
X136049000Y-134747000D01*
X136049000Y-135001000D01*
X136029000Y-135001000D01*
X136029000Y-135725250D01*
X136131131Y-135827381D01*
X136017000Y-135890085D01*
X136017000Y-137033000D01*
X136037000Y-137033000D01*
X136037000Y-137287000D01*
X136017000Y-137287000D01*
X136017000Y-138429915D01*
X136239039Y-138551904D01*
X136255001Y-138547062D01*
X136255002Y-143163419D01*
X136066439Y-143351983D01*
X136031335Y-143345000D01*
X135748665Y-143345000D01*
X135471426Y-143400147D01*
X135210273Y-143508320D01*
X135193877Y-143519276D01*
X135183799Y-143506996D01*
X135183795Y-143506992D01*
X135160001Y-143477999D01*
X135131008Y-143454205D01*
X131630801Y-139954000D01*
X133026114Y-138558688D01*
X133208665Y-138595000D01*
X133491335Y-138595000D01*
X133768574Y-138539853D01*
X134029727Y-138431680D01*
X134264759Y-138274637D01*
X134464637Y-138074759D01*
X134621680Y-137839727D01*
X134626067Y-137829135D01*
X134737615Y-138015131D01*
X134926586Y-138223519D01*
X135152580Y-138391037D01*
X135406913Y-138511246D01*
X135540961Y-138551904D01*
X135763000Y-138429915D01*
X135763000Y-137287000D01*
X135743000Y-137287000D01*
X135743000Y-137033000D01*
X135763000Y-137033000D01*
X135763000Y-135890085D01*
X135664359Y-135835891D01*
X135775000Y-135725250D01*
X135775000Y-135001000D01*
X135025750Y-135001000D01*
X134867000Y-135159750D01*
X134863928Y-135249000D01*
X134876188Y-135373482D01*
X134912498Y-135493180D01*
X134971463Y-135603494D01*
X135050815Y-135700185D01*
X135147506Y-135779537D01*
X135257820Y-135838502D01*
X135310295Y-135854420D01*
X135152580Y-135928963D01*
X134926586Y-136096481D01*
X134737615Y-136304869D01*
X134626067Y-136490865D01*
X134621680Y-136480273D01*
X134464637Y-136245241D01*
X134264759Y-136045363D01*
X134029727Y-135888320D01*
X133768574Y-135780147D01*
X133491335Y-135725000D01*
X133208665Y-135725000D01*
X132931426Y-135780147D01*
X132670273Y-135888320D01*
X132435241Y-136045363D01*
X132235363Y-136245241D01*
X132080000Y-136477759D01*
X131924637Y-136245241D01*
X131724759Y-136045363D01*
X131490778Y-135889022D01*
X131768536Y-135611264D01*
X131778102Y-135615226D01*
X131978061Y-135655000D01*
X132181939Y-135655000D01*
X132381898Y-135615226D01*
X132570256Y-135537205D01*
X132739774Y-135423937D01*
X132883937Y-135279774D01*
X132997205Y-135110256D01*
X133075226Y-134921898D01*
X133115000Y-134721939D01*
X133115000Y-134518061D01*
X133084334Y-134363890D01*
X134836568Y-134363890D01*
X134873890Y-134367566D01*
X134878433Y-134367119D01*
X134876188Y-134374518D01*
X134863928Y-134499000D01*
X134867000Y-134588250D01*
X135025750Y-134747000D01*
X135775000Y-134747000D01*
X135775000Y-134022750D01*
X135652416Y-133900166D01*
X136712582Y-132840000D01*
X136792438Y-132840000D01*
X136792438Y-133079490D01*
X136804698Y-133203972D01*
X136841008Y-133323670D01*
X136899973Y-133433984D01*
X136979325Y-133530675D01*
X137076016Y-133610027D01*
X137186330Y-133668992D01*
X137306028Y-133705302D01*
X137430510Y-133717562D01*
X139429490Y-133717562D01*
X139553972Y-133705302D01*
X139673670Y-133668992D01*
X139783984Y-133610027D01*
X139880675Y-133530675D01*
X139960027Y-133433984D01*
X140018992Y-133323670D01*
X140055302Y-133203972D01*
X140067562Y-133079490D01*
X140067562Y-131701569D01*
X140128239Y-131639010D01*
X140196136Y-131533958D01*
X140210000Y-131498987D01*
X140210000Y-132804678D01*
G37*
X140210000Y-132804678D02*
X140206324Y-132842000D01*
X140210000Y-132879322D01*
X140210000Y-132879332D01*
X140220997Y-132990985D01*
X140254837Y-133102543D01*
X140264454Y-133134246D01*
X140335026Y-133266276D01*
X140372258Y-133311643D01*
X140429999Y-133382001D01*
X140459002Y-133405803D01*
X141734001Y-134680803D01*
X141734000Y-135321197D01*
X141293886Y-135761312D01*
X141111335Y-135725000D01*
X140828665Y-135725000D01*
X140551426Y-135780147D01*
X140290273Y-135888320D01*
X140055241Y-136045363D01*
X139855363Y-136245241D01*
X139700000Y-136477759D01*
X139544637Y-136245241D01*
X139344759Y-136045363D01*
X139117568Y-135893559D01*
X139239898Y-135869226D01*
X139428256Y-135791205D01*
X139597774Y-135677937D01*
X139741937Y-135533774D01*
X139855205Y-135364256D01*
X139933226Y-135175898D01*
X139973000Y-134975939D01*
X139973000Y-134772061D01*
X139933226Y-134572102D01*
X139855205Y-134383744D01*
X139741937Y-134214226D01*
X139597774Y-134070063D01*
X139428256Y-133956795D01*
X139239898Y-133878774D01*
X139039939Y-133839000D01*
X138836061Y-133839000D01*
X138636102Y-133878774D01*
X138447744Y-133956795D01*
X138399546Y-133989000D01*
X138181518Y-133989000D01*
X138156494Y-133968463D01*
X138046180Y-133909498D01*
X137926482Y-133873188D01*
X137802000Y-133860928D01*
X137002000Y-133860928D01*
X136877518Y-133873188D01*
X136757820Y-133909498D01*
X136652000Y-133966061D01*
X136546180Y-133909498D01*
X136426482Y-133873188D01*
X136302000Y-133860928D01*
X136187750Y-133864000D01*
X136029000Y-134022750D01*
X136029000Y-134747000D01*
X136049000Y-134747000D01*
X136049000Y-135001000D01*
X136029000Y-135001000D01*
X136029000Y-135725250D01*
X136131131Y-135827381D01*
X136017000Y-135890085D01*
X136017000Y-137033000D01*
X136037000Y-137033000D01*
X136037000Y-137287000D01*
X136017000Y-137287000D01*
X136017000Y-138429915D01*
X136239039Y-138551904D01*
X136255001Y-138547062D01*
X136255002Y-143163419D01*
X136066439Y-143351983D01*
X136031335Y-143345000D01*
X135748665Y-143345000D01*
X135471426Y-143400147D01*
X135210273Y-143508320D01*
X135193877Y-143519276D01*
X135183799Y-143506996D01*
X135183795Y-143506992D01*
X135160001Y-143477999D01*
X135131008Y-143454205D01*
X131630801Y-139954000D01*
X133026114Y-138558688D01*
X133208665Y-138595000D01*
X133491335Y-138595000D01*
X133768574Y-138539853D01*
X134029727Y-138431680D01*
X134264759Y-138274637D01*
X134464637Y-138074759D01*
X134621680Y-137839727D01*
X134626067Y-137829135D01*
X134737615Y-138015131D01*
X134926586Y-138223519D01*
X135152580Y-138391037D01*
X135406913Y-138511246D01*
X135540961Y-138551904D01*
X135763000Y-138429915D01*
X135763000Y-137287000D01*
X135743000Y-137287000D01*
X135743000Y-137033000D01*
X135763000Y-137033000D01*
X135763000Y-135890085D01*
X135664359Y-135835891D01*
X135775000Y-135725250D01*
X135775000Y-135001000D01*
X135025750Y-135001000D01*
X134867000Y-135159750D01*
X134863928Y-135249000D01*
X134876188Y-135373482D01*
X134912498Y-135493180D01*
X134971463Y-135603494D01*
X135050815Y-135700185D01*
X135147506Y-135779537D01*
X135257820Y-135838502D01*
X135310295Y-135854420D01*
X135152580Y-135928963D01*
X134926586Y-136096481D01*
X134737615Y-136304869D01*
X134626067Y-136490865D01*
X134621680Y-136480273D01*
X134464637Y-136245241D01*
X134264759Y-136045363D01*
X134029727Y-135888320D01*
X133768574Y-135780147D01*
X133491335Y-135725000D01*
X133208665Y-135725000D01*
X132931426Y-135780147D01*
X132670273Y-135888320D01*
X132435241Y-136045363D01*
X132235363Y-136245241D01*
X132080000Y-136477759D01*
X131924637Y-136245241D01*
X131724759Y-136045363D01*
X131490778Y-135889022D01*
X131768536Y-135611264D01*
X131778102Y-135615226D01*
X131978061Y-135655000D01*
X132181939Y-135655000D01*
X132381898Y-135615226D01*
X132570256Y-135537205D01*
X132739774Y-135423937D01*
X132883937Y-135279774D01*
X132997205Y-135110256D01*
X133075226Y-134921898D01*
X133115000Y-134721939D01*
X133115000Y-134518061D01*
X133084334Y-134363890D01*
X134836568Y-134363890D01*
X134873890Y-134367566D01*
X134878433Y-134367119D01*
X134876188Y-134374518D01*
X134863928Y-134499000D01*
X134867000Y-134588250D01*
X135025750Y-134747000D01*
X135775000Y-134747000D01*
X135775000Y-134022750D01*
X135652416Y-133900166D01*
X136712582Y-132840000D01*
X136792438Y-132840000D01*
X136792438Y-133079490D01*
X136804698Y-133203972D01*
X136841008Y-133323670D01*
X136899973Y-133433984D01*
X136979325Y-133530675D01*
X137076016Y-133610027D01*
X137186330Y-133668992D01*
X137306028Y-133705302D01*
X137430510Y-133717562D01*
X139429490Y-133717562D01*
X139553972Y-133705302D01*
X139673670Y-133668992D01*
X139783984Y-133610027D01*
X139880675Y-133530675D01*
X139960027Y-133433984D01*
X140018992Y-133323670D01*
X140055302Y-133203972D01*
X140067562Y-133079490D01*
X140067562Y-131701569D01*
X140128239Y-131639010D01*
X140196136Y-131533958D01*
X140210000Y-131498987D01*
X140210000Y-132804678D01*
G36*
X144621200Y-109096002D02*
G01*
X144644999Y-109125001D01*
X144673997Y-109148799D01*
X144760723Y-109219974D01*
X144864428Y-109275406D01*
X144845498Y-109310820D01*
X144809188Y-109430518D01*
X144796928Y-109555000D01*
X144796928Y-110155000D01*
X144809188Y-110279482D01*
X144845498Y-110399180D01*
X144904463Y-110509494D01*
X144983815Y-110606185D01*
X145080506Y-110685537D01*
X145190820Y-110744502D01*
X145310518Y-110780812D01*
X145435000Y-110793072D01*
X146985000Y-110793072D01*
X147109482Y-110780812D01*
X147229180Y-110744502D01*
X147328407Y-110691463D01*
X147380064Y-110768774D01*
X147524227Y-110912937D01*
X147693745Y-111026205D01*
X147882103Y-111104226D01*
X148082062Y-111144000D01*
X148149002Y-111144000D01*
X148149002Y-113421159D01*
X147085000Y-112091157D01*
X147085000Y-111912061D01*
X147045226Y-111712102D01*
X146967205Y-111523744D01*
X146853937Y-111354226D01*
X146709774Y-111210063D01*
X146540256Y-111096795D01*
X146351898Y-111018774D01*
X146151939Y-110979000D01*
X145948061Y-110979000D01*
X145748102Y-111018774D01*
X145559744Y-111096795D01*
X145390226Y-111210063D01*
X145246063Y-111354226D01*
X145132795Y-111523744D01*
X145054774Y-111712102D01*
X145015000Y-111912061D01*
X145015000Y-112115939D01*
X145054774Y-112315898D01*
X145132795Y-112504256D01*
X145246063Y-112673774D01*
X145390226Y-112817937D01*
X145559744Y-112931205D01*
X145748102Y-113009226D01*
X145896524Y-113038749D01*
X147322000Y-114820594D01*
X147322001Y-136337197D01*
X146134198Y-137525001D01*
X144948072Y-137525001D01*
X144948072Y-136360000D01*
X144935812Y-136235518D01*
X144899502Y-136115820D01*
X144840537Y-136005506D01*
X144761185Y-135908815D01*
X144664494Y-135829463D01*
X144554180Y-135770498D01*
X144434482Y-135734188D01*
X144310000Y-135721928D01*
X144270000Y-135721928D01*
X144270000Y-133717562D01*
X144509490Y-133717562D01*
X144633972Y-133705302D01*
X144753670Y-133668992D01*
X144863984Y-133610027D01*
X144960675Y-133530675D01*
X145040027Y-133433984D01*
X145098992Y-133323670D01*
X145135302Y-133203972D01*
X145147562Y-133079490D01*
X145147562Y-131701569D01*
X145208239Y-131639010D01*
X145276136Y-131533958D01*
X145322234Y-131417678D01*
X145344760Y-131294639D01*
X145342851Y-131169570D01*
X144944071Y-127669450D01*
X144899602Y-127497500D01*
X144840637Y-127387186D01*
X144761285Y-127290495D01*
X144664594Y-127211143D01*
X144554280Y-127152178D01*
X144434582Y-127115868D01*
X144310100Y-127103608D01*
X142709900Y-127103608D01*
X142534022Y-127128326D01*
X142417742Y-127174424D01*
X142312690Y-127242321D01*
X142222902Y-127329408D01*
X142151829Y-127432338D01*
X142102202Y-127547156D01*
X142075929Y-127669450D01*
X141730000Y-130705693D01*
X141730000Y-123451787D01*
X142075929Y-126488030D01*
X142120398Y-126659980D01*
X142179363Y-126770294D01*
X142258715Y-126866985D01*
X142355406Y-126946337D01*
X142465720Y-127005302D01*
X142585418Y-127041612D01*
X142709900Y-127053872D01*
X144310100Y-127053872D01*
X144485978Y-127029154D01*
X144602258Y-126983056D01*
X144707310Y-126915159D01*
X144797098Y-126828072D01*
X144868171Y-126725142D01*
X144917798Y-126610324D01*
X144944071Y-126488030D01*
X145342851Y-122987910D01*
X145346952Y-122915680D01*
X145334692Y-122791198D01*
X145298382Y-122671500D01*
X145239417Y-122561186D01*
X145160065Y-122464495D01*
X145147562Y-122454234D01*
X145147562Y-121077990D01*
X145135302Y-120953508D01*
X145098992Y-120833810D01*
X145040027Y-120723496D01*
X144960675Y-120626805D01*
X144863984Y-120547453D01*
X144753670Y-120488488D01*
X144633972Y-120452178D01*
X144509490Y-120439918D01*
X144270000Y-120439918D01*
X144270000Y-119496073D01*
X144273677Y-119458740D01*
X144259003Y-119309754D01*
X144215546Y-119166493D01*
X144144974Y-119034464D01*
X144073799Y-118947737D01*
X144050001Y-118918739D01*
X144021003Y-118894941D01*
X142528822Y-117402761D01*
X142528822Y-116277239D01*
X143730004Y-115076058D01*
X143759002Y-115052260D01*
X143832088Y-114963205D01*
X143853975Y-114936536D01*
X143924547Y-114804506D01*
X143927636Y-114794324D01*
X143968004Y-114661245D01*
X143979001Y-114549592D01*
X143979001Y-114549582D01*
X143982677Y-114512259D01*
X143979001Y-114474936D01*
X143979001Y-108453803D01*
X144621200Y-109096002D01*
G37*
X144621200Y-109096002D02*
X144644999Y-109125001D01*
X144673997Y-109148799D01*
X144760723Y-109219974D01*
X144864428Y-109275406D01*
X144845498Y-109310820D01*
X144809188Y-109430518D01*
X144796928Y-109555000D01*
X144796928Y-110155000D01*
X144809188Y-110279482D01*
X144845498Y-110399180D01*
X144904463Y-110509494D01*
X144983815Y-110606185D01*
X145080506Y-110685537D01*
X145190820Y-110744502D01*
X145310518Y-110780812D01*
X145435000Y-110793072D01*
X146985000Y-110793072D01*
X147109482Y-110780812D01*
X147229180Y-110744502D01*
X147328407Y-110691463D01*
X147380064Y-110768774D01*
X147524227Y-110912937D01*
X147693745Y-111026205D01*
X147882103Y-111104226D01*
X148082062Y-111144000D01*
X148149002Y-111144000D01*
X148149002Y-113421159D01*
X147085000Y-112091157D01*
X147085000Y-111912061D01*
X147045226Y-111712102D01*
X146967205Y-111523744D01*
X146853937Y-111354226D01*
X146709774Y-111210063D01*
X146540256Y-111096795D01*
X146351898Y-111018774D01*
X146151939Y-110979000D01*
X145948061Y-110979000D01*
X145748102Y-111018774D01*
X145559744Y-111096795D01*
X145390226Y-111210063D01*
X145246063Y-111354226D01*
X145132795Y-111523744D01*
X145054774Y-111712102D01*
X145015000Y-111912061D01*
X145015000Y-112115939D01*
X145054774Y-112315898D01*
X145132795Y-112504256D01*
X145246063Y-112673774D01*
X145390226Y-112817937D01*
X145559744Y-112931205D01*
X145748102Y-113009226D01*
X145896524Y-113038749D01*
X147322000Y-114820594D01*
X147322001Y-136337197D01*
X146134198Y-137525001D01*
X144948072Y-137525001D01*
X144948072Y-136360000D01*
X144935812Y-136235518D01*
X144899502Y-136115820D01*
X144840537Y-136005506D01*
X144761185Y-135908815D01*
X144664494Y-135829463D01*
X144554180Y-135770498D01*
X144434482Y-135734188D01*
X144310000Y-135721928D01*
X144270000Y-135721928D01*
X144270000Y-133717562D01*
X144509490Y-133717562D01*
X144633972Y-133705302D01*
X144753670Y-133668992D01*
X144863984Y-133610027D01*
X144960675Y-133530675D01*
X145040027Y-133433984D01*
X145098992Y-133323670D01*
X145135302Y-133203972D01*
X145147562Y-133079490D01*
X145147562Y-131701569D01*
X145208239Y-131639010D01*
X145276136Y-131533958D01*
X145322234Y-131417678D01*
X145344760Y-131294639D01*
X145342851Y-131169570D01*
X144944071Y-127669450D01*
X144899602Y-127497500D01*
X144840637Y-127387186D01*
X144761285Y-127290495D01*
X144664594Y-127211143D01*
X144554280Y-127152178D01*
X144434582Y-127115868D01*
X144310100Y-127103608D01*
X142709900Y-127103608D01*
X142534022Y-127128326D01*
X142417742Y-127174424D01*
X142312690Y-127242321D01*
X142222902Y-127329408D01*
X142151829Y-127432338D01*
X142102202Y-127547156D01*
X142075929Y-127669450D01*
X141730000Y-130705693D01*
X141730000Y-123451787D01*
X142075929Y-126488030D01*
X142120398Y-126659980D01*
X142179363Y-126770294D01*
X142258715Y-126866985D01*
X142355406Y-126946337D01*
X142465720Y-127005302D01*
X142585418Y-127041612D01*
X142709900Y-127053872D01*
X144310100Y-127053872D01*
X144485978Y-127029154D01*
X144602258Y-126983056D01*
X144707310Y-126915159D01*
X144797098Y-126828072D01*
X144868171Y-126725142D01*
X144917798Y-126610324D01*
X144944071Y-126488030D01*
X145342851Y-122987910D01*
X145346952Y-122915680D01*
X145334692Y-122791198D01*
X145298382Y-122671500D01*
X145239417Y-122561186D01*
X145160065Y-122464495D01*
X145147562Y-122454234D01*
X145147562Y-121077990D01*
X145135302Y-120953508D01*
X145098992Y-120833810D01*
X145040027Y-120723496D01*
X144960675Y-120626805D01*
X144863984Y-120547453D01*
X144753670Y-120488488D01*
X144633972Y-120452178D01*
X144509490Y-120439918D01*
X144270000Y-120439918D01*
X144270000Y-119496073D01*
X144273677Y-119458740D01*
X144259003Y-119309754D01*
X144215546Y-119166493D01*
X144144974Y-119034464D01*
X144073799Y-118947737D01*
X144050001Y-118918739D01*
X144021003Y-118894941D01*
X142528822Y-117402761D01*
X142528822Y-116277239D01*
X143730004Y-115076058D01*
X143759002Y-115052260D01*
X143832088Y-114963205D01*
X143853975Y-114936536D01*
X143924547Y-114804506D01*
X143927636Y-114794324D01*
X143968004Y-114661245D01*
X143979001Y-114549592D01*
X143979001Y-114549582D01*
X143982677Y-114512259D01*
X143979001Y-114474936D01*
X143979001Y-108453803D01*
X144621200Y-109096002D01*
G36*
X127545518Y-103525812D02*
G01*
X127670000Y-103538072D01*
X127910001Y-103538072D01*
X127910000Y-107272677D01*
X127906324Y-107310000D01*
X127910000Y-107347322D01*
X127910000Y-107347332D01*
X127920997Y-107458985D01*
X127948987Y-107551256D01*
X127964454Y-107602246D01*
X128035026Y-107734276D01*
X128060468Y-107765277D01*
X128129999Y-107850001D01*
X128159003Y-107873804D01*
X129381200Y-109096002D01*
X129404999Y-109125001D01*
X129520724Y-109219974D01*
X129624428Y-109275406D01*
X129605498Y-109310820D01*
X129569188Y-109430518D01*
X129556928Y-109555000D01*
X129556928Y-110155000D01*
X129569188Y-110279482D01*
X129605498Y-110399180D01*
X129664463Y-110509494D01*
X129743815Y-110606185D01*
X129840506Y-110685537D01*
X129950820Y-110744502D01*
X130070518Y-110780812D01*
X130195000Y-110793072D01*
X131745000Y-110793072D01*
X131869482Y-110780812D01*
X131989180Y-110744502D01*
X132099494Y-110685537D01*
X132196185Y-110606185D01*
X132275537Y-110509494D01*
X132334502Y-110399180D01*
X132370812Y-110279482D01*
X132383072Y-110155000D01*
X132383072Y-109555000D01*
X132370812Y-109430518D01*
X132344870Y-109345000D01*
X134533680Y-109345000D01*
X134571002Y-109348676D01*
X134608324Y-109345000D01*
X134608335Y-109345000D01*
X134719988Y-109334003D01*
X134863249Y-109290546D01*
X134995278Y-109219974D01*
X135025000Y-109195582D01*
X135025000Y-109430279D01*
X135107047Y-109842756D01*
X135267988Y-110231302D01*
X135358658Y-110367000D01*
X134155469Y-110367000D01*
X134112000Y-110362719D01*
X134068531Y-110367000D01*
X134068523Y-110367000D01*
X133953306Y-110378348D01*
X133938509Y-110379805D01*
X133887903Y-110395157D01*
X133771687Y-110430411D01*
X133617941Y-110512589D01*
X133617939Y-110512590D01*
X133617940Y-110512590D01*
X133516953Y-110595468D01*
X133516951Y-110595470D01*
X133483183Y-110623183D01*
X133455470Y-110656951D01*
X131834957Y-112277465D01*
X131778102Y-112288774D01*
X131589744Y-112366795D01*
X131420226Y-112480063D01*
X131276063Y-112624226D01*
X131162795Y-112793744D01*
X131084774Y-112982102D01*
X131045000Y-113182061D01*
X131045000Y-113385939D01*
X131084774Y-113585898D01*
X131162795Y-113774256D01*
X131276063Y-113943774D01*
X131420226Y-114087937D01*
X131589744Y-114201205D01*
X131778102Y-114279226D01*
X131978061Y-114319000D01*
X132181939Y-114319000D01*
X132381898Y-114279226D01*
X132570256Y-114201205D01*
X132739774Y-114087937D01*
X132883937Y-113943774D01*
X132997205Y-113774256D01*
X133075226Y-113585898D01*
X133086535Y-113529043D01*
X134478579Y-112137000D01*
X138815001Y-112137000D01*
X138815001Y-112409420D01*
X138184957Y-113039465D01*
X138128102Y-113050774D01*
X137939744Y-113128795D01*
X137770226Y-113242063D01*
X137626063Y-113386226D01*
X137512795Y-113555744D01*
X137434774Y-113744102D01*
X137395000Y-113944061D01*
X137395000Y-114147939D01*
X137434774Y-114347898D01*
X137512795Y-114536256D01*
X137626063Y-114705774D01*
X137770226Y-114849937D01*
X137939744Y-114963205D01*
X138128102Y-115041226D01*
X138328061Y-115081000D01*
X138531939Y-115081000D01*
X138731898Y-115041226D01*
X138920256Y-114963205D01*
X139089774Y-114849937D01*
X139233937Y-114705774D01*
X139347205Y-114536256D01*
X139425226Y-114347898D01*
X139436535Y-114291043D01*
X140295049Y-113432530D01*
X140328817Y-113404817D01*
X140439411Y-113270059D01*
X140521589Y-113116313D01*
X140572195Y-112949490D01*
X140585000Y-112819477D01*
X140585000Y-112819467D01*
X140589281Y-112776001D01*
X140585000Y-112732535D01*
X140585000Y-111618578D01*
X141405049Y-110798530D01*
X141411699Y-110793072D01*
X141480000Y-110793072D01*
X141480000Y-111310289D01*
X141436063Y-111354226D01*
X141322795Y-111523744D01*
X141244774Y-111712102D01*
X141205000Y-111912061D01*
X141205000Y-112115939D01*
X141244774Y-112315898D01*
X141322795Y-112504256D01*
X141436063Y-112673774D01*
X141580226Y-112817937D01*
X141749744Y-112931205D01*
X141938102Y-113009226D01*
X142138061Y-113049000D01*
X142341939Y-113049000D01*
X142459002Y-113025715D01*
X142459002Y-114197456D01*
X141454021Y-115202438D01*
X140512829Y-115202438D01*
X140450270Y-115141761D01*
X140345218Y-115073864D01*
X140228938Y-115027766D01*
X140105899Y-115005240D01*
X139980830Y-115007149D01*
X136480710Y-115405929D01*
X136308760Y-115450398D01*
X136198446Y-115509363D01*
X136101755Y-115588715D01*
X136022403Y-115685406D01*
X135963438Y-115795720D01*
X135927128Y-115915418D01*
X135914868Y-116039900D01*
X135914868Y-117640100D01*
X135939586Y-117815978D01*
X135985684Y-117932258D01*
X136053581Y-118037310D01*
X136140668Y-118127098D01*
X136243598Y-118198171D01*
X136358416Y-118247798D01*
X136480710Y-118274071D01*
X139980830Y-118672851D01*
X140053060Y-118676952D01*
X140177542Y-118664692D01*
X140210001Y-118654846D01*
X140210001Y-122655820D01*
X140159417Y-122561186D01*
X140080065Y-122464495D01*
X140067562Y-122454234D01*
X140067562Y-121077990D01*
X140055302Y-120953508D01*
X140018992Y-120833810D01*
X139960027Y-120723496D01*
X139880675Y-120626805D01*
X139783984Y-120547453D01*
X139673670Y-120488488D01*
X139553972Y-120452178D01*
X139429490Y-120439918D01*
X138151720Y-120439918D01*
X135734518Y-118022716D01*
X135757597Y-117994594D01*
X135816562Y-117884280D01*
X135852872Y-117764582D01*
X135865132Y-117640100D01*
X135865132Y-116039900D01*
X135840414Y-115864022D01*
X135794316Y-115747742D01*
X135726419Y-115642690D01*
X135639332Y-115552902D01*
X135536402Y-115481829D01*
X135421584Y-115432202D01*
X135299290Y-115405929D01*
X131799170Y-115007149D01*
X131726940Y-115003048D01*
X131602458Y-115015308D01*
X131482760Y-115051618D01*
X131372446Y-115110583D01*
X131275755Y-115189935D01*
X131265494Y-115202438D01*
X129889250Y-115202438D01*
X129764768Y-115214698D01*
X129645070Y-115251008D01*
X129534756Y-115309973D01*
X129438065Y-115389325D01*
X129358713Y-115486016D01*
X129299748Y-115596330D01*
X129263438Y-115716028D01*
X129251178Y-115840510D01*
X129251178Y-116080000D01*
X128330802Y-116080000D01*
X127494000Y-115243199D01*
X127494000Y-107491325D01*
X127497676Y-107454000D01*
X127494000Y-107416675D01*
X127494000Y-107416667D01*
X127483003Y-107305014D01*
X127439546Y-107161753D01*
X127430001Y-107143896D01*
X127430001Y-105582334D01*
X127433678Y-105545001D01*
X127429738Y-105504999D01*
X127419004Y-105396015D01*
X127375547Y-105252754D01*
X127304999Y-105120770D01*
X127304999Y-103534625D01*
X127394482Y-103525812D01*
X127470000Y-103502904D01*
X127545518Y-103525812D01*
G37*
X127545518Y-103525812D02*
X127670000Y-103538072D01*
X127910001Y-103538072D01*
X127910000Y-107272677D01*
X127906324Y-107310000D01*
X127910000Y-107347322D01*
X127910000Y-107347332D01*
X127920997Y-107458985D01*
X127948987Y-107551256D01*
X127964454Y-107602246D01*
X128035026Y-107734276D01*
X128060468Y-107765277D01*
X128129999Y-107850001D01*
X128159003Y-107873804D01*
X129381200Y-109096002D01*
X129404999Y-109125001D01*
X129520724Y-109219974D01*
X129624428Y-109275406D01*
X129605498Y-109310820D01*
X129569188Y-109430518D01*
X129556928Y-109555000D01*
X129556928Y-110155000D01*
X129569188Y-110279482D01*
X129605498Y-110399180D01*
X129664463Y-110509494D01*
X129743815Y-110606185D01*
X129840506Y-110685537D01*
X129950820Y-110744502D01*
X130070518Y-110780812D01*
X130195000Y-110793072D01*
X131745000Y-110793072D01*
X131869482Y-110780812D01*
X131989180Y-110744502D01*
X132099494Y-110685537D01*
X132196185Y-110606185D01*
X132275537Y-110509494D01*
X132334502Y-110399180D01*
X132370812Y-110279482D01*
X132383072Y-110155000D01*
X132383072Y-109555000D01*
X132370812Y-109430518D01*
X132344870Y-109345000D01*
X134533680Y-109345000D01*
X134571002Y-109348676D01*
X134608324Y-109345000D01*
X134608335Y-109345000D01*
X134719988Y-109334003D01*
X134863249Y-109290546D01*
X134995278Y-109219974D01*
X135025000Y-109195582D01*
X135025000Y-109430279D01*
X135107047Y-109842756D01*
X135267988Y-110231302D01*
X135358658Y-110367000D01*
X134155469Y-110367000D01*
X134112000Y-110362719D01*
X134068531Y-110367000D01*
X134068523Y-110367000D01*
X133953306Y-110378348D01*
X133938509Y-110379805D01*
X133887903Y-110395157D01*
X133771687Y-110430411D01*
X133617941Y-110512589D01*
X133617939Y-110512590D01*
X133617940Y-110512590D01*
X133516953Y-110595468D01*
X133516951Y-110595470D01*
X133483183Y-110623183D01*
X133455470Y-110656951D01*
X131834957Y-112277465D01*
X131778102Y-112288774D01*
X131589744Y-112366795D01*
X131420226Y-112480063D01*
X131276063Y-112624226D01*
X131162795Y-112793744D01*
X131084774Y-112982102D01*
X131045000Y-113182061D01*
X131045000Y-113385939D01*
X131084774Y-113585898D01*
X131162795Y-113774256D01*
X131276063Y-113943774D01*
X131420226Y-114087937D01*
X131589744Y-114201205D01*
X131778102Y-114279226D01*
X131978061Y-114319000D01*
X132181939Y-114319000D01*
X132381898Y-114279226D01*
X132570256Y-114201205D01*
X132739774Y-114087937D01*
X132883937Y-113943774D01*
X132997205Y-113774256D01*
X133075226Y-113585898D01*
X133086535Y-113529043D01*
X134478579Y-112137000D01*
X138815001Y-112137000D01*
X138815001Y-112409420D01*
X138184957Y-113039465D01*
X138128102Y-113050774D01*
X137939744Y-113128795D01*
X137770226Y-113242063D01*
X137626063Y-113386226D01*
X137512795Y-113555744D01*
X137434774Y-113744102D01*
X137395000Y-113944061D01*
X137395000Y-114147939D01*
X137434774Y-114347898D01*
X137512795Y-114536256D01*
X137626063Y-114705774D01*
X137770226Y-114849937D01*
X137939744Y-114963205D01*
X138128102Y-115041226D01*
X138328061Y-115081000D01*
X138531939Y-115081000D01*
X138731898Y-115041226D01*
X138920256Y-114963205D01*
X139089774Y-114849937D01*
X139233937Y-114705774D01*
X139347205Y-114536256D01*
X139425226Y-114347898D01*
X139436535Y-114291043D01*
X140295049Y-113432530D01*
X140328817Y-113404817D01*
X140439411Y-113270059D01*
X140521589Y-113116313D01*
X140572195Y-112949490D01*
X140585000Y-112819477D01*
X140585000Y-112819467D01*
X140589281Y-112776001D01*
X140585000Y-112732535D01*
X140585000Y-111618578D01*
X141405049Y-110798530D01*
X141411699Y-110793072D01*
X141480000Y-110793072D01*
X141480000Y-111310289D01*
X141436063Y-111354226D01*
X141322795Y-111523744D01*
X141244774Y-111712102D01*
X141205000Y-111912061D01*
X141205000Y-112115939D01*
X141244774Y-112315898D01*
X141322795Y-112504256D01*
X141436063Y-112673774D01*
X141580226Y-112817937D01*
X141749744Y-112931205D01*
X141938102Y-113009226D01*
X142138061Y-113049000D01*
X142341939Y-113049000D01*
X142459002Y-113025715D01*
X142459002Y-114197456D01*
X141454021Y-115202438D01*
X140512829Y-115202438D01*
X140450270Y-115141761D01*
X140345218Y-115073864D01*
X140228938Y-115027766D01*
X140105899Y-115005240D01*
X139980830Y-115007149D01*
X136480710Y-115405929D01*
X136308760Y-115450398D01*
X136198446Y-115509363D01*
X136101755Y-115588715D01*
X136022403Y-115685406D01*
X135963438Y-115795720D01*
X135927128Y-115915418D01*
X135914868Y-116039900D01*
X135914868Y-117640100D01*
X135939586Y-117815978D01*
X135985684Y-117932258D01*
X136053581Y-118037310D01*
X136140668Y-118127098D01*
X136243598Y-118198171D01*
X136358416Y-118247798D01*
X136480710Y-118274071D01*
X139980830Y-118672851D01*
X140053060Y-118676952D01*
X140177542Y-118664692D01*
X140210001Y-118654846D01*
X140210001Y-122655820D01*
X140159417Y-122561186D01*
X140080065Y-122464495D01*
X140067562Y-122454234D01*
X140067562Y-121077990D01*
X140055302Y-120953508D01*
X140018992Y-120833810D01*
X139960027Y-120723496D01*
X139880675Y-120626805D01*
X139783984Y-120547453D01*
X139673670Y-120488488D01*
X139553972Y-120452178D01*
X139429490Y-120439918D01*
X138151720Y-120439918D01*
X135734518Y-118022716D01*
X135757597Y-117994594D01*
X135816562Y-117884280D01*
X135852872Y-117764582D01*
X135865132Y-117640100D01*
X135865132Y-116039900D01*
X135840414Y-115864022D01*
X135794316Y-115747742D01*
X135726419Y-115642690D01*
X135639332Y-115552902D01*
X135536402Y-115481829D01*
X135421584Y-115432202D01*
X135299290Y-115405929D01*
X131799170Y-115007149D01*
X131726940Y-115003048D01*
X131602458Y-115015308D01*
X131482760Y-115051618D01*
X131372446Y-115110583D01*
X131275755Y-115189935D01*
X131265494Y-115202438D01*
X129889250Y-115202438D01*
X129764768Y-115214698D01*
X129645070Y-115251008D01*
X129534756Y-115309973D01*
X129438065Y-115389325D01*
X129358713Y-115486016D01*
X129299748Y-115596330D01*
X129263438Y-115716028D01*
X129251178Y-115840510D01*
X129251178Y-116080000D01*
X128330802Y-116080000D01*
X127494000Y-115243199D01*
X127494000Y-107491325D01*
X127497676Y-107454000D01*
X127494000Y-107416675D01*
X127494000Y-107416667D01*
X127483003Y-107305014D01*
X127439546Y-107161753D01*
X127430001Y-107143896D01*
X127430001Y-105582334D01*
X127433678Y-105545001D01*
X127429738Y-105504999D01*
X127419004Y-105396015D01*
X127375547Y-105252754D01*
X127304999Y-105120770D01*
X127304999Y-103534625D01*
X127394482Y-103525812D01*
X127470000Y-103502904D01*
X127545518Y-103525812D01*
G36*
X134345820Y-106129502D02*
G01*
X134465518Y-106165812D01*
X134590000Y-106178072D01*
X135055002Y-106178072D01*
X135055002Y-107026198D01*
X134256201Y-107825000D01*
X134224056Y-107825000D01*
X134236072Y-107703000D01*
X134233000Y-107588750D01*
X134074250Y-107430000D01*
X133350000Y-107430000D01*
X133350000Y-107450000D01*
X133096000Y-107450000D01*
X133096000Y-107430000D01*
X132371750Y-107430000D01*
X132290500Y-107511250D01*
X132221250Y-107442000D01*
X131097000Y-107442000D01*
X131097000Y-107462000D01*
X130843000Y-107462000D01*
X130843000Y-107442000D01*
X130823000Y-107442000D01*
X130823000Y-107188000D01*
X130843000Y-107188000D01*
X130843000Y-107168000D01*
X131097000Y-107168000D01*
X131097000Y-107188000D01*
X132221250Y-107188000D01*
X132302500Y-107106750D01*
X132371750Y-107176000D01*
X133096000Y-107176000D01*
X133096000Y-107156000D01*
X133350000Y-107156000D01*
X133350000Y-107176000D01*
X134074250Y-107176000D01*
X134233000Y-107017250D01*
X134236072Y-106903000D01*
X134223812Y-106778518D01*
X134187502Y-106658820D01*
X134130939Y-106553000D01*
X134187502Y-106447180D01*
X134223812Y-106327482D01*
X134236072Y-106203000D01*
X134236072Y-106070840D01*
X134345820Y-106129502D01*
G37*
X134345820Y-106129502D02*
X134465518Y-106165812D01*
X134590000Y-106178072D01*
X135055002Y-106178072D01*
X135055002Y-107026198D01*
X134256201Y-107825000D01*
X134224056Y-107825000D01*
X134236072Y-107703000D01*
X134233000Y-107588750D01*
X134074250Y-107430000D01*
X133350000Y-107430000D01*
X133350000Y-107450000D01*
X133096000Y-107450000D01*
X133096000Y-107430000D01*
X132371750Y-107430000D01*
X132290500Y-107511250D01*
X132221250Y-107442000D01*
X131097000Y-107442000D01*
X131097000Y-107462000D01*
X130843000Y-107462000D01*
X130843000Y-107442000D01*
X130823000Y-107442000D01*
X130823000Y-107188000D01*
X130843000Y-107188000D01*
X130843000Y-107168000D01*
X131097000Y-107168000D01*
X131097000Y-107188000D01*
X132221250Y-107188000D01*
X132302500Y-107106750D01*
X132371750Y-107176000D01*
X133096000Y-107176000D01*
X133096000Y-107156000D01*
X133350000Y-107156000D01*
X133350000Y-107176000D01*
X134074250Y-107176000D01*
X134233000Y-107017250D01*
X134236072Y-106903000D01*
X134223812Y-106778518D01*
X134187502Y-106658820D01*
X134130939Y-106553000D01*
X134187502Y-106447180D01*
X134223812Y-106327482D01*
X134236072Y-106203000D01*
X134236072Y-106070840D01*
X134345820Y-106129502D01*
G36*
X148149002Y-107347000D02*
G01*
X148082000Y-107347000D01*
X148082000Y-107327000D01*
X147357750Y-107327000D01*
X147242750Y-107442000D01*
X146337000Y-107442000D01*
X146337000Y-107462000D01*
X146083000Y-107462000D01*
X146083000Y-107442000D01*
X146063000Y-107442000D01*
X146063000Y-107188000D01*
X146083000Y-107188000D01*
X146083000Y-107168000D01*
X146337000Y-107168000D01*
X146337000Y-107188000D01*
X147461250Y-107188000D01*
X147576250Y-107073000D01*
X148082000Y-107073000D01*
X148082000Y-107053000D01*
X148149002Y-107053000D01*
X148149002Y-107347000D01*
G37*
X148149002Y-107347000D02*
X148082000Y-107347000D01*
X148082000Y-107327000D01*
X147357750Y-107327000D01*
X147242750Y-107442000D01*
X146337000Y-107442000D01*
X146337000Y-107462000D01*
X146083000Y-107462000D01*
X146083000Y-107442000D01*
X146063000Y-107442000D01*
X146063000Y-107188000D01*
X146083000Y-107188000D01*
X146083000Y-107168000D01*
X146337000Y-107168000D01*
X146337000Y-107188000D01*
X147461250Y-107188000D01*
X147576250Y-107073000D01*
X148082000Y-107073000D01*
X148082000Y-107053000D01*
X148149002Y-107053000D01*
X148149002Y-107347000D01*
G36*
X143915000Y-101389721D02*
G01*
X143915000Y-101810279D01*
X143997047Y-102222756D01*
X144157988Y-102611302D01*
X144391637Y-102960983D01*
X144689017Y-103258363D01*
X145038698Y-103492012D01*
X145290000Y-103596105D01*
X145290001Y-105125412D01*
X145190820Y-105155498D01*
X145080506Y-105214463D01*
X144983815Y-105293815D01*
X144904463Y-105390506D01*
X144845498Y-105500820D01*
X144809188Y-105620518D01*
X144796928Y-105745000D01*
X144796928Y-106345000D01*
X144809188Y-106469482D01*
X144845498Y-106589180D01*
X144894043Y-106680000D01*
X144845498Y-106770820D01*
X144809188Y-106890518D01*
X144796928Y-107015000D01*
X144800000Y-107029250D01*
X144958748Y-107187998D01*
X144862800Y-107187998D01*
X142503804Y-104829003D01*
X142480001Y-104799999D01*
X142364276Y-104705026D01*
X142232247Y-104634454D01*
X142088986Y-104590997D01*
X141977333Y-104580000D01*
X141977322Y-104580000D01*
X141940000Y-104576324D01*
X141902678Y-104580000D01*
X139658703Y-104580000D01*
X139682653Y-104459592D01*
X139682653Y-104255714D01*
X139642879Y-104055755D01*
X139564858Y-103867397D01*
X139451590Y-103697879D01*
X139404256Y-103650545D01*
X140167000Y-102887802D01*
X140443000Y-103163802D01*
X140443000Y-103225939D01*
X140482774Y-103425898D01*
X140560795Y-103614256D01*
X140674063Y-103783774D01*
X140818226Y-103927937D01*
X140987744Y-104041205D01*
X141176102Y-104119226D01*
X141376061Y-104159000D01*
X141579939Y-104159000D01*
X141779898Y-104119226D01*
X141968256Y-104041205D01*
X142137774Y-103927937D01*
X142281937Y-103783774D01*
X142395205Y-103614256D01*
X142473226Y-103425898D01*
X142513000Y-103225939D01*
X142513000Y-103022061D01*
X142473226Y-102822102D01*
X142395205Y-102633744D01*
X142281937Y-102464226D01*
X142137774Y-102320063D01*
X141968256Y-102206795D01*
X141779898Y-102128774D01*
X141579939Y-102089000D01*
X141517802Y-102089000D01*
X141096446Y-101667644D01*
X141098676Y-101645000D01*
X141095000Y-101607677D01*
X141095000Y-101217000D01*
X143949356Y-101217000D01*
X143915000Y-101389721D01*
G37*
X143915000Y-101389721D02*
X143915000Y-101810279D01*
X143997047Y-102222756D01*
X144157988Y-102611302D01*
X144391637Y-102960983D01*
X144689017Y-103258363D01*
X145038698Y-103492012D01*
X145290000Y-103596105D01*
X145290001Y-105125412D01*
X145190820Y-105155498D01*
X145080506Y-105214463D01*
X144983815Y-105293815D01*
X144904463Y-105390506D01*
X144845498Y-105500820D01*
X144809188Y-105620518D01*
X144796928Y-105745000D01*
X144796928Y-106345000D01*
X144809188Y-106469482D01*
X144845498Y-106589180D01*
X144894043Y-106680000D01*
X144845498Y-106770820D01*
X144809188Y-106890518D01*
X144796928Y-107015000D01*
X144800000Y-107029250D01*
X144958748Y-107187998D01*
X144862800Y-107187998D01*
X142503804Y-104829003D01*
X142480001Y-104799999D01*
X142364276Y-104705026D01*
X142232247Y-104634454D01*
X142088986Y-104590997D01*
X141977333Y-104580000D01*
X141977322Y-104580000D01*
X141940000Y-104576324D01*
X141902678Y-104580000D01*
X139658703Y-104580000D01*
X139682653Y-104459592D01*
X139682653Y-104255714D01*
X139642879Y-104055755D01*
X139564858Y-103867397D01*
X139451590Y-103697879D01*
X139404256Y-103650545D01*
X140167000Y-102887802D01*
X140443000Y-103163802D01*
X140443000Y-103225939D01*
X140482774Y-103425898D01*
X140560795Y-103614256D01*
X140674063Y-103783774D01*
X140818226Y-103927937D01*
X140987744Y-104041205D01*
X141176102Y-104119226D01*
X141376061Y-104159000D01*
X141579939Y-104159000D01*
X141779898Y-104119226D01*
X141968256Y-104041205D01*
X142137774Y-103927937D01*
X142281937Y-103783774D01*
X142395205Y-103614256D01*
X142473226Y-103425898D01*
X142513000Y-103225939D01*
X142513000Y-103022061D01*
X142473226Y-102822102D01*
X142395205Y-102633744D01*
X142281937Y-102464226D01*
X142137774Y-102320063D01*
X141968256Y-102206795D01*
X141779898Y-102128774D01*
X141579939Y-102089000D01*
X141517802Y-102089000D01*
X141096446Y-101667644D01*
X141098676Y-101645000D01*
X141095000Y-101607677D01*
X141095000Y-101217000D01*
X143949356Y-101217000D01*
X143915000Y-101389721D01*
G36*
X147565010Y-105483062D02*
G01*
X147515537Y-105390506D01*
X147436185Y-105293815D01*
X147339494Y-105214463D01*
X147229180Y-105155498D01*
X147109482Y-105119188D01*
X146985000Y-105106928D01*
X146810000Y-105106928D01*
X146810000Y-103596105D01*
X147061302Y-103492012D01*
X147410983Y-103258363D01*
X147565010Y-103104336D01*
X147565010Y-105483062D01*
G37*
X147565010Y-105483062D02*
X147515537Y-105390506D01*
X147436185Y-105293815D01*
X147339494Y-105214463D01*
X147229180Y-105155498D01*
X147109482Y-105119188D01*
X146985000Y-105106928D01*
X146810000Y-105106928D01*
X146810000Y-103596105D01*
X147061302Y-103492012D01*
X147410983Y-103258363D01*
X147565010Y-103104336D01*
X147565010Y-105483062D01*
G36*
X147565011Y-100095665D02*
G01*
X147410983Y-99941637D01*
X147061302Y-99707988D01*
X146672756Y-99547047D01*
X146260279Y-99465000D01*
X146245804Y-99465000D01*
X147340004Y-98370800D01*
X147369002Y-98347002D01*
X147463975Y-98231277D01*
X147499401Y-98165000D01*
X147534547Y-98099248D01*
X147565011Y-97998820D01*
X147565011Y-100095665D01*
G37*
X147565011Y-100095665D02*
X147410983Y-99941637D01*
X147061302Y-99707988D01*
X146672756Y-99547047D01*
X146260279Y-99465000D01*
X146245804Y-99465000D01*
X147340004Y-98370800D01*
X147369002Y-98347002D01*
X147463975Y-98231277D01*
X147499401Y-98165000D01*
X147534547Y-98099248D01*
X147565011Y-97998820D01*
X147565011Y-100095665D01*
G36*
X146052000Y-96326802D02*
G01*
X146052001Y-97509199D01*
X143864201Y-99697000D01*
X141095000Y-99697000D01*
X141095000Y-99182325D01*
X141098676Y-99145000D01*
X141095000Y-99107675D01*
X141095000Y-99107667D01*
X141084003Y-98996014D01*
X141040546Y-98852753D01*
X140969974Y-98720724D01*
X140875001Y-98604999D01*
X140846002Y-98581201D01*
X140309026Y-98044224D01*
X140347000Y-98006250D01*
X140347000Y-97282000D01*
X138717000Y-97282000D01*
X138717000Y-97302000D01*
X138463000Y-97302000D01*
X138463000Y-97282000D01*
X138443000Y-97282000D01*
X138443000Y-97028000D01*
X138463000Y-97028000D01*
X138463000Y-97008000D01*
X138717000Y-97008000D01*
X138717000Y-97028000D01*
X140347000Y-97028000D01*
X140347000Y-96303750D01*
X140601000Y-96303750D01*
X140601000Y-97028000D01*
X140621000Y-97028000D01*
X140621000Y-97282000D01*
X140601000Y-97282000D01*
X140601000Y-98006250D01*
X140759750Y-98165000D01*
X140874000Y-98168072D01*
X140998482Y-98155812D01*
X141118180Y-98119502D01*
X141224000Y-98062939D01*
X141329820Y-98119502D01*
X141449518Y-98155812D01*
X141574000Y-98168072D01*
X142374000Y-98168072D01*
X142498482Y-98155812D01*
X142618180Y-98119502D01*
X142728494Y-98060537D01*
X142753518Y-98040000D01*
X143038431Y-98040000D01*
X143154061Y-98063000D01*
X143357939Y-98063000D01*
X143557898Y-98023226D01*
X143746256Y-97945205D01*
X143915774Y-97831937D01*
X144059937Y-97687774D01*
X144173205Y-97518256D01*
X144251226Y-97329898D01*
X144291000Y-97129939D01*
X144291000Y-96926061D01*
X144251226Y-96726102D01*
X144173205Y-96537744D01*
X144059937Y-96368226D01*
X143915774Y-96224063D01*
X143746256Y-96110795D01*
X143557898Y-96032774D01*
X143357939Y-95993000D01*
X143154061Y-95993000D01*
X142954102Y-96032774D01*
X142765744Y-96110795D01*
X142633891Y-96198896D01*
X142618180Y-96190498D01*
X142498482Y-96154188D01*
X142374000Y-96141928D01*
X141574000Y-96141928D01*
X141449518Y-96154188D01*
X141329820Y-96190498D01*
X141224000Y-96247061D01*
X141118180Y-96190498D01*
X140998482Y-96154188D01*
X140874000Y-96141928D01*
X140759750Y-96145000D01*
X140601000Y-96303750D01*
X140347000Y-96303750D01*
X140188250Y-96145000D01*
X140074000Y-96141928D01*
X140003072Y-96148914D01*
X140003072Y-95585000D01*
X139996682Y-95520119D01*
X140349941Y-95166860D01*
X140601244Y-95270953D01*
X141013721Y-95353000D01*
X141434279Y-95353000D01*
X141846756Y-95270953D01*
X142235302Y-95110012D01*
X142584983Y-94876363D01*
X142882363Y-94578983D01*
X143116012Y-94229302D01*
X143276953Y-93840756D01*
X143324902Y-93599703D01*
X146052000Y-96326802D01*
G37*
X146052000Y-96326802D02*
X146052001Y-97509199D01*
X143864201Y-99697000D01*
X141095000Y-99697000D01*
X141095000Y-99182325D01*
X141098676Y-99145000D01*
X141095000Y-99107675D01*
X141095000Y-99107667D01*
X141084003Y-98996014D01*
X141040546Y-98852753D01*
X140969974Y-98720724D01*
X140875001Y-98604999D01*
X140846002Y-98581201D01*
X140309026Y-98044224D01*
X140347000Y-98006250D01*
X140347000Y-97282000D01*
X138717000Y-97282000D01*
X138717000Y-97302000D01*
X138463000Y-97302000D01*
X138463000Y-97282000D01*
X138443000Y-97282000D01*
X138443000Y-97028000D01*
X138463000Y-97028000D01*
X138463000Y-97008000D01*
X138717000Y-97008000D01*
X138717000Y-97028000D01*
X140347000Y-97028000D01*
X140347000Y-96303750D01*
X140601000Y-96303750D01*
X140601000Y-97028000D01*
X140621000Y-97028000D01*
X140621000Y-97282000D01*
X140601000Y-97282000D01*
X140601000Y-98006250D01*
X140759750Y-98165000D01*
X140874000Y-98168072D01*
X140998482Y-98155812D01*
X141118180Y-98119502D01*
X141224000Y-98062939D01*
X141329820Y-98119502D01*
X141449518Y-98155812D01*
X141574000Y-98168072D01*
X142374000Y-98168072D01*
X142498482Y-98155812D01*
X142618180Y-98119502D01*
X142728494Y-98060537D01*
X142753518Y-98040000D01*
X143038431Y-98040000D01*
X143154061Y-98063000D01*
X143357939Y-98063000D01*
X143557898Y-98023226D01*
X143746256Y-97945205D01*
X143915774Y-97831937D01*
X144059937Y-97687774D01*
X144173205Y-97518256D01*
X144251226Y-97329898D01*
X144291000Y-97129939D01*
X144291000Y-96926061D01*
X144251226Y-96726102D01*
X144173205Y-96537744D01*
X144059937Y-96368226D01*
X143915774Y-96224063D01*
X143746256Y-96110795D01*
X143557898Y-96032774D01*
X143357939Y-95993000D01*
X143154061Y-95993000D01*
X142954102Y-96032774D01*
X142765744Y-96110795D01*
X142633891Y-96198896D01*
X142618180Y-96190498D01*
X142498482Y-96154188D01*
X142374000Y-96141928D01*
X141574000Y-96141928D01*
X141449518Y-96154188D01*
X141329820Y-96190498D01*
X141224000Y-96247061D01*
X141118180Y-96190498D01*
X140998482Y-96154188D01*
X140874000Y-96141928D01*
X140759750Y-96145000D01*
X140601000Y-96303750D01*
X140347000Y-96303750D01*
X140188250Y-96145000D01*
X140074000Y-96141928D01*
X140003072Y-96148914D01*
X140003072Y-95585000D01*
X139996682Y-95520119D01*
X140349941Y-95166860D01*
X140601244Y-95270953D01*
X141013721Y-95353000D01*
X141434279Y-95353000D01*
X141846756Y-95270953D01*
X142235302Y-95110012D01*
X142584983Y-94876363D01*
X142882363Y-94578983D01*
X143116012Y-94229302D01*
X143276953Y-93840756D01*
X143324902Y-93599703D01*
X146052000Y-96326802D01*
%TD*%
M02*
