%TF.GenerationSoftware,KiCad,Pcbnew,(5.1.6)-1*%
%TF.CreationDate,2020-07-04T17:27:32+02:00*%
%TF.ProjectId,MP0002 Instrumentation Amplifier,4d503030-3032-4204-996e-737472756d65,1.0*%
%TF.SameCoordinates,Original*%
%TF.FileFunction,Legend,Bot*%
%TF.FilePolarity,Positive*%
%FSLAX46Y46*%
G04 Gerber Fmt 4.6, Leading zero omitted, Abs format (unit mm)*
G04 Created by KiCad (PCBNEW (5.1.6)-1) date 2020-07-04 17:27:32*
%MOMM*%
%LPD*%
G01*
G04 APERTURE LIST*
%ADD10C,0.150000*%
%ADD11C,0.250000*%
%ADD12C,0.120000*%
G04 APERTURE END LIST*
D10*
X148288333Y-151852380D02*
X148288333Y-152566666D01*
X148335952Y-152709523D01*
X148431190Y-152804761D01*
X148574047Y-152852380D01*
X148669285Y-152852380D01*
X147383571Y-152185714D02*
X147383571Y-152852380D01*
X147621666Y-151804761D02*
X147859761Y-152519047D01*
X147240714Y-152519047D01*
X119713333Y-139152380D02*
X119713333Y-139866666D01*
X119760952Y-140009523D01*
X119856190Y-140104761D01*
X119999047Y-140152380D01*
X120094285Y-140152380D01*
X119094285Y-139580952D02*
X119189523Y-139533333D01*
X119237142Y-139485714D01*
X119284761Y-139390476D01*
X119284761Y-139342857D01*
X119237142Y-139247619D01*
X119189523Y-139200000D01*
X119094285Y-139152380D01*
X118903809Y-139152380D01*
X118808571Y-139200000D01*
X118760952Y-139247619D01*
X118713333Y-139342857D01*
X118713333Y-139390476D01*
X118760952Y-139485714D01*
X118808571Y-139533333D01*
X118903809Y-139580952D01*
X119094285Y-139580952D01*
X119189523Y-139628571D01*
X119237142Y-139676190D01*
X119284761Y-139771428D01*
X119284761Y-139961904D01*
X119237142Y-140057142D01*
X119189523Y-140104761D01*
X119094285Y-140152380D01*
X118903809Y-140152380D01*
X118808571Y-140104761D01*
X118760952Y-140057142D01*
X118713333Y-139961904D01*
X118713333Y-139771428D01*
X118760952Y-139676190D01*
X118808571Y-139628571D01*
X118903809Y-139580952D01*
X152733333Y-139152380D02*
X152733333Y-139866666D01*
X152780952Y-140009523D01*
X152876190Y-140104761D01*
X153019047Y-140152380D01*
X153114285Y-140152380D01*
X152352380Y-139152380D02*
X151685714Y-139152380D01*
X152114285Y-140152380D01*
X150603928Y-144232380D02*
X150413452Y-144232380D01*
X150318214Y-144280000D01*
X150222976Y-144375238D01*
X150175357Y-144565714D01*
X150175357Y-144899047D01*
X150222976Y-145089523D01*
X150318214Y-145184761D01*
X150413452Y-145232380D01*
X150603928Y-145232380D01*
X150699166Y-145184761D01*
X150794404Y-145089523D01*
X150842023Y-144899047D01*
X150842023Y-144565714D01*
X150794404Y-144375238D01*
X150699166Y-144280000D01*
X150603928Y-144232380D01*
X149318214Y-144565714D02*
X149318214Y-145232380D01*
X149746785Y-144565714D02*
X149746785Y-145089523D01*
X149699166Y-145184761D01*
X149603928Y-145232380D01*
X149461071Y-145232380D01*
X149365833Y-145184761D01*
X149318214Y-145137142D01*
X148984880Y-144565714D02*
X148603928Y-144565714D01*
X148842023Y-144232380D02*
X148842023Y-145089523D01*
X148794404Y-145184761D01*
X148699166Y-145232380D01*
X148603928Y-145232380D01*
X150794404Y-142692380D02*
X150794404Y-141692380D01*
X150318214Y-142025714D02*
X150318214Y-142692380D01*
X150318214Y-142120952D02*
X150270595Y-142073333D01*
X150175357Y-142025714D01*
X150032500Y-142025714D01*
X149937261Y-142073333D01*
X149889642Y-142168571D01*
X149889642Y-142692380D01*
X119832380Y-114991428D02*
X118832380Y-114991428D01*
X119546666Y-115324761D01*
X118832380Y-115658095D01*
X119832380Y-115658095D01*
X119832380Y-116134285D02*
X118832380Y-116134285D01*
X118832380Y-116515238D01*
X118880000Y-116610476D01*
X118927619Y-116658095D01*
X119022857Y-116705714D01*
X119165714Y-116705714D01*
X119260952Y-116658095D01*
X119308571Y-116610476D01*
X119356190Y-116515238D01*
X119356190Y-116134285D01*
X118832380Y-117324761D02*
X118832380Y-117420000D01*
X118880000Y-117515238D01*
X118927619Y-117562857D01*
X119022857Y-117610476D01*
X119213333Y-117658095D01*
X119451428Y-117658095D01*
X119641904Y-117610476D01*
X119737142Y-117562857D01*
X119784761Y-117515238D01*
X119832380Y-117420000D01*
X119832380Y-117324761D01*
X119784761Y-117229523D01*
X119737142Y-117181904D01*
X119641904Y-117134285D01*
X119451428Y-117086666D01*
X119213333Y-117086666D01*
X119022857Y-117134285D01*
X118927619Y-117181904D01*
X118880000Y-117229523D01*
X118832380Y-117324761D01*
X118832380Y-118277142D02*
X118832380Y-118372380D01*
X118880000Y-118467619D01*
X118927619Y-118515238D01*
X119022857Y-118562857D01*
X119213333Y-118610476D01*
X119451428Y-118610476D01*
X119641904Y-118562857D01*
X119737142Y-118515238D01*
X119784761Y-118467619D01*
X119832380Y-118372380D01*
X119832380Y-118277142D01*
X119784761Y-118181904D01*
X119737142Y-118134285D01*
X119641904Y-118086666D01*
X119451428Y-118039047D01*
X119213333Y-118039047D01*
X119022857Y-118086666D01*
X118927619Y-118134285D01*
X118880000Y-118181904D01*
X118832380Y-118277142D01*
X118832380Y-119229523D02*
X118832380Y-119324761D01*
X118880000Y-119420000D01*
X118927619Y-119467619D01*
X119022857Y-119515238D01*
X119213333Y-119562857D01*
X119451428Y-119562857D01*
X119641904Y-119515238D01*
X119737142Y-119467619D01*
X119784761Y-119420000D01*
X119832380Y-119324761D01*
X119832380Y-119229523D01*
X119784761Y-119134285D01*
X119737142Y-119086666D01*
X119641904Y-119039047D01*
X119451428Y-118991428D01*
X119213333Y-118991428D01*
X119022857Y-119039047D01*
X118927619Y-119086666D01*
X118880000Y-119134285D01*
X118832380Y-119229523D01*
X118927619Y-119943809D02*
X118880000Y-119991428D01*
X118832380Y-120086666D01*
X118832380Y-120324761D01*
X118880000Y-120420000D01*
X118927619Y-120467619D01*
X119022857Y-120515238D01*
X119118095Y-120515238D01*
X119260952Y-120467619D01*
X119832380Y-119896190D01*
X119832380Y-120515238D01*
X118927619Y-121658095D02*
X118880000Y-121705714D01*
X118832380Y-121800952D01*
X118832380Y-122039047D01*
X118880000Y-122134285D01*
X118927619Y-122181904D01*
X119022857Y-122229523D01*
X119118095Y-122229523D01*
X119260952Y-122181904D01*
X119832380Y-121610476D01*
X119832380Y-122229523D01*
X118832380Y-122848571D02*
X118832380Y-122943809D01*
X118880000Y-123039047D01*
X118927619Y-123086666D01*
X119022857Y-123134285D01*
X119213333Y-123181904D01*
X119451428Y-123181904D01*
X119641904Y-123134285D01*
X119737142Y-123086666D01*
X119784761Y-123039047D01*
X119832380Y-122943809D01*
X119832380Y-122848571D01*
X119784761Y-122753333D01*
X119737142Y-122705714D01*
X119641904Y-122658095D01*
X119451428Y-122610476D01*
X119213333Y-122610476D01*
X119022857Y-122658095D01*
X118927619Y-122705714D01*
X118880000Y-122753333D01*
X118832380Y-122848571D01*
X118927619Y-123562857D02*
X118880000Y-123610476D01*
X118832380Y-123705714D01*
X118832380Y-123943809D01*
X118880000Y-124039047D01*
X118927619Y-124086666D01*
X119022857Y-124134285D01*
X119118095Y-124134285D01*
X119260952Y-124086666D01*
X119832380Y-123515238D01*
X119832380Y-124134285D01*
X118832380Y-124753333D02*
X118832380Y-124848571D01*
X118880000Y-124943809D01*
X118927619Y-124991428D01*
X119022857Y-125039047D01*
X119213333Y-125086666D01*
X119451428Y-125086666D01*
X119641904Y-125039047D01*
X119737142Y-124991428D01*
X119784761Y-124943809D01*
X119832380Y-124848571D01*
X119832380Y-124753333D01*
X119784761Y-124658095D01*
X119737142Y-124610476D01*
X119641904Y-124562857D01*
X119451428Y-124515238D01*
X119213333Y-124515238D01*
X119022857Y-124562857D01*
X118927619Y-124610476D01*
X118880000Y-124658095D01*
X118832380Y-124753333D01*
X118832380Y-125705714D02*
X118832380Y-125800952D01*
X118880000Y-125896190D01*
X118927619Y-125943809D01*
X119022857Y-125991428D01*
X119213333Y-126039047D01*
X119451428Y-126039047D01*
X119641904Y-125991428D01*
X119737142Y-125943809D01*
X119784761Y-125896190D01*
X119832380Y-125800952D01*
X119832380Y-125705714D01*
X119784761Y-125610476D01*
X119737142Y-125562857D01*
X119641904Y-125515238D01*
X119451428Y-125467619D01*
X119213333Y-125467619D01*
X119022857Y-125515238D01*
X118927619Y-125562857D01*
X118880000Y-125610476D01*
X118832380Y-125705714D01*
X118832380Y-126372380D02*
X118832380Y-127039047D01*
X119832380Y-126610476D01*
X118832380Y-127610476D02*
X118832380Y-127705714D01*
X118880000Y-127800952D01*
X118927619Y-127848571D01*
X119022857Y-127896190D01*
X119213333Y-127943809D01*
X119451428Y-127943809D01*
X119641904Y-127896190D01*
X119737142Y-127848571D01*
X119784761Y-127800952D01*
X119832380Y-127705714D01*
X119832380Y-127610476D01*
X119784761Y-127515238D01*
X119737142Y-127467619D01*
X119641904Y-127420000D01*
X119451428Y-127372380D01*
X119213333Y-127372380D01*
X119022857Y-127420000D01*
X118927619Y-127467619D01*
X118880000Y-127515238D01*
X118832380Y-127610476D01*
X119165714Y-128800952D02*
X119832380Y-128800952D01*
X118784761Y-128562857D02*
X119499047Y-128324761D01*
X119499047Y-128943809D01*
X144961428Y-94781666D02*
X144485238Y-94781666D01*
X145056666Y-95067380D02*
X144723333Y-94067380D01*
X144390000Y-95067380D01*
X144056666Y-95067380D02*
X144056666Y-94400714D01*
X144056666Y-94495952D02*
X144009047Y-94448333D01*
X143913809Y-94400714D01*
X143770952Y-94400714D01*
X143675714Y-94448333D01*
X143628095Y-94543571D01*
X143628095Y-95067380D01*
X143628095Y-94543571D02*
X143580476Y-94448333D01*
X143485238Y-94400714D01*
X143342380Y-94400714D01*
X143247142Y-94448333D01*
X143199523Y-94543571D01*
X143199523Y-95067380D01*
X142723333Y-94400714D02*
X142723333Y-95400714D01*
X142723333Y-94448333D02*
X142628095Y-94400714D01*
X142437619Y-94400714D01*
X142342380Y-94448333D01*
X142294761Y-94495952D01*
X142247142Y-94591190D01*
X142247142Y-94876904D01*
X142294761Y-94972142D01*
X142342380Y-95019761D01*
X142437619Y-95067380D01*
X142628095Y-95067380D01*
X142723333Y-95019761D01*
X141675714Y-95067380D02*
X141770952Y-95019761D01*
X141818571Y-94924523D01*
X141818571Y-94067380D01*
X141294761Y-95067380D02*
X141294761Y-94400714D01*
X141294761Y-94067380D02*
X141342380Y-94115000D01*
X141294761Y-94162619D01*
X141247142Y-94115000D01*
X141294761Y-94067380D01*
X141294761Y-94162619D01*
X140961428Y-94400714D02*
X140580476Y-94400714D01*
X140818571Y-95067380D02*
X140818571Y-94210238D01*
X140770952Y-94115000D01*
X140675714Y-94067380D01*
X140580476Y-94067380D01*
X140247142Y-95067380D02*
X140247142Y-94400714D01*
X140247142Y-94067380D02*
X140294761Y-94115000D01*
X140247142Y-94162619D01*
X140199523Y-94115000D01*
X140247142Y-94067380D01*
X140247142Y-94162619D01*
X139342380Y-95019761D02*
X139437619Y-95067380D01*
X139628095Y-95067380D01*
X139723333Y-95019761D01*
X139770952Y-94972142D01*
X139818571Y-94876904D01*
X139818571Y-94591190D01*
X139770952Y-94495952D01*
X139723333Y-94448333D01*
X139628095Y-94400714D01*
X139437619Y-94400714D01*
X139342380Y-94448333D01*
X138485238Y-95067380D02*
X138485238Y-94543571D01*
X138532857Y-94448333D01*
X138628095Y-94400714D01*
X138818571Y-94400714D01*
X138913809Y-94448333D01*
X138485238Y-95019761D02*
X138580476Y-95067380D01*
X138818571Y-95067380D01*
X138913809Y-95019761D01*
X138961428Y-94924523D01*
X138961428Y-94829285D01*
X138913809Y-94734047D01*
X138818571Y-94686428D01*
X138580476Y-94686428D01*
X138485238Y-94638809D01*
X138151904Y-94400714D02*
X137770952Y-94400714D01*
X138009047Y-94067380D02*
X138009047Y-94924523D01*
X137961428Y-95019761D01*
X137866190Y-95067380D01*
X137770952Y-95067380D01*
X137056666Y-95019761D02*
X137151904Y-95067380D01*
X137342380Y-95067380D01*
X137437619Y-95019761D01*
X137485238Y-94924523D01*
X137485238Y-94543571D01*
X137437619Y-94448333D01*
X137342380Y-94400714D01*
X137151904Y-94400714D01*
X137056666Y-94448333D01*
X137009047Y-94543571D01*
X137009047Y-94638809D01*
X137485238Y-94734047D01*
X136151904Y-94400714D02*
X136151904Y-95067380D01*
X136580476Y-94400714D02*
X136580476Y-94924523D01*
X136532857Y-95019761D01*
X136437619Y-95067380D01*
X136294761Y-95067380D01*
X136199523Y-95019761D01*
X136151904Y-94972142D01*
X135675714Y-95067380D02*
X135675714Y-94400714D01*
X135675714Y-94591190D02*
X135628095Y-94495952D01*
X135580476Y-94448333D01*
X135485238Y-94400714D01*
X135390000Y-94400714D01*
X133866190Y-95067380D02*
X133866190Y-94067380D01*
X133866190Y-95019761D02*
X133961428Y-95067380D01*
X134151904Y-95067380D01*
X134247142Y-95019761D01*
X134294761Y-94972142D01*
X134342380Y-94876904D01*
X134342380Y-94591190D01*
X134294761Y-94495952D01*
X134247142Y-94448333D01*
X134151904Y-94400714D01*
X133961428Y-94400714D01*
X133866190Y-94448333D01*
X133009047Y-95019761D02*
X133104285Y-95067380D01*
X133294761Y-95067380D01*
X133390000Y-95019761D01*
X133437619Y-94924523D01*
X133437619Y-94543571D01*
X133390000Y-94448333D01*
X133294761Y-94400714D01*
X133104285Y-94400714D01*
X133009047Y-94448333D01*
X132961428Y-94543571D01*
X132961428Y-94638809D01*
X133437619Y-94734047D01*
X131770952Y-95067380D02*
X131770952Y-94400714D01*
X131770952Y-94495952D02*
X131723333Y-94448333D01*
X131628095Y-94400714D01*
X131485238Y-94400714D01*
X131390000Y-94448333D01*
X131342380Y-94543571D01*
X131342380Y-95067380D01*
X131342380Y-94543571D02*
X131294761Y-94448333D01*
X131199523Y-94400714D01*
X131056666Y-94400714D01*
X130961428Y-94448333D01*
X130913809Y-94543571D01*
X130913809Y-95067380D01*
X130056666Y-95019761D02*
X130151904Y-95067380D01*
X130342380Y-95067380D01*
X130437619Y-95019761D01*
X130485238Y-94924523D01*
X130485238Y-94543571D01*
X130437619Y-94448333D01*
X130342380Y-94400714D01*
X130151904Y-94400714D01*
X130056666Y-94448333D01*
X130009047Y-94543571D01*
X130009047Y-94638809D01*
X130485238Y-94734047D01*
X129628095Y-95019761D02*
X129532857Y-95067380D01*
X129342380Y-95067380D01*
X129247142Y-95019761D01*
X129199523Y-94924523D01*
X129199523Y-94876904D01*
X129247142Y-94781666D01*
X129342380Y-94734047D01*
X129485238Y-94734047D01*
X129580476Y-94686428D01*
X129628095Y-94591190D01*
X129628095Y-94543571D01*
X129580476Y-94448333D01*
X129485238Y-94400714D01*
X129342380Y-94400714D01*
X129247142Y-94448333D01*
X128342380Y-94400714D02*
X128342380Y-95067380D01*
X128770952Y-94400714D02*
X128770952Y-94924523D01*
X128723333Y-95019761D01*
X128628095Y-95067380D01*
X128485238Y-95067380D01*
X128390000Y-95019761D01*
X128342380Y-94972142D01*
X127866190Y-95067380D02*
X127866190Y-94400714D01*
X127866190Y-94591190D02*
X127818571Y-94495952D01*
X127770952Y-94448333D01*
X127675714Y-94400714D01*
X127580476Y-94400714D01*
X126866190Y-95019761D02*
X126961428Y-95067380D01*
X127151904Y-95067380D01*
X127247142Y-95019761D01*
X127294761Y-94924523D01*
X127294761Y-94543571D01*
X127247142Y-94448333D01*
X127151904Y-94400714D01*
X126961428Y-94400714D01*
X126866190Y-94448333D01*
X126818571Y-94543571D01*
X126818571Y-94638809D01*
X127294761Y-94734047D01*
D11*
X140818571Y-96968571D02*
X140318571Y-98468571D01*
X139818571Y-96968571D01*
X138675714Y-98468571D02*
X138675714Y-97682857D01*
X138747142Y-97540000D01*
X138890000Y-97468571D01*
X139175714Y-97468571D01*
X139318571Y-97540000D01*
X138675714Y-98397142D02*
X138818571Y-98468571D01*
X139175714Y-98468571D01*
X139318571Y-98397142D01*
X139390000Y-98254285D01*
X139390000Y-98111428D01*
X139318571Y-97968571D01*
X139175714Y-97897142D01*
X138818571Y-97897142D01*
X138675714Y-97825714D01*
X137747142Y-98468571D02*
X137890000Y-98397142D01*
X137961428Y-98254285D01*
X137961428Y-96968571D01*
X137390000Y-96968571D02*
X136532857Y-96968571D01*
X136961428Y-98468571D02*
X136961428Y-96968571D01*
X136032857Y-98468571D02*
X136032857Y-97468571D01*
X136032857Y-97754285D02*
X135961428Y-97611428D01*
X135890000Y-97540000D01*
X135747142Y-97468571D01*
X135604285Y-97468571D01*
X134890000Y-98468571D02*
X135032857Y-98397142D01*
X135104285Y-98325714D01*
X135175714Y-98182857D01*
X135175714Y-97754285D01*
X135104285Y-97611428D01*
X135032857Y-97540000D01*
X134890000Y-97468571D01*
X134675714Y-97468571D01*
X134532857Y-97540000D01*
X134461428Y-97611428D01*
X134390000Y-97754285D01*
X134390000Y-98182857D01*
X134461428Y-98325714D01*
X134532857Y-98397142D01*
X134675714Y-98468571D01*
X134890000Y-98468571D01*
X133747142Y-97468571D02*
X133747142Y-98468571D01*
X133747142Y-97611428D02*
X133675714Y-97540000D01*
X133532857Y-97468571D01*
X133318571Y-97468571D01*
X133175714Y-97540000D01*
X133104285Y-97682857D01*
X133104285Y-98468571D01*
X132390000Y-98468571D02*
X132390000Y-97468571D01*
X132390000Y-96968571D02*
X132461428Y-97040000D01*
X132390000Y-97111428D01*
X132318571Y-97040000D01*
X132390000Y-96968571D01*
X132390000Y-97111428D01*
X131818571Y-98468571D02*
X131032857Y-97468571D01*
X131818571Y-97468571D02*
X131032857Y-98468571D01*
D10*
X121665952Y-144851428D02*
X120904047Y-144851428D01*
X121665952Y-142311428D02*
X120904047Y-142311428D01*
X121285000Y-142692380D02*
X121285000Y-141930476D01*
D11*
G36*
X137795000Y-76200000D02*
G01*
X137160000Y-76835000D01*
X137160000Y-75565000D01*
X137795000Y-76200000D01*
G37*
X137795000Y-76200000D02*
X137160000Y-76835000D01*
X137160000Y-75565000D01*
X137795000Y-76200000D01*
X133985000Y-76200000D02*
X137795000Y-76200000D01*
D10*
X144851428Y-147730833D02*
X144851428Y-148492738D01*
X145232380Y-148111785D02*
X144470476Y-148111785D01*
X144232380Y-148826071D02*
X145232380Y-149159404D01*
X144232380Y-149492738D01*
X145184761Y-149778452D02*
X145232380Y-149873690D01*
X145232380Y-150064166D01*
X145184761Y-150159404D01*
X145089523Y-150207023D01*
X145041904Y-150207023D01*
X144946666Y-150159404D01*
X144899047Y-150064166D01*
X144899047Y-149921309D01*
X144851428Y-149826071D01*
X144756190Y-149778452D01*
X144708571Y-149778452D01*
X144613333Y-149826071D01*
X144565714Y-149921309D01*
X144565714Y-150064166D01*
X144613333Y-150159404D01*
X142311428Y-147730833D02*
X142311428Y-148492738D01*
X141692380Y-148826071D02*
X142692380Y-149159404D01*
X141692380Y-149492738D01*
X142644761Y-149778452D02*
X142692380Y-149873690D01*
X142692380Y-150064166D01*
X142644761Y-150159404D01*
X142549523Y-150207023D01*
X142501904Y-150207023D01*
X142406666Y-150159404D01*
X142359047Y-150064166D01*
X142359047Y-149921309D01*
X142311428Y-149826071D01*
X142216190Y-149778452D01*
X142168571Y-149778452D01*
X142073333Y-149826071D01*
X142025714Y-149921309D01*
X142025714Y-150064166D01*
X142073333Y-150159404D01*
X139771428Y-148016547D02*
X139771428Y-148778452D01*
X140152380Y-149254642D02*
X139152380Y-149254642D01*
X139485714Y-149730833D02*
X140152380Y-149730833D01*
X139580952Y-149730833D02*
X139533333Y-149778452D01*
X139485714Y-149873690D01*
X139485714Y-150016547D01*
X139533333Y-150111785D01*
X139628571Y-150159404D01*
X140152380Y-150159404D01*
X137231428Y-148016547D02*
X137231428Y-148778452D01*
X137612380Y-148397500D02*
X136850476Y-148397500D01*
X137612380Y-149254642D02*
X136612380Y-149254642D01*
X136945714Y-149730833D02*
X137612380Y-149730833D01*
X137040952Y-149730833D02*
X136993333Y-149778452D01*
X136945714Y-149873690D01*
X136945714Y-150016547D01*
X136993333Y-150111785D01*
X137088571Y-150159404D01*
X137612380Y-150159404D01*
X135072380Y-148778452D02*
X134596190Y-148445119D01*
X135072380Y-148207023D02*
X134072380Y-148207023D01*
X134072380Y-148587976D01*
X134120000Y-148683214D01*
X134167619Y-148730833D01*
X134262857Y-148778452D01*
X134405714Y-148778452D01*
X134500952Y-148730833D01*
X134548571Y-148683214D01*
X134596190Y-148587976D01*
X134596190Y-148207023D01*
X135024761Y-149587976D02*
X135072380Y-149492738D01*
X135072380Y-149302261D01*
X135024761Y-149207023D01*
X134929523Y-149159404D01*
X134548571Y-149159404D01*
X134453333Y-149207023D01*
X134405714Y-149302261D01*
X134405714Y-149492738D01*
X134453333Y-149587976D01*
X134548571Y-149635595D01*
X134643809Y-149635595D01*
X134739047Y-149159404D01*
X134405714Y-149921309D02*
X134405714Y-150302261D01*
X135072380Y-150064166D02*
X134215238Y-150064166D01*
X134120000Y-150111785D01*
X134072380Y-150207023D01*
X134072380Y-150302261D01*
X131532380Y-148302261D02*
X131532380Y-148492738D01*
X131580000Y-148587976D01*
X131675238Y-148683214D01*
X131865714Y-148730833D01*
X132199047Y-148730833D01*
X132389523Y-148683214D01*
X132484761Y-148587976D01*
X132532380Y-148492738D01*
X132532380Y-148302261D01*
X132484761Y-148207023D01*
X132389523Y-148111785D01*
X132199047Y-148064166D01*
X131865714Y-148064166D01*
X131675238Y-148111785D01*
X131580000Y-148207023D01*
X131532380Y-148302261D01*
X131865714Y-149587976D02*
X132532380Y-149587976D01*
X131865714Y-149159404D02*
X132389523Y-149159404D01*
X132484761Y-149207023D01*
X132532380Y-149302261D01*
X132532380Y-149445119D01*
X132484761Y-149540357D01*
X132437142Y-149587976D01*
X131865714Y-149921309D02*
X131865714Y-150302261D01*
X131532380Y-150064166D02*
X132389523Y-150064166D01*
X132484761Y-150111785D01*
X132532380Y-150207023D01*
X132532380Y-150302261D01*
X129992380Y-149254642D02*
X128992380Y-149254642D01*
X129325714Y-149730833D02*
X129992380Y-149730833D01*
X129420952Y-149730833D02*
X129373333Y-149778452D01*
X129325714Y-149873690D01*
X129325714Y-150016547D01*
X129373333Y-150111785D01*
X129468571Y-150159404D01*
X129992380Y-150159404D01*
X126452380Y-148302261D02*
X126452380Y-148492738D01*
X126500000Y-148587976D01*
X126595238Y-148683214D01*
X126785714Y-148730833D01*
X127119047Y-148730833D01*
X127309523Y-148683214D01*
X127404761Y-148587976D01*
X127452380Y-148492738D01*
X127452380Y-148302261D01*
X127404761Y-148207023D01*
X127309523Y-148111785D01*
X127119047Y-148064166D01*
X126785714Y-148064166D01*
X126595238Y-148111785D01*
X126500000Y-148207023D01*
X126452380Y-148302261D01*
X126785714Y-149587976D02*
X127452380Y-149587976D01*
X126785714Y-149159404D02*
X127309523Y-149159404D01*
X127404761Y-149207023D01*
X127452380Y-149302261D01*
X127452380Y-149445119D01*
X127404761Y-149540357D01*
X127357142Y-149587976D01*
X126785714Y-149921309D02*
X126785714Y-150302261D01*
X126452380Y-150064166D02*
X127309523Y-150064166D01*
X127404761Y-150111785D01*
X127452380Y-150207023D01*
X127452380Y-150302261D01*
D12*
%TO.C,J6*%
X138370000Y-77530000D02*
X139700000Y-77530000D01*
X138370000Y-76200000D02*
X138370000Y-77530000D01*
X138370000Y-74930000D02*
X141030000Y-74930000D01*
X141030000Y-74930000D02*
X141030000Y-74870000D01*
X138370000Y-74930000D02*
X138370000Y-74870000D01*
X138370000Y-74870000D02*
X141030000Y-74870000D01*
%TO.C,J5*%
X130750000Y-77530000D02*
X132080000Y-77530000D01*
X130750000Y-76200000D02*
X130750000Y-77530000D01*
X130750000Y-74930000D02*
X133410000Y-74930000D01*
X133410000Y-74930000D02*
X133410000Y-74870000D01*
X130750000Y-74930000D02*
X130750000Y-74870000D01*
X130750000Y-74870000D02*
X133410000Y-74870000D01*
%TO.C,J3*%
X153730000Y-100270000D02*
X152400000Y-100270000D01*
X153730000Y-101600000D02*
X153730000Y-100270000D01*
X153730000Y-102870000D02*
X151070000Y-102870000D01*
X151070000Y-102870000D02*
X151070000Y-110550000D01*
X153730000Y-102870000D02*
X153730000Y-110550000D01*
X153730000Y-110550000D02*
X151070000Y-110550000D01*
%TO.C,J1*%
X120710000Y-100270000D02*
X119380000Y-100270000D01*
X120710000Y-101600000D02*
X120710000Y-100270000D01*
X120710000Y-102870000D02*
X118050000Y-102870000D01*
X118050000Y-102870000D02*
X118050000Y-110550000D01*
X120710000Y-102870000D02*
X120710000Y-110550000D01*
X120710000Y-110550000D02*
X118050000Y-110550000D01*
%TO.C,J6*%
D10*
X140033333Y-77982380D02*
X140033333Y-78696666D01*
X140080952Y-78839523D01*
X140176190Y-78934761D01*
X140319047Y-78982380D01*
X140414285Y-78982380D01*
X139128571Y-77982380D02*
X139319047Y-77982380D01*
X139414285Y-78030000D01*
X139461904Y-78077619D01*
X139557142Y-78220476D01*
X139604761Y-78410952D01*
X139604761Y-78791904D01*
X139557142Y-78887142D01*
X139509523Y-78934761D01*
X139414285Y-78982380D01*
X139223809Y-78982380D01*
X139128571Y-78934761D01*
X139080952Y-78887142D01*
X139033333Y-78791904D01*
X139033333Y-78553809D01*
X139080952Y-78458571D01*
X139128571Y-78410952D01*
X139223809Y-78363333D01*
X139414285Y-78363333D01*
X139509523Y-78410952D01*
X139557142Y-78458571D01*
X139604761Y-78553809D01*
%TO.C,J5*%
X132413333Y-77982380D02*
X132413333Y-78696666D01*
X132460952Y-78839523D01*
X132556190Y-78934761D01*
X132699047Y-78982380D01*
X132794285Y-78982380D01*
X131460952Y-77982380D02*
X131937142Y-77982380D01*
X131984761Y-78458571D01*
X131937142Y-78410952D01*
X131841904Y-78363333D01*
X131603809Y-78363333D01*
X131508571Y-78410952D01*
X131460952Y-78458571D01*
X131413333Y-78553809D01*
X131413333Y-78791904D01*
X131460952Y-78887142D01*
X131508571Y-78934761D01*
X131603809Y-78982380D01*
X131841904Y-78982380D01*
X131937142Y-78934761D01*
X131984761Y-78887142D01*
%TO.C,J3*%
X152733333Y-98722380D02*
X152733333Y-99436666D01*
X152780952Y-99579523D01*
X152876190Y-99674761D01*
X153019047Y-99722380D01*
X153114285Y-99722380D01*
X152352380Y-98722380D02*
X151733333Y-98722380D01*
X152066666Y-99103333D01*
X151923809Y-99103333D01*
X151828571Y-99150952D01*
X151780952Y-99198571D01*
X151733333Y-99293809D01*
X151733333Y-99531904D01*
X151780952Y-99627142D01*
X151828571Y-99674761D01*
X151923809Y-99722380D01*
X152209523Y-99722380D01*
X152304761Y-99674761D01*
X152352380Y-99627142D01*
%TO.C,J1*%
X119713333Y-98722380D02*
X119713333Y-99436666D01*
X119760952Y-99579523D01*
X119856190Y-99674761D01*
X119999047Y-99722380D01*
X120094285Y-99722380D01*
X118713333Y-99722380D02*
X119284761Y-99722380D01*
X118999047Y-99722380D02*
X118999047Y-98722380D01*
X119094285Y-98865238D01*
X119189523Y-98960476D01*
X119284761Y-99008095D01*
%TD*%
M02*
