%TF.GenerationSoftware,KiCad,Pcbnew,(5.1.6)-1*%
%TF.CreationDate,2020-07-04T17:27:32+02:00*%
%TF.ProjectId,MP0002 Instrumentation Amplifier,4d503030-3032-4204-996e-737472756d65,1.0*%
%TF.SameCoordinates,Original*%
%TF.FileFunction,Legend,Top*%
%TF.FilePolarity,Positive*%
%FSLAX46Y46*%
G04 Gerber Fmt 4.6, Leading zero omitted, Abs format (unit mm)*
G04 Created by KiCad (PCBNEW (5.1.6)-1) date 2020-07-04 17:27:32*
%MOMM*%
%LPD*%
G01*
G04 APERTURE LIST*
%ADD10C,0.250000*%
%ADD11C,0.150000*%
%ADD12C,0.120000*%
%ADD13C,0.062500*%
G04 APERTURE END LIST*
D10*
X152586428Y-116991428D02*
X151086428Y-117491428D01*
X152586428Y-117991428D01*
X151086428Y-119134285D02*
X151872142Y-119134285D01*
X152015000Y-119062857D01*
X152086428Y-118920000D01*
X152086428Y-118634285D01*
X152015000Y-118491428D01*
X151157857Y-119134285D02*
X151086428Y-118991428D01*
X151086428Y-118634285D01*
X151157857Y-118491428D01*
X151300714Y-118420000D01*
X151443571Y-118420000D01*
X151586428Y-118491428D01*
X151657857Y-118634285D01*
X151657857Y-118991428D01*
X151729285Y-119134285D01*
X151086428Y-120062857D02*
X151157857Y-119920000D01*
X151300714Y-119848571D01*
X152586428Y-119848571D01*
X152586428Y-120420000D02*
X152586428Y-121277142D01*
X151086428Y-120848571D02*
X152586428Y-120848571D01*
X151086428Y-121777142D02*
X152086428Y-121777142D01*
X151800714Y-121777142D02*
X151943571Y-121848571D01*
X152015000Y-121920000D01*
X152086428Y-122062857D01*
X152086428Y-122205714D01*
X151086428Y-122920000D02*
X151157857Y-122777142D01*
X151229285Y-122705714D01*
X151372142Y-122634285D01*
X151800714Y-122634285D01*
X151943571Y-122705714D01*
X152015000Y-122777142D01*
X152086428Y-122920000D01*
X152086428Y-123134285D01*
X152015000Y-123277142D01*
X151943571Y-123348571D01*
X151800714Y-123420000D01*
X151372142Y-123420000D01*
X151229285Y-123348571D01*
X151157857Y-123277142D01*
X151086428Y-123134285D01*
X151086428Y-122920000D01*
X152086428Y-124062857D02*
X151086428Y-124062857D01*
X151943571Y-124062857D02*
X152015000Y-124134285D01*
X152086428Y-124277142D01*
X152086428Y-124491428D01*
X152015000Y-124634285D01*
X151872142Y-124705714D01*
X151086428Y-124705714D01*
X151086428Y-125420000D02*
X152086428Y-125420000D01*
X152586428Y-125420000D02*
X152515000Y-125348571D01*
X152443571Y-125420000D01*
X152515000Y-125491428D01*
X152586428Y-125420000D01*
X152443571Y-125420000D01*
X151086428Y-125991428D02*
X152086428Y-126777142D01*
X152086428Y-125991428D02*
X151086428Y-126777142D01*
D11*
X148772619Y-113880476D02*
X149772619Y-113880476D01*
X149439285Y-114356666D02*
X148772619Y-114356666D01*
X149344047Y-114356666D02*
X149391666Y-114404285D01*
X149439285Y-114499523D01*
X149439285Y-114642380D01*
X149391666Y-114737619D01*
X149296428Y-114785238D01*
X148772619Y-114785238D01*
X148820238Y-115213809D02*
X148772619Y-115309047D01*
X148772619Y-115499523D01*
X148820238Y-115594761D01*
X148915476Y-115642380D01*
X148963095Y-115642380D01*
X149058333Y-115594761D01*
X149105952Y-115499523D01*
X149105952Y-115356666D01*
X149153571Y-115261428D01*
X149248809Y-115213809D01*
X149296428Y-115213809D01*
X149391666Y-115261428D01*
X149439285Y-115356666D01*
X149439285Y-115499523D01*
X149391666Y-115594761D01*
X149439285Y-115928095D02*
X149439285Y-116309047D01*
X149772619Y-116070952D02*
X148915476Y-116070952D01*
X148820238Y-116118571D01*
X148772619Y-116213809D01*
X148772619Y-116309047D01*
X148772619Y-116642380D02*
X149439285Y-116642380D01*
X149248809Y-116642380D02*
X149344047Y-116690000D01*
X149391666Y-116737619D01*
X149439285Y-116832857D01*
X149439285Y-116928095D01*
X149439285Y-117690000D02*
X148772619Y-117690000D01*
X149439285Y-117261428D02*
X148915476Y-117261428D01*
X148820238Y-117309047D01*
X148772619Y-117404285D01*
X148772619Y-117547142D01*
X148820238Y-117642380D01*
X148867857Y-117690000D01*
X148772619Y-118166190D02*
X149439285Y-118166190D01*
X149344047Y-118166190D02*
X149391666Y-118213809D01*
X149439285Y-118309047D01*
X149439285Y-118451904D01*
X149391666Y-118547142D01*
X149296428Y-118594761D01*
X148772619Y-118594761D01*
X149296428Y-118594761D02*
X149391666Y-118642380D01*
X149439285Y-118737619D01*
X149439285Y-118880476D01*
X149391666Y-118975714D01*
X149296428Y-119023333D01*
X148772619Y-119023333D01*
X148820238Y-119880476D02*
X148772619Y-119785238D01*
X148772619Y-119594761D01*
X148820238Y-119499523D01*
X148915476Y-119451904D01*
X149296428Y-119451904D01*
X149391666Y-119499523D01*
X149439285Y-119594761D01*
X149439285Y-119785238D01*
X149391666Y-119880476D01*
X149296428Y-119928095D01*
X149201190Y-119928095D01*
X149105952Y-119451904D01*
X149439285Y-120356666D02*
X148772619Y-120356666D01*
X149344047Y-120356666D02*
X149391666Y-120404285D01*
X149439285Y-120499523D01*
X149439285Y-120642380D01*
X149391666Y-120737619D01*
X149296428Y-120785238D01*
X148772619Y-120785238D01*
X149439285Y-121118571D02*
X149439285Y-121499523D01*
X149772619Y-121261428D02*
X148915476Y-121261428D01*
X148820238Y-121309047D01*
X148772619Y-121404285D01*
X148772619Y-121499523D01*
X148772619Y-122261428D02*
X149296428Y-122261428D01*
X149391666Y-122213809D01*
X149439285Y-122118571D01*
X149439285Y-121928095D01*
X149391666Y-121832857D01*
X148820238Y-122261428D02*
X148772619Y-122166190D01*
X148772619Y-121928095D01*
X148820238Y-121832857D01*
X148915476Y-121785238D01*
X149010714Y-121785238D01*
X149105952Y-121832857D01*
X149153571Y-121928095D01*
X149153571Y-122166190D01*
X149201190Y-122261428D01*
X149439285Y-122594761D02*
X149439285Y-122975714D01*
X149772619Y-122737619D02*
X148915476Y-122737619D01*
X148820238Y-122785238D01*
X148772619Y-122880476D01*
X148772619Y-122975714D01*
X148772619Y-123309047D02*
X149439285Y-123309047D01*
X149772619Y-123309047D02*
X149725000Y-123261428D01*
X149677380Y-123309047D01*
X149725000Y-123356666D01*
X149772619Y-123309047D01*
X149677380Y-123309047D01*
X148772619Y-123928095D02*
X148820238Y-123832857D01*
X148867857Y-123785238D01*
X148963095Y-123737619D01*
X149248809Y-123737619D01*
X149344047Y-123785238D01*
X149391666Y-123832857D01*
X149439285Y-123928095D01*
X149439285Y-124070952D01*
X149391666Y-124166190D01*
X149344047Y-124213809D01*
X149248809Y-124261428D01*
X148963095Y-124261428D01*
X148867857Y-124213809D01*
X148820238Y-124166190D01*
X148772619Y-124070952D01*
X148772619Y-123928095D01*
X149439285Y-124690000D02*
X148772619Y-124690000D01*
X149344047Y-124690000D02*
X149391666Y-124737619D01*
X149439285Y-124832857D01*
X149439285Y-124975714D01*
X149391666Y-125070952D01*
X149296428Y-125118571D01*
X148772619Y-125118571D01*
X149058333Y-126309047D02*
X149058333Y-126785238D01*
X148772619Y-126213809D02*
X149772619Y-126547142D01*
X148772619Y-126880476D01*
X148772619Y-127213809D02*
X149439285Y-127213809D01*
X149344047Y-127213809D02*
X149391666Y-127261428D01*
X149439285Y-127356666D01*
X149439285Y-127499523D01*
X149391666Y-127594761D01*
X149296428Y-127642380D01*
X148772619Y-127642380D01*
X149296428Y-127642380D02*
X149391666Y-127690000D01*
X149439285Y-127785238D01*
X149439285Y-127928095D01*
X149391666Y-128023333D01*
X149296428Y-128070952D01*
X148772619Y-128070952D01*
X149439285Y-128547142D02*
X148439285Y-128547142D01*
X149391666Y-128547142D02*
X149439285Y-128642380D01*
X149439285Y-128832857D01*
X149391666Y-128928095D01*
X149344047Y-128975714D01*
X149248809Y-129023333D01*
X148963095Y-129023333D01*
X148867857Y-128975714D01*
X148820238Y-128928095D01*
X148772619Y-128832857D01*
X148772619Y-128642380D01*
X148820238Y-128547142D01*
X148772619Y-129594761D02*
X148820238Y-129499523D01*
X148915476Y-129451904D01*
X149772619Y-129451904D01*
X148772619Y-129975714D02*
X149439285Y-129975714D01*
X149772619Y-129975714D02*
X149725000Y-129928095D01*
X149677380Y-129975714D01*
X149725000Y-130023333D01*
X149772619Y-129975714D01*
X149677380Y-129975714D01*
X149439285Y-130309047D02*
X149439285Y-130690000D01*
X148772619Y-130451904D02*
X149629761Y-130451904D01*
X149725000Y-130499523D01*
X149772619Y-130594761D01*
X149772619Y-130690000D01*
X148772619Y-131023333D02*
X149439285Y-131023333D01*
X149772619Y-131023333D02*
X149725000Y-130975714D01*
X149677380Y-131023333D01*
X149725000Y-131070952D01*
X149772619Y-131023333D01*
X149677380Y-131023333D01*
X148820238Y-131880476D02*
X148772619Y-131785238D01*
X148772619Y-131594761D01*
X148820238Y-131499523D01*
X148915476Y-131451904D01*
X149296428Y-131451904D01*
X149391666Y-131499523D01*
X149439285Y-131594761D01*
X149439285Y-131785238D01*
X149391666Y-131880476D01*
X149296428Y-131928095D01*
X149201190Y-131928095D01*
X149105952Y-131451904D01*
X148772619Y-132356666D02*
X149439285Y-132356666D01*
X149248809Y-132356666D02*
X149344047Y-132404285D01*
X149391666Y-132451904D01*
X149439285Y-132547142D01*
X149439285Y-132642380D01*
X146232619Y-118546904D02*
X147232619Y-118546904D01*
X146518333Y-118880238D01*
X147232619Y-119213571D01*
X146232619Y-119213571D01*
X146232619Y-119689761D02*
X147232619Y-119689761D01*
X147232619Y-120070714D01*
X147185000Y-120165952D01*
X147137380Y-120213571D01*
X147042142Y-120261190D01*
X146899285Y-120261190D01*
X146804047Y-120213571D01*
X146756428Y-120165952D01*
X146708809Y-120070714D01*
X146708809Y-119689761D01*
X147232619Y-120880238D02*
X147232619Y-120975476D01*
X147185000Y-121070714D01*
X147137380Y-121118333D01*
X147042142Y-121165952D01*
X146851666Y-121213571D01*
X146613571Y-121213571D01*
X146423095Y-121165952D01*
X146327857Y-121118333D01*
X146280238Y-121070714D01*
X146232619Y-120975476D01*
X146232619Y-120880238D01*
X146280238Y-120785000D01*
X146327857Y-120737380D01*
X146423095Y-120689761D01*
X146613571Y-120642142D01*
X146851666Y-120642142D01*
X147042142Y-120689761D01*
X147137380Y-120737380D01*
X147185000Y-120785000D01*
X147232619Y-120880238D01*
X147232619Y-121832619D02*
X147232619Y-121927857D01*
X147185000Y-122023095D01*
X147137380Y-122070714D01*
X147042142Y-122118333D01*
X146851666Y-122165952D01*
X146613571Y-122165952D01*
X146423095Y-122118333D01*
X146327857Y-122070714D01*
X146280238Y-122023095D01*
X146232619Y-121927857D01*
X146232619Y-121832619D01*
X146280238Y-121737380D01*
X146327857Y-121689761D01*
X146423095Y-121642142D01*
X146613571Y-121594523D01*
X146851666Y-121594523D01*
X147042142Y-121642142D01*
X147137380Y-121689761D01*
X147185000Y-121737380D01*
X147232619Y-121832619D01*
X147232619Y-122785000D02*
X147232619Y-122880238D01*
X147185000Y-122975476D01*
X147137380Y-123023095D01*
X147042142Y-123070714D01*
X146851666Y-123118333D01*
X146613571Y-123118333D01*
X146423095Y-123070714D01*
X146327857Y-123023095D01*
X146280238Y-122975476D01*
X146232619Y-122880238D01*
X146232619Y-122785000D01*
X146280238Y-122689761D01*
X146327857Y-122642142D01*
X146423095Y-122594523D01*
X146613571Y-122546904D01*
X146851666Y-122546904D01*
X147042142Y-122594523D01*
X147137380Y-122642142D01*
X147185000Y-122689761D01*
X147232619Y-122785000D01*
X147137380Y-123499285D02*
X147185000Y-123546904D01*
X147232619Y-123642142D01*
X147232619Y-123880238D01*
X147185000Y-123975476D01*
X147137380Y-124023095D01*
X147042142Y-124070714D01*
X146946904Y-124070714D01*
X146804047Y-124023095D01*
X146232619Y-123451666D01*
X146232619Y-124070714D01*
X144851428Y-150159404D02*
X144851428Y-149397500D01*
X145232380Y-149778452D02*
X144470476Y-149778452D01*
X144232380Y-149064166D02*
X145232380Y-148730833D01*
X144232380Y-148397500D01*
X145184761Y-148111785D02*
X145232380Y-148016547D01*
X145232380Y-147826071D01*
X145184761Y-147730833D01*
X145089523Y-147683214D01*
X145041904Y-147683214D01*
X144946666Y-147730833D01*
X144899047Y-147826071D01*
X144899047Y-147968928D01*
X144851428Y-148064166D01*
X144756190Y-148111785D01*
X144708571Y-148111785D01*
X144613333Y-148064166D01*
X144565714Y-147968928D01*
X144565714Y-147826071D01*
X144613333Y-147730833D01*
X142311428Y-150159404D02*
X142311428Y-149397500D01*
X141692380Y-149064166D02*
X142692380Y-148730833D01*
X141692380Y-148397500D01*
X142644761Y-148111785D02*
X142692380Y-148016547D01*
X142692380Y-147826071D01*
X142644761Y-147730833D01*
X142549523Y-147683214D01*
X142501904Y-147683214D01*
X142406666Y-147730833D01*
X142359047Y-147826071D01*
X142359047Y-147968928D01*
X142311428Y-148064166D01*
X142216190Y-148111785D01*
X142168571Y-148111785D01*
X142073333Y-148064166D01*
X142025714Y-147968928D01*
X142025714Y-147826071D01*
X142073333Y-147730833D01*
X139771428Y-150159404D02*
X139771428Y-149397500D01*
X140152380Y-148921309D02*
X139152380Y-148921309D01*
X139485714Y-148445119D02*
X140152380Y-148445119D01*
X139580952Y-148445119D02*
X139533333Y-148397500D01*
X139485714Y-148302261D01*
X139485714Y-148159404D01*
X139533333Y-148064166D01*
X139628571Y-148016547D01*
X140152380Y-148016547D01*
X137231428Y-150159404D02*
X137231428Y-149397500D01*
X137612380Y-149778452D02*
X136850476Y-149778452D01*
X137612380Y-148921309D02*
X136612380Y-148921309D01*
X136945714Y-148445119D02*
X137612380Y-148445119D01*
X137040952Y-148445119D02*
X136993333Y-148397500D01*
X136945714Y-148302261D01*
X136945714Y-148159404D01*
X136993333Y-148064166D01*
X137088571Y-148016547D01*
X137612380Y-148016547D01*
X135072380Y-149587976D02*
X134596190Y-149921309D01*
X135072380Y-150159404D02*
X134072380Y-150159404D01*
X134072380Y-149778452D01*
X134120000Y-149683214D01*
X134167619Y-149635595D01*
X134262857Y-149587976D01*
X134405714Y-149587976D01*
X134500952Y-149635595D01*
X134548571Y-149683214D01*
X134596190Y-149778452D01*
X134596190Y-150159404D01*
X135024761Y-148778452D02*
X135072380Y-148873690D01*
X135072380Y-149064166D01*
X135024761Y-149159404D01*
X134929523Y-149207023D01*
X134548571Y-149207023D01*
X134453333Y-149159404D01*
X134405714Y-149064166D01*
X134405714Y-148873690D01*
X134453333Y-148778452D01*
X134548571Y-148730833D01*
X134643809Y-148730833D01*
X134739047Y-149207023D01*
X134405714Y-148445119D02*
X134405714Y-148064166D01*
X135072380Y-148302261D02*
X134215238Y-148302261D01*
X134120000Y-148254642D01*
X134072380Y-148159404D01*
X134072380Y-148064166D01*
X131532380Y-149968928D02*
X131532380Y-149778452D01*
X131580000Y-149683214D01*
X131675238Y-149587976D01*
X131865714Y-149540357D01*
X132199047Y-149540357D01*
X132389523Y-149587976D01*
X132484761Y-149683214D01*
X132532380Y-149778452D01*
X132532380Y-149968928D01*
X132484761Y-150064166D01*
X132389523Y-150159404D01*
X132199047Y-150207023D01*
X131865714Y-150207023D01*
X131675238Y-150159404D01*
X131580000Y-150064166D01*
X131532380Y-149968928D01*
X131865714Y-148683214D02*
X132532380Y-148683214D01*
X131865714Y-149111785D02*
X132389523Y-149111785D01*
X132484761Y-149064166D01*
X132532380Y-148968928D01*
X132532380Y-148826071D01*
X132484761Y-148730833D01*
X132437142Y-148683214D01*
X131865714Y-148349880D02*
X131865714Y-147968928D01*
X131532380Y-148207023D02*
X132389523Y-148207023D01*
X132484761Y-148159404D01*
X132532380Y-148064166D01*
X132532380Y-147968928D01*
X129992380Y-150159404D02*
X128992380Y-150159404D01*
X129325714Y-149683214D02*
X129992380Y-149683214D01*
X129420952Y-149683214D02*
X129373333Y-149635595D01*
X129325714Y-149540357D01*
X129325714Y-149397500D01*
X129373333Y-149302261D01*
X129468571Y-149254642D01*
X129992380Y-149254642D01*
X126452380Y-149968928D02*
X126452380Y-149778452D01*
X126500000Y-149683214D01*
X126595238Y-149587976D01*
X126785714Y-149540357D01*
X127119047Y-149540357D01*
X127309523Y-149587976D01*
X127404761Y-149683214D01*
X127452380Y-149778452D01*
X127452380Y-149968928D01*
X127404761Y-150064166D01*
X127309523Y-150159404D01*
X127119047Y-150207023D01*
X126785714Y-150207023D01*
X126595238Y-150159404D01*
X126500000Y-150064166D01*
X126452380Y-149968928D01*
X126785714Y-148683214D02*
X127452380Y-148683214D01*
X126785714Y-149111785D02*
X127309523Y-149111785D01*
X127404761Y-149064166D01*
X127452380Y-148968928D01*
X127452380Y-148826071D01*
X127404761Y-148730833D01*
X127357142Y-148683214D01*
X126785714Y-148349880D02*
X126785714Y-147968928D01*
X126452380Y-148207023D02*
X127309523Y-148207023D01*
X127404761Y-148159404D01*
X127452380Y-148064166D01*
X127452380Y-147968928D01*
D12*
X121285000Y-107188000D02*
X120650000Y-106680000D01*
X121285000Y-105791000D02*
X120396000Y-104775000D01*
D11*
X121620595Y-106116428D02*
X122382500Y-106116428D01*
X122858690Y-106497380D02*
X122858690Y-105497380D01*
X123334880Y-105830714D02*
X123334880Y-106497380D01*
X123334880Y-105925952D02*
X123382500Y-105878333D01*
X123477738Y-105830714D01*
X123620595Y-105830714D01*
X123715833Y-105878333D01*
X123763452Y-105973571D01*
X123763452Y-106497380D01*
X118165714Y-111831428D02*
X118927619Y-111831428D01*
X119260952Y-111212380D02*
X119594285Y-112212380D01*
X119927619Y-111212380D01*
X120213333Y-112164761D02*
X120308571Y-112212380D01*
X120499047Y-112212380D01*
X120594285Y-112164761D01*
X120641904Y-112069523D01*
X120641904Y-112021904D01*
X120594285Y-111926666D01*
X120499047Y-111879047D01*
X120356190Y-111879047D01*
X120260952Y-111831428D01*
X120213333Y-111736190D01*
X120213333Y-111688571D01*
X120260952Y-111593333D01*
X120356190Y-111545714D01*
X120499047Y-111545714D01*
X120594285Y-111593333D01*
X119237142Y-99512380D02*
X118903809Y-99036190D01*
X118665714Y-99512380D02*
X118665714Y-98512380D01*
X119046666Y-98512380D01*
X119141904Y-98560000D01*
X119189523Y-98607619D01*
X119237142Y-98702857D01*
X119237142Y-98845714D01*
X119189523Y-98940952D01*
X119141904Y-98988571D01*
X119046666Y-99036190D01*
X118665714Y-99036190D01*
X120094285Y-98845714D02*
X120094285Y-99655238D01*
X120046666Y-99750476D01*
X119999047Y-99798095D01*
X119903809Y-99845714D01*
X119760952Y-99845714D01*
X119665714Y-99798095D01*
X120094285Y-99464761D02*
X119999047Y-99512380D01*
X119808571Y-99512380D01*
X119713333Y-99464761D01*
X119665714Y-99417142D01*
X119618095Y-99321904D01*
X119618095Y-99036190D01*
X119665714Y-98940952D01*
X119713333Y-98893333D01*
X119808571Y-98845714D01*
X119999047Y-98845714D01*
X120094285Y-98893333D01*
X121620595Y-107386428D02*
X122382500Y-107386428D01*
X122001547Y-107767380D02*
X122001547Y-107005476D01*
X122858690Y-107767380D02*
X122858690Y-106767380D01*
X123334880Y-107100714D02*
X123334880Y-107767380D01*
X123334880Y-107195952D02*
X123382500Y-107148333D01*
X123477738Y-107100714D01*
X123620595Y-107100714D01*
X123715833Y-107148333D01*
X123763452Y-107243571D01*
X123763452Y-107767380D01*
X149302261Y-102052380D02*
X148968928Y-101576190D01*
X148730833Y-102052380D02*
X148730833Y-101052380D01*
X149111785Y-101052380D01*
X149207023Y-101100000D01*
X149254642Y-101147619D01*
X149302261Y-101242857D01*
X149302261Y-101385714D01*
X149254642Y-101480952D01*
X149207023Y-101528571D01*
X149111785Y-101576190D01*
X148730833Y-101576190D01*
X150159404Y-101385714D02*
X150159404Y-102195238D01*
X150111785Y-102290476D01*
X150064166Y-102338095D01*
X149968928Y-102385714D01*
X149826071Y-102385714D01*
X149730833Y-102338095D01*
X150159404Y-102004761D02*
X150064166Y-102052380D01*
X149873690Y-102052380D01*
X149778452Y-102004761D01*
X149730833Y-101957142D01*
X149683214Y-101861904D01*
X149683214Y-101576190D01*
X149730833Y-101480952D01*
X149778452Y-101433333D01*
X149873690Y-101385714D01*
X150064166Y-101385714D01*
X150159404Y-101433333D01*
X147730833Y-104211428D02*
X148492738Y-104211428D01*
X148111785Y-104592380D02*
X148111785Y-103830476D01*
X148826071Y-103592380D02*
X149159404Y-104592380D01*
X149492738Y-103592380D01*
X149778452Y-104544761D02*
X149873690Y-104592380D01*
X150064166Y-104592380D01*
X150159404Y-104544761D01*
X150207023Y-104449523D01*
X150207023Y-104401904D01*
X150159404Y-104306666D01*
X150064166Y-104259047D01*
X149921309Y-104259047D01*
X149826071Y-104211428D01*
X149778452Y-104116190D01*
X149778452Y-104068571D01*
X149826071Y-103973333D01*
X149921309Y-103925714D01*
X150064166Y-103925714D01*
X150159404Y-103973333D01*
X148302261Y-105497380D02*
X148492738Y-105497380D01*
X148587976Y-105545000D01*
X148683214Y-105640238D01*
X148730833Y-105830714D01*
X148730833Y-106164047D01*
X148683214Y-106354523D01*
X148587976Y-106449761D01*
X148492738Y-106497380D01*
X148302261Y-106497380D01*
X148207023Y-106449761D01*
X148111785Y-106354523D01*
X148064166Y-106164047D01*
X148064166Y-105830714D01*
X148111785Y-105640238D01*
X148207023Y-105545000D01*
X148302261Y-105497380D01*
X149587976Y-105830714D02*
X149587976Y-106497380D01*
X149159404Y-105830714D02*
X149159404Y-106354523D01*
X149207023Y-106449761D01*
X149302261Y-106497380D01*
X149445119Y-106497380D01*
X149540357Y-106449761D01*
X149587976Y-106402142D01*
X149921309Y-105830714D02*
X150302261Y-105830714D01*
X150064166Y-105497380D02*
X150064166Y-106354523D01*
X150111785Y-106449761D01*
X150207023Y-106497380D01*
X150302261Y-106497380D01*
X151995238Y-112212380D02*
X151661904Y-111736190D01*
X151423809Y-112212380D02*
X151423809Y-111212380D01*
X151804761Y-111212380D01*
X151900000Y-111260000D01*
X151947619Y-111307619D01*
X151995238Y-111402857D01*
X151995238Y-111545714D01*
X151947619Y-111640952D01*
X151900000Y-111688571D01*
X151804761Y-111736190D01*
X151423809Y-111736190D01*
X152804761Y-112164761D02*
X152709523Y-112212380D01*
X152519047Y-112212380D01*
X152423809Y-112164761D01*
X152376190Y-112069523D01*
X152376190Y-111688571D01*
X152423809Y-111593333D01*
X152519047Y-111545714D01*
X152709523Y-111545714D01*
X152804761Y-111593333D01*
X152852380Y-111688571D01*
X152852380Y-111783809D01*
X152376190Y-111879047D01*
X153138095Y-111545714D02*
X153519047Y-111545714D01*
X153280952Y-112212380D02*
X153280952Y-111355238D01*
X153328571Y-111260000D01*
X153423809Y-111212380D01*
X153519047Y-111212380D01*
D13*
X136348380Y-85457095D02*
X136265047Y-85338047D01*
X136205523Y-85457095D02*
X136205523Y-85207095D01*
X136300761Y-85207095D01*
X136324571Y-85219000D01*
X136336476Y-85230904D01*
X136348380Y-85254714D01*
X136348380Y-85290428D01*
X136336476Y-85314238D01*
X136324571Y-85326142D01*
X136300761Y-85338047D01*
X136205523Y-85338047D01*
D12*
X136652000Y-88900000D02*
X136652000Y-85471000D01*
X137795000Y-88900000D02*
X136652000Y-88900000D01*
X137668000Y-86360000D02*
X137795000Y-86360000D01*
X137668000Y-85090000D02*
X137668000Y-86360000D01*
X137160000Y-85090000D02*
X137668000Y-85090000D01*
X135001000Y-86233000D02*
X135001000Y-86487000D01*
X134874000Y-86360000D02*
X135128000Y-86360000D01*
X134874000Y-83820000D02*
X135128000Y-83820000D01*
X136906000Y-81280000D02*
X137160000Y-81280000D01*
X136652000Y-81026000D02*
X136906000Y-81280000D01*
X136398000Y-81534000D02*
X136652000Y-81026000D01*
X136144000Y-81026000D02*
X136398000Y-81534000D01*
X135890000Y-81534000D02*
X136144000Y-81026000D01*
X135636000Y-81026000D02*
X135890000Y-81534000D01*
X135382000Y-81534000D02*
X135636000Y-81026000D01*
X135128000Y-81026000D02*
X135382000Y-81534000D01*
X134874000Y-81280000D02*
X135128000Y-81026000D01*
X134620000Y-81280000D02*
X134874000Y-81280000D01*
X137795000Y-81280000D02*
X137160000Y-81280000D01*
X133985000Y-81280000D02*
X134620000Y-81280000D01*
X133985000Y-86360000D02*
X134620000Y-86360000D01*
X133985000Y-83820000D02*
X134620000Y-83820000D01*
X137160000Y-85090000D02*
X134620000Y-83185000D01*
X134620000Y-86995000D02*
X137160000Y-85090000D01*
X134620000Y-83185000D02*
X134620000Y-86995000D01*
D10*
G36*
X137795000Y-76200000D02*
G01*
X137160000Y-76835000D01*
X137160000Y-75565000D01*
X137795000Y-76200000D01*
G37*
X137795000Y-76200000D02*
X137160000Y-76835000D01*
X137160000Y-75565000D01*
X137795000Y-76200000D01*
X133985000Y-76200000D02*
X137795000Y-76200000D01*
D11*
X128934642Y-76652380D02*
X128934642Y-75652380D01*
X129410833Y-75985714D02*
X129410833Y-76652380D01*
X129410833Y-76080952D02*
X129458452Y-76033333D01*
X129553690Y-75985714D01*
X129696547Y-75985714D01*
X129791785Y-76033333D01*
X129839404Y-76128571D01*
X129839404Y-76652380D01*
X142131071Y-75652380D02*
X142321547Y-75652380D01*
X142416785Y-75700000D01*
X142512023Y-75795238D01*
X142559642Y-75985714D01*
X142559642Y-76319047D01*
X142512023Y-76509523D01*
X142416785Y-76604761D01*
X142321547Y-76652380D01*
X142131071Y-76652380D01*
X142035833Y-76604761D01*
X141940595Y-76509523D01*
X141892976Y-76319047D01*
X141892976Y-75985714D01*
X141940595Y-75795238D01*
X142035833Y-75700000D01*
X142131071Y-75652380D01*
X143416785Y-75985714D02*
X143416785Y-76652380D01*
X142988214Y-75985714D02*
X142988214Y-76509523D01*
X143035833Y-76604761D01*
X143131071Y-76652380D01*
X143273928Y-76652380D01*
X143369166Y-76604761D01*
X143416785Y-76557142D01*
X143750119Y-75985714D02*
X144131071Y-75985714D01*
X143892976Y-75652380D02*
X143892976Y-76509523D01*
X143940595Y-76604761D01*
X144035833Y-76652380D01*
X144131071Y-76652380D01*
X142512023Y-89352380D02*
X142178690Y-88876190D01*
X141940595Y-89352380D02*
X141940595Y-88352380D01*
X142321547Y-88352380D01*
X142416785Y-88400000D01*
X142464404Y-88447619D01*
X142512023Y-88542857D01*
X142512023Y-88685714D01*
X142464404Y-88780952D01*
X142416785Y-88828571D01*
X142321547Y-88876190D01*
X141940595Y-88876190D01*
X143321547Y-89304761D02*
X143226309Y-89352380D01*
X143035833Y-89352380D01*
X142940595Y-89304761D01*
X142892976Y-89209523D01*
X142892976Y-88828571D01*
X142940595Y-88733333D01*
X143035833Y-88685714D01*
X143226309Y-88685714D01*
X143321547Y-88733333D01*
X143369166Y-88828571D01*
X143369166Y-88923809D01*
X142892976Y-89019047D01*
X143654880Y-88685714D02*
X144035833Y-88685714D01*
X143797738Y-89352380D02*
X143797738Y-88495238D01*
X143845357Y-88400000D01*
X143940595Y-88352380D01*
X144035833Y-88352380D01*
X142131071Y-85812380D02*
X142321547Y-85812380D01*
X142416785Y-85860000D01*
X142512023Y-85955238D01*
X142559642Y-86145714D01*
X142559642Y-86479047D01*
X142512023Y-86669523D01*
X142416785Y-86764761D01*
X142321547Y-86812380D01*
X142131071Y-86812380D01*
X142035833Y-86764761D01*
X141940595Y-86669523D01*
X141892976Y-86479047D01*
X141892976Y-86145714D01*
X141940595Y-85955238D01*
X142035833Y-85860000D01*
X142131071Y-85812380D01*
X143416785Y-86145714D02*
X143416785Y-86812380D01*
X142988214Y-86145714D02*
X142988214Y-86669523D01*
X143035833Y-86764761D01*
X143131071Y-86812380D01*
X143273928Y-86812380D01*
X143369166Y-86764761D01*
X143416785Y-86717142D01*
X143750119Y-86145714D02*
X144131071Y-86145714D01*
X143892976Y-85812380D02*
X143892976Y-86669523D01*
X143940595Y-86764761D01*
X144035833Y-86812380D01*
X144131071Y-86812380D01*
X141940595Y-83891428D02*
X142702500Y-83891428D01*
X142321547Y-84272380D02*
X142321547Y-83510476D01*
X143035833Y-83272380D02*
X143369166Y-84272380D01*
X143702500Y-83272380D01*
X143988214Y-84224761D02*
X144083452Y-84272380D01*
X144273928Y-84272380D01*
X144369166Y-84224761D01*
X144416785Y-84129523D01*
X144416785Y-84081904D01*
X144369166Y-83986666D01*
X144273928Y-83939047D01*
X144131071Y-83939047D01*
X144035833Y-83891428D01*
X143988214Y-83796190D01*
X143988214Y-83748571D01*
X144035833Y-83653333D01*
X144131071Y-83605714D01*
X144273928Y-83605714D01*
X144369166Y-83653333D01*
X142512023Y-81732380D02*
X142178690Y-81256190D01*
X141940595Y-81732380D02*
X141940595Y-80732380D01*
X142321547Y-80732380D01*
X142416785Y-80780000D01*
X142464404Y-80827619D01*
X142512023Y-80922857D01*
X142512023Y-81065714D01*
X142464404Y-81160952D01*
X142416785Y-81208571D01*
X142321547Y-81256190D01*
X141940595Y-81256190D01*
X143369166Y-81065714D02*
X143369166Y-81875238D01*
X143321547Y-81970476D01*
X143273928Y-82018095D01*
X143178690Y-82065714D01*
X143035833Y-82065714D01*
X142940595Y-82018095D01*
X143369166Y-81684761D02*
X143273928Y-81732380D01*
X143083452Y-81732380D01*
X142988214Y-81684761D01*
X142940595Y-81637142D01*
X142892976Y-81541904D01*
X142892976Y-81256190D01*
X142940595Y-81160952D01*
X142988214Y-81113333D01*
X143083452Y-81065714D01*
X143273928Y-81065714D01*
X143369166Y-81113333D01*
X127410833Y-88971428D02*
X128172738Y-88971428D01*
X128506071Y-88352380D02*
X128839404Y-89352380D01*
X129172738Y-88352380D01*
X129458452Y-89304761D02*
X129553690Y-89352380D01*
X129744166Y-89352380D01*
X129839404Y-89304761D01*
X129887023Y-89209523D01*
X129887023Y-89161904D01*
X129839404Y-89066666D01*
X129744166Y-89019047D01*
X129601309Y-89019047D01*
X129506071Y-88971428D01*
X129458452Y-88876190D01*
X129458452Y-88828571D01*
X129506071Y-88733333D01*
X129601309Y-88685714D01*
X129744166Y-88685714D01*
X129839404Y-88733333D01*
X127696547Y-86431428D02*
X128458452Y-86431428D01*
X128077500Y-86812380D02*
X128077500Y-86050476D01*
X128934642Y-86812380D02*
X128934642Y-85812380D01*
X129410833Y-86145714D02*
X129410833Y-86812380D01*
X129410833Y-86240952D02*
X129458452Y-86193333D01*
X129553690Y-86145714D01*
X129696547Y-86145714D01*
X129791785Y-86193333D01*
X129839404Y-86288571D01*
X129839404Y-86812380D01*
X127696547Y-83891428D02*
X128458452Y-83891428D01*
X128934642Y-84272380D02*
X128934642Y-83272380D01*
X129410833Y-83605714D02*
X129410833Y-84272380D01*
X129410833Y-83700952D02*
X129458452Y-83653333D01*
X129553690Y-83605714D01*
X129696547Y-83605714D01*
X129791785Y-83653333D01*
X129839404Y-83748571D01*
X129839404Y-84272380D01*
X128982261Y-81732380D02*
X128648928Y-81256190D01*
X128410833Y-81732380D02*
X128410833Y-80732380D01*
X128791785Y-80732380D01*
X128887023Y-80780000D01*
X128934642Y-80827619D01*
X128982261Y-80922857D01*
X128982261Y-81065714D01*
X128934642Y-81160952D01*
X128887023Y-81208571D01*
X128791785Y-81256190D01*
X128410833Y-81256190D01*
X129839404Y-81065714D02*
X129839404Y-81875238D01*
X129791785Y-81970476D01*
X129744166Y-82018095D01*
X129648928Y-82065714D01*
X129506071Y-82065714D01*
X129410833Y-82018095D01*
X129839404Y-81684761D02*
X129744166Y-81732380D01*
X129553690Y-81732380D01*
X129458452Y-81684761D01*
X129410833Y-81637142D01*
X129363214Y-81541904D01*
X129363214Y-81256190D01*
X129410833Y-81160952D01*
X129458452Y-81113333D01*
X129553690Y-81065714D01*
X129744166Y-81065714D01*
X129839404Y-81113333D01*
X127889047Y-130103571D02*
X128650952Y-130103571D01*
X128650952Y-130389285D02*
X127889047Y-130389285D01*
X127889047Y-126293571D02*
X128650952Y-126293571D01*
X128650952Y-126579285D02*
X127889047Y-126579285D01*
X127889047Y-122483571D02*
X128650952Y-122483571D01*
X128650952Y-122769285D02*
X127889047Y-122769285D01*
X140589047Y-126928571D02*
X141350952Y-126928571D01*
X141350952Y-127214285D02*
X140589047Y-127214285D01*
D12*
X133096000Y-108458000D02*
X133096000Y-110490000D01*
D11*
X123743690Y-116340000D02*
X123648452Y-116292380D01*
X123505595Y-116292380D01*
X123362738Y-116340000D01*
X123267500Y-116435238D01*
X123219880Y-116530476D01*
X123172261Y-116720952D01*
X123172261Y-116863809D01*
X123219880Y-117054285D01*
X123267500Y-117149523D01*
X123362738Y-117244761D01*
X123505595Y-117292380D01*
X123600833Y-117292380D01*
X123743690Y-117244761D01*
X123791309Y-117197142D01*
X123791309Y-116863809D01*
X123600833Y-116863809D01*
X124648452Y-117292380D02*
X124648452Y-116768571D01*
X124600833Y-116673333D01*
X124505595Y-116625714D01*
X124315119Y-116625714D01*
X124219880Y-116673333D01*
X124648452Y-117244761D02*
X124553214Y-117292380D01*
X124315119Y-117292380D01*
X124219880Y-117244761D01*
X124172261Y-117149523D01*
X124172261Y-117054285D01*
X124219880Y-116959047D01*
X124315119Y-116911428D01*
X124553214Y-116911428D01*
X124648452Y-116863809D01*
X125124642Y-117292380D02*
X125124642Y-116625714D01*
X125124642Y-116292380D02*
X125077023Y-116340000D01*
X125124642Y-116387619D01*
X125172261Y-116340000D01*
X125124642Y-116292380D01*
X125124642Y-116387619D01*
X125600833Y-116625714D02*
X125600833Y-117292380D01*
X125600833Y-116720952D02*
X125648452Y-116673333D01*
X125743690Y-116625714D01*
X125886547Y-116625714D01*
X125981785Y-116673333D01*
X126029404Y-116768571D01*
X126029404Y-117292380D01*
X148302261Y-144232380D02*
X148492738Y-144232380D01*
X148587976Y-144280000D01*
X148683214Y-144375238D01*
X148730833Y-144565714D01*
X148730833Y-144899047D01*
X148683214Y-145089523D01*
X148587976Y-145184761D01*
X148492738Y-145232380D01*
X148302261Y-145232380D01*
X148207023Y-145184761D01*
X148111785Y-145089523D01*
X148064166Y-144899047D01*
X148064166Y-144565714D01*
X148111785Y-144375238D01*
X148207023Y-144280000D01*
X148302261Y-144232380D01*
X149587976Y-144565714D02*
X149587976Y-145232380D01*
X149159404Y-144565714D02*
X149159404Y-145089523D01*
X149207023Y-145184761D01*
X149302261Y-145232380D01*
X149445119Y-145232380D01*
X149540357Y-145184761D01*
X149587976Y-145137142D01*
X149921309Y-144565714D02*
X150302261Y-144565714D01*
X150064166Y-144232380D02*
X150064166Y-145089523D01*
X150111785Y-145184761D01*
X150207023Y-145232380D01*
X150302261Y-145232380D01*
X149254642Y-142692380D02*
X149254642Y-141692380D01*
X149730833Y-142025714D02*
X149730833Y-142692380D01*
X149730833Y-142120952D02*
X149778452Y-142073333D01*
X149873690Y-142025714D01*
X150016547Y-142025714D01*
X150111785Y-142073333D01*
X150159404Y-142168571D01*
X150159404Y-142692380D01*
X121620595Y-144851428D02*
X122382500Y-144851428D01*
X122715833Y-144232380D02*
X123049166Y-145232380D01*
X123382500Y-144232380D01*
X123668214Y-145184761D02*
X123763452Y-145232380D01*
X123953928Y-145232380D01*
X124049166Y-145184761D01*
X124096785Y-145089523D01*
X124096785Y-145041904D01*
X124049166Y-144946666D01*
X123953928Y-144899047D01*
X123811071Y-144899047D01*
X123715833Y-144851428D01*
X123668214Y-144756190D01*
X123668214Y-144708571D01*
X123715833Y-144613333D01*
X123811071Y-144565714D01*
X123953928Y-144565714D01*
X124049166Y-144613333D01*
X121620595Y-142311428D02*
X122382500Y-142311428D01*
X122001547Y-142692380D02*
X122001547Y-141930476D01*
X122715833Y-141692380D02*
X123049166Y-142692380D01*
X123382500Y-141692380D01*
X123668214Y-142644761D02*
X123763452Y-142692380D01*
X123953928Y-142692380D01*
X124049166Y-142644761D01*
X124096785Y-142549523D01*
X124096785Y-142501904D01*
X124049166Y-142406666D01*
X123953928Y-142359047D01*
X123811071Y-142359047D01*
X123715833Y-142311428D01*
X123668214Y-142216190D01*
X123668214Y-142168571D01*
X123715833Y-142073333D01*
X123811071Y-142025714D01*
X123953928Y-142025714D01*
X124049166Y-142073333D01*
D12*
%TO.C,J8*%
X118050000Y-140910000D02*
X119380000Y-140910000D01*
X118050000Y-142240000D02*
X118050000Y-140910000D01*
X118050000Y-143510000D02*
X120710000Y-143510000D01*
X120710000Y-143510000D02*
X120710000Y-146110000D01*
X118050000Y-143510000D02*
X118050000Y-146110000D01*
X118050000Y-146110000D02*
X120710000Y-146110000D01*
%TO.C,J7*%
X151070000Y-140910000D02*
X152400000Y-140910000D01*
X151070000Y-142240000D02*
X151070000Y-140910000D01*
X151070000Y-143510000D02*
X153730000Y-143510000D01*
X153730000Y-143510000D02*
X153730000Y-146110000D01*
X151070000Y-143510000D02*
X151070000Y-146110000D01*
X151070000Y-146110000D02*
X153730000Y-146110000D01*
%TO.C,J4*%
X146050000Y-151130000D02*
X146050000Y-152400000D01*
X144780000Y-151130000D02*
X146050000Y-151130000D01*
X126620000Y-153442929D02*
X126620000Y-153840000D01*
X127380000Y-153442929D02*
X127380000Y-153840000D01*
X126620000Y-162500000D02*
X126620000Y-156500000D01*
X127380000Y-162500000D02*
X126620000Y-162500000D01*
X127380000Y-156500000D02*
X127380000Y-162500000D01*
X128270000Y-153840000D02*
X128270000Y-156500000D01*
X129160000Y-153442929D02*
X129160000Y-153840000D01*
X129920000Y-153442929D02*
X129920000Y-153840000D01*
X129160000Y-162500000D02*
X129160000Y-156500000D01*
X129920000Y-162500000D02*
X129160000Y-162500000D01*
X129920000Y-156500000D02*
X129920000Y-162500000D01*
X130810000Y-153840000D02*
X130810000Y-156500000D01*
X131700000Y-153442929D02*
X131700000Y-153840000D01*
X132460000Y-153442929D02*
X132460000Y-153840000D01*
X131700000Y-162500000D02*
X131700000Y-156500000D01*
X132460000Y-162500000D02*
X131700000Y-162500000D01*
X132460000Y-156500000D02*
X132460000Y-162500000D01*
X133350000Y-153840000D02*
X133350000Y-156500000D01*
X134240000Y-153442929D02*
X134240000Y-153840000D01*
X135000000Y-153442929D02*
X135000000Y-153840000D01*
X134240000Y-162500000D02*
X134240000Y-156500000D01*
X135000000Y-162500000D02*
X134240000Y-162500000D01*
X135000000Y-156500000D02*
X135000000Y-162500000D01*
X135890000Y-153840000D02*
X135890000Y-156500000D01*
X136780000Y-153442929D02*
X136780000Y-153840000D01*
X137540000Y-153442929D02*
X137540000Y-153840000D01*
X136780000Y-162500000D02*
X136780000Y-156500000D01*
X137540000Y-162500000D02*
X136780000Y-162500000D01*
X137540000Y-156500000D02*
X137540000Y-162500000D01*
X138430000Y-153840000D02*
X138430000Y-156500000D01*
X139320000Y-153442929D02*
X139320000Y-153840000D01*
X140080000Y-153442929D02*
X140080000Y-153840000D01*
X139320000Y-162500000D02*
X139320000Y-156500000D01*
X140080000Y-162500000D02*
X139320000Y-162500000D01*
X140080000Y-156500000D02*
X140080000Y-162500000D01*
X140970000Y-153840000D02*
X140970000Y-156500000D01*
X141860000Y-153442929D02*
X141860000Y-153840000D01*
X142620000Y-153442929D02*
X142620000Y-153840000D01*
X141860000Y-162500000D02*
X141860000Y-156500000D01*
X142620000Y-162500000D02*
X141860000Y-162500000D01*
X142620000Y-156500000D02*
X142620000Y-162500000D01*
X143510000Y-153840000D02*
X143510000Y-156500000D01*
X144400000Y-153510000D02*
X144400000Y-153840000D01*
X145160000Y-153510000D02*
X145160000Y-153840000D01*
X144500000Y-156500000D02*
X144500000Y-162500000D01*
X144620000Y-156500000D02*
X144620000Y-162500000D01*
X144740000Y-156500000D02*
X144740000Y-162500000D01*
X144860000Y-156500000D02*
X144860000Y-162500000D01*
X144980000Y-156500000D02*
X144980000Y-162500000D01*
X145100000Y-156500000D02*
X145100000Y-162500000D01*
X144400000Y-162500000D02*
X144400000Y-156500000D01*
X145160000Y-162500000D02*
X144400000Y-162500000D01*
X145160000Y-156500000D02*
X145160000Y-162500000D01*
X146110000Y-156500000D02*
X146110000Y-153840000D01*
X125670000Y-156500000D02*
X146110000Y-156500000D01*
X125670000Y-153840000D02*
X125670000Y-156500000D01*
X146110000Y-153840000D02*
X125670000Y-153840000D01*
D11*
%TO.C,U3*%
X126195000Y-105425000D02*
X124795000Y-105425000D01*
X126195000Y-110525000D02*
X130345000Y-110525000D01*
X126195000Y-105375000D02*
X130345000Y-105375000D01*
X126195000Y-110525000D02*
X126195000Y-110380000D01*
X130345000Y-110525000D02*
X130345000Y-110380000D01*
X130345000Y-105375000D02*
X130345000Y-105520000D01*
X126195000Y-105375000D02*
X126195000Y-105425000D01*
%TO.C,U4*%
X133815000Y-95265000D02*
X132415000Y-95265000D01*
X133815000Y-100365000D02*
X137965000Y-100365000D01*
X133815000Y-95215000D02*
X137965000Y-95215000D01*
X133815000Y-100365000D02*
X133815000Y-100220000D01*
X137965000Y-100365000D02*
X137965000Y-100220000D01*
X137965000Y-95215000D02*
X137965000Y-95360000D01*
X133815000Y-95215000D02*
X133815000Y-95265000D01*
%TO.C,U2*%
X141435000Y-105425000D02*
X140035000Y-105425000D01*
X141435000Y-110525000D02*
X145585000Y-110525000D01*
X141435000Y-105375000D02*
X145585000Y-105375000D01*
X141435000Y-110525000D02*
X141435000Y-110380000D01*
X145585000Y-110525000D02*
X145585000Y-110380000D01*
X145585000Y-105375000D02*
X145585000Y-105520000D01*
X141435000Y-105375000D02*
X141435000Y-105425000D01*
D12*
%TO.C,U1*%
X144840000Y-143620000D02*
X144840000Y-141970000D01*
X126940000Y-143620000D02*
X144840000Y-143620000D01*
X126940000Y-138320000D02*
X126940000Y-143620000D01*
X144840000Y-138320000D02*
X126940000Y-138320000D01*
X144840000Y-139970000D02*
X144840000Y-138320000D01*
X144840000Y-141970000D02*
G75*
G02*
X144840000Y-139970000I0J1000000D01*
G01*
%TO.C,RN2*%
X129990000Y-102000000D02*
X129990000Y-101200000D01*
X126550000Y-102000000D02*
X126550000Y-101200000D01*
%TO.C,RN1*%
X135490000Y-105860000D02*
X136290000Y-105860000D01*
X135490000Y-102420000D02*
X136290000Y-102420000D01*
D11*
%TO.C,R7*%
X127990600Y-119849900D02*
X128391920Y-119849900D01*
X128092200Y-119849900D02*
X127990600Y-119849900D01*
X128191260Y-121450100D02*
X127990600Y-121450100D01*
X128191260Y-121450100D02*
X128391920Y-121450100D01*
%TO.C,R6*%
X128391920Y-125260100D02*
X127990600Y-125260100D01*
X128290320Y-125260100D02*
X128391920Y-125260100D01*
X128191260Y-123659900D02*
X128391920Y-123659900D01*
X128191260Y-123659900D02*
X127990600Y-123659900D01*
%TO.C,R5*%
X139230100Y-126878080D02*
X139230100Y-127279400D01*
X139230100Y-126979680D02*
X139230100Y-126878080D01*
X137629900Y-127078740D02*
X137629900Y-126878080D01*
X137629900Y-127078740D02*
X137629900Y-127279400D01*
%TO.C,R4*%
X136090660Y-117640100D02*
X135689340Y-117640100D01*
X135989060Y-117640100D02*
X136090660Y-117640100D01*
X135890000Y-116039900D02*
X136090660Y-116039900D01*
X135890000Y-116039900D02*
X135689340Y-116039900D01*
%TO.C,R3*%
X144310100Y-126878080D02*
X144310100Y-127279400D01*
X144310100Y-126979680D02*
X144310100Y-126878080D01*
X142709900Y-127078740D02*
X142709900Y-126878080D01*
X142709900Y-127078740D02*
X142709900Y-127279400D01*
%TO.C,R2*%
X128391920Y-129070100D02*
X127990600Y-129070100D01*
X128290320Y-129070100D02*
X128391920Y-129070100D01*
X128191260Y-127469900D02*
X128391920Y-127469900D01*
X128191260Y-127469900D02*
X127990600Y-127469900D01*
%TO.C,R1*%
X128549400Y-132880100D02*
X128148080Y-132880100D01*
X128447800Y-132880100D02*
X128549400Y-132880100D01*
X128348740Y-131279900D02*
X128549400Y-131279900D01*
X128348740Y-131279900D02*
X128148080Y-131279900D01*
D12*
%TO.C,J2*%
X138140000Y-79950000D02*
X136890000Y-79950000D01*
X138140000Y-90230000D02*
X138140000Y-79950000D01*
X133640000Y-90230000D02*
X138140000Y-90230000D01*
X133640000Y-79950000D02*
X133640000Y-90230000D01*
X134890000Y-79950000D02*
X133640000Y-79950000D01*
X136890000Y-79950000D02*
G75*
G02*
X134890000Y-79950000I-1000000J0D01*
G01*
%TO.C,C4*%
X140874000Y-96555000D02*
X141574000Y-96555000D01*
X141574000Y-97755000D02*
X140874000Y-97755000D01*
%TO.C,C3*%
X132623000Y-106903000D02*
X132623000Y-106203000D01*
X133823000Y-106203000D02*
X133823000Y-106903000D01*
%TO.C,C2*%
X148809000Y-107600000D02*
X148809000Y-108300000D01*
X147609000Y-108300000D02*
X147609000Y-107600000D01*
%TO.C,C1*%
X136302000Y-134274000D02*
X137002000Y-134274000D01*
X137002000Y-135474000D02*
X136302000Y-135474000D01*
%TO.C,J8*%
D11*
X119046666Y-139362380D02*
X119046666Y-140076666D01*
X118999047Y-140219523D01*
X118903809Y-140314761D01*
X118760952Y-140362380D01*
X118665714Y-140362380D01*
X119665714Y-139790952D02*
X119570476Y-139743333D01*
X119522857Y-139695714D01*
X119475238Y-139600476D01*
X119475238Y-139552857D01*
X119522857Y-139457619D01*
X119570476Y-139410000D01*
X119665714Y-139362380D01*
X119856190Y-139362380D01*
X119951428Y-139410000D01*
X119999047Y-139457619D01*
X120046666Y-139552857D01*
X120046666Y-139600476D01*
X119999047Y-139695714D01*
X119951428Y-139743333D01*
X119856190Y-139790952D01*
X119665714Y-139790952D01*
X119570476Y-139838571D01*
X119522857Y-139886190D01*
X119475238Y-139981428D01*
X119475238Y-140171904D01*
X119522857Y-140267142D01*
X119570476Y-140314761D01*
X119665714Y-140362380D01*
X119856190Y-140362380D01*
X119951428Y-140314761D01*
X119999047Y-140267142D01*
X120046666Y-140171904D01*
X120046666Y-139981428D01*
X119999047Y-139886190D01*
X119951428Y-139838571D01*
X119856190Y-139790952D01*
%TO.C,J7*%
X152066666Y-139362380D02*
X152066666Y-140076666D01*
X152019047Y-140219523D01*
X151923809Y-140314761D01*
X151780952Y-140362380D01*
X151685714Y-140362380D01*
X152447619Y-139362380D02*
X153114285Y-139362380D01*
X152685714Y-140362380D01*
%TO.C,J4*%
X147621666Y-151852380D02*
X147621666Y-152566666D01*
X147574047Y-152709523D01*
X147478809Y-152804761D01*
X147335952Y-152852380D01*
X147240714Y-152852380D01*
X148526428Y-152185714D02*
X148526428Y-152852380D01*
X148288333Y-151804761D02*
X148050238Y-152519047D01*
X148669285Y-152519047D01*
%TO.C,TP6*%
X123198095Y-95337380D02*
X123769523Y-95337380D01*
X123483809Y-96337380D02*
X123483809Y-95337380D01*
X124102857Y-96337380D02*
X124102857Y-95337380D01*
X124483809Y-95337380D01*
X124579047Y-95385000D01*
X124626666Y-95432619D01*
X124674285Y-95527857D01*
X124674285Y-95670714D01*
X124626666Y-95765952D01*
X124579047Y-95813571D01*
X124483809Y-95861190D01*
X124102857Y-95861190D01*
X125531428Y-95337380D02*
X125340952Y-95337380D01*
X125245714Y-95385000D01*
X125198095Y-95432619D01*
X125102857Y-95575476D01*
X125055238Y-95765952D01*
X125055238Y-96146904D01*
X125102857Y-96242142D01*
X125150476Y-96289761D01*
X125245714Y-96337380D01*
X125436190Y-96337380D01*
X125531428Y-96289761D01*
X125579047Y-96242142D01*
X125626666Y-96146904D01*
X125626666Y-95908809D01*
X125579047Y-95813571D01*
X125531428Y-95765952D01*
X125436190Y-95718333D01*
X125245714Y-95718333D01*
X125150476Y-95765952D01*
X125102857Y-95813571D01*
X125055238Y-95908809D01*
%TO.C,TP5*%
X122563095Y-100417380D02*
X123134523Y-100417380D01*
X122848809Y-101417380D02*
X122848809Y-100417380D01*
X123467857Y-101417380D02*
X123467857Y-100417380D01*
X123848809Y-100417380D01*
X123944047Y-100465000D01*
X123991666Y-100512619D01*
X124039285Y-100607857D01*
X124039285Y-100750714D01*
X123991666Y-100845952D01*
X123944047Y-100893571D01*
X123848809Y-100941190D01*
X123467857Y-100941190D01*
X124944047Y-100417380D02*
X124467857Y-100417380D01*
X124420238Y-100893571D01*
X124467857Y-100845952D01*
X124563095Y-100798333D01*
X124801190Y-100798333D01*
X124896428Y-100845952D01*
X124944047Y-100893571D01*
X124991666Y-100988809D01*
X124991666Y-101226904D01*
X124944047Y-101322142D01*
X124896428Y-101369761D01*
X124801190Y-101417380D01*
X124563095Y-101417380D01*
X124467857Y-101369761D01*
X124420238Y-101322142D01*
%TO.C,TP4*%
X142883095Y-90892380D02*
X143454523Y-90892380D01*
X143168809Y-91892380D02*
X143168809Y-90892380D01*
X143787857Y-91892380D02*
X143787857Y-90892380D01*
X144168809Y-90892380D01*
X144264047Y-90940000D01*
X144311666Y-90987619D01*
X144359285Y-91082857D01*
X144359285Y-91225714D01*
X144311666Y-91320952D01*
X144264047Y-91368571D01*
X144168809Y-91416190D01*
X143787857Y-91416190D01*
X145216428Y-91225714D02*
X145216428Y-91892380D01*
X144978333Y-90844761D02*
X144740238Y-91559047D01*
X145359285Y-91559047D01*
%TO.C,TP3*%
X127770095Y-92337380D02*
X128341523Y-92337380D01*
X128055809Y-93337380D02*
X128055809Y-92337380D01*
X128674857Y-93337380D02*
X128674857Y-92337380D01*
X129055809Y-92337380D01*
X129151047Y-92385000D01*
X129198666Y-92432619D01*
X129246285Y-92527857D01*
X129246285Y-92670714D01*
X129198666Y-92765952D01*
X129151047Y-92813571D01*
X129055809Y-92861190D01*
X128674857Y-92861190D01*
X129579619Y-92337380D02*
X130198666Y-92337380D01*
X129865333Y-92718333D01*
X130008190Y-92718333D01*
X130103428Y-92765952D01*
X130151047Y-92813571D01*
X130198666Y-92908809D01*
X130198666Y-93146904D01*
X130151047Y-93242142D01*
X130103428Y-93289761D01*
X130008190Y-93337380D01*
X129722476Y-93337380D01*
X129627238Y-93289761D01*
X129579619Y-93242142D01*
%TO.C,TP2*%
X135898095Y-111212380D02*
X136469523Y-111212380D01*
X136183809Y-112212380D02*
X136183809Y-111212380D01*
X136802857Y-112212380D02*
X136802857Y-111212380D01*
X137183809Y-111212380D01*
X137279047Y-111260000D01*
X137326666Y-111307619D01*
X137374285Y-111402857D01*
X137374285Y-111545714D01*
X137326666Y-111640952D01*
X137279047Y-111688571D01*
X137183809Y-111736190D01*
X136802857Y-111736190D01*
X137755238Y-111307619D02*
X137802857Y-111260000D01*
X137898095Y-111212380D01*
X138136190Y-111212380D01*
X138231428Y-111260000D01*
X138279047Y-111307619D01*
X138326666Y-111402857D01*
X138326666Y-111498095D01*
X138279047Y-111640952D01*
X137707619Y-112212380D01*
X138326666Y-112212380D01*
%TO.C,TP1*%
X143518095Y-98512380D02*
X144089523Y-98512380D01*
X143803809Y-99512380D02*
X143803809Y-98512380D01*
X144422857Y-99512380D02*
X144422857Y-98512380D01*
X144803809Y-98512380D01*
X144899047Y-98560000D01*
X144946666Y-98607619D01*
X144994285Y-98702857D01*
X144994285Y-98845714D01*
X144946666Y-98940952D01*
X144899047Y-98988571D01*
X144803809Y-99036190D01*
X144422857Y-99036190D01*
X145946666Y-99512380D02*
X145375238Y-99512380D01*
X145660952Y-99512380D02*
X145660952Y-98512380D01*
X145565714Y-98655238D01*
X145470476Y-98750476D01*
X145375238Y-98798095D01*
%TO.C,U3*%
X127508095Y-103902380D02*
X127508095Y-104711904D01*
X127555714Y-104807142D01*
X127603333Y-104854761D01*
X127698571Y-104902380D01*
X127889047Y-104902380D01*
X127984285Y-104854761D01*
X128031904Y-104807142D01*
X128079523Y-104711904D01*
X128079523Y-103902380D01*
X128460476Y-103902380D02*
X129079523Y-103902380D01*
X128746190Y-104283333D01*
X128889047Y-104283333D01*
X128984285Y-104330952D01*
X129031904Y-104378571D01*
X129079523Y-104473809D01*
X129079523Y-104711904D01*
X129031904Y-104807142D01*
X128984285Y-104854761D01*
X128889047Y-104902380D01*
X128603333Y-104902380D01*
X128508095Y-104854761D01*
X128460476Y-104807142D01*
%TO.C,U4*%
X135128095Y-93742380D02*
X135128095Y-94551904D01*
X135175714Y-94647142D01*
X135223333Y-94694761D01*
X135318571Y-94742380D01*
X135509047Y-94742380D01*
X135604285Y-94694761D01*
X135651904Y-94647142D01*
X135699523Y-94551904D01*
X135699523Y-93742380D01*
X136604285Y-94075714D02*
X136604285Y-94742380D01*
X136366190Y-93694761D02*
X136128095Y-94409047D01*
X136747142Y-94409047D01*
%TO.C,U2*%
X142748095Y-103902380D02*
X142748095Y-104711904D01*
X142795714Y-104807142D01*
X142843333Y-104854761D01*
X142938571Y-104902380D01*
X143129047Y-104902380D01*
X143224285Y-104854761D01*
X143271904Y-104807142D01*
X143319523Y-104711904D01*
X143319523Y-103902380D01*
X143748095Y-103997619D02*
X143795714Y-103950000D01*
X143890952Y-103902380D01*
X144129047Y-103902380D01*
X144224285Y-103950000D01*
X144271904Y-103997619D01*
X144319523Y-104092857D01*
X144319523Y-104188095D01*
X144271904Y-104330952D01*
X143700476Y-104902380D01*
X144319523Y-104902380D01*
%TO.C,U1*%
X145292380Y-141731904D02*
X146101904Y-141731904D01*
X146197142Y-141684285D01*
X146244761Y-141636666D01*
X146292380Y-141541428D01*
X146292380Y-141350952D01*
X146244761Y-141255714D01*
X146197142Y-141208095D01*
X146101904Y-141160476D01*
X145292380Y-141160476D01*
X146292380Y-140160476D02*
X146292380Y-140731904D01*
X146292380Y-140446190D02*
X145292380Y-140446190D01*
X145435238Y-140541428D01*
X145530476Y-140636666D01*
X145578095Y-140731904D01*
X131024523Y-141422380D02*
X130548333Y-141422380D01*
X130548333Y-140422380D01*
X131357857Y-141422380D02*
X131357857Y-140422380D01*
X131691190Y-141136666D01*
X132024523Y-140422380D01*
X132024523Y-141422380D01*
X132405476Y-140422380D02*
X133024523Y-140422380D01*
X132691190Y-140803333D01*
X132834047Y-140803333D01*
X132929285Y-140850952D01*
X132976904Y-140898571D01*
X133024523Y-140993809D01*
X133024523Y-141231904D01*
X132976904Y-141327142D01*
X132929285Y-141374761D01*
X132834047Y-141422380D01*
X132548333Y-141422380D01*
X132453095Y-141374761D01*
X132405476Y-141327142D01*
X133405476Y-140517619D02*
X133453095Y-140470000D01*
X133548333Y-140422380D01*
X133786428Y-140422380D01*
X133881666Y-140470000D01*
X133929285Y-140517619D01*
X133976904Y-140612857D01*
X133976904Y-140708095D01*
X133929285Y-140850952D01*
X133357857Y-141422380D01*
X133976904Y-141422380D01*
X134834047Y-140755714D02*
X134834047Y-141422380D01*
X134595952Y-140374761D02*
X134357857Y-141089047D01*
X134976904Y-141089047D01*
%TO.C,RN2*%
X126055523Y-99766380D02*
X125722190Y-99290190D01*
X125484095Y-99766380D02*
X125484095Y-98766380D01*
X125865047Y-98766380D01*
X125960285Y-98814000D01*
X126007904Y-98861619D01*
X126055523Y-98956857D01*
X126055523Y-99099714D01*
X126007904Y-99194952D01*
X125960285Y-99242571D01*
X125865047Y-99290190D01*
X125484095Y-99290190D01*
X126484095Y-99766380D02*
X126484095Y-98766380D01*
X127055523Y-99766380D01*
X127055523Y-98766380D01*
X127484095Y-98861619D02*
X127531714Y-98814000D01*
X127626952Y-98766380D01*
X127865047Y-98766380D01*
X127960285Y-98814000D01*
X128007904Y-98861619D01*
X128055523Y-98956857D01*
X128055523Y-99052095D01*
X128007904Y-99194952D01*
X127436476Y-99766380D01*
X128055523Y-99766380D01*
%TO.C,RN1*%
X138247523Y-103830380D02*
X137914190Y-103354190D01*
X137676095Y-103830380D02*
X137676095Y-102830380D01*
X138057047Y-102830380D01*
X138152285Y-102878000D01*
X138199904Y-102925619D01*
X138247523Y-103020857D01*
X138247523Y-103163714D01*
X138199904Y-103258952D01*
X138152285Y-103306571D01*
X138057047Y-103354190D01*
X137676095Y-103354190D01*
X138676095Y-103830380D02*
X138676095Y-102830380D01*
X139247523Y-103830380D01*
X139247523Y-102830380D01*
X140247523Y-103830380D02*
X139676095Y-103830380D01*
X139961809Y-103830380D02*
X139961809Y-102830380D01*
X139866571Y-102973238D01*
X139771333Y-103068476D01*
X139676095Y-103116095D01*
%TO.C,R7*%
X120483333Y-121102380D02*
X120150000Y-120626190D01*
X119911904Y-121102380D02*
X119911904Y-120102380D01*
X120292857Y-120102380D01*
X120388095Y-120150000D01*
X120435714Y-120197619D01*
X120483333Y-120292857D01*
X120483333Y-120435714D01*
X120435714Y-120530952D01*
X120388095Y-120578571D01*
X120292857Y-120626190D01*
X119911904Y-120626190D01*
X120816666Y-120102380D02*
X121483333Y-120102380D01*
X121054761Y-121102380D01*
%TO.C,R6*%
X120483333Y-124912380D02*
X120150000Y-124436190D01*
X119911904Y-124912380D02*
X119911904Y-123912380D01*
X120292857Y-123912380D01*
X120388095Y-123960000D01*
X120435714Y-124007619D01*
X120483333Y-124102857D01*
X120483333Y-124245714D01*
X120435714Y-124340952D01*
X120388095Y-124388571D01*
X120292857Y-124436190D01*
X119911904Y-124436190D01*
X121340476Y-123912380D02*
X121150000Y-123912380D01*
X121054761Y-123960000D01*
X121007142Y-124007619D01*
X120911904Y-124150476D01*
X120864285Y-124340952D01*
X120864285Y-124721904D01*
X120911904Y-124817142D01*
X120959523Y-124864761D01*
X121054761Y-124912380D01*
X121245238Y-124912380D01*
X121340476Y-124864761D01*
X121388095Y-124817142D01*
X121435714Y-124721904D01*
X121435714Y-124483809D01*
X121388095Y-124388571D01*
X121340476Y-124340952D01*
X121245238Y-124293333D01*
X121054761Y-124293333D01*
X120959523Y-124340952D01*
X120911904Y-124388571D01*
X120864285Y-124483809D01*
%TO.C,R5*%
X138263333Y-120467380D02*
X137930000Y-119991190D01*
X137691904Y-120467380D02*
X137691904Y-119467380D01*
X138072857Y-119467380D01*
X138168095Y-119515000D01*
X138215714Y-119562619D01*
X138263333Y-119657857D01*
X138263333Y-119800714D01*
X138215714Y-119895952D01*
X138168095Y-119943571D01*
X138072857Y-119991190D01*
X137691904Y-119991190D01*
X139168095Y-119467380D02*
X138691904Y-119467380D01*
X138644285Y-119943571D01*
X138691904Y-119895952D01*
X138787142Y-119848333D01*
X139025238Y-119848333D01*
X139120476Y-119895952D01*
X139168095Y-119943571D01*
X139215714Y-120038809D01*
X139215714Y-120276904D01*
X139168095Y-120372142D01*
X139120476Y-120419761D01*
X139025238Y-120467380D01*
X138787142Y-120467380D01*
X138691904Y-120419761D01*
X138644285Y-120372142D01*
%TO.C,R4*%
X128103333Y-117292380D02*
X127770000Y-116816190D01*
X127531904Y-117292380D02*
X127531904Y-116292380D01*
X127912857Y-116292380D01*
X128008095Y-116340000D01*
X128055714Y-116387619D01*
X128103333Y-116482857D01*
X128103333Y-116625714D01*
X128055714Y-116720952D01*
X128008095Y-116768571D01*
X127912857Y-116816190D01*
X127531904Y-116816190D01*
X128960476Y-116625714D02*
X128960476Y-117292380D01*
X128722380Y-116244761D02*
X128484285Y-116959047D01*
X129103333Y-116959047D01*
%TO.C,R3*%
X143343333Y-120467380D02*
X143010000Y-119991190D01*
X142771904Y-120467380D02*
X142771904Y-119467380D01*
X143152857Y-119467380D01*
X143248095Y-119515000D01*
X143295714Y-119562619D01*
X143343333Y-119657857D01*
X143343333Y-119800714D01*
X143295714Y-119895952D01*
X143248095Y-119943571D01*
X143152857Y-119991190D01*
X142771904Y-119991190D01*
X143676666Y-119467380D02*
X144295714Y-119467380D01*
X143962380Y-119848333D01*
X144105238Y-119848333D01*
X144200476Y-119895952D01*
X144248095Y-119943571D01*
X144295714Y-120038809D01*
X144295714Y-120276904D01*
X144248095Y-120372142D01*
X144200476Y-120419761D01*
X144105238Y-120467380D01*
X143819523Y-120467380D01*
X143724285Y-120419761D01*
X143676666Y-120372142D01*
%TO.C,R2*%
X120483333Y-128722380D02*
X120150000Y-128246190D01*
X119911904Y-128722380D02*
X119911904Y-127722380D01*
X120292857Y-127722380D01*
X120388095Y-127770000D01*
X120435714Y-127817619D01*
X120483333Y-127912857D01*
X120483333Y-128055714D01*
X120435714Y-128150952D01*
X120388095Y-128198571D01*
X120292857Y-128246190D01*
X119911904Y-128246190D01*
X120864285Y-127817619D02*
X120911904Y-127770000D01*
X121007142Y-127722380D01*
X121245238Y-127722380D01*
X121340476Y-127770000D01*
X121388095Y-127817619D01*
X121435714Y-127912857D01*
X121435714Y-128008095D01*
X121388095Y-128150952D01*
X120816666Y-128722380D01*
X121435714Y-128722380D01*
%TO.C,R1*%
X120483333Y-132532380D02*
X120150000Y-132056190D01*
X119911904Y-132532380D02*
X119911904Y-131532380D01*
X120292857Y-131532380D01*
X120388095Y-131580000D01*
X120435714Y-131627619D01*
X120483333Y-131722857D01*
X120483333Y-131865714D01*
X120435714Y-131960952D01*
X120388095Y-132008571D01*
X120292857Y-132056190D01*
X119911904Y-132056190D01*
X121435714Y-132532380D02*
X120864285Y-132532380D01*
X121150000Y-132532380D02*
X121150000Y-131532380D01*
X121054761Y-131675238D01*
X120959523Y-131770476D01*
X120864285Y-131818095D01*
%TO.C,J2*%
X135556666Y-78402380D02*
X135556666Y-79116666D01*
X135509047Y-79259523D01*
X135413809Y-79354761D01*
X135270952Y-79402380D01*
X135175714Y-79402380D01*
X135985238Y-78497619D02*
X136032857Y-78450000D01*
X136128095Y-78402380D01*
X136366190Y-78402380D01*
X136461428Y-78450000D01*
X136509047Y-78497619D01*
X136556666Y-78592857D01*
X136556666Y-78688095D01*
X136509047Y-78830952D01*
X135937619Y-79402380D01*
X136556666Y-79402380D01*
%TO.C,C4*%
X141057333Y-96012142D02*
X141009714Y-96059761D01*
X140866857Y-96107380D01*
X140771619Y-96107380D01*
X140628761Y-96059761D01*
X140533523Y-95964523D01*
X140485904Y-95869285D01*
X140438285Y-95678809D01*
X140438285Y-95535952D01*
X140485904Y-95345476D01*
X140533523Y-95250238D01*
X140628761Y-95155000D01*
X140771619Y-95107380D01*
X140866857Y-95107380D01*
X141009714Y-95155000D01*
X141057333Y-95202619D01*
X141914476Y-95440714D02*
X141914476Y-96107380D01*
X141676380Y-95059761D02*
X141438285Y-95774047D01*
X142057333Y-95774047D01*
%TO.C,C3*%
X133183333Y-112117142D02*
X133135714Y-112164761D01*
X132992857Y-112212380D01*
X132897619Y-112212380D01*
X132754761Y-112164761D01*
X132659523Y-112069523D01*
X132611904Y-111974285D01*
X132564285Y-111783809D01*
X132564285Y-111640952D01*
X132611904Y-111450476D01*
X132659523Y-111355238D01*
X132754761Y-111260000D01*
X132897619Y-111212380D01*
X132992857Y-111212380D01*
X133135714Y-111260000D01*
X133183333Y-111307619D01*
X133516666Y-111212380D02*
X134135714Y-111212380D01*
X133802380Y-111593333D01*
X133945238Y-111593333D01*
X134040476Y-111640952D01*
X134088095Y-111688571D01*
X134135714Y-111783809D01*
X134135714Y-112021904D01*
X134088095Y-112117142D01*
X134040476Y-112164761D01*
X133945238Y-112212380D01*
X133659523Y-112212380D01*
X133564285Y-112164761D01*
X133516666Y-112117142D01*
%TO.C,C2*%
X147788333Y-112117142D02*
X147740714Y-112164761D01*
X147597857Y-112212380D01*
X147502619Y-112212380D01*
X147359761Y-112164761D01*
X147264523Y-112069523D01*
X147216904Y-111974285D01*
X147169285Y-111783809D01*
X147169285Y-111640952D01*
X147216904Y-111450476D01*
X147264523Y-111355238D01*
X147359761Y-111260000D01*
X147502619Y-111212380D01*
X147597857Y-111212380D01*
X147740714Y-111260000D01*
X147788333Y-111307619D01*
X148169285Y-111307619D02*
X148216904Y-111260000D01*
X148312142Y-111212380D01*
X148550238Y-111212380D01*
X148645476Y-111260000D01*
X148693095Y-111307619D01*
X148740714Y-111402857D01*
X148740714Y-111498095D01*
X148693095Y-111640952D01*
X148121666Y-112212380D01*
X148740714Y-112212380D01*
%TO.C,C1*%
X135723333Y-133707142D02*
X135675714Y-133754761D01*
X135532857Y-133802380D01*
X135437619Y-133802380D01*
X135294761Y-133754761D01*
X135199523Y-133659523D01*
X135151904Y-133564285D01*
X135104285Y-133373809D01*
X135104285Y-133230952D01*
X135151904Y-133040476D01*
X135199523Y-132945238D01*
X135294761Y-132850000D01*
X135437619Y-132802380D01*
X135532857Y-132802380D01*
X135675714Y-132850000D01*
X135723333Y-132897619D01*
X136675714Y-133802380D02*
X136104285Y-133802380D01*
X136390000Y-133802380D02*
X136390000Y-132802380D01*
X136294761Y-132945238D01*
X136199523Y-133040476D01*
X136104285Y-133088095D01*
%TD*%
M02*
