%TF.GenerationSoftware,KiCad,Pcbnew,(5.1.6)-1*%
%TF.CreationDate,2020-07-04T17:27:32+02:00*%
%TF.ProjectId,MP0002 Instrumentation Amplifier,4d503030-3032-4204-996e-737472756d65,1.0*%
%TF.SameCoordinates,Original*%
%TF.FileFunction,Paste,Top*%
%TF.FilePolarity,Positive*%
%FSLAX46Y46*%
G04 Gerber Fmt 4.6, Leading zero omitted, Abs format (unit mm)*
G04 Created by KiCad (PCBNEW (5.1.6)-1) date 2020-07-04 17:27:32*
%MOMM*%
%LPD*%
G01*
G04 APERTURE LIST*
%ADD10R,1.550000X0.600000*%
%ADD11R,0.400000X0.900000*%
%ADD12R,0.900000X0.400000*%
%ADD13C,0.100000*%
%ADD14R,0.800000X0.750000*%
%ADD15R,0.750000X0.800000*%
G04 APERTURE END LIST*
D10*
%TO.C,U3*%
X125570000Y-106045000D03*
X125570000Y-107315000D03*
X125570000Y-108585000D03*
X125570000Y-109855000D03*
X130970000Y-109855000D03*
X130970000Y-108585000D03*
X130970000Y-107315000D03*
X130970000Y-106045000D03*
%TD*%
%TO.C,U4*%
X133190000Y-95885000D03*
X133190000Y-97155000D03*
X133190000Y-98425000D03*
X133190000Y-99695000D03*
X138590000Y-99695000D03*
X138590000Y-98425000D03*
X138590000Y-97155000D03*
X138590000Y-95885000D03*
%TD*%
%TO.C,U2*%
X140810000Y-106045000D03*
X140810000Y-107315000D03*
X140810000Y-108585000D03*
X140810000Y-109855000D03*
X146210000Y-109855000D03*
X146210000Y-108585000D03*
X146210000Y-107315000D03*
X146210000Y-106045000D03*
%TD*%
D11*
%TO.C,RN2*%
X128670000Y-100750000D03*
X127870000Y-100750000D03*
X129470000Y-100750000D03*
X127070000Y-100750000D03*
X129470000Y-102450000D03*
X128670000Y-102450000D03*
X127870000Y-102450000D03*
X127070000Y-102450000D03*
%TD*%
D12*
%TO.C,RN1*%
X136740000Y-104540000D03*
X136740000Y-103740000D03*
X136740000Y-105340000D03*
X136740000Y-102940000D03*
X135040000Y-105340000D03*
X135040000Y-104540000D03*
X135040000Y-103740000D03*
X135040000Y-102940000D03*
%TD*%
D13*
%TO.C,R7*%
G36*
X124028200Y-121848880D02*
G01*
X124028200Y-119451120D01*
X127528320Y-119849900D01*
X127528320Y-121450100D01*
X124028200Y-121848880D01*
G37*
G36*
X132354320Y-119451120D02*
G01*
X132354320Y-121848880D01*
X128854200Y-121450100D01*
X128854200Y-119849900D01*
X132354320Y-119451120D01*
G37*
%TD*%
%TO.C,R6*%
G36*
X132354320Y-123261120D02*
G01*
X132354320Y-125658880D01*
X128854200Y-125260100D01*
X128854200Y-123659900D01*
X132354320Y-123261120D01*
G37*
G36*
X124028200Y-125658880D02*
G01*
X124028200Y-123261120D01*
X127528320Y-123659900D01*
X127528320Y-125260100D01*
X124028200Y-125658880D01*
G37*
%TD*%
%TO.C,R5*%
G36*
X137231120Y-122915680D02*
G01*
X139628880Y-122915680D01*
X139230100Y-126415800D01*
X137629900Y-126415800D01*
X137231120Y-122915680D01*
G37*
G36*
X139628880Y-131241800D02*
G01*
X137231120Y-131241800D01*
X137629900Y-127741680D01*
X139230100Y-127741680D01*
X139628880Y-131241800D01*
G37*
%TD*%
%TO.C,R4*%
G36*
X140053060Y-115641120D02*
G01*
X140053060Y-118038880D01*
X136552940Y-117640100D01*
X136552940Y-116039900D01*
X140053060Y-115641120D01*
G37*
G36*
X131726940Y-118038880D02*
G01*
X131726940Y-115641120D01*
X135227060Y-116039900D01*
X135227060Y-117640100D01*
X131726940Y-118038880D01*
G37*
%TD*%
%TO.C,R3*%
G36*
X142311120Y-122915680D02*
G01*
X144708880Y-122915680D01*
X144310100Y-126415800D01*
X142709900Y-126415800D01*
X142311120Y-122915680D01*
G37*
G36*
X144708880Y-131241800D02*
G01*
X142311120Y-131241800D01*
X142709900Y-127741680D01*
X144310100Y-127741680D01*
X144708880Y-131241800D01*
G37*
%TD*%
%TO.C,R2*%
G36*
X132354320Y-127071120D02*
G01*
X132354320Y-129468880D01*
X128854200Y-129070100D01*
X128854200Y-127469900D01*
X132354320Y-127071120D01*
G37*
G36*
X124028200Y-129468880D02*
G01*
X124028200Y-127071120D01*
X127528320Y-127469900D01*
X127528320Y-129070100D01*
X124028200Y-129468880D01*
G37*
%TD*%
%TO.C,R1*%
G36*
X132511800Y-130881120D02*
G01*
X132511800Y-133278880D01*
X129011680Y-132880100D01*
X129011680Y-131279900D01*
X132511800Y-130881120D01*
G37*
G36*
X124185680Y-133278880D02*
G01*
X124185680Y-130881120D01*
X127685800Y-131279900D01*
X127685800Y-132880100D01*
X124185680Y-133278880D01*
G37*
%TD*%
D14*
%TO.C,C4*%
X141974000Y-97155000D03*
X140474000Y-97155000D03*
%TD*%
D15*
%TO.C,C3*%
X133223000Y-105803000D03*
X133223000Y-107303000D03*
%TD*%
%TO.C,C2*%
X148209000Y-108700000D03*
X148209000Y-107200000D03*
%TD*%
D14*
%TO.C,C1*%
X137402000Y-134874000D03*
X135902000Y-134874000D03*
%TD*%
M02*
