M48
; DRILL file {KiCad (5.1.6)-1} date 07/04/20 17:27:28
; FORMAT={-:-/ absolute / metric / decimal}
; #@! TF.CreationDate,2020-07-04T17:27:28+02:00
; #@! TF.GenerationSoftware,Kicad,Pcbnew,(5.1.6)-1
; #@! TF.FileFunction,Plated,1,2,PTH
FMAT,2
METRIC
T1C0.400
T2C0.800
T3C1.000
T4C1.001
%
G90
G05
T1
X122.825Y-109.855
X124.46Y-138.43
X124.968Y-114.554
X125.73Y-100.33
X125.984Y-134.874
X128.27Y-139.446
X128.524Y-114.554
X128.651Y-99.441
X130.683Y-100.711
X130.805Y-138.679
X130.81Y-102.108
X130.81Y-103.505
X130.81Y-104.775
X130.81Y-126.492
X130.81Y-147.066
X131.5Y-148.082
X132.08Y-113.284
X132.08Y-134.62
X133.35Y-101.092
X133.35Y-104.648
X134.112Y-109.728
X134.62Y-106.68
X135.382Y-123.698
X135.382Y-128.27
X135.89Y-92.964
X135.89Y-141.224
X136.271Y-101.346
X138.43Y-114.046
X138.648Y-104.358
X138.684Y-102.108
X138.811Y-107.061
X138.938Y-134.874
X139.954Y-141.224
X140.97Y-134.874
X141.478Y-103.124
X141.732Y-98.806
X142.24Y-112.014
X142.494Y-108.712
X143.256Y-97.028
X145.288Y-139.7
X146.05Y-112.014
X146.812Y-132.08
X147.32Y-99.06
X147.32Y-104.14
X148.184Y-110.109
X148.336Y-139.446
X150.876Y-137.668
X151.384Y-113.03
X151.384Y-132.08
T2
X128.27Y-137.16
X128.27Y-144.78
X130.81Y-137.16
X130.81Y-144.78
X133.35Y-137.16
X133.35Y-144.78
X135.89Y-137.16
X135.89Y-144.78
X138.43Y-137.16
X138.43Y-144.78
X140.97Y-137.16
X140.97Y-144.78
X143.51Y-137.16
X143.51Y-144.78
X132.08Y-81.28
X132.08Y-83.82
X132.08Y-86.36
X132.08Y-88.9
X139.7Y-81.28
X139.7Y-83.82
X139.7Y-86.36
X139.7Y-88.9
T3
X152.4Y-142.24
X152.4Y-144.78
X139.7Y-76.2
X152.4Y-101.6
X152.4Y-104.14
X152.4Y-106.68
X152.4Y-109.22
X127.0Y-152.4
X129.54Y-152.4
X132.08Y-152.4
X134.62Y-152.4
X137.16Y-152.4
X139.7Y-152.4
X142.24Y-152.4
X144.78Y-152.4
X119.38Y-101.6
X119.38Y-104.14
X119.38Y-106.68
X119.38Y-109.22
X132.08Y-76.2
X119.38Y-142.24
X119.38Y-144.78
T4
X130.889Y-116.84
X140.891Y-116.84
X138.43Y-122.077
X138.43Y-132.08
X143.51Y-122.077
X143.51Y-132.08
X123.19Y-124.46
X133.193Y-124.46
X123.19Y-128.27
X133.193Y-128.27
X123.19Y-120.65
X133.193Y-120.65
X123.347Y-132.08
X133.35Y-132.08
T0
M30
